<svg xmlns="http://www.w3.org/2000/svg" xmlns:xlink="http://www.w3.org/1999/xlink" width="680.554" height="651.427" viewBox="0 0 680.554 651.427">
  <defs>
    <linearGradient id="linear-gradient" x1="23.057" y1="0.5" x2="24.057" y2="0.5" gradientUnits="objectBoundingBox">
      <stop offset="0" stop-color="#2f054a"/>
      <stop offset="1" stop-color="#5824b0"/>
    </linearGradient>
    <linearGradient id="linear-gradient-2" x1="23.189" y1="0.5" x2="24.189" y2="0.5" gradientUnits="objectBoundingBox">
      <stop offset="0.06" stop-color="#2f0d5e"/>
      <stop offset="0.28" stop-color="#2f105f"/>
      <stop offset="0.47" stop-color="#311b61"/>
      <stop offset="0.48" stop-color="#351f65"/>
      <stop offset="0.5" stop-color="#422c73"/>
      <stop offset="0.51" stop-color="#584188"/>
      <stop offset="0.52" stop-color="#765fa7"/>
      <stop offset="0.53" stop-color="#8770b8"/>
      <stop offset="0.54" stop-color="#7e67ae"/>
      <stop offset="0.56" stop-color="#5c468d"/>
      <stop offset="0.59" stop-color="#442e75"/>
      <stop offset="0.61" stop-color="#362066"/>
      <stop offset="0.63" stop-color="#311b61"/>
      <stop offset="0.67" stop-color="#2a1155"/>
      <stop offset="0.75" stop-color="#230446"/>
      <stop offset="0.81" stop-color="#200041"/>
      <stop offset="1" stop-color="#200041"/>
    </linearGradient>
    <linearGradient id="linear-gradient-3" x1="23.057" y1="0.5" x2="24.057" y2="0.5" gradientUnits="objectBoundingBox">
      <stop offset="0" stop-color="#58098a"/>
      <stop offset="1" stop-color="#9e3bdb"/>
    </linearGradient>
    <linearGradient id="linear-gradient-4" x1="-0.2" y1="0.5" x2="0.8" y2="0.5" xlink:href="#linear-gradient-2"/>
    <radialGradient id="radial-gradient" cx="0.433" cy="0.549" r="0.963" gradientTransform="translate(0.303) scale(0.395 1)" gradientUnits="objectBoundingBox">
      <stop offset="0" stop-color="#fff"/>
      <stop offset="1"/>
    </radialGradient>
    <linearGradient id="linear-gradient-5" x1="23.527" y1="0.5" x2="24.527" y2="0.5" gradientUnits="objectBoundingBox">
      <stop offset="0" stop-color="#2f054a"/>
      <stop offset="1" stop-color="#5e1d9a"/>
    </linearGradient>
    <linearGradient id="linear-gradient-6" x1="0.554" y1="0.03" x2="0.366" y2="1.666" gradientUnits="objectBoundingBox">
      <stop offset="0.01" stop-color="#9f19ab"/>
      <stop offset="0.43" stop-color="#5f27bd"/>
      <stop offset="0.9" stop-color="#3d065f"/>
    </linearGradient>
    <linearGradient id="linear-gradient-7" x1="759.893" y1="-109.106" x2="761.105" y2="-109.106" gradientUnits="objectBoundingBox">
      <stop offset="0" stop-color="#3d065f"/>
      <stop offset="1" stop-color="#5f27bd"/>
    </linearGradient>
    <linearGradient id="linear-gradient-8" x1="759.893" y1="-109.106" x2="761.105" y2="-109.106" xlink:href="#linear-gradient"/>
    <linearGradient id="linear-gradient-9" x1="827.956" y1="-115.878" x2="827.41" y2="-114.663" gradientUnits="objectBoundingBox">
      <stop offset="0.06" stop-color="#9f79b8"/>
      <stop offset="0.26" stop-color="#a17bba"/>
      <stop offset="0.36" stop-color="#a783bf"/>
      <stop offset="0.43" stop-color="#b290c9"/>
      <stop offset="0.49" stop-color="#c1a1d5"/>
      <stop offset="0.51" stop-color="#c4a5d7"/>
      <stop offset="0.52" stop-color="#cdb3dd"/>
      <stop offset="0.53" stop-color="#dbc8e7"/>
      <stop offset="0.55" stop-color="#efe7f4"/>
      <stop offset="0.56" stop-color="#fff"/>
      <stop offset="0.57" stop-color="#ece0f3"/>
      <stop offset="0.58" stop-color="#ddc8ea"/>
      <stop offset="0.59" stop-color="#d4b9e5"/>
      <stop offset="0.6" stop-color="#d1b4e3"/>
      <stop offset="0.66" stop-color="#b395d6"/>
      <stop offset="0.72" stop-color="#9c7dcb"/>
      <stop offset="0.77" stop-color="#8e6ec5"/>
      <stop offset="0.81" stop-color="#8969c3"/>
      <stop offset="1" stop-color="#b086cc"/>
    </linearGradient>
    <linearGradient id="linear-gradient-10" x1="761.895" y1="-109.683" x2="763.105" y2="-109.683" xlink:href="#linear-gradient-7"/>
    <linearGradient id="linear-gradient-11" x1="761.895" y1="-109.683" x2="763.105" y2="-109.683" xlink:href="#linear-gradient"/>
    <linearGradient id="linear-gradient-12" x1="827.4" y1="-116.161" x2="826.855" y2="-114.947" xlink:href="#linear-gradient-9"/>
    <linearGradient id="linear-gradient-13" x1="-0.777" y1="1.015" x2="-1.307" y2="0.011" gradientUnits="objectBoundingBox">
      <stop offset="0" stop-color="#1e1f21"/>
      <stop offset="0.08" stop-color="#2c2e30"/>
      <stop offset="0.22" stop-color="#515359"/>
      <stop offset="0.27" stop-color="#5d6066"/>
      <stop offset="0.61" stop-color="#37383c"/>
    </linearGradient>
    <linearGradient id="linear-gradient-14" x1="-2.257" y1="0.5" x2="-1.257" y2="0.5" gradientUnits="objectBoundingBox">
      <stop offset="0" stop-color="#484b4f"/>
      <stop offset="1" stop-color="#1e1f21"/>
    </linearGradient>
    <linearGradient id="linear-gradient-15" x1="-4.84" y1="0.501" x2="-3.84" y2="0.501" gradientUnits="objectBoundingBox">
      <stop offset="0" stop-color="#d4d1d8"/>
      <stop offset="0.85" stop-color="#a5a6b9"/>
      <stop offset="1" stop-color="#9d9eb3"/>
    </linearGradient>
    <radialGradient id="radial-gradient-2" cx="0.501" cy="0.499" r="0.474" gradientTransform="matrix(-1.123, 0, 0, 1, -4.108, 0)" xlink:href="#radial-gradient"/>
    <linearGradient id="linear-gradient-16" x1="-9.395" y1="1.016" x2="-9.924" y2="0.011" xlink:href="#linear-gradient-13"/>
    <linearGradient id="linear-gradient-17" x1="-12.351" y1="0.5" x2="-11.352" y2="0.5" xlink:href="#linear-gradient-14"/>
    <linearGradient id="linear-gradient-18" x1="-26.492" y1="0.499" x2="-25.492" y2="0.499" xlink:href="#linear-gradient-15"/>
    <radialGradient id="radial-gradient-3" cx="0.501" cy="0.499" r="0.473" gradientTransform="matrix(-1.124, 0, 0, 1, -29.555, 0)" xlink:href="#radial-gradient"/>
    <linearGradient id="linear-gradient-19" x1="7.621" y1="1.015" x2="7.091" y2="0.012" xlink:href="#linear-gradient-13"/>
    <linearGradient id="linear-gradient-20" x1="7.581" y1="0.502" x2="8.58" y2="0.502" xlink:href="#linear-gradient-14"/>
    <linearGradient id="linear-gradient-21" x1="16.261" y1="0.501" x2="17.261" y2="0.501" xlink:href="#linear-gradient-15"/>
    <radialGradient id="radial-gradient-4" cx="0.501" cy="0.499" r="0.474" gradientTransform="matrix(-1.122, 0, 0, 1, 20.671, 0)" xlink:href="#radial-gradient"/>
    <linearGradient id="linear-gradient-22" y1="0.5" x2="1" y2="0.5" gradientUnits="objectBoundingBox">
      <stop offset="0.03" stop-color="#c7bcd6"/>
      <stop offset="0.3" stop-color="#e2e2e6"/>
      <stop offset="0.33" stop-color="#e6e7e8"/>
      <stop offset="0.43" stop-color="#dcdae2"/>
      <stop offset="0.59" stop-color="#d0c9db"/>
      <stop offset="0.77" stop-color="#c9bfd7"/>
      <stop offset="1" stop-color="#c7bcd6"/>
    </linearGradient>
    <linearGradient id="linear-gradient-23" x1="0" y1="0.5" x2="1" y2="0.5" xlink:href="#linear-gradient-22"/>
    <linearGradient id="linear-gradient-24" x1="0" y1="0.5" x2="1" y2="0.5" xlink:href="#linear-gradient-22"/>
    <linearGradient id="linear-gradient-25" x1="0" y1="0.5" x2="1" y2="0.5" xlink:href="#linear-gradient-22"/>
    <linearGradient id="linear-gradient-33" x1="0" y1="0.5" x2="1" y2="0.5" xlink:href="#linear-gradient-22"/>
    <linearGradient id="linear-gradient-35" x1="-1.236" y1="0.904" x2="-1.847" y2="0.028" xlink:href="#linear-gradient-13"/>
    <linearGradient id="linear-gradient-36" x1="-2.846" y1="0.499" x2="-1.845" y2="0.499" xlink:href="#linear-gradient-14"/>
    <linearGradient id="linear-gradient-37" x1="-4.182" y1="0.5" x2="-3.473" y2="0.5" xlink:href="#linear-gradient-15"/>
    <radialGradient id="radial-gradient-5" cx="0.5" cy="0.499" r="0.424" gradientTransform="matrix(-1.512, 0, 0, 1, -6.615, 0)" xlink:href="#radial-gradient"/>
    <linearGradient id="linear-gradient-38" y1="0.5" x2="1" y2="0.5" gradientUnits="objectBoundingBox">
      <stop offset="0.03" stop-color="#b82cb4"/>
      <stop offset="1" stop-color="#d644bf"/>
    </linearGradient>
    <linearGradient id="linear-gradient-39" x1="7.414" y1="0.904" x2="6.803" y2="0.029" xlink:href="#linear-gradient-13"/>
    <linearGradient id="linear-gradient-40" x1="7.316" y1="0.5" x2="8.316" y2="0.5" xlink:href="#linear-gradient-14"/>
    <linearGradient id="linear-gradient-41" x1="15.677" y1="0.501" x2="16.677" y2="0.501" xlink:href="#linear-gradient-15"/>
    <radialGradient id="radial-gradient-6" cx="0.5" cy="0.499" r="0.424" gradientTransform="matrix(-1.512, 0, 0, 1, 23.686, 0)" xlink:href="#radial-gradient"/>
    <linearGradient id="linear-gradient-43" x1="0.74" y1="0.487" x2="0.29" y2="0.511" xlink:href="#linear-gradient-22"/>
    <linearGradient id="linear-gradient-44" x1="0.755" y1="0.486" x2="0.25" y2="0.513" xlink:href="#linear-gradient-22"/>
    <linearGradient id="linear-gradient-45" x1="0.755" y1="0.486" x2="0.245" y2="0.514" xlink:href="#linear-gradient-22"/>
    <linearGradient id="linear-gradient-48" x1="0.75" y1="0.486" x2="0.245" y2="0.514" xlink:href="#linear-gradient-22"/>
    <linearGradient id="linear-gradient-52" x1="0.482" y1="0.325" x2="0.518" y2="0.67" xlink:href="#linear-gradient-22"/>
    <linearGradient id="linear-gradient-53" x1="0.482" y1="0.325" x2="0.518" y2="0.68" xlink:href="#linear-gradient-22"/>
    <linearGradient id="linear-gradient-54" x1="0.482" y1="0.325" x2="0.518" y2="0.675" xlink:href="#linear-gradient-22"/>
    <linearGradient id="linear-gradient-55" x1="0.482" y1="0.32" x2="0.518" y2="0.675" xlink:href="#linear-gradient-22"/>
    <linearGradient id="linear-gradient-56" x1="0.482" y1="0.325" x2="0.518" y2="0.68" xlink:href="#linear-gradient-22"/>
    <linearGradient id="linear-gradient-60" x1="0.142" y1="-0.217" x2="0.816" y2="1.128" gradientUnits="objectBoundingBox">
      <stop offset="0.03" stop-color="#b82cb4"/>
      <stop offset="0.45" stop-color="#d644bf"/>
      <stop offset="1" stop-color="#ec55c7"/>
    </linearGradient>
    <linearGradient id="linear-gradient-61" x1="-0.735" y1="0.903" x2="-1.346" y2="0.029" xlink:href="#linear-gradient-13"/>
    <linearGradient id="linear-gradient-62" x1="-2.257" y1="0.5" x2="-1.257" y2="0.5" xlink:href="#linear-gradient-14"/>
    <linearGradient id="linear-gradient-63" x1="-4.84" y1="0.494" x2="-3.84" y2="0.494" xlink:href="#linear-gradient-15"/>
    <radialGradient id="radial-gradient-7" cx="0.5" cy="0.5" r="0.424" gradientTransform="matrix(-1.512, 0, 0, 1, -4.868, 0)" xlink:href="#radial-gradient"/>
    <linearGradient id="linear-gradient-64" x1="0" y1="0.5" x2="1" y2="0.5" xlink:href="#linear-gradient-38"/>
    <linearGradient id="linear-gradient-65" x1="-9.378" y1="0.903" x2="-9.988" y2="0.029" xlink:href="#linear-gradient-13"/>
    <linearGradient id="linear-gradient-66" x1="-12.42" y1="0.5" x2="-11.42" y2="0.5" xlink:href="#linear-gradient-14"/>
    <linearGradient id="linear-gradient-67" x1="-26.616" y1="0.499" x2="-25.616" y2="0.499" xlink:href="#linear-gradient-15"/>
    <radialGradient id="radial-gradient-8" cx="0.499" cy="0.5" r="0.424" gradientTransform="matrix(-1.513, 0, 0, 1, -35.221, 0)" xlink:href="#radial-gradient"/>
    <linearGradient id="linear-gradient-70" x1="-2.274" y1="0.593" x2="-2.346" y2="0.394" gradientUnits="objectBoundingBox">
      <stop offset="0.11" stop-color="#ab1fa7"/>
      <stop offset="0.39" stop-color="#d13cbb"/>
      <stop offset="0.64" stop-color="#f558ce"/>
      <stop offset="0.93" stop-color="#d644bf"/>
    </linearGradient>
    <linearGradient id="linear-gradient-71" x1="0.159" y1="0.53" x2="4.51" y2="0.142" xlink:href="#linear-gradient-38"/>
    <radialGradient id="radial-gradient-9" cx="0.503" cy="0.499" r="0.424" gradientTransform="matrix(-1.507, 0, 0, 1, -122.379, 0)" xlink:href="#radial-gradient"/>
    <radialGradient id="radial-gradient-10" cx="1.851" cy="0.469" r="0.971" gradientTransform="matrix(-0.51, -0.506, -0.035, 0.101, 230.015, -192.543)" gradientUnits="objectBoundingBox">
      <stop offset="0" stop-color="#972a74"/>
      <stop offset="0.1" stop-color="#75205a"/>
      <stop offset="0.22" stop-color="#51173e"/>
      <stop offset="0.34" stop-color="#340e28"/>
      <stop offset="0.48" stop-color="#1d0816"/>
      <stop offset="0.62" stop-color="#0d030a"/>
      <stop offset="0.78" stop-color="#030102"/>
      <stop offset="1"/>
    </radialGradient>
    <linearGradient id="linear-gradient-72" x1="-0.628" y1="0.371" x2="3.412" y2="0.74" gradientUnits="objectBoundingBox">
      <stop offset="0.04" stop-color="#138bbd"/>
      <stop offset="0.23" stop-color="#169ac7"/>
      <stop offset="0.59" stop-color="#1fc3df"/>
      <stop offset="1" stop-color="#2af6ff"/>
    </linearGradient>
    <linearGradient id="linear-gradient-73" x1="0.378" y1="0.587" x2="1.468" y2="-0.191" xlink:href="#linear-gradient-72"/>
    <linearGradient id="linear-gradient-74" x1="-0.813" y1="0.042" x2="0.547" y2="0.8" xlink:href="#linear-gradient-72"/>
    <linearGradient id="linear-gradient-75" x1="-0.606" y1="0.374" x2="3.515" y2="0.731" xlink:href="#linear-gradient-72"/>
    <linearGradient id="linear-gradient-76" x1="2.31" y1="0.16" x2="-0.311" y2="0.652" xlink:href="#linear-gradient-72"/>
    <linearGradient id="linear-gradient-77" x1="-0.295" y1="0.348" x2="2.776" y2="0.748" gradientUnits="objectBoundingBox">
      <stop offset="0.04" stop-color="#9f19ab"/>
      <stop offset="0.24" stop-color="#ae25b1"/>
      <stop offset="0.65" stop-color="#d744bf"/>
      <stop offset="1" stop-color="#ff63ce"/>
    </linearGradient>
    <linearGradient id="linear-gradient-78" x1="0.401" y1="0.584" x2="1.244" y2="-0.129" xlink:href="#linear-gradient-77"/>
    <linearGradient id="linear-gradient-79" x1="-0.593" y1="-0.039" x2="0.554" y2="0.8" xlink:href="#linear-gradient-77"/>
    <linearGradient id="linear-gradient-80" x1="-0.198" y1="0.348" x2="2.643" y2="0.747" xlink:href="#linear-gradient-77"/>
    <linearGradient id="linear-gradient-81" x1="2.153" y1="0.141" x2="-0.241" y2="0.661" xlink:href="#linear-gradient-77"/>
    <linearGradient id="linear-gradient-86" x1="0" y1="0.5" x2="1" y2="0.5" xlink:href="#linear-gradient-22"/>
    <radialGradient id="radial-gradient-11" cx="0.542" cy="-5.586" r="6.753" gradientTransform="translate(0.29) scale(0.42 1)" gradientUnits="objectBoundingBox">
      <stop offset="0.29" stop-color="#9f19ab"/>
      <stop offset="0.42" stop-color="#ae25b1"/>
      <stop offset="0.68" stop-color="#d744bf"/>
      <stop offset="0.9" stop-color="#ff63ce"/>
      <stop offset="1" stop-color="#b328b2"/>
    </radialGradient>
    <radialGradient id="radial-gradient-12" cx="0.501" cy="-1.595" r="6.906" gradientTransform="translate(0.377) scale(0.248 1)" xlink:href="#radial-gradient-10"/>
    <radialGradient id="radial-gradient-13" cx="6.873" cy="0.543" r="3.645" gradientTransform="translate(-0.458) scale(1.915 1)" xlink:href="#radial-gradient-11"/>
    <radialGradient id="radial-gradient-14" cx="2.452" cy="0.39" r="2.317" gradientTransform="matrix(2.601, -0.154, 0.406, 0.988, -281.047, 28.543)" xlink:href="#radial-gradient-10"/>
    <radialGradient id="radial-gradient-15" cx="3.098" cy="1.291" r="1.048" gradientTransform="matrix(-0.47, -0.384, -0.06, 0.283, 607.557, -22.451)" gradientUnits="objectBoundingBox">
      <stop offset="0" stop-color="#ff9ce0"/>
      <stop offset="0.02" stop-color="#f797d9"/>
      <stop offset="0.13" stop-color="#be74a7"/>
      <stop offset="0.25" stop-color="#8b557a"/>
      <stop offset="0.37" stop-color="#603b55"/>
      <stop offset="0.49" stop-color="#3e2636"/>
      <stop offset="0.62" stop-color="#23151e"/>
      <stop offset="0.74" stop-color="#0f090d"/>
      <stop offset="0.87" stop-color="#040203"/>
      <stop offset="1"/>
    </radialGradient>
    <radialGradient id="radial-gradient-16" cx="0.681" cy="0.321" r="1.527" gradientTransform="translate(0.233) scale(0.533 1)" xlink:href="#radial-gradient"/>
    <radialGradient id="radial-gradient-17" cx="0.853" cy="0.109" r="1.175" gradientTransform="translate(0.221) scale(0.558 1)" xlink:href="#radial-gradient"/>
    <linearGradient id="linear-gradient-102" x1="0.712" y1="1.242" x2="0.24" y2="-0.411" xlink:href="#linear-gradient-72"/>
    <linearGradient id="linear-gradient-103" x1="0.071" y1="-0.004" x2="1.387" y2="1.438" xlink:href="#linear-gradient-72"/>
    <radialGradient id="radial-gradient-18" cx="0.589" cy="0.55" r="0.834" gradientTransform="translate(0.266) scale(0.468 1)" xlink:href="#radial-gradient"/>
  </defs>
  <g id="app" transform="translate(-81.999 -6.339)" style="isolation: isolate">
    <g id="Camada_2" data-name="Camada 2" transform="translate(81.999 6.339)">
      <g id="Layer_1" data-name="Layer 1" transform="translate(0 0)">
        <g id="Grupo_10650" data-name="Grupo 10650" transform="translate(0 244.966)" opacity="0.2">
          <path id="Caminho_5312" data-name="Caminho 5312" d="M273.017,520.677a58.133,58.133,0,0,0,29.067-7l404.794-233c10.6-6.118,16.676-15.792,16.676-26.5,0-11.795-7.311-22.794-20.077-30.149L528.987,123.216a71.562,71.562,0,0,0-35.34-8.967,58.045,58.045,0,0,0-29.045,7L59.72,354.205C49.14,360.323,43,369.931,43,380.754c0,11.795,7.311,22.794,20.077,30.149L237.567,511.71a71.541,71.541,0,0,0,35.45,8.967Z" transform="translate(-43 -114.233)" opacity="0"/>
          <path id="Caminho_5313" data-name="Caminho 5313" d="M464.227,121.416,59.411,354.437c-10.182,5.875-15.947,15.108-15.881,25.334,0,11.154,7.046,21.624,19.282,28.714l166.759,96.279c.265.155,8.415,4.815,8.835,4.9a69.486,69.486,0,0,0,35.516,7.951,62.241,62.241,0,0,0,28.714-7.642l402.342-231.74c10.182-5.875,15.947-15.108,15.9-25.334,0-11.176-7.068-21.623-19.3-28.713L528.059,124A71.916,71.916,0,0,0,515.2,118.28a75.449,75.449,0,0,0-22.087-3.622,56.941,56.941,0,0,0-28.89,6.759Z" transform="translate(-42.36 -113.758)" opacity="0.09"/>
          <path id="Caminho_5314" data-name="Caminho 5314" d="M463.968,121.575,59.174,354.618C49.411,360.25,44,368.953,44,378.737c0,10.558,6.8,20.475,18.531,27.256l167.532,96.72c.53.309,8.194,4.638,8.835,4.837a67.5,67.5,0,0,0,35.715,6.936c9.078,0,21.756-4.55,28.25-8.283L703.239,275.766c9.763-5.632,15.218-14.423,15.13-24.119-.11-10.558-6.8-20.475-18.531-27.256L527.314,124.8a81.433,81.433,0,0,0-12.722-5.831,75.34,75.34,0,0,0-21.866-3.865,55.616,55.616,0,0,0-28.758,6.472Z" transform="translate(-41.791 -113.254)" opacity="0.18"/>
          <path id="Caminho_5315" data-name="Caminho 5315" d="M463.7,121.874l-404.838,233c-9.365,5.389-14.489,13.716-14.357,22.882.155,9.939,6.626,19.348,17.67,25.82l168.305,97.184c.817.464,8,4.417,8.835,4.749a65.357,65.357,0,0,0,35.958,5.919c8.062,0,22.087-5.61,27.83-8.835L701.422,273.349c9.343-5.411,14.489-13.738,14.335-22.9-.133-9.939-6.626-19.326-17.67-25.8L526.534,125.54a99.4,99.4,0,0,0-12.568-5.9,74.655,74.655,0,0,0-21.668-4.152,54.578,54.578,0,0,0-28.6,6.383Z" transform="translate(-41.188 -112.802)" opacity="0.27"/>
          <path id="Caminho_5316" data-name="Caminho 5316" d="M463.4,122.005,58.585,355c-8.835,5.168-13.76,13.054-13.562,21.668.2,9.343,6.273,18.2,16.963,24.3l169.122,97.626c1.06.618,7.753,4.307,8.99,4.682a63.634,63.634,0,0,0,36.2,4.925c7.046,0,22.352-6.626,27.41-9.608l395.87-227.83c8.835-5.146,13.76-13.031,13.562-21.668-.2-9.321-6.273-18.178-16.963-24.3L525.753,126.4a117.814,117.814,0,0,0-12.457-5.986A73.97,73.97,0,0,0,491.849,116a53.34,53.34,0,0,0-28.448,6.008Z" transform="translate(-40.562 -112.248)" opacity="0.36"/>
          <path id="Caminho_5317" data-name="Caminho 5317" d="M463.107,122.288,58.314,355.221c-8.5,4.9-13.032,12.347-12.789,20.453.243,8.7,6.008,17.029,16.19,22.9l169.9,98.09a97.559,97.559,0,0,0,9.1,4.616,61.4,61.4,0,0,0,36.4,3.909c6.052,0,22.684-7.753,27.013-10.248l393.64-226.593c8.5-4.9,13.031-12.347,12.789-20.431-.243-8.724-6.008-17.051-16.19-22.927l-169.387-97.8c-2.209-1.259-9.829-5.168-12.3-6.074a73.44,73.44,0,0,0-21.248-4.682,52.1,52.1,0,0,0-28.316,5.853Z" transform="translate(-39.959 -111.758)" opacity="0.45"/>
          <path id="Caminho_5318" data-name="Caminho 5318" d="M462.838,122.407,58.044,355.428c-8.106,4.66-12.325,11.662-12.015,19.216.287,8.084,5.743,15.9,15.461,21.469l170.669,98.553a80.634,80.634,0,0,0,9.188,4.528,59.636,59.636,0,0,0,36.554,2.893c5.036,0,22.993-8.835,26.5-10.911l391.409-225.29c8.106-4.66,12.3-11.662,12.016-19.216-.309-8.106-5.743-15.9-15.461-21.469L524.02,128.017c-1.811-1.038-10.094-5.389-12.17-6.184a74.06,74.06,0,0,0-21.027-4.948,51.375,51.375,0,0,0-27.985,5.522Z" transform="translate(-39.358 -111.259)" opacity="0.55"/>
          <path id="Caminho_5319" data-name="Caminho 5319" d="M462.568,122.593l-404.816,233c-7.664,4.417-11.574,11.044-11.22,18,.331,7.488,5.478,14.754,14.622,20.033l171.486,99a71.549,71.549,0,0,0,9.255,4.417c11.861,4.616,26.129,5.389,36.864,1.877,4.042,0,23.324-9.873,26.2-11.552L694.131,263.355c7.686-4.417,11.6-11.044,11.242-18-.353-7.466-5.5-14.754-14.644-20.033L523.419,128.777c-1.436-.839-10.381-5.632-12.015-6.273a72.888,72.888,0,0,0-20.828-5.213C480.15,116.541,469.967,118.308,462.568,122.593Z" transform="translate(-38.757 -110.738)" opacity="0.64"/>
          <path id="Caminho_5320" data-name="Caminho 5320" d="M462.244,122.786,57.494,355.807c-7.267,4.2-10.845,10.271-10.469,16.786.42,6.847,5.235,13.584,13.871,18.575l172.281,99.393a60.4,60.4,0,0,0,9.365,4.417c12.1,4.417,26.637,4.9,37.084.883,3.026,0,23.611-11.044,25.776-12.192L692.327,260.942c7.267-4.2,10.867-10.293,10.469-16.786-.4-6.847-5.235-13.606-13.871-18.575L522.674,129.611c-1.1-.641-10.668-5.875-11.905-6.361a72.889,72.889,0,0,0-20.608-5.5C479.913,116.889,469.643,118.567,462.244,122.786Z" transform="translate(-38.168 -110.246)" opacity="0.73"/>
          <path id="Caminho_5321" data-name="Caminho 5321" d="M462.022,122.985l-404.794,233c-6.847,3.954-10.138,9.608-9.7,15.572s4.97,12.457,13.1,17.14l173.032,99.9a55.613,55.613,0,0,0,9.453,4.285c12.391,4.307,27.145,4.417,37.328-.132,2.01,0,23.921-12.016,25.356-12.855L690.515,258.468c6.847-3.954,10.138-9.608,9.7-15.461s-4.97-12.457-13.1-17.14L521.9,130.494c-.729-.42-10.933-6.118-11.75-6.449a71.717,71.717,0,0,0-20.409-5.765C479.493,117.2,469.288,118.788,462.022,122.985Z" transform="translate(-37.57 -109.738)" opacity="0.82"/>
          <path id="Caminho_5322" data-name="Caminho 5322" d="M461.775,123.264l-404.9,232.91c-6.427,3.711-9.387,8.835-8.835,14.335s4.7,11.309,12.325,15.7l173.8,100.343a50.453,50.453,0,0,0,9.564,4.219c12.634,4.152,27.653,3.887,37.548-1.148,1.016,0,24.3-13.076,24.959-13.5L688.722,255.986c6.427-3.711,9.409-8.835,8.835-14.357s-4.727-11.287-12.325-15.682l-164.086-94.71c-.353-.2-11.22-6.361-11.618-6.626a72.335,72.335,0,0,0-20.188-6.03C479.18,117.632,468.953,119.111,461.775,123.264Z" transform="translate(-36.992 -109.31)" opacity="0.91"/>
          <path id="Caminho_5323" data-name="Caminho 5323" d="M282.1,486.609,686.895,253.588c12.148-7,10.624-19.26-3.4-27.366l-174.6-100.806c-14.048-8.106-35.34-8.967-47.4-1.966l-404.816,233c-12.148,7.024-10.624,19.282,3.4,27.366L234.7,484.643C248.727,492.727,269.953,493.611,282.1,486.609Z" transform="translate(-36.38 -108.811)"/>
        </g>
        <path id="Caminho_5324" data-name="Caminho 5324" d="M224.416,487.728,61.169,393.482c-18.4-10.624-16.1-29.2,5.168-41.48L450.192,130.378c21.27-12.281,53.429-13.606,71.85-2.982l163.225,94.246c18.421,10.646,16.124,29.221-5.146,41.48L296.266,484.746C275,497.027,242.837,498.352,224.416,487.728Z" transform="translate(-36.055 137.973)" fill="url(#linear-gradient)"/>
        <path id="Caminho_5325" data-name="Caminho 5325" d="M224.41,486.452,61.163,392.206c-8.216-4.749-12.3-11.044-12.413-17.67V360.555c.685-7.686,6.626-3.446,17.537-9.763l383.9-221.69c21.27-12.258,53.429-13.606,71.85-2.96l163.225,94.247c8.239,4.749,12.325-3.622,12.435,3.026v16.433c-.641,7.708-6.626,15.7-17.515,22.087L296.26,483.492C274.99,495.751,242.831,497.1,224.41,486.452Z" transform="translate(-36.05 136.444)" fill="url(#linear-gradient-2)"/>
        <path id="Caminho_5326" data-name="Caminho 5326" d="M224.416,480.106,61.169,385.882c-18.4-10.624-16.1-29.2,5.168-41.48L450.192,122.778c21.27-12.281,53.429-13.606,71.85-2.982l163.225,94.246c18.421,10.646,16.124,29.221-5.146,41.48L296.266,477.146C275,489.427,242.837,490.752,224.416,480.106Z" transform="translate(-36.055 128.787)" fill="url(#linear-gradient-3)"/>
        <path id="Caminho_5327" data-name="Caminho 5327" d="M697.672,177.008a5.717,5.717,0,0,0-.287-1.988c1.634,8.99-4.241,18.907-17.294,26.5L296.236,423.082c-21.27,12.281-53.429,13.606-71.85,2.982L61.139,331.8C53.21,327.2,49.145,321.127,48.77,314.744V328c0,6.626,4.2,12.987,12.413,17.67l163.2,94.357c18.421,10.624,50.58,9.3,71.85-2.982l383.855-221.6c10.933-6.317,16.875-14.29,17.515-22.087C697.672,192.844,697.695,177.582,697.672,177.008Z" transform="translate(-36.026 204.209)" opacity="0.2" fill="url(#linear-gradient-4)"/>
        <path id="Caminho_5328" data-name="Caminho 5328" d="M61.165,319.178l163.247,94.247c18.421,10.624,50.58,9.3,71.85-2.982L680.118,188.819c11.2-6.449,17.118-14.666,17.559-22.529.464,8.415-5.5,17.4-17.559,24.3L296.263,412.276c-21.27,12.281-53.429,13.606-71.85,2.982L61.165,321.011c-8.724-5.036-12.789-11.861-12.391-18.929C49.128,308.488,53.214,314.584,61.165,319.178Z" transform="translate(-36.052 193.657)" fill="url(#radial-gradient)" style="mix-blend-mode: color-dodge;isolation: isolate"/>
        <path id="Caminho_5329" data-name="Caminho 5329" d="M67.1,345.109,451.415,123.22c18.642-10.757,46.847-11.927,62.993-2.606l162.364,93.738c16.146,9.321,14.136,25.6-4.417,36.356L288.036,472.6c-18.62,10.779-46.825,11.949-62.971,2.628l-162.5-93.761C46.445,372.144,48.455,355.865,67.1,345.109Z" transform="translate(-32.508 130.841)" fill="url(#linear-gradient-5)"/>
        <path id="Caminho_5330" data-name="Caminho 5330" d="M69.015,345.213,451.435,124.34c15.616-9.012,39.2-9.983,52.722-2.209l159.006,91.861c13.5,7.8,11.817,21.425-3.8,30.436L276.967,465.3c-15.616,9.012-39.2,9.983-52.722,2.209L65.3,375.561C51.787,367.853,53.554,354.225,69.015,345.213Z" transform="translate(-27.049 133.939)" fill="#1f0d3d"/>
        <path id="Caminho_5331" data-name="Caminho 5331" d="M636.568,202.407a31.518,31.518,0,0,1-28.493,0l-88.9-51.419c-7.885-4.55-7.929-11.927,0-16.455l-18.863-10.889c-12.744-7.355-33.308-7.377-45.964,0L67.82,346.88c-12.656,7.311-12.59,19.194.155,26.5L223.2,463.015c12.722,7.355,33.308,7.4,45.964,0L655.7,239.8c12.656-7.311,12.59-19.194-.155-26.5Z" transform="translate(-24.419 135.431)" fill="#3d065f"/>
        <path id="Caminho_5332" data-name="Caminho 5332" d="M244.422,463.626a43.6,43.6,0,0,0,21.292-5.014L652.352,235.4c5.058-2.916,7.863-6.626,7.863-10.469s-2.849-7.62-8.018-10.624l-17.361-10.028a32.933,32.933,0,0,1-14.092,2.938,32.446,32.446,0,0,1-15.9-3.843l-88.923-51.353c-4.859-2.783-7.532-6.626-7.532-11.044a11.176,11.176,0,0,1,3.379-7.8l-14.8-8.548a47.664,47.664,0,0,0-42.827,0L67.613,347.845c-5.08,2.938-7.863,6.626-7.863,10.469s2.849,7.642,8.018,10.624L222.887,458.48a43.908,43.908,0,0,0,21.535,5.146Z" transform="translate(-22.754 137.16)" fill="url(#linear-gradient-6)"/>
        <path id="Caminho_5333" data-name="Caminho 5333" d="M303.98,213.568,321.76,203.3a9.608,9.608,0,0,0,4.02-7.686h0c0-2.96-1.789-4.307-4.02-3.026l-17.78,10.337a9.608,9.608,0,0,0-4.02,7.686h0C300.048,213.5,301.749,214.849,303.98,213.568Z" transform="translate(267.595 224.855)" fill="url(#linear-gradient-7)"/>
        <path id="Caminho_5334" data-name="Caminho 5334" d="M303.98,213.568,321.76,203.3a9.608,9.608,0,0,0,4.02-7.686h0c0-2.96-1.789-4.307-4.02-3.026l-17.78,10.337a9.608,9.608,0,0,0-4.02,7.686h0C300.048,213.5,301.749,214.849,303.98,213.568Z" transform="translate(267.595 224.855)" fill="url(#linear-gradient-8)"/>
        <path id="Caminho_5335" data-name="Caminho 5335" d="M301.811,212.449a2.385,2.385,0,0,0,1.082-.353l17.67-10.271a8.614,8.614,0,0,0,3.512-6.781c0-1.126-.375-2.474-1.391-2.474a2.208,2.208,0,0,0-1.06.353L303.91,203.194a8.592,8.592,0,0,0-3.49,6.781C300.442,211.19,300.8,212.449,301.811,212.449Z" transform="translate(268.151 225.422)" fill="url(#linear-gradient-9)"/>
        <path id="Caminho_5336" data-name="Caminho 5336" d="M289.59,221.909l17.8-10.293a9.564,9.564,0,0,0,4.02-7.664h0c0-2.96-1.789-4.417-4.02-3.048l-17.8,10.271a9.674,9.674,0,0,0-4.02,7.686h0C285.57,221.82,287.381,223.19,289.59,221.909Z" transform="translate(250.202 234.869)" fill="url(#linear-gradient-10)"/>
        <path id="Caminho_5337" data-name="Caminho 5337" d="M289.59,221.909l17.8-10.293a9.564,9.564,0,0,0,4.02-7.664h0c0-2.96-1.789-4.417-4.02-3.048l-17.8,10.271a9.674,9.674,0,0,0-4.02,7.686h0C285.57,221.82,287.381,223.19,289.59,221.909Z" transform="translate(250.202 234.869)" fill="url(#linear-gradient-11)"/>
        <path id="Caminho_5338" data-name="Caminho 5338" d="M287.419,220.736a2.209,2.209,0,0,0,1.082-.353l17.67-10.271a8.591,8.591,0,0,0,3.622-6.759c0-1.149-.375-2.474-1.391-2.474a2.209,2.209,0,0,0-1.06.331l-17.8,10.271a8.614,8.614,0,0,0-3.49,6.781C286.05,219.411,286.4,220.736,287.419,220.736Z" transform="translate(250.782 235.467)" fill="url(#linear-gradient-12)"/>
        <path id="Caminho_5339" data-name="Caminho 5339" d="M217.19,343.385,476.517,192.992c10.933-6.339,16.875-14.313,17.515-22.087v9.785c-.641,7.708-6.626,15.7-17.515,22.087Z" transform="translate(167.549 190.986)" fill="#3d065f" style="mix-blend-mode: color-dodge;isolation: isolate"/>
        <path id="Caminho_5340" data-name="Caminho 5340" d="M84.57,263.016l29.221,16.875h0a17.361,17.361,0,0,0-7.245-13.76l-14.732-8.5c-4-2.319-7.245.155-7.245,5.478Z" transform="translate(7.247 303.005)"/>
        <path id="Caminho_5341" data-name="Caminho 5341" d="M442.347,219.21a37.548,37.548,0,0,1-18.863,32.424l-6.008,3.424L302.622,188.8l1.546-.906a46.383,46.383,0,0,0,23.258-40.177v-.839c0-16.808-8.835-13.584-8.835,0v.839a37.548,37.548,0,0,1-18.8,32.446L148.409,267.184a18.023,18.023,0,0,0,0,31.254l85.544,48.879a40.2,40.2,0,0,0,39.757,0l154.191-88a46.383,46.383,0,0,0,23.28-40.111C451.182,202.932,442.347,205.98,442.347,219.21ZM355.013,242.8l-11.728,6.891L306.421,228.4l11.728-6.891Zm-32.468-23.854,11.728-6.891,36.842,21.292-11.684,6.891Zm-80.574,47.289,11.728-6.891,36.864,21.292-11.728,6.891Zm32.468,23.854-11.728,6.891-36.842-21.292L237.6,268.8Zm-16.345-33.308,11.728-6.891,36.842,21.292-11.728,6.847Zm16.1-9.475,11.728-6.869,36.864,21.292L311.06,268.62Zm16.124-9.453,11.728-6.891,36.842,21.314-11.728,6.869Zm11.706-11.993-31.872-18.509,11.839-6.825,31.762,18.355Zm-4.417,2.562-11.728,6.891-32.071-18.531,11.861-6.8ZM281.485,237.9l-11.728,6.869-32.225-18.62,11.861-6.8Zm-16.1,9.453-11.728,6.891-32.4-18.73,11.861-6.825ZM249.26,256.8l-11.728,6.891-32.513-18.8,11.861-6.825Zm-16.1,9.453-11.728,6.891L188.7,254.241l11.861-6.825Zm-16.124,9.453L205.306,282.6l-32.888-19,11.861-6.825Zm4.417,2.54,36.864,21.314-11.728,6.891-36.864-21.314ZM262.711,302.1l35.98,20.784-11.905,6.8L251,308.951Zm4.417-2.584,11.728-6.869,36.223,20.917-11.905,6.781Zm16.124-9.453,11.728-6.891L331.4,304.246l-11.883,6.781Zm16.1-9.453,11.728-6.891L347.747,294.9l-11.905,6.8Zm16.124-9.453,11.728-6.891,36.886,21.314-11.905,6.781Zm16.1-9.475,11.728-6.869,37.129,21.447-11.905,6.781Zm16.124-9.453,11.728-6.891,37.328,21.579-11.883,6.8Zm16.146-9.542,11.728-6.891,37.548,21.712-11.883,6.8Zm-33.97-33.131-11.728,6.891-31.607-18.377,11.839-6.825ZM269.359,339.7a31.32,31.32,0,0,1-30.922,0l-85.522-48.923a9.188,9.188,0,0,1,0-15.925l15.152-8.7L282.39,332.209Z" transform="translate(73.48 156.374)" fill="#c7bcd6" opacity="0.2"/>
        <g id="Grupo_10651" data-name="Grupo 10651" transform="translate(350.724 491.061)" opacity="0.2">
          <path id="Caminho_5342" data-name="Caminho 5342" d="M229.841,236.007c0-4.042,3.733-4.064,1.458-5.411l-7.6-4.2a9.188,9.188,0,0,0-9.012.994,28.448,28.448,0,0,0-12.9,22.242c0,1.347,5.279,2.209,7.532,3.667Z" transform="translate(-201.79 -225.652)" fill="url(#linear-gradient-13)"/>
          <path id="Caminho_5343" data-name="Caminho 5343" d="M230.99,236.688c0-8.172-5.787-11.485-12.9-7.355a28.4,28.4,0,0,0-12.921,22.242Z" transform="translate(-197.704 -223.351)" fill="url(#linear-gradient-14)"/>
          <path id="Caminho_5344" data-name="Caminho 5344" d="M220.328,235.828c0-3.821-2.695-5.367-6.008-3.446a13.252,13.252,0,0,0-6.03,10.381Z" transform="translate(-193.933 -218.515)" fill="url(#linear-gradient-15)"/>
          <path id="Caminho_5345" data-name="Caminho 5345" d="M204.89,251.418a28.4,28.4,0,0,1,12.921-22.242,9.21,9.21,0,0,1,8.835-1.082,10.116,10.116,0,0,0-7.708,1.5,28.449,28.449,0,0,0-12.9,22.264Z" transform="translate(-198.043 -223.504)" fill="url(#radial-gradient-2)" style="mix-blend-mode: screen;isolation: isolate"/>
        </g>
        <g id="Grupo_10652" data-name="Grupo 10652" transform="translate(481.039 412.651)" opacity="0.2">
          <path id="Caminho_5346" data-name="Caminho 5346" d="M288.841,200.507c0-4.042,3.733-4.064,1.458-5.411l-7.6-4.2a9.189,9.189,0,0,0-9.012.994,28.449,28.449,0,0,0-12.9,22.22c0,1.347,5.279,2.209,7.532,3.667Z" transform="translate(-260.79 -190.152)" fill="url(#linear-gradient-16)"/>
          <path id="Caminho_5347" data-name="Caminho 5347" d="M289.99,201.188c0-8.172-5.787-11.485-12.9-7.355a28.4,28.4,0,0,0-12.921,22.242Z" transform="translate(-256.705 -187.851)" fill="url(#linear-gradient-17)"/>
          <path id="Caminho_5348" data-name="Caminho 5348" d="M279.328,200.338c0-3.821-2.695-5.367-6.008-3.446a13.252,13.252,0,0,0-6.03,10.381Z" transform="translate(-252.933 -183.003)" fill="url(#linear-gradient-18)"/>
          <path id="Caminho_5349" data-name="Caminho 5349" d="M263.89,215.918a28.4,28.4,0,0,1,12.921-22.242,9.21,9.21,0,0,1,8.835-1.082,10.116,10.116,0,0,0-7.708,1.5,28.449,28.449,0,0,0-12.921,22.286Z" transform="translate(-257.043 -188.004)" fill="url(#radial-gradient-3)" style="mix-blend-mode: screen;isolation: isolate"/>
        </g>
        <g id="Grupo_10653" data-name="Grupo 10653" transform="translate(223.744 418.901)" opacity="0.2">
          <path id="Caminho_5350" data-name="Caminho 5350" d="M172.351,203.359c0-4.042,3.733-4.086,1.458-5.433l-7.6-4.2a9.188,9.188,0,0,0-9.012.994,28.448,28.448,0,0,0-12.9,22.242c0,1.369,5.279,2.209,7.532,3.667Z" transform="translate(-144.3 -192.982)" fill="url(#linear-gradient-19)"/>
          <path id="Caminho_5351" data-name="Caminho 5351" d="M173.49,203.993c0-8.172-5.787-11.463-12.9-7.355A28.4,28.4,0,0,0,147.67,218.88Z" transform="translate(-140.227 -190.7)" fill="url(#linear-gradient-20)"/>
          <path id="Caminho_5352" data-name="Caminho 5352" d="M162.828,203.148c0-3.821-2.695-5.345-6.008-3.424a13.252,13.252,0,0,0-6.03,10.359Z" transform="translate(-136.455 -185.835)" fill="url(#linear-gradient-21)"/>
          <path id="Caminho_5353" data-name="Caminho 5353" d="M147.39,218.74A28.4,28.4,0,0,1,160.311,196.5a9.321,9.321,0,0,1,8.835-1.082,10.138,10.138,0,0,0-7.708,1.524,28.382,28.382,0,0,0-12.9,22.242Z" transform="translate(-140.565 -190.826)" fill="url(#radial-gradient-4)" style="mix-blend-mode: screen;isolation: isolate"/>
        </g>
        <g id="Grupo_10654" data-name="Grupo 10654" transform="translate(236.489 301.385)" opacity="0.2">
          <path id="Caminho_5354" data-name="Caminho 5354" d="M269.651,341.949a30.325,30.325,0,0,0,15.13-3.644L469.386,226.411a16.013,16.013,0,0,0,8.68-13.827c0-6.14-3.8-11.861-10.447-15.682l-90.867-52.457a37.261,37.261,0,0,0-18.355-4.66,30.326,30.326,0,0,0-15.13,3.644L158.75,255.323a15.969,15.969,0,0,0-8.68,13.8c0,6.14,3.8,11.861,10.447,15.7L251.3,337.289A37.262,37.262,0,0,0,269.651,341.949Z" transform="translate(-150.07 -139.776)" opacity="0"/>
          <path id="Caminho_5355" data-name="Caminho 5355" d="M339.6,144.531,158.488,254.194a14.843,14.843,0,0,0-8.106,13.562,15.637,15.637,0,0,0,1.789,6.339,23.678,23.678,0,0,0,8.835,8.658l88.946,51.353a38.939,38.939,0,0,0,17.847,4.926,30.569,30.569,0,0,0,14.909-3c.4,0,12.06-6.869,12.347-7.046L464.971,226.143a14.644,14.644,0,0,0,8.018-13.628A16.018,16.018,0,0,0,472,208.1a22.794,22.794,0,0,0-9.807-10.558l-89.564-51.817a40.174,40.174,0,0,0-3.909-1.922,38.034,38.034,0,0,0-14.136-2.783,29.574,29.574,0,0,0-14.975,3.512Z" transform="translate(-149.697 -138.294)" opacity="0.09"/>
          <path id="Caminho_5356" data-name="Caminho 5356" d="M335.966,145.666,158.252,253.076a13.694,13.694,0,0,0-7.532,13.252,15.97,15.97,0,0,0,2.032,6.052,25.776,25.776,0,0,0,8.835,8.283l86.98,50.293a41.126,41.126,0,0,0,17.316,5.146,30.656,30.656,0,0,0,14.688-2.341c.817,0,11.728-6.251,12.3-6.626L460.6,225.887a13.429,13.429,0,0,0,7.355-13.473,16.826,16.826,0,0,0-1.215-4.285,25.643,25.643,0,0,0-9.9-10.138L368.5,147.013c-1.038-.6-2.717-1.436-3.843-1.922a37.261,37.261,0,0,0-13.915-2.849,28.713,28.713,0,0,0-14.776,3.424Z" transform="translate(-149.329 -136.823)" opacity="0.18"/>
          <path id="Caminho_5357" data-name="Caminho 5357" d="M332.307,146.814l-174.269,105.2a12.634,12.634,0,0,0-6.935,13.031,17.007,17.007,0,0,0,2.209,5.743,29.288,29.288,0,0,0,8.835,7.907l85.08,49.122c3.8,2.209,11.993,5.389,16.83,5.389a30.017,30.017,0,0,0,14.467-1.7c1.215,0,11.4-5.61,12.258-6.118L456.04,225.643a12.28,12.28,0,0,0,6.626-13.252,19.589,19.589,0,0,0-1.436-4.086c-1.325-3-6.471-7.642-10.028-9.7l-87-50.249c-.928-.53-2.783-1.48-3.777-1.9a37.151,37.151,0,0,0-13.694-2.938,28.272,28.272,0,0,0-14.423,3.291Z" transform="translate(-148.961 -135.276)" opacity="0.27"/>
          <path id="Caminho_5358" data-name="Caminho 5358" d="M328.69,147.869,157.867,250.84a11.618,11.618,0,0,0-6.361,12.766,17.935,17.935,0,0,0,2.474,5.478,33.683,33.683,0,0,0,8.835,7.532l83.159,48.018c3.313,1.9,12.082,5.632,16.3,5.632a30.26,30.26,0,0,0,14.246-1.06c1.612,0,11.044-5.014,12.214-5.654l162.938-98.2c5.411-3.136,7.421-8.062,6.074-13.1a23.476,23.476,0,0,0-1.679-3.887c-1.237-2.584-7-7.466-10.138-9.277l-85.721-49.5c-.8-.464-2.827-1.524-3.711-1.9a36.267,36.267,0,0,0-13.451-2.982,27.72,27.72,0,0,0-14.357,3.159Z" transform="translate(-148.612 -133.857)" opacity="0.36"/>
          <path id="Caminho_5359" data-name="Caminho 5359" d="M325.117,149,157.74,249.741c-5.191,3-7.134,7.686-5.809,12.5a19.879,19.879,0,0,0,2.717,5.124,40.174,40.174,0,0,0,8.724,7.178l81.237,46.891c2.849,1.657,12.17,5.875,15.792,5.875a29.929,29.929,0,0,0,14.025-.42c2.032,0,10.757-4.417,12.17-5.191l160.641-96.654c5.367-3.092,7.112-8,5.389-12.921a26.249,26.249,0,0,0-1.9-3.644c-1.126-2.209-7.554-7.311-10.226-8.835l-84.44-48.769c-.685-.4-2.893-1.568-3.644-1.9a36.048,36.048,0,0,0-13.252-3.048A27.1,27.1,0,0,0,325.117,149Z" transform="translate(-148.308 -132.384)" opacity="0.45"/>
          <path id="Caminho_5360" data-name="Caminho 5360" d="M321.516,150.114,157.584,248.624c-5.124,2.96-6.825,7.6-5.213,12.236a22.464,22.464,0,0,0,2.96,4.837,49.365,49.365,0,0,0,8.68,6.8L243.3,318.287c2.385,1.369,12.258,6.118,15.284,6.118a30.215,30.215,0,0,0,13.827.221c2.43.11,10.4-3.755,12.126-4.749l158.3-95.086c5.345-3.092,6.847-7.974,4.749-12.744a13.581,13.581,0,0,0-2.209-3.446c-.641-1.966-8.128-7.156-10.359-8.437l-83.159-48.018c-.574-.331-2.938-1.612-3.578-1.9a35.339,35.339,0,0,0-12.965-3.092,26.5,26.5,0,0,0-13.8,2.96Z" transform="translate(-147.998 -130.912)" opacity="0.55"/>
          <path id="Caminho_5361" data-name="Caminho 5361" d="M317.971,151.229l-160.486,96.3c-5.058,2.916-6.626,7.465-4.638,11.971a13.584,13.584,0,0,0,3.181,4.528c.618,1.281,7.134,5.544,8.658,6.405l77.306,44.683c1.9,1.1,12.347,6.361,14.754,6.361a30.039,30.039,0,0,0,13.606.883c2.827,0,10.094-3.136,12.082-4.285l155.98-93.562c5.323-3.07,6.626-7.907,4.108-12.546a13.251,13.251,0,0,0-2.363-3.247c-.508-1.568-8.68-6.98-10.469-8.018l-81.856-47.267c-.464-.265-3-1.657-3.512-1.877a35.053,35.053,0,0,0-12.744-3.181A25.908,25.908,0,0,0,317.971,151.229Z" transform="translate(-147.723 -129.443)" opacity="0.64"/>
          <path id="Caminho_5362" data-name="Caminho 5362" d="M314.385,152.362,157.366,246.41c-5.014,2.893-6.273,7.377-4.064,11.706a13.583,13.583,0,0,0,3.4,4.241,58.266,58.266,0,0,0,8.614,6.03l75.45,43.578c1.436.817,12.435,6.626,14.246,6.626a29.508,29.508,0,0,0,13.385,1.524c3.247.133,9.763-2.5,12.06-3.821L434.1,224.3c5.3-3.07,6.317-7.885,3.446-12.391a14.573,14.573,0,0,0-2.562-3.026c-.4-1.171-9.255-6.8-10.58-7.576l-80.552-46.582c-.331-.2-3.048-1.7-3.424-1.877a34.39,34.39,0,0,0-12.523-3.225A25,25,0,0,0,314.385,152.362Z" transform="translate(-147.427 -127.97)" opacity="0.73"/>
          <path id="Caminho_5363" data-name="Caminho 5363" d="M310.862,153.511,157.267,245.35c-4.925,2.849-6.008,7.289-3.49,11.441a14.334,14.334,0,0,0,3.644,3.931,86.3,86.3,0,0,0,8.592,5.654l73.529,42.452c.95.552,12.5,6.847,13.716,6.847a29.509,29.509,0,0,0,13.252,2.209,28.2,28.2,0,0,0,11.993-3.357l151.342-90.558c5.257-3.026,6.052-7.863,2.783-12.192a14.709,14.709,0,0,0-2.805-2.827,97.814,97.814,0,0,0-10.69-7.156l-79.293-45.787-3.379-1.877a34.058,34.058,0,0,0-12.28-3.291A24.3,24.3,0,0,0,310.862,153.511Z" transform="translate(-147.173 -126.512)" opacity="0.82"/>
          <path id="Caminho_5364" data-name="Caminho 5364" d="M307.364,154.615,157.17,244.223c-4.881,2.805-5.765,7.2-2.916,11.176a14.4,14.4,0,0,0,3.887,3.622c.155.331,8.172,5.08,8.548,5.3l71.585,41.325c.486.287,12.612,7.09,13.252,7.09a29.112,29.112,0,0,0,12.965,2.827,25.18,25.18,0,0,0,11.971-2.915l149-88.9c5.235-3.026,5.831-7.863,2.209-12.015a15.133,15.133,0,0,0-3.048-2.628c-.11-.4-10.337-6.472-10.8-6.626l-77.99-45.058c-.132,0-3.181-1.811-3.313-1.855a33,33,0,0,0-12.1-3.512A23.765,23.765,0,0,0,307.364,154.615Z" transform="translate(-146.966 -125.054)" opacity="0.91"/>
          <path id="Caminho_5365" data-name="Caminho 5365" d="M274.448,310.791,421.13,223.414c6.317-3.644,5.522-10.028-1.767-14.246L328.5,156.71c-7.311-4.219-18.355-4.683-24.672-1.016L157.142,243.05c-6.339,3.667-5.544,10.028,1.767,14.246l90.867,52.479C257.087,313.972,268.131,314.436,274.448,310.791Z" transform="translate(-146.695 -123.527)"/>
        </g>
        <rect id="Retângulo_4304" data-name="Retângulo 4304" width="4.417" height="140.74" transform="matrix(0.497, -0.868, 0.868, 0.497, 429.996, 93.405)" fill="#c7bcd6"/>
        <path id="Caminho_5366" data-name="Caminho 5366" d="M142.191,181.057l-2.231-3.821L346.388,56.86l121.657,69.332-2.187,3.843L346.41,61.94Z" transform="translate(74.198 61.386)" fill="#c7bcd6"/>
        <rect id="Retângulo_4305" data-name="Retângulo 4305" width="4.417" height="62.993" transform="translate(407.709 82.729)" fill="url(#linear-gradient-22)"/>
        <rect id="Retângulo_4306" data-name="Retângulo 4306" width="4.417" height="81.06" transform="translate(213.253 211.189)" fill="url(#linear-gradient-23)"/>
        <rect id="Retângulo_4307" data-name="Retângulo 4307" width="4.417" height="81.9" transform="translate(229.509 200.609)" fill="url(#linear-gradient-24)"/>
        <rect id="Retângulo_4308" data-name="Retângulo 4308" width="4.417" height="82.717" transform="translate(245.765 190.029)" fill="url(#linear-gradient-25)"/>
        <rect id="Retângulo_4309" data-name="Retângulo 4309" width="4.417" height="83.534" transform="translate(262.022 179.427)" fill="url(#linear-gradient-24)"/>
        <rect id="Retângulo_4310" data-name="Retângulo 4310" width="4.417" height="84.351" transform="translate(278.278 168.848)" fill="url(#linear-gradient-25)"/>
        <rect id="Retângulo_4311" data-name="Retângulo 4311" width="4.417" height="85.169" transform="translate(294.534 158.246)" fill="url(#linear-gradient-23)"/>
        <rect id="Retângulo_4312" data-name="Retângulo 4312" width="4.417" height="86.008" transform="translate(310.79 147.666)" fill="url(#linear-gradient-24)"/>
        <rect id="Retângulo_4313" data-name="Retângulo 4313" width="4.417" height="86.825" transform="translate(327.047 137.086)" fill="url(#linear-gradient-25)"/>
        <rect id="Retângulo_4314" data-name="Retângulo 4314" width="4.417" height="87.642" transform="translate(343.303 126.484)" fill="url(#linear-gradient-24)"/>
        <rect id="Retângulo_4315" data-name="Retângulo 4315" width="4.417" height="88.46" transform="translate(359.559 115.904)" fill="url(#linear-gradient-25)"/>
        <rect id="Retângulo_4316" data-name="Retângulo 4316" width="4.417" height="89.277" transform="translate(375.837 105.302)" fill="url(#linear-gradient-33)"/>
        <rect id="Retângulo_4317" data-name="Retângulo 4317" width="4.417" height="90.116" transform="translate(392.094 94.723)" fill="url(#linear-gradient-24)"/>
        <path id="Caminho_5367" data-name="Caminho 5367" d="M205.246,168.915a9.034,9.034,0,0,0,3.622,8.194L216,181.24c2.341,1.3.839-1.657,4.417-3.689a28.449,28.449,0,0,0,12.9-22.264c0-4.042,3.733-4.064,1.436-5.411l-7.576-4.2a9.188,9.188,0,0,0-9.012.994A28.382,28.382,0,0,0,205.246,168.915Z" transform="translate(153.054 167.84)" fill="url(#linear-gradient-35)"/>
        <path id="Caminho_5368" data-name="Caminho 5368" d="M208.6,170.814c0,8.172,5.787,11.463,12.9,7.355a28.382,28.382,0,0,0,12.9-22.176c0-8.172-5.765-11.463-12.9-7.355a28.448,28.448,0,0,0-12.9,22.176Z" transform="translate(157.166 170.182)" fill="url(#linear-gradient-36)"/>
        <ellipse id="Elipse_1151" data-name="Elipse 1151" cx="8.482" cy="4.903" rx="8.482" ry="4.903" transform="translate(370.144 338.387) rotate(-59.69)" fill="url(#linear-gradient-37)"/>
        <path id="Caminho_5369" data-name="Caminho 5369" d="M221.219,148.455a9.233,9.233,0,0,1,8.835-1.082,10.094,10.094,0,0,0-7.709,1.5,28.448,28.448,0,0,0-12.9,22.264c0,4.241,1.568,7.178,4.064,8.437-3.158-.884-5.191-4.02-5.191-8.835a28.448,28.448,0,0,1,12.9-22.286Z" transform="translate(156.827 169.99)" fill="url(#radial-gradient-5)" style="mix-blend-mode: screen;isolation: isolate"/>
        <path id="Caminho_5370" data-name="Caminho 5370" d="M232.815,140.73v30.723l-3.4,2.12L202.29,158.6Z" transform="translate(149.538 162.762)" fill="url(#linear-gradient-38)"/>
        <path id="Caminho_5371" data-name="Caminho 5371" d="M145.906,203.412a9.034,9.034,0,0,0,3.622,8.194l7.134,4.13c2.341,1.3.839-1.657,4.417-3.689a28.515,28.515,0,0,0,12.9-22.264c0-4.042,3.733-4.064,1.436-5.411l-7.576-4.219a9.188,9.188,0,0,0-9.012,1.016A28.382,28.382,0,0,0,145.906,203.412Z" transform="translate(81.328 209.522)" fill="url(#linear-gradient-39)"/>
        <path id="Caminho_5372" data-name="Caminho 5372" d="M149.26,205.347c0,8.172,5.787,11.463,12.9,7.355a28.382,28.382,0,0,0,12.9-22.242c0-8.194-5.765-11.485-12.9-7.355a28.449,28.449,0,0,0-12.9,22.242Z" transform="translate(85.44 211.828)" fill="url(#linear-gradient-40)"/>
        <path id="Caminho_5373" data-name="Caminho 5373" d="M152.38,196.533c0,3.821,2.695,5.345,6.008,3.424a13.252,13.252,0,0,0,6.03-10.381c0-3.8-2.695-5.345-6.03-3.424a13.252,13.252,0,0,0-6.008,10.381Z" transform="translate(89.211 216.666)" fill="url(#linear-gradient-41)"/>
        <path id="Caminho_5374" data-name="Caminho 5374" d="M161.879,182.956a9.321,9.321,0,0,1,8.835-1.1,10.227,10.227,0,0,0-7.708,1.524,28.382,28.382,0,0,0-12.9,22.264c0,4.241,1.568,7.178,4.064,8.437-3.158-.883-5.191-4.02-5.191-8.835A28.448,28.448,0,0,1,161.879,182.956Z" transform="translate(85.101 211.69)" fill="url(#radial-gradient-6)" style="mix-blend-mode: screen;isolation: isolate"/>
        <path id="Caminho_5375" data-name="Caminho 5375" d="M173.475,175.22v30.723l-3.4,2.12L142.95,193.089Z" transform="translate(77.813 204.451)" fill="url(#linear-gradient-38)"/>
        <rect id="Retângulo_4318" data-name="Retângulo 4318" width="149.2" height="4.417" transform="matrix(0.863, -0.506, 0.506, 0.863, 278.036, 406.278)" fill="#c7bcd6"/>
        <rect id="Retângulo_4319" data-name="Retângulo 4319" width="149.818" height="4.417" transform="matrix(0.863, -0.506, 0.506, 0.863, 318.904, 430.322)" fill="#c7bcd6"/>
        <rect id="Retângulo_4320" data-name="Retângulo 4320" width="4.417" height="142.949" transform="matrix(0.5, -0.866, 0.866, 0.5, 366.315, 311.307)" fill="url(#linear-gradient-43)"/>
        <rect id="Retângulo_4321" data-name="Retângulo 4321" width="4.433" height="143.441" transform="translate(351.356 318.645) rotate(-60.113)" fill="url(#linear-gradient-44)"/>
        <rect id="Retângulo_4322" data-name="Retângulo 4322" width="4.433" height="143.441" transform="translate(335.378 328.203) rotate(-60.113)" fill="url(#linear-gradient-45)"/>
        <rect id="Retângulo_4323" data-name="Retângulo 4323" width="4.417" height="142.949" transform="matrix(0.5, -0.866, 0.866, 0.5, 318.243, 339.874)" fill="url(#linear-gradient-44)"/>
        <rect id="Retângulo_4324" data-name="Retângulo 4324" width="4.433" height="143.441" transform="translate(303.408 347.35) rotate(-60.113)" fill="url(#linear-gradient-45)"/>
        <rect id="Retângulo_4325" data-name="Retângulo 4325" width="4.417" height="142.949" transform="matrix(0.5, -0.866, 0.866, 0.5, 286.218, 358.874)" fill="url(#linear-gradient-48)"/>
        <rect id="Retângulo_4326" data-name="Retângulo 4326" width="4.417" height="142.949" transform="matrix(0.5, -0.866, 0.866, 0.5, 270.204, 368.399)" fill="url(#linear-gradient-44)"/>
        <rect id="Retângulo_4327" data-name="Retângulo 4327" width="4.417" height="142.949" transform="matrix(0.5, -0.866, 0.866, 0.5, 254.16, 377.894)" fill="url(#linear-gradient-45)"/>
        <rect id="Retângulo_4328" data-name="Retângulo 4328" width="4.417" height="142.949" transform="matrix(0.5, -0.866, 0.866, 0.5, 238.145, 387.419)" fill="url(#linear-gradient-44)"/>
        <rect id="Retângulo_4329" data-name="Retângulo 4329" width="126.074" height="4.417" transform="translate(409.026 190.331) rotate(-71.19)" fill="url(#linear-gradient-52)"/>
        <rect id="Retângulo_4330" data-name="Retângulo 4330" width="126.074" height="4.417" transform="translate(422.802 198.236) rotate(-71.19)" fill="url(#linear-gradient-53)"/>
        <rect id="Retângulo_4331" data-name="Retângulo 4331" width="126.096" height="4.417" transform="translate(436.643 206.147) rotate(-71.19)" fill="url(#linear-gradient-54)"/>
        <rect id="Retângulo_4332" data-name="Retângulo 4332" width="126.096" height="4.417" transform="translate(450.478 214.101) rotate(-71.19)" fill="url(#linear-gradient-55)"/>
        <rect id="Retângulo_4333" data-name="Retângulo 4333" width="126.096" height="4.417" transform="translate(464.276 221.984) rotate(-71.19)" fill="url(#linear-gradient-56)"/>
        <rect id="Retângulo_4334" data-name="Retângulo 4334" width="126.096" height="4.417" transform="translate(478.117 229.917) rotate(-71.19)" fill="url(#linear-gradient-54)"/>
        <rect id="Retângulo_4335" data-name="Retângulo 4335" width="126.096" height="4.417" transform="translate(491.952 237.871) rotate(-71.19)" fill="url(#linear-gradient-55)"/>
        <rect id="Retângulo_4336" data-name="Retângulo 4336" width="126.096" height="4.417" transform="translate(505.75 245.776) rotate(-71.19)" fill="url(#linear-gradient-56)"/>
        <path id="Caminho_5376" data-name="Caminho 5376" d="M307.359,78.07l-3.49,9.961L281.936,75.4,285.4,65.59,262.19,52.36l-22.86,64.605,68.1,39.271,22.86-65.113Z" transform="translate(194.31 55.946)" fill="url(#linear-gradient-60)"/>
        <path id="Caminho_5377" data-name="Caminho 5377" d="M201.815,235.965a9.078,9.078,0,0,0,3.622,8.194l7.156,4.152c2.319,1.3.839-1.657,4.417-3.711a28.449,28.449,0,0,0,12.9-22.242c0-4.042,3.733-4.086,1.458-5.434l-7.6-4.2a9.188,9.188,0,0,0-9.012.994,28.448,28.448,0,0,0-12.943,22.242Z" transform="translate(148.909 248.886)" fill="url(#linear-gradient-61)"/>
        <path id="Caminho_5378" data-name="Caminho 5378" d="M205.17,237.924c0,8.194,5.787,11.485,12.921,7.355a28.449,28.449,0,0,0,12.9-22.286c0-8.172-5.787-11.463-12.9-7.355a28.4,28.4,0,0,0-12.921,22.286Z" transform="translate(153.02 251.167)" fill="url(#linear-gradient-62)"/>
        <path id="Caminho_5379" data-name="Caminho 5379" d="M208.29,229.123c0,3.821,2.695,5.367,6.03,3.446a13.252,13.252,0,0,0,6.008-10.381c0-3.821-2.695-5.345-6.008-3.423a13.252,13.252,0,0,0-6.03,10.359Z" transform="translate(156.791 256.08)" fill="url(#linear-gradient-63)"/>
        <path id="Caminho_5380" data-name="Caminho 5380" d="M217.8,215.5a9.321,9.321,0,0,1,8.835-1.082,10.138,10.138,0,0,0-7.708,1.524,28.382,28.382,0,0,0-12.9,22.242c0,4.263,1.568,7.178,4.064,8.437-3.136-.884-5.191-4.02-5.191-8.835A28.4,28.4,0,0,1,217.8,215.5Z" transform="translate(152.693 251.042)" fill="url(#radial-gradient-7)" style="mix-blend-mode: screen;isolation: isolate"/>
        <path id="Caminho_5381" data-name="Caminho 5381" d="M229.407,207.78v30.745l-3.424,2.1L198.86,225.671Z" transform="translate(145.393 243.807)" fill="url(#linear-gradient-64)"/>
        <path id="Caminho_5382" data-name="Caminho 5382" d="M261.154,201.492a9.078,9.078,0,0,0,3.622,8.172l7.156,4.152c2.319,1.3.839-1.657,4.417-3.711a28.382,28.382,0,0,0,12.9-22.242c0-4.042,3.733-4.086,1.458-5.433l-7.6-4.2a9.254,9.254,0,0,0-9.012.994,28.471,28.471,0,0,0-12.943,22.264Z" transform="translate(220.636 207.202)" fill="url(#linear-gradient-65)"/>
        <path id="Caminho_5383" data-name="Caminho 5383" d="M264.52,203.432c0,8.172,5.765,11.463,12.9,7.355a28.514,28.514,0,0,0,12.9-22.264c0-8.172-5.787-11.463-12.9-7.355a28.382,28.382,0,0,0-12.9,22.264Z" transform="translate(224.758 209.502)" fill="url(#linear-gradient-66)"/>
        <path id="Caminho_5384" data-name="Caminho 5384" d="M267.63,194.613c0,3.8,2.695,5.345,6.03,3.424a13.252,13.252,0,0,0,6.008-10.381c0-3.8-2.695-5.345-6.008-3.424a13.253,13.253,0,0,0-6.03,10.381Z" transform="translate(228.517 214.345)" fill="url(#linear-gradient-67)"/>
        <path id="Caminho_5385" data-name="Caminho 5385" d="M277.127,181.008a9.321,9.321,0,0,1,8.835-1.082,10.138,10.138,0,0,0-7.708,1.524,28.382,28.382,0,0,0-12.9,22.242c0,4.263,1.568,7.2,4.064,8.437-3.136-.883-5.168-4-5.168-8.835a28.382,28.382,0,0,1,12.877-22.286Z" transform="translate(224.431 209.353)" fill="url(#radial-gradient-8)" style="mix-blend-mode: screen;isolation: isolate"/>
        <path id="Caminho_5386" data-name="Caminho 5386" d="M288.747,173.29v30.746l-3.424,2.1L258.2,191.181Z" transform="translate(217.119 202.118)" fill="url(#linear-gradient-64)"/>
        <path id="Caminho_5387" data-name="Caminho 5387" d="M253.862,363.389a40.066,40.066,0,0,1-19.879-5.235l-85.544-48.879a18.023,18.023,0,0,1,0-31.254L299.759,191a37.548,37.548,0,0,0,18.8-32.446v-.839a37.372,37.372,0,0,0-19.26-32.689L266.385,106.8l4.285-7.731,32.91,18.222a46.184,46.184,0,0,1,23.81,40.42v.839a46.383,46.383,0,0,1-23.214,40.088L152.812,285.685a9.188,9.188,0,0,0,0,15.925l85.522,48.857a31.32,31.32,0,0,0,30.922,0l154.191-88a37.35,37.35,0,0,0,.331-64.672l-33.97-19.879,4.417-7.62,33.948,19.879a46.185,46.185,0,0,1-.4,79.978l-154.169,88a40,40,0,0,1-19.746,5.235Z" transform="translate(73.516 112.406)" fill="#c7bcd6"/>
        <path id="Caminho_5388" data-name="Caminho 5388" d="M270.332,99.56,302.4,117.23A45.235,45.235,0,0,1,325.838,156.9v.839a45.389,45.389,0,0,1-22.684,39.227L151.768,284.011a10.116,10.116,0,0,0,0,17.537l85.522,48.879a32.071,32.071,0,0,0,30.922.42c.287-.11,3-1.657,3.291-1.811L422.47,262.9c.773-.442,2.209-1.325,2.96-1.811a38.255,38.255,0,0,0,16.919-29.995,36.777,36.777,0,0,0-.4-7.488A38.079,38.079,0,0,0,425.8,197.937c-.663-.685-8.835-5.588-9.608-6.074L392.1,177.7l1.215-5.831.663-1.149,33.131,19.393a45.213,45.213,0,0,1,1.657,77.085c-.663.442-2.01,1.259-2.717,1.657l-153.485,87.62a39.028,39.028,0,0,1-18.332,5.08h-1.391a39.161,39.161,0,0,1-17.14-4.13c-.641-.309-1.855-.972-2.5-1.325l-84.926-48.592a16.9,16.9,0,0,1-4-26.2,23.965,23.965,0,0,1,5.411-4.241l149.928-86.14A38.255,38.255,0,0,0,318.726,159v-.839a40.935,40.935,0,0,0-.155-4.417V152.9A37.99,37.99,0,0,0,301.1,124.828c-.618-.574-8.15-4.859-8.835-5.279l-23.633-13.076,1.126-5.809Z" transform="translate(73.942 112.998)" fill="#cdc5d9"/>
        <path id="Caminho_5389" data-name="Caminho 5389" d="M270.029,100l31.254,17.294a44.329,44.329,0,0,1,22.86,38.785v.839a44.462,44.462,0,0,1-22.22,38.41L150.536,282.353a11.044,11.044,0,0,0,0,19.172L236.058,350.4a33.131,33.131,0,0,0,31.077.861c.574-.243,2.761-1.458,3.313-1.767L421.5,263.358c.508-.287,2.5-1.458,2.96-1.789a39.139,39.139,0,0,0,18.045-29.487,40.158,40.158,0,0,0,0-7.466,38.9,38.9,0,0,0-14.578-26.5,82.762,82.762,0,0,0-9.387-6.427L394.38,177.571l-1.369-5.146.685-1.149,32.336,18.907a44.285,44.285,0,0,1,.95,75.892c-.442.287-2.209,1.347-2.695,1.612L271.464,354.909a38.035,38.035,0,0,1-18.2,4.992h-1.392a38.345,38.345,0,0,1-16.963-4.417c-.42-.2-2.032-1.1-2.452-1.347l-84.351-48.194a15.748,15.748,0,0,1-7.951-12.236,17.949,17.949,0,0,1,0-3.446,15.637,15.637,0,0,1,5.257-10.028,34.764,34.764,0,0,1,5.544-3.931l148.471-85.389a39.183,39.183,0,0,0,19.393-31.474c0-.132,0-.685,0-.817a40.02,40.02,0,0,0,0-4.417v-.839a38.83,38.83,0,0,0-15.947-28.713,84.749,84.749,0,0,0-8.658-5.522L270.735,106.14l-1.414-5.058Z" transform="translate(74.334 113.53)" fill="#d3cedb"/>
        <path id="Caminho_5390" data-name="Caminho 5390" d="M269.912,100.46l30.436,16.853a43.379,43.379,0,0,1,22.375,37.946v.839a43.446,43.446,0,0,1-21.756,37.548L149.6,280.692a11.993,11.993,0,0,0,0,20.806l85.522,48.879a34.036,34.036,0,0,0,31.143,1.281c.884-.375,2.562-1.281,3.379-1.745l151.121-86.273,2.982-1.723a40.155,40.155,0,0,0,18.995-28.846,41.958,41.958,0,0,0,.331-7.465,39.956,39.956,0,0,0-13.009-27.477,53.983,53.983,0,0,0-9.166-6.759l-24.164-14.114-3.954-4.417.663-1.126L424.9,190a43.379,43.379,0,0,1,.287,74.7l-2.695,1.546L270.354,353.2a37.417,37.417,0,0,1-18.09,4.859h-1.392a36.973,36.973,0,0,1-16.786-4.528,23.468,23.468,0,0,1-2.407-1.325l-83.755-47.863a14.953,14.953,0,0,1-7.576-12.3,16.036,16.036,0,0,1,.221-3.423,14.578,14.578,0,0,1,6.008-9.5,66.858,66.858,0,0,1,5.654-3.644l147.035-84.528A40.11,40.11,0,0,0,319.145,159.9v-.817c0-1.414.133-2.849,0-4.263v-.839A39.89,39.89,0,0,0,304.7,124.646a55.965,55.965,0,0,0-8.459-5.765L272.916,105.96l-3.932-4.417Z" transform="translate(74.65 114.086)" fill="#d9d7de"/>
        <path id="Caminho_5391" data-name="Caminho 5391" d="M251.278,356.293a36.224,36.224,0,0,1-17.979-4.749l-85.522-48.879a14.246,14.246,0,0,1,0-24.716L299.164,190.9a41.215,41.215,0,0,0,20.607-35.627v-.839a41.149,41.149,0,0,0-21.2-35.98l-29.619-16.389.641-1.149,29.619,16.389A42.452,42.452,0,0,1,321.1,154.437v.839A42.518,42.518,0,0,1,299.8,192.052L148.44,279.1a12.943,12.943,0,0,0,0,22.419L233.984,350.4a34.942,34.942,0,0,0,34.633,0l154.147-88.062a41.1,41.1,0,0,0,.353-71.187l-30.7-17.957.663-1.149L423.8,190a42.452,42.452,0,0,1-.375,73.484l-154.169,88A36.223,36.223,0,0,1,251.278,356.293Z" transform="translate(74.995 114.642)" fill="#dfe0e0"/>
        <rect id="Retângulo_4337" data-name="Retângulo 4337" width="8.835" height="142.573" transform="matrix(0.499, -0.867, 0.867, 0.499, 339.809, 219.206)" fill="#c7bcd6"/>
        <rect id="Retângulo_4338" data-name="Retângulo 4338" width="4.417" height="142.949" transform="matrix(0.5, -0.866, 0.866, 0.5, 395.349, 184.939)" fill="#c7bcd6"/>
        <rect id="Retângulo_4339" data-name="Retângulo 4339" width="4.417" height="142.949" transform="matrix(0.5, -0.866, 0.866, 0.5, 379.335, 194.213)" fill="#c7bcd6"/>
        <rect id="Retângulo_4340" data-name="Retângulo 4340" width="4.417" height="142.949" transform="matrix(0.5, -0.866, 0.866, 0.5, 363.342, 203.487)" fill="#c7bcd6"/>
        <rect id="Retângulo_4341" data-name="Retângulo 4341" width="4.417" height="142.949" transform="matrix(0.5, -0.866, 0.866, 0.5, 347.327, 212.782)" fill="#c7bcd6"/>
        <rect id="Retângulo_4342" data-name="Retângulo 4342" width="4.417" height="142.949" transform="matrix(0.5, -0.866, 0.866, 0.5, 331.313, 222.056)" fill="#c7bcd6"/>
        <rect id="Retângulo_4343" data-name="Retângulo 4343" width="4.417" height="142.949" transform="matrix(0.5, -0.866, 0.866, 0.5, 315.301, 231.319)" fill="#c7bcd6"/>
        <rect id="Retângulo_4344" data-name="Retângulo 4344" width="4.417" height="142.949" transform="matrix(0.5, -0.866, 0.866, 0.5, 299.298, 240.596)" fill="#c7bcd6"/>
        <rect id="Retângulo_4345" data-name="Retângulo 4345" width="4.417" height="142.949" transform="matrix(0.5, -0.866, 0.866, 0.5, 283.283, 249.847)" fill="#c7bcd6"/>
        <rect id="Retângulo_4346" data-name="Retângulo 4346" width="4.417" height="142.949" transform="matrix(0.5, -0.866, 0.866, 0.5, 267.29, 259.143)" fill="#c7bcd6"/>
        <rect id="Retângulo_4347" data-name="Retângulo 4347" width="4.417" height="142.949" transform="matrix(0.5, -0.866, 0.866, 0.5, 251.276, 268.417)" fill="#c7bcd6"/>
        <rect id="Retângulo_4348" data-name="Retângulo 4348" width="4.417" height="142.949" transform="matrix(0.5, -0.866, 0.866, 0.5, 235.261, 277.691)" fill="#c7bcd6"/>
        <rect id="Retângulo_4349" data-name="Retângulo 4349" width="4.417" height="142.949" transform="matrix(0.5, -0.866, 0.866, 0.5, 219.269, 286.964)" fill="#c7bcd6"/>
        <path id="Caminho_5392" data-name="Caminho 5392" d="M236.191,361.364a4.417,4.417,0,0,1-2.209-.574l-85.544-48.879a18.023,18.023,0,0,1,0-31.231L319.35,182.413l50.8-146.328A42.164,42.164,0,0,1,388,14l14.975-9.21a4.417,4.417,0,1,1,4.616,7.532L392.5,21.507a33.418,33.418,0,0,0-14.114,17.67L326.572,188.421l-173.739,99.9a9.188,9.188,0,0,0,0,15.925l85.522,48.879a4.417,4.417,0,0,1-2.209,8.239Z" transform="translate(73.539 -2.345)" fill="#c7bcd6"/>
        <path id="Caminho_5393" data-name="Caminho 5393" d="M407.6,5.807a1.834,1.834,0,0,1,.287.972c.442,1.414-1.325,3.755-2.651,4.55l-10.293,6.339c-.375.221-4.2,2.606-4.55,2.893a34.257,34.257,0,0,0-12.811,15.682c-.221.53-.6,1.546-.8,2.1l-51.618,148.6L151.718,286.669a9.7,9.7,0,0,0-4.925,7.819,10.138,10.138,0,0,0,.442,3.755,9.431,9.431,0,0,0,3.2,4.594,52.02,52.02,0,0,0,6.229,4.2l79.227,45.213c1.458.839,3.424,3.423,2.783,4.948a1.148,1.148,0,0,1,0,.464,2.626,2.626,0,0,1-.265.486,1.634,1.634,0,0,1-.53.508.729.729,0,0,1-.287.155,4.969,4.969,0,0,1-2.628.376,5.257,5.257,0,0,1-2.209-.707L148.294,310.28a17.074,17.074,0,0,1,0-29.619l170.315-97.935,1.878-3.379L369.7,37.369a57.422,57.422,0,0,1,3.026-7.09,41.48,41.48,0,0,1,13.915-15.594c.353-.309,4.307-2.761,4.7-3l10.138-6.207c1.325-.8,4.2-1.325,5.257-.309l.287.177a2.211,2.211,0,0,1,.574.464Z" transform="translate(73.904 -1.774)" fill="#cdc5d9"/>
        <path id="Caminho_5394" data-name="Caminho 5394" d="M406.054,5.594a1.149,1.149,0,0,1,.133.95c.287.95-2.518,3.49-3.4,4.042l-10.226,6.273c-.773.464-3.8,2.408-4.417,2.96a35.207,35.207,0,0,0-12.347,15.947c-.155.353-.641,1.7-.751,2.054l-51.22,147.764-173.164,99.57a10.536,10.536,0,0,0-5.257,7.686,11.4,11.4,0,0,0,0,3.777,10.2,10.2,0,0,0,2.584,4.948,25.6,25.6,0,0,0,5.875,4.638l79.514,45.411c.972.552,4.152,3.335,3.733,4.417a1.1,1.1,0,0,1-.177.928,1.392,1.392,0,0,1-.53.464.774.774,0,0,1-.309,0c-.4.309-2.054-.2-2.54-.2a8.2,8.2,0,0,1-2.01-.817L148.1,308.72a16.146,16.146,0,0,1,0-27.985l169.719-97.582,2.43-2.938L369.3,38.858c.42-1.215,2.209-6.008,2.849-7.134A40.2,40.2,0,0,1,385.4,15.666c.707-.6,3.843-2.584,4.638-3.07l10.138-6.229c.883-.53,4.417-1.9,5.146-1.215h.309a1.325,1.325,0,0,1,.42.442Z" transform="translate(74.256 -1.341)" fill="#d3cedb"/>
        <path id="Caminho_5395" data-name="Caminho 5395" d="M404.663,5.578a.8.8,0,0,1,0,.928c.155.464-3.667,3.225-4.108,3.512l-10.182,6.229a51.537,51.537,0,0,0-4.417,3.026,36.289,36.289,0,0,0-11.861,16.19l-.729,2.032L322.343,184.441,149.51,283.834a11.618,11.618,0,0,0-5.61,7.554,12.854,12.854,0,0,0-.221,3.8,11.507,11.507,0,0,0,1.944,5.323,16.764,16.764,0,0,0,5.544,5.058L230.9,351.134c.486.287,4.837,3.269,4.638,3.777a.53.53,0,0,1,.155.42.861.861,0,0,1-.11.486.994.994,0,0,1-.574.4H234.7c-.2.155-2.209-.8-2.474-.8a15.02,15.02,0,0,1-1.9-.928L147.942,307.4a15.2,15.2,0,0,1,0-26.35l169.167-97.184,2.982-2.474L368.948,40.432c.221-.6,2.363-6.626,2.673-7.156A39.36,39.36,0,0,1,384.1,16.732a46.38,46.38,0,0,1,4.572-3.136l10.094-6.207c.442-.265,4.682-2.452,5.036-2.209h.309a.972.972,0,0,1,.552.4Z" transform="translate(74.631 -1.104)" fill="#d9d7de"/>
        <path id="Caminho_5396" data-name="Caminho 5396" d="M233.629,355.061a.574.574,0,0,1-.331,0L147.776,306.2a14.268,14.268,0,0,1,0-24.738l172.06-99.062L371.012,34.774a38.829,38.829,0,0,1,16.256-20.232l15-9.188a.574.574,0,0,1,.331,0,.663.663,0,0,1,.353,1.237l-14.975,9.056a37.283,37.283,0,0,0-15.7,19.525L320.94,183.311,148.394,282.527a12.943,12.943,0,0,0,0,22.419l85.544,48.879a.707.707,0,0,1,.309.4.729.729,0,0,1,0,.508.662.662,0,0,1-.618.331Z" transform="translate(74.997 -0.901)" fill="#dfe0e0"/>
        <path id="Caminho_5397" data-name="Caminho 5397" d="M147.774,199.541a17.029,17.029,0,0,1-.751-29.045l109-70.392,109-70.414L488.36,101.54a6.626,6.626,0,0,1,.243,11.375l-4.771-7.443a2.209,2.209,0,0,0,0,3.711L365.179,40.049,258.541,108.983,151.816,177.918a8.194,8.194,0,0,0,.353,13.959Z" transform="translate(73.342 28.544)" fill="#c7bcd6"/>
        <path id="Caminho_5398" data-name="Caminho 5398" d="M364.252,30.07l119.47,69.6a7.841,7.841,0,0,1,3.777,4.948c0,1.325.508,3.114-.353,4.064l-.221.177a12.613,12.613,0,0,1-1.038.861l-5.411-6.626c-.486.287-1.193.574-1.193,1.149s-.11.817.375,1.1L371.3,42.218l-8.99-2.628-102.4,66.151-3.2,2.076-105.555,68.25a11.041,11.041,0,0,0-1.988,1.634,8.636,8.636,0,0,0-2.209,4.992,8.548,8.548,0,0,0,1.789,6.162,8.984,8.984,0,0,0,.906.928c0,.6-2.474,6.008-2.076,6.427l-.685,1.193a15.461,15.461,0,0,1-6.052-7.731,15.968,15.968,0,0,1-.861-6.847,15.328,15.328,0,0,1,2.076-6.405,21.711,21.711,0,0,1,6.935-7.178l103.324-66.88,4.175-2.695Z" transform="translate(74.137 29.004)" fill="#cdc5d9"/>
        <path id="Caminho_5399" data-name="Caminho 5399" d="M363.773,30.44,479.4,97.784c.994.6,4.219,3.158,4.241,4.417s1.59,2.805,1.016,3.424a1.434,1.434,0,0,1-.2.177l-1.016.817-6.03-5.831c-.309.2-1.369,0-1.369.42s-.663.221-.331.4L368.477,39.054h-8.835L258.328,104.565l-3.158,2.054L150.652,174.206a15.637,15.637,0,0,0-2.01,1.546,9.255,9.255,0,0,0-2.209,10.889,10.527,10.527,0,0,0,.618,1.082c.177,1.171-1.193,5.5-.4,6.361l-.685,1.193a14.423,14.423,0,0,1-5.257-8.084,14.954,14.954,0,0,1,0-6.781,13.982,13.982,0,0,1,2.893-5.875c.641-1.59,5.875-5.61,7.355-6.626l102.176-66,4.108-2.673Z" transform="translate(74.638 29.451)" fill="#d3cedb"/>
        <path id="Caminho_5400" data-name="Caminho 5400" d="M363.314,30.81,475.076,95.923c.508.287,4.727,3.092,4.727,3.666s2.695,2.518,2.407,2.827l-.221.155-.972.773-6.626-5.036c-.155,0-1.546-.486-1.546-.309s-1.215-.4-1.038-.287L365.788,35.868l-8.636,2.761L256.765,103.455l-3.092,2.01-103.5,66.9a12.491,12.491,0,0,0-2.054,1.458,10.293,10.293,0,0,0-3.8,10.58,8,8,0,0,0,.375,1.237c.243,1.767,0,5.014,1.237,6.317l-.685,1.215a13.849,13.849,0,0,1-4.417-8.459,14.291,14.291,0,0,1,.751-6.626,13.517,13.517,0,0,1,3.578-5.5,66.018,66.018,0,0,1,7.775-5.919l101.049-65.224,4.064-2.628Z" transform="translate(75.119 29.898)" fill="#d9d7de"/>
        <path id="Caminho_5401" data-name="Caminho 5401" d="M144.609,191.036a13.252,13.252,0,0,1,2.408-20.3l108.029-69.774L363.074,31.19,479.96,99.241l-.2.133a4.417,4.417,0,0,0-.928.751L363.119,32.736l-107.7,69.553L147.7,171.864a11.927,11.927,0,0,0-2.43,17.957Z" transform="translate(75.38 30.358)" fill="#dfe0e0"/>
        <rect id="Retângulo_4350" data-name="Retângulo 4350" width="4.417" height="62.993" transform="translate(534.137 151.443)" fill="url(#linear-gradient-24)"/>
        <rect id="Retângulo_4351" data-name="Retângulo 4351" width="4.417" height="81.237" transform="matrix(0.497, -0.868, 0.868, 0.497, 432.204, 174.023)" fill="#c7bcd6"/>
        <path id="Caminho_5402" data-name="Caminho 5402" d="M255.332,14.977a4.418,4.418,0,0,0,1.745,3.976L385.758,90.825c1.126.641.4-.8,2.209-1.789a13.76,13.76,0,0,0,6.273-10.8c0-1.966,1.811-1.966.707-2.628L265.956,3.712a4.417,4.417,0,0,0-4.417.464,13.871,13.871,0,0,0-6.207,10.8Z" transform="translate(213.625 -3.324)" fill="url(#linear-gradient-70)"/>
        <path id="Caminho_5403" data-name="Caminho 5403" d="M313.65,47.555c0,3.954,2.805,5.566,6.251,3.556a13.76,13.76,0,0,0,6.273-10.8c0-3.954-2.8-5.566-6.273-3.556a13.8,13.8,0,0,0-6.251,10.8Z" transform="translate(284.143 36.036)" fill="url(#linear-gradient-71)"/>
        <path id="Caminho_5404" data-name="Caminho 5404" d="M319.784,36.668a4.572,4.572,0,0,1,4.285-.53,4.992,4.992,0,0,0-3.733.729,13.827,13.827,0,0,0-6.273,10.8,4.285,4.285,0,0,0,1.988,4.108,4,4,0,0,1-2.518-4.307,13.8,13.8,0,0,1,6.251-10.8Z" transform="translate(283.95 35.967)" fill="url(#radial-gradient-9)" style="mix-blend-mode: screen;isolation: isolate"/>
        <path id="Caminho_5405" data-name="Caminho 5405" d="M311.643,54.885a4.417,4.417,0,0,1-2.209-8.239l16.057-9.232a4.423,4.423,0,0,1,4.417,7.664l-16.057,9.232A4.417,4.417,0,0,1,311.643,54.885Z" transform="translate(276.387 37.165)" fill="#c7bcd6"/>
        <path id="Caminho_5406" data-name="Caminho 5406" d="M267.9,10.607c-1.922,3.269,20.1,19.636,49.188,36.532s54.18,27.94,56.1,24.671-20.122-19.636-49.188-36.532S269.8,7.316,267.9,10.607Z" transform="translate(228.707 4.778)" fill="url(#radial-gradient-10)" style="mix-blend-mode: color-dodge;isolation: isolate"/>
        <path id="Caminho_5407" data-name="Caminho 5407" d="M199.756,29.675l13.738-4.02,2.65-7.245,13.429,173.1L198.63,165.07Z" transform="translate(145.115 14.91)" fill="url(#linear-gradient-72)"/>
        <path id="Caminho_5408" data-name="Caminho 5408" d="M318.736,253.286l-107.5-57.427L206.51,18.41,311.734,79.172Z" transform="translate(154.639 14.91)" fill="url(#linear-gradient-73)"/>
        <path id="Caminho_5409" data-name="Caminho 5409" d="M244.7,111.59l.574,48.217,29.376-18.863Z" transform="translate(200.801 127.539)" fill="url(#linear-gradient-74)"/>
        <path id="Caminho_5410" data-name="Caminho 5410" d="M248.93,57.185l3.711-8.415,12.678-2.849,9.1,174.423L244.91,191.674Z" transform="translate(201.055 48.162)" fill="url(#linear-gradient-75)"/>
        <path id="Caminho_5411" data-name="Caminho 5411" d="M302.544,266.271,197.32,205.531,201.229,23.51,306.453,84.272Z" transform="translate(143.531 21.075)" fill="url(#linear-gradient-76)"/>
        <path id="Caminho_5412" data-name="Caminho 5412" d="M218.692,44.227c0,2.43-1.7,3.4-3.821,2.209a8.5,8.5,0,0,1-3.821-6.626c0-2.408,1.723-3.379,3.821-2.209a8.349,8.349,0,0,1,3.821,6.626Z" transform="translate(160.127 37.508)" fill="#c7bcd6" style="mix-blend-mode: multiply;isolation: isolate"/>
        <path id="Caminho_5413" data-name="Caminho 5413" d="M235.982,54.055c0,2.408-1.723,3.379-3.821,2.209a8.349,8.349,0,0,1-3.821-6.626c0-2.43,1.7-3.4,3.821-2.209a8.5,8.5,0,0,1,3.821,6.626Z" transform="translate(181.026 49.37)" fill="#c7bcd6" style="mix-blend-mode: multiply;isolation: isolate"/>
        <path id="Caminho_5414" data-name="Caminho 5414" d="M216.616,44.9a8.415,8.415,0,0,1-3.821-6.626,4.66,4.66,0,0,1,.177-1.171c-1.126.11-1.922,1.06-1.922,2.673a8.5,8.5,0,0,0,3.821,6.626c1.723.994,3.159.508,3.644-1.016a3.379,3.379,0,0,1-1.9-.486Z" transform="translate(160.127 37.501)" fill="#c7bcd6" style="mix-blend-mode: multiply;isolation: isolate"/>
        <path id="Caminho_5415" data-name="Caminho 5415" d="M233.906,54.717a8.393,8.393,0,0,1-3.821-6.626,3.844,3.844,0,0,1,.177-1.171c-1.149,0-1.922,1.038-1.922,2.673a8.349,8.349,0,0,0,3.821,6.626c1.723.994,3.158.508,3.622-1.016a3.225,3.225,0,0,1-1.877-.486Z" transform="translate(181.026 49.371)" fill="#c7bcd6" style="mix-blend-mode: multiply;isolation: isolate"/>
        <path id="Caminho_5416" data-name="Caminho 5416" d="M237.253,105.322a16.411,16.411,0,0,1-8.835-2.695,35.34,35.34,0,0,1-16.1-29.707V42.859a1.877,1.877,0,1,1,3.733,0V72.831a31.586,31.586,0,0,0,14.4,26.507,12.7,12.7,0,0,0,19.655-10.67V64.107a1.855,1.855,0,1,1,3.711,0V88.756a16.234,16.234,0,0,1-8.592,14.467,16.522,16.522,0,0,1-7.974,2.1Z" transform="translate(161.644 41.947)" fill="#c7bcd6" style="mix-blend-mode: multiply;isolation: isolate"/>
        <path id="Caminho_5417" data-name="Caminho 5417" d="M236.937,102.6a16.168,16.168,0,0,1-8.835-2.717A35.34,35.34,0,0,1,212,70.2V40.205a1.855,1.855,0,1,1,3.711,0V70.2a31.629,31.629,0,0,0,14.4,26.5,12.722,12.722,0,0,0,19.569-10.536V61.475a1.855,1.855,0,1,1,3.711,0V86.169a16.212,16.212,0,0,1-8.614,14.445A16.478,16.478,0,0,1,236.937,102.6Z" transform="translate(161.275 39.012)" fill="#c7bcd6"/>
        <path id="Caminho_5418" data-name="Caminho 5418" d="M178.928,63.962l17.537-6.074,6.582-8.018,8.526,132.48L177.89,159.843Z" transform="translate(120.045 52.937)" fill="url(#linear-gradient-77)"/>
        <path id="Caminho_5419" data-name="Caminho 5419" d="M296.43,239.335,197.766,182.35,189.24,49.87,287.9,106.833Z" transform="translate(133.765 52.937)" fill="url(#linear-gradient-78)"/>
        <path id="Caminho_5420" data-name="Caminho 5420" d="M221.09,124.78l.53,45.213,36.289-21.226Z" transform="translate(172.263 143.483)" fill="url(#linear-gradient-79)"/>
        <path id="Caminho_5421" data-name="Caminho 5421" d="M225.057,89.752l8.15-10.16,15.969-3.932,8.526,132.5L221.28,184.793Z" transform="translate(172.492 84.11)" fill="url(#linear-gradient-80)"/>
        <path id="Caminho_5422" data-name="Caminho 5422" d="M275.324,252.827,176.66,195.842,180.326,56.25l98.664,56.963Z" transform="translate(118.559 60.648)" fill="url(#linear-gradient-81)"/>
        <path id="Caminho_5423" data-name="Caminho 5423" d="M275.164,163.866,177.185,107.3l-.155,5.676,98.686,56.963Z" transform="translate(119.006 122.354)" fill="#f1f2f2" style="mix-blend-mode: multiply;isolation: isolate"/>
        <path id="Caminho_5424" data-name="Caminho 5424" d="M198.806,79.308c0,2.209-1.612,3.181-3.578,2.054a7.885,7.885,0,0,1-3.578-6.184c0-2.209,1.59-3.181,3.578-2.032A7.863,7.863,0,0,1,198.806,79.308Z" transform="translate(136.678 80.484)" fill="#c7bcd6" style="mix-blend-mode: multiply;isolation: isolate"/>
        <path id="Caminho_5425" data-name="Caminho 5425" d="M215.016,88.54c0,2.209-1.612,3.181-3.578,2.032a7.863,7.863,0,0,1-3.578-6.184c0-2.209,1.59-3.2,3.578-2.054a7.929,7.929,0,0,1,3.578,6.207Z" transform="translate(156.271 91.594)" fill="#c7bcd6" style="mix-blend-mode: multiply;isolation: isolate"/>
        <path id="Caminho_5426" data-name="Caminho 5426" d="M196.853,79.965a7.8,7.8,0,0,1-3.578-6.162,3.866,3.866,0,0,1,.155-1.082c-1.06,0-1.789.972-1.789,2.5a7.885,7.885,0,0,0,3.578,6.184c1.612.928,2.96.464,3.4-.95a3.2,3.2,0,0,1-1.767-.486Z" transform="translate(136.666 80.556)" fill="#c7bcd6" style="mix-blend-mode: multiply;isolation: isolate"/>
        <path id="Caminho_5427" data-name="Caminho 5427" d="M213.073,89.137a7.907,7.907,0,0,1-3.6-6.184,4.112,4.112,0,0,1,.177-1.082c-1.06,0-1.789.994-1.789,2.518a7.863,7.863,0,0,0,3.578,6.162c1.612.928,2.96.486,3.4-.95A3,3,0,0,1,213.073,89.137Z" transform="translate(156.271 91.616)" fill="#c7bcd6" style="mix-blend-mode: multiply;isolation: isolate"/>
        <path id="Caminho_5428" data-name="Caminho 5428" d="M216.259,136.4a15.461,15.461,0,0,1-8.393-2.54,33.131,33.131,0,0,1-15.086-27.852V77.955a1.745,1.745,0,0,1,3.49,0v28.051a29.685,29.685,0,0,0,13.517,24.959,11.927,11.927,0,0,0,18.421-10.006V97.833a1.745,1.745,0,1,1,3.49,0v23.1a15.174,15.174,0,0,1-8.062,13.562,15.461,15.461,0,0,1-7.377,1.9Z" transform="translate(138.043 84.775)" fill="#c7bcd6" style="mix-blend-mode: multiply;isolation: isolate"/>
        <path id="Caminho_5429" data-name="Caminho 5429" d="M215.981,134.064a15.2,15.2,0,0,1-8.393-2.54,33.131,33.131,0,0,1-15.108-27.852V75.555a1.745,1.745,0,1,1,3.49,0v28.117a29.641,29.641,0,0,0,13.517,24.937,11.927,11.927,0,0,0,18.443-9.983V95.5a1.745,1.745,0,0,1,3.49,0v23.125a15.461,15.461,0,0,1-15.461,15.461Z" transform="translate(137.681 81.874)" fill="#c7bcd6"/>
        <rect id="Retângulo_4352" data-name="Retângulo 4352" width="241.591" height="4.417" transform="matrix(0.863, -0.506, 0.506, 0.863, 330.865, 315.254)" fill="#c7bcd6"/>
        <rect id="Retângulo_4353" data-name="Retângulo 4353" width="4.417" height="81.06" transform="translate(329.277 280.101)" fill="url(#linear-gradient-23)"/>
        <path id="Caminho_5430" data-name="Caminho 5430" d="M204.227,207.288H199.81V127.619l4.417-2.209Z" transform="translate(146.541 144.244)" fill="url(#linear-gradient-25)"/>
        <rect id="Retângulo_4354" data-name="Retângulo 4354" width="4.417" height="82.717" transform="translate(363.424 259.185)" fill="url(#linear-gradient-25)"/>
        <rect id="Retângulo_4355" data-name="Retângulo 4355" width="4.417" height="83.534" transform="translate(380.498 248.715)" fill="url(#linear-gradient-24)"/>
        <rect id="Retângulo_4356" data-name="Retângulo 4356" width="4.417" height="84.351" transform="translate(397.549 238.246)" fill="url(#linear-gradient-86)"/>
        <rect id="Retângulo_4357" data-name="Retângulo 4357" width="4.417" height="85.169" transform="translate(414.623 227.777)" fill="url(#linear-gradient-24)"/>
        <rect id="Retângulo_4358" data-name="Retângulo 4358" width="4.417" height="86.008" transform="translate(431.696 217.307)" fill="url(#linear-gradient-24)"/>
        <rect id="Retângulo_4359" data-name="Retângulo 4359" width="4.417" height="86.825" transform="translate(448.77 206.86)" fill="url(#linear-gradient-25)"/>
        <rect id="Retângulo_4360" data-name="Retângulo 4360" width="4.417" height="87.642" transform="translate(465.821 196.39)" fill="url(#linear-gradient-24)"/>
        <rect id="Retângulo_4361" data-name="Retângulo 4361" width="4.417" height="88.46" transform="translate(482.894 185.921)" fill="url(#linear-gradient-25)"/>
        <rect id="Retângulo_4362" data-name="Retângulo 4362" width="4.417" height="89.277" transform="translate(499.968 175.452)" fill="url(#linear-gradient-24)"/>
        <rect id="Retângulo_4363" data-name="Retângulo 4363" width="4.417" height="90.116" transform="translate(517.041 164.982)" fill="url(#linear-gradient-24)"/>
        <rect id="Retângulo_4364" data-name="Retângulo 4364" width="4.417" height="79.558" transform="translate(220.762 225.855)" fill="url(#linear-gradient-24)"/>
        <rect id="Retângulo_4365" data-name="Retângulo 4365" width="4.417" height="79.558" transform="translate(234.103 233.343)" fill="url(#linear-gradient-24)"/>
        <rect id="Retângulo_4366" data-name="Retângulo 4366" width="4.417" height="79.558" transform="translate(247.444 240.83)" fill="url(#linear-gradient-23)"/>
        <rect id="Retângulo_4367" data-name="Retângulo 4367" width="4.417" height="79.558" transform="translate(260.807 248.34)" fill="url(#linear-gradient-24)"/>
        <rect id="Retângulo_4368" data-name="Retângulo 4368" width="4.417" height="79.558" transform="translate(274.147 255.827)" fill="url(#linear-gradient-24)"/>
        <rect id="Retângulo_4369" data-name="Retângulo 4369" width="4.417" height="79.558" transform="translate(287.488 263.315)" fill="url(#linear-gradient-24)"/>
        <rect id="Retângulo_4370" data-name="Retângulo 4370" width="4.417" height="79.558" transform="translate(300.829 270.803)" fill="url(#linear-gradient-24)"/>
        <rect id="Retângulo_4371" data-name="Retângulo 4371" width="4.417" height="79.558" transform="translate(314.192 278.29)" fill="url(#linear-gradient-24)"/>
        <path id="Caminho_5431" data-name="Caminho 5431" d="M255.713,216.478a38.1,38.1,0,0,1-19.15-5.146l-88.747-51.11a16.875,16.875,0,0,1-8.526-14.313c-.155-5.986,8.835-3.092,8.835-.221a8.128,8.128,0,0,0,4.086,6.869l88.747,51.132a29.42,29.42,0,0,0,30.723-.773l212.1-136.764c-.641.42,4.528-3.932,4.528-3.932a6.626,6.626,0,0,1,.243,11.375L276.387,210.337A38.321,38.321,0,0,1,255.713,216.478Z" transform="translate(73.387 67.864)" fill="#c7bcd6"/>
        <path id="Caminho_5432" data-name="Caminho 5432" d="M255.1,213.335a37.328,37.328,0,0,1-18.664-5.014l-88.747-51.11a15.947,15.947,0,0,1-8.04-13.539c-.155-5.3,6.869-3.048,6.935-.177a9.078,9.078,0,0,0,4.572,7.686l88.658,51.11a28.029,28.029,0,0,0,27.189.552c1.59,0,162.3-103.037,163.645-103.81-.486.287,53.3-35.163,53.3-35.163a5.522,5.522,0,0,1,2.717,4.417,4.926,4.926,0,0,1-2.209,4.417L275.378,207.349A37.306,37.306,0,0,1,255.1,213.335Z" transform="translate(73.822 69.859)" fill="#d2cadd"/>
        <path id="Caminho_5433" data-name="Caminho 5433" d="M254.612,210.184a36.576,36.576,0,0,1-18.2-4.881l-88.747-51.11a15.041,15.041,0,0,1-7.664-12.7c-.133-4.66,5.014-3,5.08-.133a9.961,9.961,0,0,0,5.036,8.459l88.725,51.132a27.41,27.41,0,0,0,23.678,1.833c3.2,0,112.4-69.288,115.1-71.033L479.7,65.49a4.572,4.572,0,0,1,2.209,3.136,3.224,3.224,0,0,1-1.414,2.938L274.358,204.485A36.223,36.223,0,0,1,254.612,210.184Z" transform="translate(74.245 71.817)" fill="#dcd7e4"/>
        <path id="Caminho_5434" data-name="Caminho 5434" d="M254.025,207.155a35.538,35.538,0,0,1-17.67-4.771l-88.813-51.132a14.07,14.07,0,0,1-7.112-11.927c0-4.02,3.136-2.982,3.2,0a11.044,11.044,0,0,0,5.5,9.255l88.747,51.11a28.161,28.161,0,0,0,20.144,3.159c4.793,0,62.507-35.583,66.549-38.189L475.45,67.1a4.02,4.02,0,0,1,1.524,1.922,1.612,1.612,0,0,1-.6,1.524l-203.2,131a35.472,35.472,0,0,1-19.15,5.61Z" transform="translate(74.766 73.763)" fill="#e6e4eb"/>
        <path id="Caminho_5435" data-name="Caminho 5435" d="M253.475,204.1a34.787,34.787,0,0,1-17.272-4.638l-88.747-51.132a13.12,13.12,0,0,1-6.626-11.044c0-3.357,1.237-2.916,1.325,0a11.839,11.839,0,0,0,5.964,10.05l88.747,51.11a33.131,33.131,0,0,0,34.655-.972L471.145,68.7a6.865,6.865,0,0,0,.95.685l.221.132L272.227,198.6a34.523,34.523,0,0,1-18.752,5.5Z" transform="translate(75.25 75.697)" fill="#f1f2f2"/>
        <path id="Caminho_5436" data-name="Caminho 5436" d="M250.125,326.522a40.088,40.088,0,0,1-19.879-5.257L144.7,272.386a4.423,4.423,0,1,1,4.417-7.664L234.642,313.6a31.32,31.32,0,0,0,30.922,0l173.783-99.194L489.662,69.47a42.253,42.253,0,0,1,18.885-22.794L524.6,37.444a4.423,4.423,0,1,1,4.417,7.664l-16.057,9.232a33.308,33.308,0,0,0-14.931,18.023l-25.71,74.015L446.635,220.5l-176.7,100.828A40.022,40.022,0,0,1,250.125,326.522Z" transform="translate(77.253 37.201)" fill="#c7bcd6"/>
        <path id="Caminho_5437" data-name="Caminho 5437" d="M529.223,38.682a2.076,2.076,0,0,1,.265.972c.4,1.436-1.436,3.711-2.783,4.417L515.286,50.7c-.376.2-4.13,2.408-4.417,2.65a34.345,34.345,0,0,0-13.849,16.61l-.6,1.612-25.533,73.484-25.643,73.86L268.9,319.589a39.05,39.05,0,0,1-18.31,5.1H249.2a39.006,39.006,0,0,1-17.14-4.108c-.641-.309-1.877-.994-2.5-1.347l-84.948-48.592a2.738,2.738,0,0,1-.707-.729,3.49,3.49,0,0,1-.442-4.108.906.906,0,0,1,.221-.2c.972-1.414,4.263-1.082,5.765-.221l84.108,48.15a32.159,32.159,0,0,0,17.449,4.174,31.827,31.827,0,0,0,14.4-4.175L438.6,214.674l1.922-3.424L466.186,137.3l23.1-66.593a56.9,56.9,0,0,1,3.07-7.134,41.016,41.016,0,0,1,14.887-16.19c.353-.287,4.417-2.628,4.771-2.849l11.176-6.427c1.347-.773,4.241-1.215,5.279-.155a.928.928,0,0,1,.265.177,2.429,2.429,0,0,1,.486.552Z" transform="translate(77.868 37.774)" fill="#cdc5d9"/>
        <path id="Caminho_5438" data-name="Caminho 5438" d="M527.83,38.369a1.171,1.171,0,0,1,0,.972c.265.95-2.584,3.4-3.468,3.909L513.01,49.876c-.729.42-3.711,2.209-4.417,2.717A35.162,35.162,0,0,0,495.34,69.4c-.11.287-.464,1.325-.574,1.59L469.454,143.88l-25.577,73.705-176.058,100.5a38.255,38.255,0,0,1-18.2,4.97h-1.392a38.056,38.056,0,0,1-16.963-4.418c-.42-.2-2.032-1.1-2.452-1.325l-84.351-48.217a1.126,1.126,0,0,1-.552-.773,2.54,2.54,0,0,1,0-2.849h.243c.663-.95,4.682.331,5.7.906l82.761,47.289a33.307,33.307,0,0,0,32.778,0l172.524-98.6,2.474-2.982,25.577-73.661L489,72.163c.442-1.237,2.209-6.052,2.871-7.178a40.11,40.11,0,0,1,14.158-16.7c.707-.552,3.888-2.474,4.7-2.938l11.044-6.383c.883-.508,4.417-1.767,5.191-1.06a.42.42,0,0,1,.265,0,1.193,1.193,0,0,1,.6.464Z" transform="translate(78.444 38.22)" fill="#d3cedb"/>
        <path id="Caminho_5439" data-name="Caminho 5439" d="M526.479,38.341a.8.8,0,0,1,0,.928c.133.486-3.755,3.114-4.2,3.357l-11.309,6.516a47.864,47.864,0,0,0-4.417,2.783,36.091,36.091,0,0,0-12.877,17.007c0,.155-.508,1.436-.552,1.568L468.1,142.836l-25.511,73.529L266.843,316.685a37.107,37.107,0,0,1-18.09,4.859h-1.369a37.55,37.55,0,0,1-16.786-4.528l-2.408-1.347-83.755-47.863a.8.8,0,0,1-.42-.839,1.679,1.679,0,0,1,.243-1.59.663.663,0,0,1,.287,0c.331-.464,5.124,1.767,5.632,2.054l81.37,46.494a34.125,34.125,0,0,0,17.361,4.417,33.639,33.639,0,0,0,16.345-4.418l171.994-98.178,3.048-2.518,25.489-73.4,22.882-66.151c.2-.618,2.363-6.626,2.695-7.2a39.36,39.36,0,0,1,13.385-17.206c1.082-.839,3.446-2.209,4.638-3l11.044-6.361c.464-.265,4.749-2.209,5.1-1.966a.486.486,0,0,1,.309,0A.8.8,0,0,1,526.479,38.341Z" transform="translate(78.978 38.491)" fill="#d9d7de"/>
        <path id="Caminho_5440" data-name="Caminho 5440" d="M248.043,320.253a36.25,36.25,0,0,1-17.983-4.773l-85.518-48.855a.663.663,0,0,1,.331-1.237.707.707,0,0,1,.309,0l85.544,48.879a35.009,35.009,0,0,0,34.633,0l175-99.9,25.4-73.131L491.135,68.1a38.674,38.674,0,0,1,17.206-20.784L524.4,38.11a.662.662,0,0,1,.331-.11.707.707,0,0,1,.574.353.641.641,0,0,1-.243.906L509,48.469a37.173,37.173,0,0,0-16.61,20.077l-25.467,73.44-25.467,73.374L266.022,315.5A36.444,36.444,0,0,1,248.043,320.253Z" transform="translate(79.335 38.589)" fill="#dfe0e0"/>
        <path id="Caminho_5441" data-name="Caminho 5441" d="M202.079,141.881a40.574,40.574,0,0,1-15.461-3.048,4.749,4.749,0,0,1-2.341-6.737l1.988-3.446a4.7,4.7,0,0,1,5.809-1.922,27.056,27.056,0,0,0,9.961,1.9,27.476,27.476,0,0,0,11.331-2.474,4.66,4.66,0,0,1,5.831,1.811l2.076,3.2a4.749,4.749,0,0,1-1.988,6.847,40.486,40.486,0,0,1-17.206,3.865Z" transform="translate(127.021 144.67)" fill="url(#radial-gradient-11)"/>
        <path id="Caminho_5442" data-name="Caminho 5442" d="M199.513,134.061a35.826,35.826,0,0,1-13.716-2.717.42.42,0,0,1-.221-.221.265.265,0,0,1,0-.243l1.988-3.424h.375a31.54,31.54,0,0,0,24.738-.707.464.464,0,0,1,.287.2l2.054,3.2a.331.331,0,0,1,0,.243.486.486,0,0,1-.2.221A35.671,35.671,0,0,1,199.513,134.061Z" transform="translate(129.3 145.864)" fill="url(#radial-gradient-12)" style="mix-blend-mode: color-dodge;isolation: isolate"/>
        <path id="Caminho_5443" data-name="Caminho 5443" d="M219.26,131.9a40.221,40.221,0,0,1-32.667.817,4.682,4.682,0,0,1-2.783-3.2,4.727,4.727,0,0,0,2.783,5.61,40.464,40.464,0,0,0,32.667-.817,4.749,4.749,0,0,0,2.562-5.478,4.727,4.727,0,0,1-2.562,3.07Z" transform="translate(127.003 148.378)" fill="#be31b6" style="mix-blend-mode: darken;isolation: isolate"/>
        <path id="Caminho_5444" data-name="Caminho 5444" d="M150.065,120.551a3.887,3.887,0,0,1-6.008.95,19.26,19.26,0,0,1-.685-26.858,3.865,3.865,0,0,1,6.052.641l3.114,4.815a4.064,4.064,0,0,1-.133,4.417,6.008,6.008,0,0,0-.906,3.335,5.853,5.853,0,0,0,1.082,3.291,4.086,4.086,0,0,1,.353,4.417Z" transform="translate(72.134 105.635)" fill="url(#radial-gradient-13)"/>
        <path id="Caminho_5445" data-name="Caminho 5445" d="M146.069,114.758a14.865,14.865,0,0,1-3.512-19.238l3.158,3.534a10.58,10.58,0,0,0-.663,5.941,10.271,10.271,0,0,0,2.717,5.323Z" transform="translate(74.804 108.115)" fill="url(#radial-gradient-14)" style="mix-blend-mode: color-dodge;isolation: isolate"/>
        <path id="Caminho_5446" data-name="Caminho 5446" d="M145.544,118.331a19.3,19.3,0,0,1-2.96-23.921,19.238,19.238,0,0,0,1.48,25.953,3.887,3.887,0,0,0,6.008-.95l.574-.994a3.821,3.821,0,0,1-5.1-.088Z" transform="translate(72.127 106.773)" fill="#be31b6" style="mix-blend-mode: darken;isolation: isolate"/>
        <path id="Caminho_5447" data-name="Caminho 5447" d="M177.872,126.086c-1.325,3.291,6.251,9.5,16.963,13.915s20.5,5.3,21.844,2.032-6.251-9.5-16.963-13.893S179.22,122.75,177.872,126.086Z" transform="translate(119.842 142.663)" fill="url(#radial-gradient-15)" style="mix-blend-mode: color-dodge;isolation: isolate"/>
        <path id="Caminho_5784" data-name="Caminho 5784" d="M178.32,56.28l98.664,56.963,8.128-10.16-8.857,8.283Z" transform="translate(120.565 60.685)" fill="url(#radial-gradient-16)" style="mix-blend-mode: color-dodge;isolation: isolate"/>
        <path id="Caminho_5785" data-name="Caminho 5785" d="M199.09,23.51,304.314,84.272l3.711-8.415-4.616,5.986Z" transform="translate(145.671 21.075)" fill="url(#radial-gradient-17)" style="mix-blend-mode: color-dodge;isolation: isolate"/>
        <path id="Caminho_5786" data-name="Caminho 5786" d="M191.725,289.481l-83.357-48.128c-8.415-4.859-7.355-13.252,2.363-18.951h0c9.7-5.588,24.3-6.207,32.8-1.347l83.357,48.128c8.415,4.859,7.355,13.252-2.363,18.929h0C214.784,293.721,200.1,294.34,191.725,289.481Z" transform="translate(29.148 255.889)" fill="url(#linear-gradient-102)"/>
        <path id="Caminho_5787" data-name="Caminho 5787" d="M102.946,229.9a11.044,11.044,0,0,0,5.3,5.941l83.4,48.128c8.415,4.859,23.1,4.241,32.8-1.369a15.461,15.461,0,0,0,7.664-8.3,6.274,6.274,0,0,0,0-3.136,15.462,15.462,0,0,1-7.664,8.3c-9.7,5.61-24.3,6.229-32.8,1.369L108.291,232.7a10.889,10.889,0,0,1-5.3-5.941,5.831,5.831,0,0,0-.044,3.136Z" transform="translate(29.225 266.749)" opacity="0.3" fill="url(#linear-gradient-103)"/>
        <path id="Caminho_5788" data-name="Caminho 5788" d="M224.5,278.137h0c-9.7,5.61-24.3,6.229-32.8,1.369l-83.357-48.128a10.248,10.248,0,0,1-5.588-7.178c-.508,3.512,1.3,6.913,5.588,9.387l83.4,48.128c8.415,4.859,23.1,4.241,32.8-1.369h0c5.831-3.357,8.5-7.731,7.951-11.75C231.944,271.953,229.294,275.4,224.5,278.137Z" transform="translate(29.128 263.654)" fill="url(#radial-gradient-18)" style="mix-blend-mode: color-dodge;isolation: isolate"/>
        <path id="Caminho_5789" data-name="Caminho 5789" d="M115.37,236.371a.508.508,0,0,1,.287-.4l19-11.044a1.392,1.392,0,0,1,.729-.2,1.259,1.259,0,0,1,.707.177l8.526,4.9c2.209,1.325,3.49,2.606,3.644,3.843s-.685,2.341-2.408,3.357a8.57,8.57,0,0,1-3.335,1.06,11.218,11.218,0,0,1-3.269-.132,2.518,2.518,0,0,1,.265,2.209,4.02,4.02,0,0,1-2.01,2.209,11.618,11.618,0,0,1-6.229,1.458,14.267,14.267,0,0,1-6.825-2.032l-8.835-5.058a.486.486,0,0,1-.243-.353Zm11.706,3.4a6.428,6.428,0,0,0,3.2.883,5.963,5.963,0,0,0,2.982-.729c.839-.486,1.259-1.06,1.237-1.723s-.53-1.259-1.524-1.833l-4.859-2.805-5.9,3.4Zm8.636-5.323a6.626,6.626,0,0,0,3.026.906,5.212,5.212,0,0,0,2.761-.663c.817-.486,1.193-.994,1.1-1.568s-.618-1.126-1.634-1.723l-4.55-2.628-5.257,3.048Z" transform="translate(44.476 264.294)" fill="#fff"/>
        <path id="Caminho_5790" data-name="Caminho 5790" d="M126.355,242.031c-.133-1.634,1.171-3.225,3.887-4.793l11.883-6.869a1.524,1.524,0,0,1,.707-.177,1.193,1.193,0,0,1,.729.177l2.695,1.546c.221.133.331.265.331.442s0,.287-.331.42l-11.861,6.847q-2.319,1.325-2.385,2.65c0,.861.618,1.679,1.966,2.474a8.261,8.261,0,0,0,4.307,1.126,9.474,9.474,0,0,0,4.572-1.369l11.861-6.847a1.392,1.392,0,0,1,.729-.2,1.413,1.413,0,0,1,.751.2l2.695,1.546c.221.133.309.265.309.42a.64.64,0,0,1-.331.42l-11.883,6.847A15.66,15.66,0,0,1,138.7,249.1a17.3,17.3,0,0,1-8.172-2.408C127.791,245.234,126.488,243.643,126.355,242.031Z" transform="translate(57.743 270.892)" fill="#fff"/>
        <path id="Caminho_5791" data-name="Caminho 5791" d="M137.11,251.1a.464.464,0,0,1,.287-.4l6.626-3.8,5.279-11.044a1.3,1.3,0,0,1,.221-.243,1.5,1.5,0,0,1,1.237,0l2.628,1.524a.663.663,0,0,1,.375.861l-3.534,7.731,13.429-2.032a3.6,3.6,0,0,1,.707,0,1.657,1.657,0,0,1,.729.221l2.628,1.524a.419.419,0,0,1,.265.353c0,.133,0,.243-.265.353a1.059,1.059,0,0,1-.4.133l-19.15,3.048-6.626,3.8a1.259,1.259,0,0,1-.707.177,1.391,1.391,0,0,1-.729-.2l-2.695-1.546A.486.486,0,0,1,137.11,251.1Z" transform="translate(70.753 277.289)" fill="#fff"/>
      </g>
    </g>
  </g>
</svg>
