<svg id="seo-and-web" xmlns="http://www.w3.org/2000/svg" width="83.733" height="74.663" viewBox="0 0 83.733 74.663">
  <path id="Caminho_4734" data-name="Caminho 4734" d="M56.719,64.7a22.721,22.721,0,0,1,.128-2.38H27.689a6.192,6.192,0,0,1-6.055-6.306V13.688a6.221,6.221,0,0,0-5.5,6.28V61.75a6.193,6.193,0,0,0,6.055,6.308H56.973A22.321,22.321,0,0,1,56.719,64.7Zm0,0" transform="translate(-13.775 -11.186)" fill="#d4e1f4"/>
  <path id="Caminho_4735" data-name="Caminho 4735" d="M64.548,6.161V29.384q-.612-.04-1.236-.04c-.443,0-.88.015-1.316.046V15.343H2.553v32.34A6.153,6.153,0,0,0,8.57,53.951H43.141q.158,1.057.419,2.093c.048.19.1.38.152.566H8.57A8.763,8.763,0,0,1,0,47.683V6.161A8.763,8.763,0,0,1,8.57-2.766H55.978A8.764,8.764,0,0,1,64.548,6.161Zm-2.553,6.522V6.161A6.154,6.154,0,0,0,55.978-.106H8.57A6.153,6.153,0,0,0,2.553,6.161v6.522Zm0,0" transform="translate(0 2.766)" fill="#0635c9"/>
  <g id="Grupo_10365" data-name="Grupo 10365" transform="translate(4.437 5.368)">
    <path id="Caminho_4736" data-name="Caminho 4736" d="M315.568,208.5q-.612-.04-1.237-.04c-.443,0-.88.015-1.316.046a20.269,20.269,0,0,0-15.242,8.805,22.027,22.027,0,0,0-3.192,17.848c.048.19.1.38.152.566,2.919,10.366,12.833,16.807,23.054,14.978s17.5-11.345,16.936-22.131S325.919,209.152,315.568,208.5Zm-1.237,39.847A18.011,18.011,0,0,1,297.05,234.48c-.029-.118-.059-.235-.086-.356a19.231,19.231,0,0,1,3.311-15.878,17.638,17.638,0,0,1,14.017-7.131h.04c9.869,0,17.869,8.334,17.869,18.614S324.2,248.343,314.331,248.343Zm0,0" transform="translate(-255.458 -181.714)" fill="#ac51d6"/>
    <path id="Caminho_4737" data-name="Caminho 4737" d="M390.2,311.542l-9.224,7.818-3.566-4.352a1.242,1.242,0,0,0-1.8-.148,1.368,1.368,0,0,0-.142,1.874l4.376,5.34a1.242,1.242,0,0,0,1.776.167l10.192-8.637a1.368,1.368,0,0,0,.185-1.871A1.242,1.242,0,0,0,390.2,311.542Zm0,0" transform="translate(-324.851 -268.875)" fill="#ac51d6"/>
    <path id="Caminho_4738" data-name="Caminho 4738" d="M175.015,40.412h.011a3.719,3.719,0,0,0,.01-7.432h-.01a3.719,3.719,0,0,0-.011,7.432Zm-.706-4.465a.988.988,0,0,1,.717-.308h0a1.058,1.058,0,0,1,0,2.114h0a1.015,1.015,0,0,1-.936-.654A1.088,1.088,0,0,1,174.309,35.947Zm0,0" transform="translate(-150.869 -32.914)" fill="#1ae5be"/>
    <path id="Caminho_4739" data-name="Caminho 4739" d="M104.48,40.186h.011a3.719,3.719,0,0,0,.013-7.432h-.013a3.719,3.719,0,0,0-.011,7.432Zm-.7-4.465a.99.99,0,0,1,.715-.308h0a1.036,1.036,0,0,1,1.012,1.06v0a1.036,1.036,0,0,1-1.016,1.052h0a1.016,1.016,0,0,1-.936-.656A1.089,1.089,0,0,1,103.776,35.721Zm0,0" transform="translate(-90.627 -32.722)" fill="#1ae5be"/>
    <path id="Caminho_4740" data-name="Caminho 4740" d="M33.968,39.975h.011a3.572,3.572,0,0,0,3.3-2.289,3.83,3.83,0,0,0-.764-4.047,3.464,3.464,0,0,0-2.52-1.1h-.011a3.719,3.719,0,0,0-.011,7.432Zm-.7-4.467a.986.986,0,0,1,.714-.306h0a1.058,1.058,0,0,1,0,2.114h0a1.039,1.039,0,0,1-1.01-1.062A1.063,1.063,0,0,1,33.265,35.508Zm0,0" transform="translate(-30.406 -32.543)" fill="#1ae5be"/>
  </g>
</svg>
