<svg xmlns="http://www.w3.org/2000/svg" xmlns:xlink="http://www.w3.org/1999/xlink" width="863.45" height="751.636" viewBox="0 0 863.45 751.636"><defs><linearGradient id="a" x1="0.498" y1="1.08" x2="0.498" y2="0.201" gradientUnits="objectBoundingBox"><stop offset="0" stop-color="#c8cbf7"/><stop offset="0.004" stop-color="#c7caf6"/><stop offset="0.254" stop-color="#abaff3"/><stop offset="0.504" stop-color="#979bf1"/><stop offset="0.753" stop-color="#8b8ff0"/><stop offset="1" stop-color="#878cf0"/></linearGradient><linearGradient id="b" x1="0.5" y1="0.987" x2="0.5" y2="0.051" gradientUnits="objectBoundingBox"><stop offset="0" stop-color="#c8cbf7"/><stop offset="0.004" stop-color="#c9ebe3"/><stop offset="0.254" stop-color="#b3e3d7"/><stop offset="0.504" stop-color="#95ddcb"/><stop offset="0.753" stop-color="#83dec8"/><stop offset="1" stop-color="#70ddc2"/></linearGradient><linearGradient id="c" x1="0.486" y1="1.047" x2="0.486" y2="0.154" xlink:href="#a"/><linearGradient id="d" x1="-1.381" y1="-0.916" x2="-1.381" y2="-1.858" xlink:href="#a"/></defs><g transform="translate(0 55.805)"><g transform="translate(0 0)"><path d="M1184.745,442.184C1182.4,550.614,1126.9,651.6,1039.88,714.574q-11.225,8.129-22.755,15.415c-70.752,44.935-148.891,66.415-228.594,65.45A451,451,0,0,1,660.4,774.875c-135.278-41.818-263.616-145.2-302.07-292.01C337.1,401.8,338.681,296.736,389.07,227.921a173.88,173.88,0,0,1,29.527-31.4c37.316-30.807,83.7-46.05,131.132-50.133,3.908-.322,7.814-.594,11.722-.768a344.457,344.457,0,0,1,76.624,5.147c42.385,7.6,82.734,23.036,122.774,39.1q1.1.483,2.2.89c30.878,12.447,61.59,25.166,92.963,34.89,3.432,1.065,6.867,2.1,10.324,3.068A359.26,359.26,0,0,0,924,240.615c7.6.89,15.272,1.584,22.946,2.152,13.852,1.04,27.774,1.683,41.555,2.374,86.049,4.357,166.368,10.517,189.525,123.155A331.313,331.313,0,0,1,1184.745,442.184Z" transform="translate(-326.298 -99.64)" fill="#d0e0ea"/><path d="M1034.949,219.035c38.633,69.077,39.58,154.052,5.741,227.337q-4.364,9.454-9.239,18.5A325.638,325.638,0,0,1,905.515,594.528a358.094,358.094,0,0,1-91.8,36.677c-104.368,26.086-226.99,10.777-306.646-66.633-43.989-42.74-81.873-109.409-74.263-172.182a129.419,129.419,0,0,1,7.766-31.174c13.1-33.816,37.933-61.359,67.58-82.288,2.447-1.715,4.914-3.4,7.415-5.021a274.24,274.24,0,0,1,52.249-26.43c30.662-11.634,62.89-17.549,95.147-22.955q.9-.122,1.776-.292c24.9-4.13,49.788-8.025,74-14.058,2.651-.662,5.292-1.337,7.92-2.069a284.538,284.538,0,0,0,42.289-14.839c5.324-2.383,10.621-4.919,15.873-7.531,9.486-4.71,18.872-9.7,28.184-14.6,58.146-30.576,113.2-57.8,170.143,4.049A231.819,231.819,0,0,1,1034.949,219.035Z" transform="translate(-216.958 -108.851)" fill="url(#a)"/><path d="M1140.04,423.326c-2.243,99.278-55.348,191.736-138.608,249.395q-10.739,7.442-21.772,14.115A408.568,408.568,0,0,1,760.941,746.76a449.329,449.329,0,0,1-122.591-18.827c-129.432-38.288-252.227-132.944-289.02-267.361-20.322-74.22-18.8-170.417,29.407-233.422A162.385,162.385,0,0,1,406.99,198.4c35.706-28.206,80.088-42.162,125.468-45.9,3.738-.295,7.476-.544,11.215-.7a344.106,344.106,0,0,1,73.314,4.712c40.554,6.955,79.159,21.093,117.47,35.8q1.053.442,2.107.816c29.543,11.4,58.928,23.041,88.947,31.945,3.285.974,6.57,1.926,9.878,2.809a357.325,357.325,0,0,0,55.167,10.9c7.273.816,14.613,1.45,21.953,1.971,13.254.952,26.575,1.541,39.761,2.175,82.331,3.987,159.179,9.629,181.337,112.758A290.793,290.793,0,0,1,1140.04,423.326Z" transform="translate(-336.988 -91.784)" fill="url(#b)"/><g transform="translate(-938.84 -286.364)"><g transform="translate(1005.655 230.559)"><g transform="translate(15.8 316.286)"><path d="M64.934,237.518s-17.839,3.119-6.4,42.027,20.681,58.847,20.681,58.847,1.663,8.845-5.516,8.821-22-5.334-26.686,2.576c-4.861,8.2-.028,17.711,11.57,27.437S94.8,409.19,97.023,411.21c2.18,1.982,3.93,6.282-.963,7.05s-39.929-2.109-40.3,14.6,36.39,38.492,40.365,40.95,4.655,4.467,3.865,6.753-12.477.21-22.475-.2-21.665.868-21.071,10.524,20.327,33.422,76.041,49.66l26.308,5.834L177.4,526.724c37.264-44.486,40.441-75.211,35.563-83.567s-15.284-2.927-23.364,2.976-16.636,14.129-18.564,12.671-2.479-3.508-.545-7.761,20.361-42.806,10.761-56.485-37.117,8.205-41.611,10.29-5.431-2.464-4.722-5.323c.722-2.912,8.813-35.094,13.041-49.628s2.953-25.124-5.65-29.234c-8.3-3.965-17.657,8.691-23.608,12.7s-9.49-4.261-9.49-4.261S105.8,307.4,93.657,268.7s-29.079-31.093-29.079-31.093" transform="translate(-45.133 -237.003)" fill="#ebebeb"/><g transform="translate(29.984 35.379)"><path d="M145.129,536.508c-8.8-28.454-23.606-79.288-36.539-122.866S83.918,330.65,75.257,302.154l-10.29-33.736-2.793-9.174c-.3-1.027-.537-1.823-.7-2.394-.154-.539-.214-.824-.214-.824s.113.266.3.8q.279.848.785,2.369c.683,2.12,1.672,5.191,2.942,9.128,2.546,7.93,6.148,19.431,10.545,33.66,8.806,28.453,20.64,67.859,33.569,111.423s27.644,94.436,36.3,122.931" transform="translate(-61.255 -256.026)" fill="#e0e0e0"/></g><g transform="translate(22.31 121.044)"><path d="M57.13,302.093a8.708,8.708,0,0,1,1.748.861c1.1.6,2.669,1.507,4.594,2.65,3.846,2.291,9.078,5.594,14.785,9.342l14.577,9.648c1.756,1.147,3.24,2.115,4.432,2.894a8.788,8.788,0,0,1,1.588,1.127,8.664,8.664,0,0,1-1.756-.848c-1.1-.6-2.669-1.51-4.582-2.674-3.824-2.33-9.011-5.7-14.716-9.448-5.639-3.673-10.738-7-14.638-9.539-1.765-1.14-3.255-2.1-4.45-2.873A8.813,8.813,0,0,1,57.13,302.093Z" transform="translate(-57.128 -302.088)" fill="#e0e0e0"/></g><g transform="translate(66.158 97.128)"><path d="M80.71,338.322c-.2-.119,6.134-11.2,14.142-24.759s14.664-24.45,14.863-24.333-6.132,11.2-14.142,24.759S80.909,338.439,80.71,338.322Z" transform="translate(-80.706 -289.228)" fill="#e0e0e0"/></g><g transform="translate(83.002 178.027)"><path d="M89.765,368.726a9.085,9.085,0,0,1,1.382-1.432c1.056-.991,2.377-2.23,3.943-3.7,3.323-3.128,7.9-7.469,12.766-12.444s9.143-9.609,12.2-13l3.628-4.012a9.177,9.177,0,0,1,1.4-1.41,9,9,0,0,1-1.155,1.62c-.787,1.008-1.951,2.446-3.429,4.19-2.95,3.495-7.155,8.218-12.049,13.2s-9.533,9.273-12.964,12.295c-1.722,1.5-3.13,2.7-4.125,3.506A9.044,9.044,0,0,1,89.765,368.726Z" transform="translate(-89.763 -332.728)" fill="#e0e0e0"/></g><g transform="translate(38.327 199.975)"><path d="M65.741,344.542a7.746,7.746,0,0,1,1.8.372c1.313.355,2.925.792,4.826,1.309,4.064,1.14,9.662,2.773,15.83,4.623s11.741,3.574,15.762,4.86l4.748,1.566a7.762,7.762,0,0,1,1.709.682,7.766,7.766,0,0,1-1.8-.372l-4.826-1.309c-4.064-1.14-9.662-2.773-15.832-4.625s-11.739-3.573-15.76-4.858l-4.748-1.566A7.766,7.766,0,0,1,65.741,344.542Z" transform="translate(-65.741 -344.529)" fill="#e0e0e0"/></g><g transform="translate(45.589 261.726)"><path d="M69.646,377.743a12.7,12.7,0,0,1,2.3.5l6.189,1.657c5.219,1.432,12.408,3.469,20.337,5.765s15.1,4.424,20.27,6l6.117,1.91a12.545,12.545,0,0,1,2.209.811,12.6,12.6,0,0,1-2.3-.5l-6.191-1.655c-5.217-1.432-12.408-3.468-20.338-5.767s-15.092-4.423-20.266-6l-6.117-1.91A12.62,12.62,0,0,1,69.646,377.743Z" transform="translate(-69.646 -377.733)" fill="#e0e0e0"/></g><g transform="translate(101.751 230.707)"><path d="M99.846,407.941a14.524,14.524,0,0,1,1.705-1.858l4.83-4.873c4.073-4.117,9.676-9.827,15.685-16.3s11.313-12.47,15.114-16.84c1.828-2.1,3.346-3.839,4.506-5.172a14.588,14.588,0,0,1,1.728-1.837,14.632,14.632,0,0,1-1.475,2.046c-.993,1.281-2.459,3.113-4.307,5.347-3.692,4.473-8.923,10.545-14.954,17.026s-11.7,12.142-15.882,16.156c-2.1,2-3.811,3.606-5.02,4.687A14.588,14.588,0,0,1,99.846,407.941Z" transform="translate(-99.844 -361.054)" fill="#e0e0e0"/></g></g><g transform="translate(0 64.965)"><g transform="translate(0 0)"><circle cx="72.786" cy="72.786" r="72.786" transform="translate(0 102.934) rotate(-45)" fill="#ebebeb"/></g><g transform="translate(65.009 70.409)"><path d="M71.594,157.957a39.321,39.321,0,0,1,5.356-3.163c3.368-1.845,8.049-4.333,13.249-7.028l.681-.353.032.874c-5.219-2.258-9.888-4.335-13.242-5.877a36.993,36.993,0,0,1-5.336-2.671,36.9,36.9,0,0,1,5.6,2.053c3.422,1.382,8.137,3.357,13.357,5.605a.484.484,0,0,1,.253.636.493.493,0,0,1-.221.238l-.683.353c-5.2,2.695-9.929,5.088-13.377,6.777A39.815,39.815,0,0,1,71.594,157.957Z" transform="translate(-71.592 -139.727)" fill="#e0e0e0"/></g><g transform="translate(119.254 69.566)"><path d="M119.192,156.239a35.094,35.094,0,0,1-5.4-2.25c-3.282-1.5-7.794-3.636-12.762-6.052a.486.486,0,0,1,.017-.88l.218-.095c5.109-2.243,9.755-4.224,13.137-5.613a35.829,35.829,0,0,1,5.555-2.064,36.05,36.05,0,0,1-5.28,2.691c-3.312,1.549-7.915,3.63-13.024,5.873l-.218.095.019-.878c4.966,2.42,9.429,4.651,12.635,6.31A35.04,35.04,0,0,1,119.192,156.239Z" transform="translate(-100.76 -139.273)" fill="#e0e0e0"/></g><g transform="translate(54.066 103.547)"><path d="M65.708,157.924l96.32-.379s-6.316,44.439-46.52,45.256S65.708,157.924,65.708,157.924Z" transform="translate(-65.708 -157.545)" fill="#e0e0e0"/></g><g transform="translate(63.692 112.674)"><path d="M146.854,178.99c-8.453-11.209-22.994-16.876-37.028-16.522s-27.519,6.165-38.942,14.326c0,0,12.654,22.345,40.173,21.787S146.854,178.99,146.854,178.99Z" transform="translate(-70.884 -162.453)" fill="#f5f5f5"/></g><g transform="translate(33.855 59.287)"><path d="M77.313,225.021a3.994,3.994,0,0,1-.807-.634c-.495-.454-1.274-1.077-2.163-1.994a61.563,61.563,0,0,1-7.011-8.244,66.335,66.335,0,0,1-5.7-68.019,61.5,61.5,0,0,1,5.54-9.3c.723-1.053,1.387-1.8,1.8-2.327a3.989,3.989,0,0,1,.69-.761c.065.052-.772,1.187-2.182,3.3a70.862,70.862,0,0,0-5.232,9.375,67.418,67.418,0,0,0,5.643,67.333,70.965,70.965,0,0,0,6.719,8.375C76.353,223.98,77.368,224.96,77.313,225.021Z" transform="translate(-54.841 -133.746)" fill="#fff"/></g><g transform="translate(54.738 48.944)"><path d="M73.219,128.256c.082.272-1.8,1-3.731,2.5-1.943,1.471-3.143,3.1-3.385,2.95-.227-.108.686-2.115,2.8-3.718S73.173,128.008,73.219,128.256Z" transform="translate(-66.07 -128.185)" fill="#fff"/></g><g transform="translate(159.544 108.438)"><path d="M122.435,190.1c-.281-.18,4.69-5.657,7.3-14.147,2.717-8.458,1.772-15.793,2.105-15.78a15.242,15.242,0,0,1,.528,4.72,37.21,37.21,0,0,1-6.8,21.638A15.177,15.177,0,0,1,122.435,190.1Z" transform="translate(-122.424 -160.175)" fill="#fff"/></g></g><g transform="translate(671.626 180.949)"><g transform="translate(0 0)"><circle cx="44.197" cy="44.197" r="44.197" transform="translate(0 62.505) rotate(-45)" fill="#ebebeb"/></g><g transform="translate(39.474 42.742)"><path d="M419,198.3c-.123-.238,4.9-3.083,11.209-6.357l.415-.214.032.874c-6.336-2.747-11.309-5.126-11.205-5.365s5.246,1.748,11.588,4.476a.484.484,0,0,1,.03.874l-.413.214C424.338,196.072,419.12,198.534,419,198.3Z" transform="translate(-418.995 -187.214)" fill="#e0e0e0"/></g><g transform="translate(72.224 42.23)"><path d="M447.987,197.253c-.117.24-5.077-1.936-11.11-4.869a.486.486,0,0,1,.017-.88l.132-.058c6.2-2.725,11.319-4.733,11.426-4.488s-4.834,2.65-11.038,5.375l-.132.058.019-.88C443.332,194.452,448.1,197.015,447.987,197.253Z" transform="translate(-436.605 -186.939)" fill="#e0e0e0"/></g><g transform="translate(32.829 62.877)"><path d="M415.422,198.272l58.488-.231s-3.835,26.985-28.248,27.48S415.422,198.272,415.422,198.272Z" transform="translate(-415.422 -198.041)" fill="#e0e0e0"/></g><g transform="translate(38.674 68.419)"><path d="M464.7,211.064c-5.133-6.807-13.961-10.247-22.485-10.033s-16.71,3.744-23.647,8.7c0,0,7.685,13.567,24.395,13.229S464.7,211.064,464.7,211.064Z" transform="translate(-418.565 -201.021)" fill="#f5f5f5"/></g><g transform="translate(20.369 36)"><path d="M422.557,239.016a9.777,9.777,0,0,1-1.856-1.545,35.6,35.6,0,0,1-4.315-4.98,40.079,40.079,0,0,1-3.472-41.438,35.878,35.878,0,0,1,3.424-5.63,9.916,9.916,0,0,1,1.573-1.832c.166.113-2.081,2.758-4.38,7.755a41.163,41.163,0,0,0,3.416,40.751C420.046,236.643,422.7,238.876,422.557,239.016Z" transform="translate(-408.722 -183.589)" fill="#fff"/></g><g transform="translate(33.205 29.655)"><path d="M420,180.286c.076.266-1.014.785-2.148,1.668-1.149.867-1.934,1.782-2.172,1.64-.229-.119.27-1.41,1.583-2.41S419.944,180.033,420,180.286Z" transform="translate(-415.624 -180.178)" fill="#fff"/></g><g transform="translate(96.873 65.846)"><path d="M449.873,217.812c-.244-.186,2.682-3.541,4.248-8.648,1.637-5.088,1.155-9.515,1.46-9.526.22-.086,1.17,4.486-.536,9.816C453.4,214.8,450,218.009,449.873,217.812Z" transform="translate(-449.858 -199.637)" fill="#fff"/></g></g><g transform="translate(205.414 0)"><path d="M183.789,140.341a36.7,36.7,0,1,1,36.7-36.7A36.744,36.744,0,0,1,183.789,140.341Zm0-71.546a34.843,34.843,0,1,0,34.843,34.843A34.882,34.882,0,0,0,183.789,68.8Z" transform="translate(-147.088 -66.936)" fill="#e0e0e0"/><g transform="translate(19.518 21.231)"><path d="M189.971,82.966c-6.678-9.606-15.205-1.235-15.205-1.235s-8.525-8.371-15.2,1.235c-7.045,10.136,6.3,22.128,15.2,26.329C183.666,105.094,197.016,93.1,189.971,82.966Z" transform="translate(-157.583 -78.352)" fill="#e0e0e0"/></g></g></g><g transform="translate(1063.617 343.852)"><g transform="translate(0 0)"><g transform="translate(250.756)"><g transform="translate(142.38 99.339)"><path d="M291.587,193.933c2.674-5.079,6.9-9.5,12.269-11.54s11.9-1.358,16.2,2.438,5.676,10.826,2.436,15.563a16.974,16.974,0,1,1-6.944,30.166,12.667,12.667,0,0,1-20.234,7.48c-8.561-6.706-6.6-22.293-16.121-27.543" transform="translate(-279.192 -181.268)" fill="#263238"/></g><g transform="translate(148.108 103.031)"><path d="M282.272,217.378a33.424,33.424,0,0,0,8.871-28.185c-.225-1.384-.526-2.872.082-4.136,1.082-2.247,4.555-2.306,6.433-.664s2.5,4.276,2.818,6.749a44.526,44.526,0,0,1-1.938,19.647,19.886,19.886,0,0,1-3.684,6.974,9.545,9.545,0,0,1-6.894,3.446c-2.648.011-4.932-1.294-5.687-3.831" transform="translate(-282.272 -183.254)" fill="#e8505b"/></g><path d="M345.014,167.347c-3.554-9.849-20.4-18.3-29.647-23.217-13.827-7.35-26.359-5.364-33.87,1.83C267.1,134.67,248.28,124,230.74,129.214s-31.285,23.805-27.463,41.7c2.252,10.543,9.916,19.812,9.848,30.591-.048,7.35-3.714,14.1-6.587,20.865s-5,14.6-2.012,21.317c2.779,6.249,9.323,9.985,12.972,15.769,2.974,4.711,3.814,10.417,5.789,15.624,7.318,19.3,30.729,29.476,50.96,25.367S310.9,280.464,319.9,261.886s11.479-39.639,11.908-60.277" transform="translate(-202.634 -127.854)" fill="#263238"/><g transform="translate(25.885 35.171)"><path d="M257.18,147.081a33.4,33.4,0,0,0-37.8,29.879c-2.18,22.537-4.03,50.863-1.849,68.04,4.259,33.521,29.693,38.562,29.693,38.562s-.208,12.451-.487,26.995a36.15,36.15,0,0,0,34.021,36.784h0a36.148,36.148,0,0,0,38.265-36.26l-.7-145.365" transform="translate(-216.553 -146.765)" fill="#ffbe9d"/><g transform="translate(30.562 125.837)"><path d="M233.094,225.388a88.483,88.483,0,0,0,45.243-10.96s-12.064,23.338-45.351,19.176Z" transform="translate(-232.986 -214.428)" fill="#eb996e"/></g><g transform="translate(51.519 30.426)"><path d="M244.274,166.31c.415,1.265,5.029.815,10.409,1.635,5.4.71,9.7,2.427,10.454,1.326.338-.526-.385-1.726-2.107-2.994a18.318,18.318,0,0,0-15.9-2.256C245.126,164.757,244.1,165.71,244.274,166.31Z" transform="translate(-244.254 -163.126)" fill="#263238"/></g><g transform="translate(8.944 31.625)"><path d="M221.468,168.295c.777,1.071,3.982.084,7.8.152,3.818-.065,7.021.921,7.8-.149.34-.521-.134-1.585-1.516-2.617a11.287,11.287,0,0,0-12.565,0C221.6,166.71,221.126,167.774,221.468,168.295Z" transform="translate(-221.362 -163.77)" fill="#263238"/></g></g><g transform="translate(76.218 105.116)"><path d="M243.617,185.636a1.221,1.221,0,1,0,1.179-1.261A1.221,1.221,0,0,0,243.617,185.636Z" transform="translate(-243.617 -184.375)" fill="#eb996e"/></g><g transform="translate(41.531 100.296)"><path d="M224.966,183.044a1.221,1.221,0,1,0,1.179-1.261A1.221,1.221,0,0,0,224.966,183.044Z" transform="translate(-224.966 -181.783)" fill="#eb996e"/></g><g transform="translate(34.903 103.695)"><path d="M221.4,184.872a1.221,1.221,0,1,0,1.179-1.261A1.22,1.22,0,0,0,221.4,184.872Z" transform="translate(-221.402 -183.611)" fill="#eb996e"/></g><g transform="translate(32.682 98.665)"><path d="M220.208,182.167a1.22,1.22,0,1,0,1.179-1.261A1.22,1.22,0,0,0,220.208,182.167Z" transform="translate(-220.208 -180.906)" fill="#eb996e"/></g><g transform="translate(81.977 110.318)"><path d="M246.714,188.433a1.221,1.221,0,1,0,1.179-1.261A1.221,1.221,0,0,0,246.714,188.433Z" transform="translate(-246.714 -187.172)" fill="#eb996e"/></g><g transform="translate(86.387 105.26)"><path d="M249.085,185.713a1.22,1.22,0,1,0,1.179-1.261A1.22,1.22,0,0,0,249.085,185.713Z" transform="translate(-249.085 -184.452)" fill="#eb996e"/></g><g transform="translate(66.259 19.559)"><path d="M240.077,149.061c3.889,26.413,24.35,49.645,50.063,56.837-7.817,12.1-1.9,34.436-1.48,53.232.387,17.474.562,22.466,12.176,30.991,9.425,1.943,13.965-23.857,20.675-31.244s13.067-16.433,12.219-26.377c-.394-4.648-2.364-9.051-2.775-13.7-.454-5.157,1.028-10.26,1.774-15.382,3.3-22.669-9.189-46.509-29.21-57.64s-46.191-9.453-65.258,3.245" transform="translate(-238.262 -138.371)" fill="#263238"/></g><g transform="translate(70.355 27.934)"><path d="M328.2,212.452a7.606,7.606,0,0,0,.8-.965,9.6,9.6,0,0,0,1.434-3.3c.8-3.067.218-7.856-2.366-12.847a25.494,25.494,0,0,0-5.553-7.268,50.8,50.8,0,0,0-8.217-6.532,42.387,42.387,0,0,0-10.543-4.848c-3.852-1.17-7.919-2.049-12.066-2.942s-8.194-1.776-12-2.968a73.92,73.92,0,0,1-10.675-4.218,78.17,78.17,0,0,1-16.245-10.636,79.313,79.313,0,0,1-9.247-9.316c-1.015-1.177-1.746-2.137-2.252-2.78a7.71,7.71,0,0,0-.809-.954,7.567,7.567,0,0,0,.684,1.047c.469.673,1.162,1.664,2.146,2.875a73,73,0,0,0,9.126,9.537,76.617,76.617,0,0,0,16.288,10.859,73.181,73.181,0,0,0,10.762,4.3c3.839,1.214,7.908,2.105,12.057,3s8.2,1.765,12.012,2.911a42.11,42.11,0,0,1,10.383,4.729,50.749,50.749,0,0,1,8.151,6.392,25.187,25.187,0,0,1,5.516,7.06c2.594,4.871,3.242,9.535,2.552,12.535A11.584,11.584,0,0,1,328.2,212.452Z" transform="translate(-240.464 -142.874)" fill="#455a64"/></g><g transform="translate(70.355 27.933)"><path d="M240.465,142.875a5.769,5.769,0,0,0,.716.816c.484.524,1.226,1.266,2.191,2.215a91.707,91.707,0,0,0,8.726,7.434,59.023,59.023,0,0,0,14.845,8.3,56.347,56.347,0,0,0,9.807,2.308c3.441.567,7.021.986,10.683,1.413,7.316.837,14.294,1.741,20.381,3.58a44.524,44.524,0,0,1,14.921,7.618,28.9,28.9,0,0,1,7.361,8.551,26.309,26.309,0,0,1,1.317,2.8,6.035,6.035,0,0,0,.452.989,5.7,5.7,0,0,0-.307-1.043,21.118,21.118,0,0,0-1.2-2.886,28.086,28.086,0,0,0-7.285-8.832,44.221,44.221,0,0,0-15.055-7.871c-6.158-1.9-13.18-2.829-20.5-3.666-3.662-.428-7.233-.841-10.653-1.395a56.486,56.486,0,0,1-9.689-2.234A60.068,60.068,0,0,1,252.42,152.9a106.615,106.615,0,0,1-8.843-7.214l-2.288-2.107A5.6,5.6,0,0,0,240.465,142.875Z" transform="translate(-240.464 -142.873)" fill="#455a64"/></g><g transform="translate(32.121 0.105)"><path d="M219.906,127.953c-.011.171,2.873.171,7.352,1.205a32.57,32.57,0,0,1,3.606,1.027c1.3.378,2.615.963,4.017,1.534a44.6,44.6,0,0,1,15.708,11.65,42.627,42.627,0,0,1,2.635,3.4,33.351,33.351,0,0,1,2.029,3.154c2.289,3.986,3.126,6.745,3.288,6.684a10.137,10.137,0,0,0-.573-1.93,16.478,16.478,0,0,0-.869-2.2,27.353,27.353,0,0,0-1.376-2.818,30.765,30.765,0,0,0-1.977-3.249,40.472,40.472,0,0,0-2.622-3.5,42.977,42.977,0,0,0-15.961-11.837,40.657,40.657,0,0,0-4.106-1.493,30.758,30.758,0,0,0-3.684-.95,27.658,27.658,0,0,0-3.095-.5,16.517,16.517,0,0,0-2.358-.192A9.906,9.906,0,0,0,219.906,127.953Z" transform="translate(-219.906 -127.91)" fill="#455a64"/></g><g transform="translate(4.973 27.334)"><path d="M213.048,242.878a1.3,1.3,0,0,0-.231-.288l-.725-.792c-.636-.7-1.592-1.711-2.691-3.119a18.079,18.079,0,0,1-3.139-5.615,10.141,10.141,0,0,1-.437-3.939,11.086,11.086,0,0,1,1.367-4.227c1.493-2.8,4.017-5.284,6.3-8.321a47.368,47.368,0,0,0,9.126-23.521,97.7,97.7,0,0,0-.119-14.326c-.231-4.869-.262-9.667.826-14.108a28.215,28.215,0,0,1,5.975-11.568,28.519,28.519,0,0,1,9.323-7.259,27.064,27.064,0,0,1,9.97-2.65,29.613,29.613,0,0,1,14.668,2.715,31.693,31.693,0,0,1,3.589,2c.361.24.655.435.895.593a1.462,1.462,0,0,0,.32.182,21.039,21.039,0,0,0-4.675-3.044,29.238,29.238,0,0,0-14.834-2.987,27.4,27.4,0,0,0-10.206,2.617A29.48,29.48,0,0,0,222.6,164.444c-1.127,4.56-1.094,9.438-.863,14.322a98.769,98.769,0,0,1,.139,14.218,47.144,47.144,0,0,1-8.892,23.216c-2.219,3-4.752,5.533-6.269,8.443a11.6,11.6,0,0,0-1.374,4.439,10.539,10.539,0,0,0,.515,4.112,18.013,18.013,0,0,0,3.314,5.67,37.694,37.694,0,0,0,2.812,3.041l.781.74A1.385,1.385,0,0,0,213.048,242.878Z" transform="translate(-205.308 -142.551)" fill="#455a64"/></g><g transform="translate(73.972 23.062)"><path d="M324.847,216.637a1.551,1.551,0,0,0,.353-.173l1-.573a26.9,26.9,0,0,0,3.565-2.637,30.781,30.781,0,0,0,8.992-13.459,30.581,30.581,0,0,0-11.479-34.357,42.825,42.825,0,0,0-14-6.28,77.5,77.5,0,0,0-15.181-2.25c-4.945-.3-9.715-.361-14.246-.526a122.589,122.589,0,0,1-12.812-1.006,57.449,57.449,0,0,1-10.861-2.557,38.406,38.406,0,0,1-13.861-8.094,33.4,33.4,0,0,1-2.951-3.264c-.286-.37-.515-.669-.7-.909a1.532,1.532,0,0,0-.26-.3,22.768,22.768,0,0,0,3.707,4.681A37.627,37.627,0,0,0,260,153.327,57.189,57.189,0,0,0,270.953,156a121.038,121.038,0,0,0,12.875,1.082c9.053.417,19.143.154,29.26,2.81a42.351,42.351,0,0,1,13.761,6.152,29.5,29.5,0,0,1,9.23,10.444,29.871,29.871,0,0,1,2.167,23.136,31.112,31.112,0,0,1-8.674,13.405,31.478,31.478,0,0,1-3.452,2.73l-.958.634A1.5,1.5,0,0,0,324.847,216.637Z" transform="translate(-242.409 -140.254)" fill="#263238"/></g><g transform="translate(34.903 87.474)"><path d="M221.466,179.208c.517.567,3.8-1.759,8.382-1.657,4.584.037,7.906,2.462,8.414,1.91.249-.242-.268-1.257-1.715-2.353a11.7,11.7,0,0,0-6.721-2.219,11.229,11.229,0,0,0-6.686,2.014C221.707,177.958,221.211,178.953,221.466,179.208Z" transform="translate(-221.402 -174.888)" fill="#263238"/></g><g transform="translate(81.766 88.227)"><path d="M246.663,179.613c.517.565,3.8-1.759,8.382-1.657,4.584.037,7.906,2.462,8.415,1.91.247-.244-.266-1.257-1.717-2.354a11.694,11.694,0,0,0-6.719-2.217,11.248,11.248,0,0,0-6.688,2.012C246.909,178.363,246.409,179.358,246.663,179.613Z" transform="translate(-246.6 -175.293)" fill="#263238"/></g><g transform="translate(52.882 82.045)"><path d="M242.694,210.157c.026-.26-2.818-.809-7.426-1.492-1.17-.143-2.273-.4-2.455-1.2-.258-.854.257-2.105.85-3.457q1.735-4.221,3.641-8.853c5.062-12.607,8.75-22.981,8.243-23.182s-5.027,9.857-10.089,22.464q-1.83,4.664-3.495,8.908c-.471,1.322-1.263,2.818-.7,4.586a2.944,2.944,0,0,0,1.891,1.752,7.985,7.985,0,0,0,1.984.314C239.785,210.339,242.67,210.418,242.694,210.157Z" transform="translate(-231.069 -171.969)" fill="#263238"/></g><g transform="translate(65.752 128.337)"><path d="M238.465,199.852a8.267,8.267,0,0,1,7.473-2.924,7.55,7.55,0,0,1,5.157,2.9,4.785,4.785,0,0,1,.255,5.477c-1.272,1.717-3.866,2.066-6.044,1.4a17.41,17.41,0,0,1-5.8-3.617,5.057,5.057,0,0,1-1.283-1.382,1.535,1.535,0,0,1,.041-1.707" transform="translate(-237.989 -196.861)" fill="#eb996e"/></g><g transform="translate(63.081 123.673)"><path d="M251.418,194.353c-.746-.058-.854,4.921-5.185,8.373s-9.622,2.8-9.676,3.493c-.074.311,1.164.991,3.4,1.1a12.4,12.4,0,0,0,8.07-2.633,10.806,10.806,0,0,0,4.03-7.028C252.29,195.575,251.758,194.331,251.418,194.353Z" transform="translate(-236.553 -194.353)" fill="#263238"/></g></g><g transform="translate(0 391.018)"><path d="M357.749,382.026l-50.893,17.315-4.1,12.732s-142-51.118-152.077-56.492-61.977-17.3-79.119,25.384c-14.415,35.9,14.218,71.871,59.9,92.023S265.8,501.874,265.8,501.874l58.343,10.1L453.2,513.652A128.772,128.772,0,0,0,552.57,468.7c20.346-23.7,41.356-50.549,45.345-64.543,7.753-27.21.731-62.477-39.831-65.875s-106.336,42.946-106.336,42.946l-24.984-6.838Z" transform="translate(-67.803 -338.104)" fill="#263238"/><g transform="translate(81.954 26.455)"><path d="M315.874,452.578a5.072,5.072,0,0,1,.2-.882,3.958,3.958,0,0,0-.3-2.535c-.965-2.135-4.188-4.049-8.5-5.152l-.02-.006-.013-.006c-8.763-3.55-21.951-9.079-37.562-16.827-15.639-7.685-33.714-17.476-53.069-27.893-14-7.5-27.357-14.614-39.734-20.614s-23.647-11.153-33.325-14.96c-2.414-.963-4.7-1.929-6.887-2.76q-3.3-1.2-6.215-2.263t-5.408-1.979l-4.6-1.5-6.368-2.083-1.65-.565a2.77,2.77,0,0,1-.554-.225,2.659,2.659,0,0,1,.58.128c.43.123.982.277,1.679.474l6.427,1.912,4.635,1.419,5.442,1.9,6.253,2.2c2.2.811,4.5,1.756,6.922,2.7,9.73,3.733,21.049,8.834,33.463,14.794s25.8,13.063,39.8,20.562c19.362,10.418,37.4,20.251,52.979,28.006,15.551,7.818,28.667,13.455,37.363,17.145l-.033-.011c4.382,1.194,7.642,3.2,8.611,5.5a3.986,3.986,0,0,1,.2,2.661A5.189,5.189,0,0,1,315.874,452.578Z" transform="translate(-111.87 -352.329)" fill="#455a64"/></g><g transform="translate(294.101 9.087)"><path d="M407.747,343a2.767,2.767,0,0,1-.577.108c-.433.054-.991.126-1.691.216a41.42,41.42,0,0,0-6.44,1.064,73.786,73.786,0,0,0-22.061,9.21,112.909,112.909,0,0,0-13.567,9.53,144.3,144.3,0,0,0-13.995,12.9,432.882,432.882,0,0,1-31.211,30.733c-5.825,5.152-11.676,10.009-17.612,14.335-5.951,4.276-11.953,8.2-18.41,10.474-6.47,2.1-12.879,2.855-18.778,3.777a98.471,98.471,0,0,0-16.2,3.459,48.014,48.014,0,0,0-12.28,5.843,21.4,21.4,0,0,0-6.939,7.421,16.775,16.775,0,0,0-1.849,6.176c-.05.742-.039,1.313-.063,1.7a2.612,2.612,0,0,1-.048.582,2.582,2.582,0,0,1-.05-.58c-.009-.383-.052-.958-.032-1.711a16.185,16.185,0,0,1,1.709-6.336,21.472,21.472,0,0,1,6.961-7.688,47.765,47.765,0,0,1,12.373-6.052,97.6,97.6,0,0,1,16.3-3.6c5.9-.956,12.275-1.746,18.622-3.831,6.266-2.228,12.228-6.133,18.127-10.394,5.9-4.309,11.722-9.154,17.53-14.292,11.583-10.314,22.087-20.735,31.205-30.621A142.885,142.885,0,0,1,362.91,362.5a111.313,111.313,0,0,1,13.721-9.49,71.969,71.969,0,0,1,22.33-8.992,37.044,37.044,0,0,1,6.5-.887l1.7-.123A2.644,2.644,0,0,1,407.747,343Z" transform="translate(-225.941 -342.99)" fill="#455a64"/></g><g transform="translate(296.916 49.401)"><path d="M230,426.679a12.458,12.458,0,0,1-.846-2.386,23.72,23.72,0,0,1-.671-2.894,34.314,34.314,0,0,1-.588-3.893,79.751,79.751,0,0,1-.435-10.227,114.807,114.807,0,0,1,1.025-12.485,93.176,93.176,0,0,1,5.557-22.036c.621-1.322,1.116-2.55,1.681-3.565.588-1,1.049-1.891,1.518-2.561a12.421,12.421,0,0,1,1.6-1.964,12.986,12.986,0,0,1-1.287,2.165c-.413.688-.818,1.6-1.352,2.6-.511,1.023-.956,2.256-1.529,3.576a104.649,104.649,0,0,0-5.235,21.912c-.64,4.367-.9,8.564-1.09,12.379a91.193,91.193,0,0,0,.223,10.134C229.021,423.205,230.185,426.624,230,426.679Z" transform="translate(-227.455 -364.667)" fill="#455a64"/></g><g transform="translate(267.772 121.196)"><g transform="translate(0 5.508)"><path d="M229.971,406.233s96.1,24.263,99.963,25.525c5.8,1.9,5.312,22.994-3.649,22.87-4.239-.06-73.3,4.238-82.042,3.891s-32.459-9.1-32.459-9.1l14.469-34.361Z" transform="translate(-211.784 -406.233)" fill="#e8505b"/></g><g transform="translate(58.58 21.72)"><path d="M243.5,434.275c.482.056,1.014-5.012,3.976-10.35,2.886-5.382,6.861-8.568,6.554-8.944-.177-.365-4.858,2.434-7.956,8.177C242.919,428.87,243.1,434.325,243.5,434.275Z" transform="translate(-243.283 -414.95)" fill="#263238"/></g><g transform="translate(48.569 18.297)"><path d="M238.068,431.568c.471.071,1.335-4.467,3.764-9.513,2.381-5.072,5.352-8.607,5-8.925-.27-.309-3.93,2.9-6.444,8.239C237.837,426.688,237.66,431.551,238.068,431.568Z" transform="translate(-237.9 -413.11)" fill="#263238"/></g><g transform="translate(38.624 15.249)"><path d="M233.27,430.686c.48-.039.006-4.8,2-10.139,1.91-5.373,5.341-8.707,5-9.048-.2-.359-4.415,2.689-6.5,8.5C231.626,425.784,232.885,430.833,233.27,430.686Z" transform="translate(-232.552 -411.471)" fill="#263238"/></g><g transform="translate(32.799)"><path d="M237.376,425.363c.173.039.958-2.646.865-7.129a33.527,33.527,0,0,0-1.146-7.766,32.665,32.665,0,0,0-1.521-4.4,5.338,5.338,0,0,0-1.583-2.306,2.547,2.547,0,0,0-3.275.236,4.217,4.217,0,0,0-1.213,2.73,18.689,18.689,0,0,0-.067,2.526,21.2,21.2,0,0,0,.7,4.662,28.387,28.387,0,0,0,3.106,7.233c2.314,3.826,4.287,5.762,4.421,5.652.214-.156-1.436-2.345-3.431-6.2a31.437,31.437,0,0,1-2.665-7.043,21.006,21.006,0,0,1-.56-4.354c.009-1.467-.054-3.3.789-4.026a.928.928,0,0,1,1.261-.136,4.012,4.012,0,0,1,1.084,1.646,35.149,35.149,0,0,1,1.544,4.181,38.4,38.4,0,0,1,1.432,7.428C237.49,422.618,237.116,425.331,237.376,425.363Z" transform="translate(-229.42 -403.271)" fill="#263238"/></g><g transform="translate(21.614 20.265)"><path d="M242.407,415.025c.039-.175-2.284-.915-6.184-.854a27.76,27.76,0,0,0-6.757.984,14.93,14.93,0,0,0-3.87,1.527,4.031,4.031,0,0,0-2.059,4.413,4.772,4.772,0,0,0,3.519,3.331,8.727,8.727,0,0,0,4.283-.11,16.427,16.427,0,0,0,6.135-3.191c3.005-2.47,4.458-4.341,4.341-4.473-.173-.2-1.945,1.413-5.008,3.562a16.969,16.969,0,0,1-5.8,2.669,7.558,7.558,0,0,1-3.543.032,3.239,3.239,0,0,1-2.377-2.219,2.463,2.463,0,0,1,1.358-2.7,14.446,14.446,0,0,1,3.435-1.428,32.031,32.031,0,0,1,6.409-1.27C240.021,414.955,242.372,415.284,242.407,415.025Z" transform="translate(-223.406 -414.168)" fill="#263238"/></g><g transform="translate(72.669 25.454)"><path d="M251.684,433.238c.472-.065-.089-4.136,1.687-8.657,1.687-4.556,4.817-7.22,4.506-7.582-.166-.385-4.108,1.968-6,7.013C249.93,429.033,251.3,433.415,251.684,433.238Z" transform="translate(-250.858 -416.958)" fill="#263238"/></g><g transform="translate(6.957 47.627)"><path d="M215.525,428.908a19.766,19.766,0,0,0,3.733,1.655,82.175,82.175,0,0,0,10.7,3.052c9.185,2.094,22.237,3.1,36.539,2.628s27.19-1.426,36.535-2.012c4.421-.337,8.127-.617,11.053-.839a19.921,19.921,0,0,0,4.041-.524,19.946,19.946,0,0,0-4.075-.1l-11.079.331c-9.669.407-22.42.947-36.519,1.544-14.238.472-27.128-.352-36.271-2.139C221.014,430.838,215.63,428.61,215.525,428.908Z" transform="translate(-215.525 -428.881)" fill="#263238"/></g><g transform="translate(4.18 41.279)"><path d="M214.034,434.083c.134.218,2.713-1.369,7.082-3.4,4.317-1.969,10.8-4.359,18-3.415,7.223.939,12.434,5.658,15.832,8.938,3.428,3.4,5.442,5.663,5.631,5.5.141-.123-1.545-2.622-4.819-6.282a37.973,37.973,0,0,0-6.466-5.776,22.721,22.721,0,0,0-9.963-3.96c-7.726-1-14.45,1.722-18.719,3.986C216.285,432.008,213.934,433.929,214.034,434.083Z" transform="translate(-214.031 -425.467)" fill="#263238"/></g><g transform="translate(96.216 28.145)"><path d="M267.385,442.112c.169-.121-.673-1.365-1.477-3.578a17.491,17.491,0,0,1,2.769-17.181c1.46-1.849,2.65-2.765,2.527-2.933-.078-.126-1.492.536-3.221,2.33a16.289,16.289,0,0,0-2.924,18.137C266.137,441.135,267.272,442.206,267.385,442.112Z" transform="translate(-263.519 -418.405)" fill="#263238"/></g></g><g transform="translate(387.331 87.78)"><path d="M400.752,385.3a9.178,9.178,0,0,1-.846,1.294l-2.585,3.608c-1.149,1.546-2.483,3.5-4.183,5.643-1.759,2.12-3.749,4.519-5.944,7.162-2.217,2.643-4.9,5.313-7.642,8.3-2.793,2.94-6.037,5.827-9.312,9A209.636,209.636,0,0,1,346.729,438.4a196.9,196.9,0,0,1-25.977,14.333A171,171,0,0,1,298,461.055c-3.316.954-6.375,1.6-9.04,2.232-2.7.473-5.02.922-6.926,1.2l-4.417.471a9.346,9.346,0,0,1-1.545.1,9.48,9.48,0,0,1,1.523-.292l4.382-.647c1.891-.333,4.192-.837,6.868-1.358,2.645-.677,5.678-1.369,8.966-2.36a179.187,179.187,0,0,0,22.574-8.475A203.088,203.088,0,0,0,346.2,437.592a217.2,217.2,0,0,0,23.448-17.943c3.277-3.143,6.526-6,9.334-8.9,2.758-2.951,5.458-5.583,7.7-8.189l6.037-7.049c1.737-2.107,3.11-4.021,4.3-5.531l2.728-3.495A9.446,9.446,0,0,1,400.752,385.3Z" transform="translate(-276.071 -385.304)" fill="#455a64"/></g><g transform="translate(231.199 79.45)"><path d="M227.624,416.3c-.136.084-1.648-2.319-4.344-6.011a114.071,114.071,0,0,0-25.144-25.118c-3.694-2.695-6.1-4.2-6.015-4.339a8.078,8.078,0,0,1,1.791.893c1.127.619,2.71,1.6,4.618,2.886a95.665,95.665,0,0,1,25.31,25.284c1.285,1.906,2.269,3.489,2.89,4.614A7.987,7.987,0,0,1,227.624,416.3Z" transform="translate(-192.119 -380.825)" fill="#455a64"/></g><g transform="translate(352.915 61.702)"><path d="M287.44,371.288c.086.139-2.105,1.518-5.4,4.054a81.042,81.042,0,0,0-21.187,24.326c-2.059,3.617-3.124,5.975-3.273,5.908a6.578,6.578,0,0,1,.58-1.73,47.954,47.954,0,0,1,2.092-4.506,69.888,69.888,0,0,1,21.38-24.549,48.446,48.446,0,0,1,4.177-2.691A6.584,6.584,0,0,1,287.44,371.288Z" transform="translate(-257.565 -371.281)" fill="#455a64"/></g></g><g transform="translate(197.384 176.594)"><g transform="translate(0 13.221)"><path d="M383.66,463.38c25.918-20.742,74.672-30.629,74.672-30.629s-2.734-94.623-10.128-138.1q-.268-1.584-.575-3.115c-6.667-33.522-36.387-53.736-70.24-58.434l-22.95-3.186-67.774,2.457L245.306,244.9s-48.853,11-56.413,79.684c-7.411,67.35-16.174,122.987-14.817,142.8.96,13.987,13.891,23.961,21.056,25.6,6.491,1.48,14.729,2.872,21.739-1.367a35.512,35.512,0,0,0-4.556,13h41.369l32.423-28.51,29.628,21.244,39.691-16.771,27.251-18.611M242.293,460.6c.019-.086.045-.171.061-.259,4.621-22.808,5.179-29.517,5.179-29.517s-24.372-3.07-20.458-35.494l3.786-28.066,24.317,81.709S249.511,453.622,242.293,460.6Z" transform="translate(-173.937 -229.917)" fill="#e8505b"/></g><g transform="translate(72.605 187.893)" opacity="0.2"><path d="M294.711,348.448l7.582-19.132c-8.378-3.578-11.365-3.707-20.413-4.8a98.245,98.245,0,0,0-68.9,17.962l5,14.387-.065.022.082.028,0,0h0l.167.058c3.1,1.027,8.339.865,11.428.123,3.175-.761,6.489-1.612,9.656-.824,4.151,1.032,7.114,4.62,10.841,6.717,7.493,4.22,18.168,1.155,22.278-6.4,1.72-3.158,3.31-7.545,6.907-7.473,1.767.035,3.255,1.267,4.582,2.433q6.433,5.643,12.864,11.289c5.155,4.525,10.32,9.055,15.838,13.13,6.479,4.783,13.948,9.066,22,8.823s8.412-7.965,8.412-7.965Z" transform="translate(-212.976 -323.838)"/></g><g transform="translate(108.329)"><path d="M233.463,236.23l-1.19,19.518a47.148,47.148,0,0,0,3.048,19.784l23.846,62.1s-3.66-36.243,11.65-49.624,34.5-12.027,34.765-32.7c.043-3.442-.08-25.977-.08-25.977l-32.918-6.52Z" transform="translate(-232.185 -222.808)" fill="#ffbe9d"/></g><g transform="translate(209.065 23.565)"><path d="M308.763,235.483a7.91,7.91,0,0,1-1.244.69,31.441,31.441,0,0,0-3.5,2.029,36.115,36.115,0,0,0-10.132,10.733,44.468,44.468,0,0,0-6.569,20.766,102.6,102.6,0,0,0,.614,13.028c.43,4.529.872,9.213,1.328,14.013,1.951,19.2,4.038,36.548,5.683,49.085.815,6.269,1.545,11.332,2.066,14.828.249,1.676.45,3.015.6,4.028a8.012,8.012,0,0,1,.162,1.413,7.775,7.775,0,0,1-.355-1.38c-.2-.909-.45-2.26-.779-4-.634-3.482-1.471-8.536-2.373-14.8-1.821-12.522-4.015-29.866-5.97-49.079-.484-4.8-.93-9.494-1.307-14.032a100.718,100.718,0,0,1-.56-13.16,44.6,44.6,0,0,1,6.881-21.082,35.194,35.194,0,0,1,10.5-10.679A25.435,25.435,0,0,1,307.436,236,7.636,7.636,0,0,1,308.763,235.483Z" transform="translate(-286.351 -235.479)" fill="#263238"/></g><g transform="translate(153.743 162.892)"><path d="M325.611,398.993a1.375,1.375,0,0,1-.372-.128l-1.058-.456c-.93-.411-2.3-1.019-4.036-1.9-3.495-1.7-8.479-4.35-14.646-7.755-12.332-6.818-29.349-16.734-48.546-28.345l-.35-.212.16-.381,6.905-16.554c2.336-5.695,4.59-11.278,6.691-16.7,1.049-2.713,2.062-5.388,3-8.025.467-1.319.919-2.628,1.322-3.928.2-.651.391-1.3.551-1.943.08-.322.149-.642.2-.954a3.951,3.951,0,0,0,.045-.439c.006-.074-.009-.1-.007-.16,0,0,0,.015.009.017s.084.127.158.119l.329-.841c8.309,3.694,15.711,7.711,22.286,11.324s12.328,6.857,17.151,9.435,8.689,4.534,11.354,5.84l3.057,1.486a7.056,7.056,0,0,1,1.036.554,6.719,6.719,0,0,1-1.1-.417c-.71-.3-1.769-.74-3.121-1.356-2.708-1.224-6.626-3.1-11.488-5.618s-10.662-5.683-17.257-9.256-14.006-7.525-22.284-11.166l.327-.841a.743.743,0,0,1,.335.292,1.671,1.671,0,0,1,.093.255,2.554,2.554,0,0,1,.024.342,4.767,4.767,0,0,1-.052.565c-.058.355-.13.7-.212,1.034-.166.673-.355,1.337-.56,2-.405,1.322-.854,2.641-1.319,3.969-.935,2.652-1.943,5.336-2.989,8.057-2.1,5.44-4.348,11.028-6.686,16.727-2.371,5.672-4.692,11.222-6.924,16.561l-.192-.593c19.165,11.64,36.117,21.657,48.356,28.616,6.121,3.474,11.053,6.208,14.493,8,1.705.922,3.052,1.579,3.956,2.038.411.216.748.391,1.023.534A1.314,1.314,0,0,1,325.611,398.993Z" transform="translate(-256.604 -310.395)" fill="#263238"/></g><g transform="translate(51.845 80.831)"><path d="M206.094,336.013a15.245,15.245,0,0,1-.664-2.678c-.376-1.735-.831-4.264-1.317-7.4a202.795,202.795,0,0,1-1.41-49.487c.307-3.16.617-5.71.893-7.463a14.853,14.853,0,0,1,.511-2.712,15.3,15.3,0,0,1-.138,2.754c-.16,1.765-.366,4.318-.584,7.476-.443,6.312-.794,15.053-.524,24.705s1.129,18.354,1.93,24.633c.4,3.137.749,5.678,1.01,7.43A14.84,14.84,0,0,1,206.094,336.013Z" transform="translate(-201.814 -266.271)" fill="#263238"/></g><g transform="translate(5.177 166.158)"><path d="M223.673,312.153a16.619,16.619,0,0,1-1.746,2.338c-1.294,1.588-2.985,3.66-5.02,6.158-4.367,5.31-10.2,12.4-16.641,20.238-6.413,7.869-12.211,14.988-16.552,20.316-2.046,2.49-3.742,4.556-5.044,6.139a16.642,16.642,0,0,1-1.947,2.174,17.014,17.014,0,0,1,1.651-2.407c1.112-1.512,2.752-3.675,4.8-6.331,4.1-5.312,9.853-12.581,16.34-20.506s12.47-15,16.866-20.067c2.2-2.535,3.995-4.569,5.258-5.959A16.827,16.827,0,0,1,223.673,312.153Z" transform="translate(-176.72 -312.151)" fill="#263238"/></g><g transform="translate(39.982 226.359)"><path d="M226.261,344.521a10.789,10.789,0,0,1-.086,2.345,23.565,23.565,0,0,1-.324,2.732c-.177,1.058-.324,2.276-.66,3.588a58.546,58.546,0,0,1-2.786,9.085A61.308,61.308,0,0,1,209.925,381.8a58.632,58.632,0,0,1-7.075,6.342c-1.047.857-2.092,1.5-2.977,2.107a23.952,23.952,0,0,1-2.343,1.441,10.9,10.9,0,0,1-2.092,1.062c-.1-.166,2.821-1.791,6.991-5.148a65.317,65.317,0,0,0,6.844-6.414,64.85,64.85,0,0,0,12.308-19.258,65.258,65.258,0,0,0,2.944-8.906C225.82,347.835,226.068,344.5,226.261,344.521Z" transform="translate(-195.435 -344.521)" fill="#263238"/></g><g transform="translate(135.191 11.002)"><path d="M297.027,228.724a8.227,8.227,0,0,1,.692,1.276c.407.859,1.073,2.1,1.778,3.768a70.32,70.32,0,0,1,4.225,14.718,72.938,72.938,0,0,1,.179,22.7,72.048,72.048,0,0,1-9.182,26.2c-.921,1.423-1.806,2.855-2.728,4.225-1,1.319-1.979,2.617-2.935,3.881l-.251.333-.372-.229a26.8,26.8,0,0,0-22.987-2.061,27.881,27.881,0,0,0-8.735,5.371,27.546,27.546,0,0,0-9.656,18.942c-.286,3.02-.21,4.7-.307,4.7a6.2,6.2,0,0,1-.093-1.216,32.846,32.846,0,0,1,.056-3.513,28.6,28.6,0,0,1,3.679-12.455,29.648,29.648,0,0,1,5.821-7.022,28.333,28.333,0,0,1,8.936-5.6,27.538,27.538,0,0,1,23.79,2.04l-.623.1c.939-1.248,1.9-2.529,2.884-3.829.909-1.352,1.78-2.764,2.687-4.166a72.154,72.154,0,0,0,9.133-25.838,74.071,74.071,0,0,0,.028-22.457,75.7,75.7,0,0,0-3.9-14.688c-.647-1.678-1.255-2.938-1.605-3.822A8.294,8.294,0,0,1,297.027,228.724Z" transform="translate(-246.629 -228.724)" fill="#263238"/></g><g transform="translate(87.987 14.636)"><path d="M264.728,322.52a5.876,5.876,0,0,1-.6-1.053c-.4-.8-.906-1.828-1.538-3.1-1.32-2.7-3.16-6.639-5.65-11.386a73.354,73.354,0,0,0-10.467-15.5,33.583,33.583,0,0,0-8.652-6.68,28.63,28.63,0,0,0-11.28-2.961c-1.6-.032-3.2.084-4.687.112l-.612.011.087-.562a132.546,132.546,0,0,1,5.23-20.859,159.508,159.508,0,0,1,6.331-16.178,85.725,85.725,0,0,1,5.483-10.249,30.413,30.413,0,0,1,1.787-2.589,4.826,4.826,0,0,1,.7-.844c.082.06-.822,1.261-2.176,3.621A101.3,101.3,0,0,0,233.5,244.63c-1.971,4.488-4.09,9.957-6.106,16.178a137.016,137.016,0,0,0-5.1,20.729l-.524-.55c1.534-.033,3.173-.152,4.822-.117a29.361,29.361,0,0,1,11.674,3.085,34.131,34.131,0,0,1,8.867,6.913,71.559,71.559,0,0,1,10.422,15.8c2.423,4.809,4.168,8.8,5.384,11.544l1.373,3.176A5.7,5.7,0,0,1,264.728,322.52Z" transform="translate(-221.247 -230.678)" fill="#263238"/></g><g transform="translate(135.251 38.287)" opacity="0.2"><path d="M246.7,318.688c2.077-6.526,4.675-8.849,8.242-12.256s8.33-5.869,13.255-5.592c4.131.232,8,2.338,12.142,2.421,4.811.095,9.262-2.563,12.9-5.711,14.986-12.965,19.848-36.284,11.291-54.155a73.53,73.53,0,0,1-16.171,49.267,28.152,28.152,0,0,0-28.514.67A29.084,29.084,0,0,0,246.7,318.688" transform="translate(-246.661 -243.395)"/></g><g transform="translate(220.113 152.34)"><path d="M292.321,304.721a13.735,13.735,0,0,1,.5,2.585c.264,1.858.6,4.238,1,7.091.807,5.994,1.854,14.283,2.951,23.444.2,1.73.407,3.427.6,5.051l-.376-.411a53.172,53.172,0,0,1,18.6,7.93,46.03,46.03,0,0,1,4.744,3.669,9.294,9.294,0,0,1,1.536,1.544c-.106.125-2.366-1.975-6.628-4.683a56.345,56.345,0,0,0-18.453-7.523l-.335-.071-.041-.34c-.2-1.624-.4-3.322-.61-5.051-1.1-9.161-2.036-17.463-2.669-23.478-.281-2.868-.515-5.261-.7-7.128A13.66,13.66,0,0,1,292.321,304.721Z" transform="translate(-292.291 -304.721)" fill="#263238"/></g><g transform="translate(75.902 213.85)"><path d="M300.644,360.6a3.928,3.928,0,0,1-.963.309l-2.812.7c-2.453.556-6.029,1.255-10.493,1.858a132.118,132.118,0,0,1-35.1-.2,129.615,129.615,0,0,1-18.936-4.088c-2.845-.9-5.551-1.672-8.029-2.726a12.977,12.977,0,0,1-5.81-4.651,18.378,18.378,0,0,1-2.5-5.6,33.869,33.869,0,0,1-.9-4.514c-.171-1.248-.257-2.222-.307-2.883a4.053,4.053,0,0,1-.02-1.014c.078-.009.255,1.373.7,3.837a38.369,38.369,0,0,0,1.047,4.423,18.269,18.269,0,0,0,2.544,5.356,12.357,12.357,0,0,0,5.568,4.309c2.4.986,5.14,1.744,7.962,2.606a135.914,135.914,0,0,0,18.819,3.985,141.163,141.163,0,0,0,34.886.476c4.45-.513,8.03-1.107,10.5-1.549l2.844-.521A4.062,4.062,0,0,1,300.644,360.6Z" transform="translate(-214.749 -337.795)" fill="#263238"/></g><g transform="translate(110.358 239.604)"><path d="M245.878,351.667c.046.165-1.283.537-3.154,1.633a18.174,18.174,0,0,0-8.763,13.7c-.21,2.159.011,3.521-.16,3.548a7.634,7.634,0,0,1-.523-3.591A16.78,16.78,0,0,1,242.4,352.7,7.618,7.618,0,0,1,245.878,351.667Z" transform="translate(-233.276 -351.643)" fill="#263238"/></g><g transform="translate(121.686 113.184)"><path d="M249.823,283.667a6.76,6.76,0,0,1,.218,1.293c.11.948.255,2.185.435,3.725.34,3.24.785,7.932,1.185,13.744.833,11.618,1.456,27.72,1.021,45.5-.206,8.89-.642,17.352-1.209,25.034a101.888,101.888,0,0,1-3.067,20.26,41.283,41.283,0,0,1-5.73,12.565,27.442,27.442,0,0,1-2.373,2.922,6.494,6.494,0,0,1-.932.921c-.086-.076,1.194-1.359,2.992-4.054a43.174,43.174,0,0,0,5.382-12.533,105.678,105.678,0,0,0,2.836-20.143c.519-7.673.924-16.121,1.133-24.994.433-17.744-.082-33.818-.738-45.432-.312-5.81-.653-10.506-.876-13.753-.1-1.545-.19-2.788-.255-3.74A6.692,6.692,0,0,1,249.823,283.667Z" transform="translate(-239.367 -283.667)" fill="#263238"/></g><g transform="translate(16.622 103.109)"><path d="M214.146,278.342c.02.266-6.963,1.034-15.6,1.713s-15.654,1.015-15.674.749,6.961-1.034,15.6-1.715S214.126,278.074,214.146,278.342Z" transform="translate(-182.874 -278.249)" fill="#fff"/></g><g transform="translate(54.672 125.207)"><path d="M280.078,301.049a19.01,19.01,0,0,1-3.039.577c-1.966.329-4.832.655-8.386.921s-7.8.391-12.514.294a132.118,132.118,0,0,1-30.314-4.311c-4.555-1.22-8.6-2.511-11.938-3.77s-6-2.356-7.8-3.219a18.813,18.813,0,0,1-2.756-1.4,18.8,18.8,0,0,1,2.9,1.054c1.836.755,4.527,1.765,7.878,2.922s7.393,2.386,11.929,3.552c4.549,1.118,9.6,2.163,14.949,2.94,5.354.744,10.491,1.147,15.172,1.341,4.681.145,8.9.106,12.446-.086s6.407-.4,8.38-.61A18.765,18.765,0,0,1,280.078,301.049Z" transform="translate(-203.334 -290.132)" fill="#fff"/></g><g transform="translate(133.213 108.18)"><path d="M322.091,280.981a19.168,19.168,0,0,1-2.66,1.679c-1.735,1.043-4.322,2.425-7.579,4.012s-7.218,3.3-11.7,5a138.749,138.749,0,0,1-30.2,7.534c-4.755.61-9.059.969-12.68,1.082-3.619.13-6.552.126-8.574.02a19.451,19.451,0,0,1-3.136-.234,19.672,19.672,0,0,1,3.139-.143c2.018-.009,4.94-.11,8.536-.325s7.872-.629,12.591-1.283c4.711-.7,9.862-1.661,15.2-2.976,5.33-1.347,10.327-2.92,14.815-4.512,4.473-1.639,8.445-3.268,11.717-4.782,3.277-1.5,5.9-2.782,7.688-3.721A19.633,19.633,0,0,1,322.091,280.981Z" transform="translate(-245.565 -280.977)" fill="#fff"/></g><g transform="translate(211.823 69.482)"><path d="M347.939,260.266a12.287,12.287,0,0,1-2.47.281c-1.59.1-3.889.305-6.717.617a134.274,134.274,0,0,0-42.606,11.953c-2.578,1.205-4.644,2.228-6.057,2.966a12.2,12.2,0,0,1-2.254,1.043,12.28,12.28,0,0,1,2.072-1.374c1.359-.841,3.388-1.962,5.942-3.253a117.34,117.34,0,0,1,42.838-12.018c2.853-.225,5.166-.324,6.768-.312A12.138,12.138,0,0,1,347.939,260.266Z" transform="translate(-287.833 -260.169)" fill="#fff"/></g><g transform="translate(219.153 145.698)"><path d="M353.064,303.014a11.977,11.977,0,0,1-2.436-.117c-1.557-.149-3.813-.329-6.6-.5a162.361,162.361,0,0,0-43.392,3.02c-2.736.562-4.945,1.051-6.465,1.415a11.8,11.8,0,0,1-2.4.452,11.827,11.827,0,0,1,2.3-.816c1.5-.476,3.688-1.071,6.418-1.718a136.866,136.866,0,0,1,43.591-3.037c2.793.264,5.046.55,6.593.815A11.633,11.633,0,0,1,353.064,303.014Z" transform="translate(-291.775 -301.15)" fill="#fff"/></g><g transform="translate(221.246 190.661)"><path d="M293.352,374.437c-.162-.054.725-2.717,1.679-7.123a78.887,78.887,0,0,0-.307-34.895c-1.034-4.389-1.966-7.036-1.806-7.091a7.655,7.655,0,0,1,.811,1.8,49.844,49.844,0,0,1,1.659,5.122,69.83,69.83,0,0,1,.311,35.219,50.158,50.158,0,0,1-1.568,5.15A7.756,7.756,0,0,1,293.352,374.437Z" transform="translate(-292.9 -325.327)" fill="#fff"/></g><g transform="translate(6.708 174.767)"><path d="M213.509,317.031c0,.147-2.059.212-5.365.444a117.1,117.1,0,0,0-25.414,4.556c-3.18.932-5.131,1.584-5.185,1.447a23.606,23.606,0,0,1,4.977-2.1,84.6,84.6,0,0,1,25.592-4.59A23.486,23.486,0,0,1,213.509,317.031Z" transform="translate(-177.544 -316.78)" fill="#fff"/></g><g transform="translate(19.46 203.972)"><path d="M220.647,381.619a2.007,2.007,0,0,1-.709.054,19.626,19.626,0,0,1-2.029-.065,33.514,33.514,0,0,1-7.339-1.4A36.559,36.559,0,0,1,184.5,342.4a33.59,33.59,0,0,1,1.294-7.359,19.72,19.72,0,0,1,.66-1.919c.167-.433.272-.653.3-.642.219.052-1.3,3.72-1.573,9.955a36.9,36.9,0,0,0,25.6,37.114C216.708,381.512,220.677,381.394,220.647,381.619Z" transform="translate(-184.4 -332.484)" fill="#fff"/></g><g transform="translate(62.777 256.38)"><path d="M242.913,369.6c-.067.26-8-1.527-17.729-3.987s-17.558-4.668-17.491-4.928,8,1.527,17.729,3.989S242.978,369.346,242.913,369.6Z" transform="translate(-207.692 -360.664)" fill="#fff"/></g><g transform="translate(131.178 246.966)"><path d="M310.631,355.608a14.423,14.423,0,0,1-2.39,1.32c-1.564.8-3.865,1.878-6.74,3.143a201.5,201.5,0,0,1-46.946,13.976c-3.1.515-5.615.87-7.361,1.055a14.564,14.564,0,0,1-2.723.2,14.805,14.805,0,0,1,2.669-.577c1.726-.3,4.22-.757,7.292-1.356,6.147-1.192,14.59-3.091,23.748-5.812s17.259-5.76,23.056-8.122c2.9-1.179,5.239-2.161,6.848-2.855A14.92,14.92,0,0,1,310.631,355.608Z" transform="translate(-244.471 -355.602)" fill="#fff"/></g><g transform="translate(74.732 193.608)"><path d="M270.737,327.3a10.067,10.067,0,0,1-2.15.681c-1.4.387-3.448.848-6,1.324a108.642,108.642,0,0,1-40.348-.264c-2.544-.51-4.588-.995-5.981-1.4a10,10,0,0,1-2.141-.708,10.135,10.135,0,0,1,2.228.342c1.415.292,3.47.675,6.014,1.1a126.708,126.708,0,0,0,40.113.26c2.55-.387,4.61-.742,6.029-1.015A10.146,10.146,0,0,1,270.737,327.3Z" transform="translate(-214.12 -326.911)" fill="#fff"/></g><g transform="translate(135.816 194.257)"><path d="M271.728,327.29a11.061,11.061,0,0,1-3.416,1.449,39.343,39.343,0,0,1-17.755,1.294,11.161,11.161,0,0,1-3.591-.937c.052-.3,5.6.874,12.474.342C266.318,328.967,271.633,327,271.728,327.29Z" transform="translate(-246.965 -327.26)" fill="#fff"/></g><g transform="translate(50.576 34.367)"><path d="M246.556,241.337c.013.154-2.654.444-6.918,1.157a123.368,123.368,0,0,0-32.144,9.955c-3.92,1.821-6.284,3.089-6.36,2.955a7.142,7.142,0,0,1,1.559-1.075c1.032-.643,2.568-1.5,4.5-2.5a100.025,100.025,0,0,1,32.343-10.015c2.157-.273,3.911-.433,5.126-.484A7.077,7.077,0,0,1,246.556,241.337Z" transform="translate(-201.131 -241.287)" fill="#fff"/></g><g transform="translate(100.471 41.838)"><path d="M236.043,245.305c.246.061-.863,5.1-3.11,11.043s-4.726,10.467-4.953,10.352c-.251-.123,1.834-4.795,4.047-10.692S235.771,245.231,236.043,245.305Z" transform="translate(-227.96 -245.305)" fill="#fff"/></g><g transform="translate(163.609 55.464)"><path d="M265.264,252.631c.281.063-.982,6.256-1.821,13.984-.863,7.727-.978,14.043-1.265,14.043a15.776,15.776,0,0,1-.27-4.147,95.447,95.447,0,0,1,2.191-19.888A15.968,15.968,0,0,1,265.264,252.631Z" transform="translate(-261.909 -252.631)" fill="#fff"/></g><g transform="translate(181.38 43.101)"><path d="M279.291,259.02c-.279.08-1.3-3.2-3.465-6.777-2.137-3.595-4.553-6.039-4.35-6.247.149-.2,2.955,2.014,5.179,5.749C278.9,255.464,279.533,258.979,279.291,259.02Z" transform="translate(-271.465 -245.984)" fill="#fff"/></g></g><g transform="translate(243.486 282.852)"><g transform="translate(10.561 33.876)"><path d="M205.652,335.035a49.7,49.7,0,0,0-.193-18.321c-.722-3.627-1.391-7.391-.867-11.051s3.733-7.638,7.426-7.5l6.69,26.4Z" transform="translate(-204.404 -298.158)" fill="#ffbe9d"/></g><g transform="translate(11.499)"><path d="M205.064,288.061l23.614,93.3,46.154-4.826L257.074,284a5,5,0,0,0-5.133-4.051l-42.256,1.893A5,5,0,0,0,205.064,288.061Z" transform="translate(-204.909 -279.943)" fill="#263238"/><g transform="translate(0.001 4.528)"><path d="M258.167,308.164a16.1,16.1,0,0,1-.822-2.74c-.489-1.953-1.125-4.491-1.89-7.549-.777-3.251-1.683-7.043-2.682-11.224a13,13,0,0,0-.4-1.519,2.986,2.986,0,0,0-.87-1.153,2.921,2.921,0,0,0-1.339-.61,8.224,8.224,0,0,0-1.65-.006l-7.309.288c-10.02.379-19.092.67-25.659.831l-7.781.141a16.193,16.193,0,0,1-2.857-.08,16.034,16.034,0,0,1,2.842-.3l7.77-.45c6.561-.337,15.628-.735,25.648-1.116l7.311-.268a8.925,8.925,0,0,1,1.854.03,3.894,3.894,0,0,1,2.881,2.34,13.078,13.078,0,0,1,.43,1.668c.922,4.2,1.761,8,2.479,11.27.643,3.083,1.177,5.646,1.588,7.618A16.157,16.157,0,0,1,258.167,308.164Z" transform="translate(-204.909 -282.378)" fill="#455a64"/></g><g transform="translate(23.244 9.443)"><path d="M221.792,286.427a2.3,2.3,0,0,0-2.821-1.255,2.269,2.269,0,0,0-1.564,1.91,2.589,2.589,0,0,0,1.374,2.3,2.361,2.361,0,0,0,2.622-.366A2.169,2.169,0,0,0,221.792,286.427Z" transform="translate(-217.407 -285.021)" fill="#fafafa"/></g></g><g transform="translate(0 38.205)"><path d="M237.81,301.6c-1.053.318-25,14.021-25,14.021l-12.193,14.026s-4.266,8,0,20,10.556,16.013,24.785,18.882l26.424-5.358,18.594-11.583-5.488-21.032-18.287,14.631-10.365,1.828-1.709-3.351,14.936-8.6,23.351-19.749-7.316-7.924-21.64,14.021-18.5,9.145,2.648-7.62,21.456-17.376S250.915,297.633,237.81,301.6Z" transform="translate(-198.725 -300.486)" fill="#ffbe9d"/></g><g transform="translate(27.544 19.856)"><g transform="translate(0.474 0.426)"><path d="M226.637,296.867s4.971-3.139,13.608,0,19.665,7.973,19.665,7.973l16.448,3.932-2.094-3.932s-15.962,2.321-15.7-9.368h9.684l8.112-4.623,17.01,15.178,7.59,19.1,10.469,7.984-12.754,32.6-27.024-4.471-23.03,2.356-12.059-8.9-1.81-11.91-11.908-11.12s-1.7-5.758,3.534-6.543,18.442,11.233,18.442,11.233l12.7-.242s2.092-2.094.26-3.141-40.039-17.8-41.871-21.854-3.664-6.669,0-7.978,9.944.524,9.944.524S223.858,297.888,226.637,296.867Z" transform="translate(-213.791 -290.849)" fill="#ffbe9d"/></g><g transform="translate(11.623 13.078)"><path d="M253.4,312.642c-.11.244-7.722-2.911-17-7.047s-16.718-7.686-16.61-7.93,7.72,2.911,17,7.047S253.508,312.4,253.4,312.642Z" transform="translate(-219.785 -297.652)" fill="#eb996e"/></g><g transform="translate(10.612 41.135)"><path d="M262.709,329.21a7.748,7.748,0,0,1-1.878.7c-1.229.379-3.015.911-5.271,1.408a35.566,35.566,0,0,1-8.084.917,23.763,23.763,0,0,1-9.736-2.241c-6.524-3.022-10.986-7.887-13.965-11.335-1.5-1.754-2.635-3.227-3.409-4.253a8.033,8.033,0,0,1-1.12-1.661c.117-.1,1.96,2.074,5.04,5.46,3.093,3.316,7.554,8,13.855,10.908a23.742,23.742,0,0,0,9.355,2.232,38.571,38.571,0,0,0,7.93-.7C259.914,329.79,262.67,329.052,262.709,329.21Z" transform="translate(-219.242 -312.738)" fill="#eb996e"/></g><path d="M311.645,333.311s-.249-.151-.709-.482c-.489-.361-1.164-.856-2.036-1.5l-7.831-5.864-.039-.03-.02-.046c-2-4.971-4.59-11.395-7.681-19.068l.074.106L276.346,291.3l.4.043c-2.513,1.441-5.265,3.017-8.1,4.642l-.084.048h-.1c-3.005.007-6.3.015-9.682.021l.389-.381a9.04,9.04,0,0,0,1.133,4.661,8.255,8.255,0,0,0,3.727,3.15,20.914,20.914,0,0,0,10.391,1.127l.3-.032.136.253c.645,1.207,1.369,2.563,2.1,3.93l.45.844-.932-.221-16.453-3.913-.037-.009-.039-.017c-5.105-2.209-10.406-4.417-15.881-6.533a39.064,39.064,0,0,0-8.4-2.583,14.335,14.335,0,0,0-8.553,1.134l-.074.039-.017.006c-.863.3-1.2,1.441-1.159,2.613a13.013,13.013,0,0,0,.662,3.586l.275.852-.863-.234a27.649,27.649,0,0,0-5.524-.937c-1.834-.089-3.894-.013-5.282,1.025a1.883,1.883,0,0,0-.5,2.195,17.339,17.339,0,0,0,1.081,2.68,8.711,8.711,0,0,0,1.371,2.451,17.07,17.07,0,0,0,2.332,1.75c6.87,4.264,14.188,7.662,21.252,11.077q5.342,2.5,10.571,4.938l5.211,2.4,1.294.612a2.575,2.575,0,0,1,1.3,1.079,2.042,2.042,0,0,1-.08,1.765,4.941,4.941,0,0,1-.9,1.285l-.126.134-.2,0-12.7.231-.178,0-.139-.123a77.349,77.349,0,0,0-12.438-9.308c-2.165-1.155-4.575-2.418-6.744-1.536a3.34,3.34,0,0,0-2.135,2.328,6.84,6.84,0,0,0,.056,3.368l-.117-.19,11.888,11.14.1.093.02.136q.926,6.173,1.785,11.914L237,354.6l12.036,8.927-.231-.063,23.037-2.275.035,0,.032.006c8.629,1.479,15.367,2.635,19.994,3.428l5.217.928,1.328.255a2.414,2.414,0,0,1,.445.108,2.272,2.272,0,0,1-.456-.041l-1.339-.188-5.237-.8-20.034-3.193.067,0-23.02,2.434-.128.013-.1-.076L236.558,355.2l-.123-.089-.022-.152-1.836-11.9.121.229-11.927-11.1-.089-.084-.026-.106a7.64,7.64,0,0,1-.071-3.833,4.685,4.685,0,0,1,.95-1.784,4.4,4.4,0,0,1,1.7-1.123,5.868,5.868,0,0,1,3.946-.024,19.408,19.408,0,0,1,3.537,1.594,77.858,77.858,0,0,1,12.628,9.4l-.316-.119,12.7-.253-.322.138c.556-.573,1.066-1.484.8-1.975-.236-.48-1.358-.831-2.152-1.248l-5.211-2.4-10.584-4.932c-7.089-3.424-14.38-6.8-21.371-11.134a17.959,17.959,0,0,1-2.481-1.871,3.813,3.813,0,0,1-.934-1.376l-.634-1.354a18.106,18.106,0,0,1-1.142-2.849,3.909,3.909,0,0,1-.108-1.681,2.428,2.428,0,0,1,.934-1.5c1.851-1.339,4.012-1.3,5.949-1.239a28.406,28.406,0,0,1,5.737.98l-.59.617a13.863,13.863,0,0,1-.712-3.885,5.175,5.175,0,0,1,.307-2,2.6,2.6,0,0,1,1.48-1.523l-.089.045A15.136,15.136,0,0,1,235.8,295.4a39.685,39.685,0,0,1,8.607,2.648c5.492,2.131,10.79,4.35,15.907,6.576l-.076-.026,16.444,3.954-.482.621c-.727-1.369-1.447-2.726-2.089-3.935l.437.221a21.68,21.68,0,0,1-10.846-1.224,9.056,9.056,0,0,1-4.078-3.485,9.772,9.772,0,0,1-1.227-5.088l-.02-.383.411,0c3.383.007,6.677.013,9.682.02l-.184.048,8.124-4.6.219-.123.184.166,16.965,15.23.05.045.022.061c3.017,7.7,5.544,14.151,7.5,19.139l-.06-.076,7.729,6,1.979,1.566C311.435,333.11,311.645,333.311,311.645,333.311Z" transform="translate(-213.536 -290.62)" fill="#eb996e"/></g></g></g></g></g><g transform="translate(394.473 35.61)"><path d="M636.148,156.968c-6.117,0-9.182-3.516-11.89-6.618-2.49-2.857-4.459-5.111-8.573-5.111s-6.085,2.254-8.58,5.111c-2.705,3.1-5.773,6.618-11.89,6.618s-9.18-3.516-11.885-6.618c-2.492-2.857-4.459-5.111-8.573-5.111s-6.088,2.254-8.58,5.111c-2.707,3.1-5.777,6.618-11.894,6.618s-9.192-3.514-11.9-6.615c-2.494-2.857-4.465-5.113-8.589-5.113s-6.092,2.256-8.587,5.111c-2.71,3.1-5.782,6.618-11.9,6.618a2.2,2.2,0,1,1,0-4.4c4.123,0,6.094-2.256,8.589-5.113,2.71-3.1,5.779-6.618,11.9-6.618s9.192,3.516,11.9,6.618c2.495,2.857,4.466,5.113,8.589,5.113s6.087-2.256,8.582-5.113c2.705-3.1,5.773-6.618,11.892-6.618s9.182,3.516,11.888,6.62c2.49,2.855,4.456,5.111,8.57,5.111s6.083-2.256,8.578-5.113c2.707-3.1,5.775-6.618,11.892-6.618s9.182,3.516,11.89,6.618c2.49,2.857,4.456,5.113,8.573,5.113a2.2,2.2,0,0,1,0,4.4Z" transform="translate(-511.104 -140.839)" fill="#d0e0ea"/></g><path d="M593.693,458.584c-5.168,7.6-13.417,13.777-23.936,17.715-46.363,17.35-112.969-4.533-149.426-34.94-12.1-10.093-22.9-25.868-17.531-40.687,20.354-56.216,122.425-30.393,159.161-10.254,11.244,6.165,22.189,13.578,29.593,24.047C600.7,427.4,602.871,445.081,593.693,458.584Z" transform="translate(-255.486 180.52)" fill="url(#c)"/><path d="M743.966,226.654c1.205,8.6-.292,17.633-4.9,24.933-18.7,29.647-69.334,31.2-92.837,7.368-7.737-7.846-13.1-18.584-12.454-29.584.958-16.215,14.817-29.382,30.225-34.527,24.84-8.292,62.854-7.193,76.187,19.527A40.038,40.038,0,0,1,743.966,226.654Z" transform="translate(38.558 -42.657)" fill="url(#d)"/><g transform="translate(63.427 92.112)"><path d="M419.061,220.988a1.128,1.128,0,0,1-.8-.331l-52.944-52.944a1.133,1.133,0,0,1,1.6-1.6l52.944,52.944a1.132,1.132,0,0,1-.8,1.932Z" transform="translate(-364.984 -165.778)" fill="#f9fbfc"/></g><g transform="translate(283.924 173.974)"><path d="M519.9,260.633a1.138,1.138,0,0,1-.8-.331L462.64,203.846a1.133,1.133,0,1,1,1.6-1.6L520.7,258.7a1.132,1.132,0,0,1-.8,1.933Z" transform="translate(-462.309 -201.911)" fill="#f9fbfc"/></g><g transform="translate(632.107 531.515)"><path d="M673.58,418.446a1.123,1.123,0,0,1-.8-.333l-56.454-56.454a1.133,1.133,0,1,1,1.6-1.6l56.454,56.454a1.134,1.134,0,0,1-.8,1.935Z" transform="translate(-615.993 -359.726)" fill="#f9fbfc"/></g><g transform="translate(643.166 114.758)"><path d="M678.46,234.491a1.119,1.119,0,0,1-.8-.331l-56.454-56.454a1.133,1.133,0,1,1,1.6-1.6l56.454,56.454a1.132,1.132,0,0,1-.8,1.932Z" transform="translate(-620.874 -175.774)" fill="#f9fbfc"/></g><g transform="translate(353.137 243.189)"><path d="M513.188,253.924a1.12,1.12,0,0,1-.8-.331l-19.2-19.2a1.133,1.133,0,0,1,1.6-1.6l19.2,19.2a1.132,1.132,0,0,1-.8,1.933Z" transform="translate(-492.859 -232.462)" fill="#f9fbfc"/></g><g transform="translate(154.739 491.317)"><path d="M443.173,381a1.138,1.138,0,0,1-.8-.331l-36.75-36.752a1.133,1.133,0,0,1,1.6-1.6l36.75,36.752a1.132,1.132,0,0,1-.8,1.932Z" transform="translate(-405.288 -341.983)" fill="#f9fbfc"/></g><g transform="translate(817.781 300.854)"><path d="M718.278,279.379a1.131,1.131,0,0,1-.8-.333l-19.2-19.2a1.134,1.134,0,0,1,1.6-1.6l19.2,19.2a1.134,1.134,0,0,1-.8,1.935Z" transform="translate(-697.947 -257.915)" fill="#f9fbfc"/></g><g transform="translate(116.097 359.966)"><path d="M408.561,305.468a1.119,1.119,0,0,1-.8-.331l-19.2-19.2a1.133,1.133,0,1,1,1.6-1.6l19.2,19.2a1.132,1.132,0,0,1-.8,1.933Z" transform="translate(-388.232 -284.006)" fill="#f9fbfc"/></g><g transform="translate(38.122 310.911)"><path d="M356.55,266.219a1.128,1.128,0,0,1-.8-.331l-1.6-1.6a1.133,1.133,0,0,1,1.6-1.6l1.6,1.6a1.132,1.132,0,0,1-.8,1.933Z" transform="translate(-353.815 -262.354)" fill="#f9fbfc"/><g transform="translate(9.137 9.137)"><path d="M393.647,303.321a1.129,1.129,0,0,1-.8-.333l-3.013-3.013a1.133,1.133,0,1,1,1.6-1.6l3.013,3.013a1.134,1.134,0,0,1-.8,1.935ZM383.1,292.768a1.129,1.129,0,0,1-.8-.331l-3.013-3.013a1.133,1.133,0,0,1,1.6-1.6l3.013,3.013a1.132,1.132,0,0,1-.8,1.933Zm-10.551-10.551a1.138,1.138,0,0,1-.8-.331l-3.013-3.015a1.133,1.133,0,0,1,1.6-1.6l3.016,3.015a1.132,1.132,0,0,1-.8,1.933ZM362,271.668a1.13,1.13,0,0,1-.8-.333l-3.016-3.016a1.133,1.133,0,0,1,1.6-1.6l3.016,3.016a1.134,1.134,0,0,1-.8,1.935Z" transform="translate(-357.848 -266.387)" fill="#f9fbfc"/></g><g transform="translate(51.342 51.342)"><path d="M379.212,288.884a1.131,1.131,0,0,1-.8-.333l-1.6-1.6a1.133,1.133,0,0,1,1.6-1.6l1.6,1.6a1.134,1.134,0,0,1-.8,1.935Z" transform="translate(-376.477 -285.016)" fill="#f9fbfc"/></g></g><g transform="translate(401.507 595.198)"><path d="M516.939,391.7a1.138,1.138,0,0,1-.8-.331l-1.595-1.593a1.133,1.133,0,1,1,1.6-1.608l1.6,1.6a1.133,1.133,0,0,1-.8,1.935Z" transform="translate(-514.209 -387.835)" fill="#f9fbfc"/><g transform="translate(10.154 10.152)"><path d="M535.228,409.986a1.128,1.128,0,0,1-.8-.331L531,406.231a1.133,1.133,0,0,1,1.6-1.6l3.423,3.423a1.132,1.132,0,0,1-.8,1.933Zm-11.98-11.98a1.129,1.129,0,0,1-.8-.331l-3.426-3.426a1.133,1.133,0,0,1,1.6-1.6l3.426,3.426a1.132,1.132,0,0,1-.8,1.933Z" transform="translate(-518.691 -392.316)" fill="#f9fbfc"/></g><g transform="translate(34.127 34.126)"><path d="M532,406.761a1.128,1.128,0,0,1-.8-.335l-1.595-1.595a1.133,1.133,0,0,1,1.6-1.6l1.6,1.6a1.134,1.134,0,0,1-.8,1.932Z" transform="translate(-529.272 -402.898)" fill="#f9fbfc"/></g></g><g transform="translate(644.973 230.11)"><path d="M624.407,230.559a1.13,1.13,0,0,1-.8-.333l-1.6-1.6a1.133,1.133,0,0,1,1.6-1.6l1.6,1.6a1.134,1.134,0,0,1-.8,1.935Z" transform="translate(-621.672 -226.689)" fill="#f9fbfc"/><g transform="translate(9.95 9.951)"><path d="M712.344,318.5a1.137,1.137,0,0,1-.8-.331l-3.342-3.342a1.133,1.133,0,1,1,1.6-1.6l3.342,3.339a1.133,1.133,0,0,1-.8,1.935Zm-11.688-11.688a1.122,1.122,0,0,1-.8-.333l-3.339-3.337a1.133,1.133,0,0,1,1.6-1.6l3.339,3.337a1.134,1.134,0,0,1-.8,1.935ZM688.97,295.122a1.122,1.122,0,0,1-.8-.333l-3.339-3.337a1.133,1.133,0,1,1,1.6-1.6l3.339,3.337a1.134,1.134,0,0,1-.8,1.935Zm-11.686-11.686a1.131,1.131,0,0,1-.8-.333l-3.339-3.342a1.133,1.133,0,1,1,1.6-1.6l3.339,3.342a1.134,1.134,0,0,1-.8,1.935ZM665.6,271.746a1.138,1.138,0,0,1-.8-.331l-3.339-3.339a1.133,1.133,0,1,1,1.6-1.6l3.337,3.339a1.132,1.132,0,0,1-.8,1.933ZM653.908,260.06a1.136,1.136,0,0,1-.8-.331l-3.339-3.339a1.133,1.133,0,0,1,1.6-1.6l3.34,3.339a1.132,1.132,0,0,1-.8,1.933Zm-11.686-11.686a1.122,1.122,0,0,1-.8-.333l-3.342-3.339a1.133,1.133,0,0,1,1.6-1.6l3.342,3.339a1.134,1.134,0,0,1-.8,1.935Zm-11.688-11.688a1.121,1.121,0,0,1-.8-.333l-3.339-3.337a1.133,1.133,0,0,1,1.6-1.6l3.339,3.337a1.134,1.134,0,0,1-.8,1.935Z" transform="translate(-626.064 -231.081)" fill="#f9fbfc"/></g><g transform="translate(103.447 103.446)"><path d="M670.066,276.217a1.131,1.131,0,0,1-.8-.333l-1.6-1.6a1.132,1.132,0,0,1,1.6-1.6l1.6,1.6a1.134,1.134,0,0,1-.8,1.935Z" transform="translate(-667.332 -272.349)" fill="#f9fbfc"/></g></g><ellipse cx="6.379" cy="6.379" rx="6.379" ry="6.379" transform="translate(841.939 384.338)" fill="#f9fbfc"/><ellipse cx="6.379" cy="6.379" rx="6.379" ry="6.379" transform="translate(644.83 663.098)" fill="#d0e0ea"/><ellipse cx="6.379" cy="6.379" rx="6.379" ry="6.379" transform="translate(571.472 50.718)" fill="#d0e0ea"/><ellipse cx="6.379" cy="6.379" rx="6.379" ry="6.379" transform="translate(334.822 302.049)" fill="#f9fbfc"/><ellipse cx="6.379" cy="6.379" rx="6.379" ry="6.379" transform="translate(776.874 97.923)" fill="#f9fbfc"/><g transform="translate(621.593 210.336)"><path d="M618.862,232.984a7.512,7.512,0,1,1,7.513-7.513A7.521,7.521,0,0,1,618.862,232.984Zm0-12.757a5.246,5.246,0,1,0,5.247,5.245A5.252,5.252,0,0,0,618.862,220.227Z" transform="translate(-611.352 -217.961)" fill="#f9fbfc"/></g><ellipse cx="6.379" cy="6.379" rx="6.379" ry="6.379" transform="translate(35.64 177.022)" fill="#f9fbfc"/><ellipse cx="6.379" cy="6.379" rx="6.379" ry="6.379" transform="translate(180.655 474.281)" fill="#f9fbfc"/><ellipse cx="6.379" cy="6.379" rx="6.379" ry="6.379" transform="translate(528.095 657.995)" fill="#f9fbfc"/><g transform="translate(303.698 59.297)"><path d="M496.658,202.535a25.62,25.62,0,1,1,25.619-25.619A25.649,25.649,0,0,1,496.658,202.535Zm0-48.975a23.355,23.355,0,1,0,23.354,23.356A23.381,23.381,0,0,0,496.658,153.56Z" transform="translate(-471.037 -151.294)" fill="#f9fbfc"/></g><g transform="translate(287.758 535.945)"><g transform="translate(14.246)"><path d="M473.819,368.741a3.53,3.53,0,1,1,3.532-3.53A3.53,3.53,0,0,1,473.819,368.741Z" transform="translate(-470.289 -361.681)" fill="#f9fbfc"/><path d="M473.819,383.082a3.531,3.531,0,1,1,3.532-3.532A3.532,3.532,0,0,1,473.819,383.082Z" transform="translate(-470.289 -343.534)" fill="#f9fbfc"/><path d="M473.819,397.421a3.531,3.531,0,1,1,3.532-3.532A3.532,3.532,0,0,1,473.819,397.421Z" transform="translate(-470.289 -325.387)" fill="#f9fbfc"/><path d="M473.819,411.76a3.531,3.531,0,1,1,3.532-3.532A3.532,3.532,0,0,1,473.819,411.76Z" transform="translate(-470.289 -307.24)" fill="#f9fbfc"/><path d="M473.819,426.1a3.531,3.531,0,1,1,3.532-3.53A3.531,3.531,0,0,1,473.819,426.1Z" transform="translate(-470.289 -289.093)" fill="#f9fbfc"/></g><g transform="translate(0 15.417)"><path d="M467.533,375.548a3.531,3.531,0,1,1,3.53-3.53A3.53,3.53,0,0,1,467.533,375.548Z" transform="translate(-464.001 -368.486)" fill="#f9fbfc"/><path d="M467.533,389.888a3.531,3.531,0,1,1,3.53-3.532A3.532,3.532,0,0,1,467.533,389.888Z" transform="translate(-464.001 -350.338)" fill="#f9fbfc"/><path d="M467.533,404.227a3.531,3.531,0,1,1,3.53-3.532A3.532,3.532,0,0,1,467.533,404.227Z" transform="translate(-464.001 -332.19)" fill="#f9fbfc"/><path d="M467.533,418.566a3.531,3.531,0,1,1,3.53-3.532A3.532,3.532,0,0,1,467.533,418.566Z" transform="translate(-464.001 -314.043)" fill="#f9fbfc"/><path d="M467.533,432.9a3.531,3.531,0,1,1,3.53-3.532A3.532,3.532,0,0,1,467.533,432.9Z" transform="translate(-464.001 -295.896)" fill="#f9fbfc"/></g></g></g></g></svg>