<svg xmlns="http://www.w3.org/2000/svg" xmlns:xlink="http://www.w3.org/1999/xlink" width="1054.222" height="663.975" viewBox="0 0 1054.222 663.975">
  <defs>
    <linearGradient id="linear-gradient" x1="0.5" y1="1" x2="0.5" gradientUnits="objectBoundingBox">
      <stop offset="0" stop-color="#e3a5fe"/>
      <stop offset="1" stop-color="#e3cbff"/>
    </linearGradient>
    <linearGradient id="linear-gradient-2" x1="0.5" y1="1" x2="0.5" y2="0" xlink:href="#linear-gradient"/>
    <linearGradient id="linear-gradient-3" x1="0.501" y1="1" x2="0.501" y2="0" xlink:href="#linear-gradient"/>
    <linearGradient id="linear-gradient-4" x1="0.5" y1="1" x2="0.5" y2="0" xlink:href="#linear-gradient"/>
    <linearGradient id="linear-gradient-5" x1="0.5" y1="1" x2="0.5" y2="0" xlink:href="#linear-gradient"/>
    <linearGradient id="linear-gradient-6" x1="1" y1="0.5" x2="0" y2="0.5" gradientUnits="objectBoundingBox">
      <stop offset="0.01" stop-color="#b17ae5"/>
      <stop offset="0.99" stop-color="#965fd6"/>
    </linearGradient>
    <linearGradient id="linear-gradient-7" x1="1" y1="0.5" x2="0" y2="0.5" gradientUnits="objectBoundingBox">
      <stop offset="0.01" stop-color="#b88cea"/>
      <stop offset="1" stop-color="#b17ae5"/>
    </linearGradient>
    <linearGradient id="linear-gradient-8" x1="1" y1="0.5" x2="0" y2="0.5" gradientUnits="objectBoundingBox">
      <stop offset="0.01" stop-color="#d82b72"/>
      <stop offset="1" stop-color="#ef3a8d"/>
    </linearGradient>
    <linearGradient id="linear-gradient-9" x1="1" y1="0.5" x2="0" y2="0.5" gradientUnits="objectBoundingBox">
      <stop offset="0.01" stop-color="#ef4190"/>
      <stop offset="1" stop-color="#ff579c"/>
    </linearGradient>
    <linearGradient id="linear-gradient-10" x1="0.5" y1="1" x2="0.5" y2="0" xlink:href="#linear-gradient-8"/>
    <linearGradient id="linear-gradient-11" x1="0.5" y1="1" x2="0.5" gradientUnits="objectBoundingBox">
      <stop offset="0" stop-color="#ef4190"/>
      <stop offset="0.02" stop-color="#5f2383"/>
      <stop offset="0.37" stop-color="#4b2284"/>
      <stop offset="0.67" stop-color="#5c45b4"/>
      <stop offset="0.88" stop-color="#362186" stop-opacity="0.392"/>
      <stop offset="1" stop-color="#372186" stop-opacity="0.2"/>
    </linearGradient>
    <linearGradient id="linear-gradient-12" x1="0.001" y1="0.5" x2="1.001" y2="0.5" xlink:href="#linear-gradient-7"/>
    <linearGradient id="linear-gradient-13" y1="0.5" x2="0.999" y2="0.5" gradientUnits="objectBoundingBox">
      <stop offset="0" stop-color="#4b42c6"/>
      <stop offset="1" stop-color="#4232b2"/>
    </linearGradient>
    <linearGradient id="linear-gradient-14" x1="0" y1="0.497" x2="1" y2="0.497" xlink:href="#linear-gradient-13"/>
    <linearGradient id="linear-gradient-15" x1="0.672" y1="0.261" x2="0.218" y2="0.794" xlink:href="#linear-gradient-13"/>
    <linearGradient id="linear-gradient-16" x1="0.558" y1="0.632" x2="0.361" y2="0.179" xlink:href="#linear-gradient-13"/>
    <linearGradient id="linear-gradient-17" x1="-0.144" y1="0.074" x2="1.178" y2="0.952" xlink:href="#linear-gradient-13"/>
    <linearGradient id="linear-gradient-18" x1="-0.006" y1="0.5" x2="0.991" y2="0.5" xlink:href="#linear-gradient-13"/>
    <linearGradient id="linear-gradient-19" x1="0.859" y1="0.956" x2="0.353" y2="-0.04" xlink:href="#linear-gradient-13"/>
  </defs>
  <g id="Camada_2" data-name="Camada 2" transform="translate(245.178)">
    <g id="Layer_1" data-name="Layer 1" transform="translate(-245.178)">
      <path id="Caminho_5257" data-name="Caminho 5257" d="M222.145,266.216c-56.9.67-102.721,27.183-102.334,59.2s46.8,57.434,103.691,56.764,102.721-27.166,102.334-59.2S279.032,265.546,222.145,266.216Z" transform="translate(313.888 252.779)" opacity="0.5" fill="url(#linear-gradient)"/>
      <path id="Caminho_5258" data-name="Caminho 5258" d="M84.1,327.362c-18.246.212-32.948,8.709-32.824,18.968s15,18.422,33.265,18.21,32.93-8.708,32.807-18.986S102.35,327.133,84.1,327.362Z" transform="translate(261.61 299.431)" opacity="0.5" fill="url(#linear-gradient-2)"/>
      <path id="Caminho_5259" data-name="Caminho 5259" d="M300.114,329.251c-15.566.194-28.1,7.439-27.994,16.2s12.8,15.707,28.364,15.531,28.1-7.439,27.994-16.2S315.716,329.075,300.114,329.251Z" transform="translate(430.078 300.873)" opacity="0.5" fill="url(#linear-gradient-3)"/>
      <path id="Caminho_5260" data-name="Caminho 5260" d="M339.658,251.152C317.9,251.4,300.4,261.535,300.54,273.77s17.893,21.965,39.594,21.718,39.259-10.4,39.118-22.635S361.412,250.888,339.658,251.152Z" transform="translate(451.759 230.201)" opacity="0.5" fill="url(#linear-gradient-4)"/>
      <path id="Caminho_5261" data-name="Caminho 5261" d="M35.839,245.632C15.866,245.861-.123,255.1,0,266.363s16.395,20.114,36.315,19.885,35.98-9.519,35.856-20.731S55.777,245.4,35.839,245.632Z" transform="translate(222.491 224.897)" opacity="0.5" fill="url(#linear-gradient-5)"/>
      <path id="Caminho_5262" data-name="Caminho 5262" d="M316.8,294.673h-36.65c-16.694-7.333-37.813-11.582-60.765-11.318a151.608,151.608,0,0,0-57.31,11.317H123.29v11.494c.353,30.074,43.966,53.943,97.415,53.326,53.132-.635,95.97-25.244,96.111-55.089Z" transform="translate(316.544 265.854)" fill="url(#linear-gradient-6)"/>
      <path id="Caminho_5263" data-name="Caminho 5263" d="M219.4,258.875c-53.45.635-96.481,25.526-96.128,55.6s43.966,53.961,97.415,53.326,96.481-25.526,96.128-55.6S272.849,258.258,219.4,258.875Z" transform="translate(316.527 247.18)" fill="url(#linear-gradient-7)"/>
      <path id="Caminho_5264" data-name="Caminho 5264" d="M285.957,281.449H257.469a115.837,115.837,0,0,0-47.244-8.814,117.67,117.67,0,0,0-44.547,8.814h-30.2v19.515c.264,23.393,34.182,41.956,75.8,41.462s74.6-19.621,74.727-42.837Z" transform="translate(325.843 257.659)" fill="url(#linear-gradient-8)"/>
      <path id="Caminho_5265" data-name="Caminho 5265" d="M210.218,253.594c-41.55.494-75.009,19.85-74.727,43.243s34.182,41.938,75.8,41.462,75.009-19.85,74.727-43.243S251.768,253.118,210.218,253.594Z" transform="translate(325.85 243.153)" fill="url(#linear-gradient-9)"/>
      <path id="Caminho_5266" data-name="Caminho 5266" d="M198.654,261.073c-26.178.3-47.262,12.5-47.1,27.236s21.542,26.443,47.738,26.125,47.262-12.5,47.086-27.236S224.832,260.755,198.654,261.073Z" transform="translate(338.101 239.939)" fill="url(#linear-gradient-10)"/>
      <path id="Caminho_5267" data-name="Caminho 5267" d="M791.03,0H-263.192L226.46,534.64c.176,16.164,21.542,29,47.738,28.654,25.843-.329,46.716-13.38,47.068-29.273h0Z" transform="translate(263.192)" opacity="0.6" fill="url(#linear-gradient-11)"/>
      <path id="Caminho_5268" data-name="Caminho 5268" d="M342.079,187.867c-1.463,5.853-3.843,11.511-4.072,17.629-.194,4.865-1.34,8.5-3.9,11.265-.987,1.075-3.755,0-4.8-1.587-1.639-2.539,1.058-7.58-2.133-8.215-3.984-.776-6.223,0-7.651,5.289s2.1,10.031,3.808,15.143c.388,1.163,1.5,2.768-.846,3.1-3.526.476-8.321-1.763-9.7-5.289-.864-2.133-4.372-1.252-5.553-2.662-1.763-2.045-1.622-4.39-3.526-3.825-1.5.476-2.539,1.886-3.914,2.715-2.627,1.587-6.716,6.893-9.872,6.434-11.829-1.763-17.787-1.3-25.473,1.5-2.345.846-4.108-.67-5.853-.335-2.256.441-3.42-1.322-5.024-2.2-.423,1.146-1.287,3.05-.317,4.354s2.7.952,4.372.952a12.429,12.429,0,0,1,6.822,2.891c1.216.9,3.878.529,5.077.335,4.178-.67,6.47-2.926,10.965-1.093s8.162,4.583,8.039,10.242c-.088,4,.705,8.215.141,11.97-1.551,10.577-3.755,18.4-10.789,27.465-1.41,1.763-1.763,5.535-3.191,7.369-2.468,3-7.051,5.5-9.925,8.2-2.468,2.362-4.566,6.258-7.333,8.215-4.918,3.526-5.817,6.011-10.154,3.949-2.45-1.181-6.716-7.616-8.356-9.89a28.91,28.91,0,0,1-4.795-10.7,54.3,54.3,0,0,1-.723-6.329c-.441-4.583-2.01-6.082-5.535-8.568s-4.583-4.672-7.051-8.25c-3.279-4.936-7.792-4.848-12.34-7.774a8,8,0,0,1-3.931-5.289,49.046,49.046,0,0,1,.441-6.717c0-2.732-.74-4.9-.67-7.492.247-7.88,11.723-15.108,18.034-17.928,4.6-2.063,7.563-.705,11.547-.9,1.921-.106,5.024-1.058,6.752.511a31.74,31.74,0,0,0,4.231,2.345,27.062,27.062,0,0,0,6.064.758h.159a25.793,25.793,0,0,1-3.526-2.468c-3.42-2.8-6.205-6.205-10.436-7.862s-8.62-1.2-13.133-.934a42.309,42.309,0,0,1-13.063-1.587c-4.513-1.146-6.205-4.83-6.734-10.454-.194-1.992,1.111-4.883,1.269-7.051.247-3.526-2.345-5.976.106-9.819s5.289-8.708,9.325-10.965c3.526-1.992,7.809-2.556,11.511-4.284a50.912,50.912,0,0,0,9.8-6.452c4.848-3.861,9.343-8.2,14.685-11.423,12.111-7.316,26.76-3.526,39.082-9.643,6.135-3.014,12.834-13.186,20.343-13.415A115.608,115.608,0,0,0,247.5,96.71a23.8,23.8,0,0,1,5.518,7.245c2.45,5.289.405,7.845-2.292,12.111s-.141,8.814-4.072,12.093c-2.944,2.433-8.021,3.156-11.529,4.407-4.53,1.639-9.043,3.314-13.574,4.9s-9.749,3.155-14.685,2.309c-5.289-.9-6.54-3.4-8.814-7.651-.458-.864-.864-5.747-4.707-5.906-5.112-.212-8.955-.423-12.146,1.763-4.3,2.856-5.623,9.008-6.611,14.1-1.287,6.417,1.763,14.35-2.08,20.1-2.327,3.4-6.5,4.707-10.4,5.165-7.668.917-15.055-1.922-22.653-1.974-6.1,0-10.577,2.856-11.846,7.651-.811,3.332.952,6.84,1.022,10.26a57.98,57.98,0,0,1-1.269,14.191c-.388,1.763-1.992,3.9-3.42,2.768a38.342,38.342,0,0,1-9.361-10.736,116.657,116.657,0,0,0-1.763,13.468,25.208,25.208,0,0,1,5.165,3.526c4.425,3.755,4.037,10.93,6.664,15.866,4.055,7.739,11.952,8.955,18.334,13.838a15.214,15.214,0,0,1,6.646,10.577,23.2,23.2,0,0,1-.828,6.329,25.949,25.949,0,0,0,3.1,17.928c5.641,10.577,14.561,21.154,26.073,25.4,2.027.74,5.006,1.5,6.064,3.191s-4.777,3.861-6.188,4.707a27.589,27.589,0,0,1-12.2,4.09A115.908,115.908,0,0,0,341.938,187.9Zm-210.361,29.1a6.611,6.611,0,0,1-.159-3,9.907,9.907,0,0,0-.793-4.566,3.878,3.878,0,0,1,0-3.649c1.163-1.992,2.309.476,3.4,1.763a12.235,12.235,0,0,1,1.639,2.873,7.051,7.051,0,0,1,.264.793,8.3,8.3,0,0,1-.3,2.785,9.449,9.449,0,0,0,.159,5.289c.159.494.687,1.357.229,1.357C134.115,220.744,132.405,218.7,131.718,216.972Zm9.114,13.168c-.264.176-.123-.881-1.234-1.639-1.428-.987-3.914-2.168-4.249-4.055-.212-1.252.652-1.886,1.763-2.362.74-.3.758.423,1.2,1.287s1.481,1.163,2.256,1.9C141.819,226.421,142.242,229.259,140.832,230.14Zm31.731-53.309a18.017,18.017,0,0,0-1.446,5.042c-.176,1.322.123,2.45-.864,3.526a3.72,3.72,0,0,1-4.971.106c-3.42-2.38-5.659-6.417-9.079-8.955-1.393-1.022-3.349-1.428-2.856-3.367s3.649-2.785,5.465-2.768c2.415,0,4.936,1.463,6.91,0,1.587-1.234,3.9-1.9,5.289-.917a6.752,6.752,0,0,1,1.481,7.333ZM293.495,287.609c-1.146,1.763-1.181,5.941-3.42,7.9s-5.641,1.974-7.845,2.873c-3.032,1.252-3.244-3.138-2.327-7.422.688-3.208,5.465-4.425,7.633-7.051a28.506,28.506,0,0,0,4.883-8.109c.511-1.322.97-3.984,2.01-2.821C298.237,277.261,296.35,283.026,293.495,287.609Z" transform="translate(308.556 95.836)" fill="url(#linear-gradient-12)"/>
      <path id="Caminho_5269" data-name="Caminho 5269" d="M211.466,138.158c-5.289,3.226-9.837,7.563-14.685,11.423a50.913,50.913,0,0,1-9.8,6.452c-3.7,1.763-7.933,2.292-11.511,4.284-4.072,2.256-6.84,7.051-9.325,10.965s.141,6.293-.106,9.819c-.159,2.221-1.463,5.112-1.269,7.051.529,5.624,2.221,9.308,6.734,10.454a42.306,42.306,0,0,0,13.063,1.587c4.513-.264,8.814-.758,13.133.934s7.051,5.059,10.436,7.862a25.786,25.786,0,0,0,3.526,2.468H211.5a27.061,27.061,0,0,1-6.064-.758,31.737,31.737,0,0,1-4.231-2.345c-1.763-1.569-4.83-.617-6.752-.511-3.984.194-6.946-1.163-11.547.9-6.311,2.821-17.787,10.048-18.034,17.928,0,2.591.723,4.76.67,7.492a49.044,49.044,0,0,0-.441,6.716,8,8,0,0,0,3.931,5.289c4.478,2.926,8.991,2.838,12.34,7.774,2.38,3.526,3.526,5.764,7.051,8.25s5.095,3.984,5.535,8.567a54.308,54.308,0,0,0,.723,6.329,28.91,28.91,0,0,0,4.795,10.7c1.639,2.274,5.906,8.708,8.356,9.89,4.337,2.063,5.289-.441,10.154-3.949,2.768-1.957,4.866-5.853,7.333-8.215,2.838-2.7,7.457-5.289,9.925-8.2,1.481-1.763,1.763-5.553,3.191-7.369,7.051-9.061,9.237-16.941,10.789-27.465.564-3.755-.229-7.968-.141-11.97.123-5.659-3.367-8.321-8.039-10.242s-6.787.423-10.965,1.093c-1.2.194-3.861.564-5.077-.335a12.428,12.428,0,0,0-6.822-2.891c-1.763,0-3.526.106-4.372-.952s-.106-3.208.317-4.354c1.6.881,2.768,2.644,5.024,2.2,1.763-.335,3.526,1.181,5.853.335,7.686-2.8,13.644-3.191,25.473-1.5,3.155.458,7.245-4.848,9.872-6.434,1.375-.829,2.415-2.239,3.914-2.715,1.869-.564,1.763,1.763,3.526,3.825,1.181,1.41,4.689.529,5.553,2.662,1.375,3.526,6.17,5.712,9.7,5.289,2.345-.335,1.234-1.939.846-3.1-1.763-5.112-5.289-9.713-3.808-15.143s3.667-5.994,7.651-5.289c3.191.635.494,5.676,2.133,8.215,1.04,1.587,3.808,2.662,4.795,1.587,2.556-2.768,3.7-6.4,3.9-11.265.229-6.117,2.609-11.776,4.072-17.629A115.66,115.66,0,0,0,270.963,115.1c-7.51.229-14.209,10.4-20.343,13.415C238.226,134.579,223.577,130.789,211.466,138.158Z" transform="translate(348.171 111.207)" fill="url(#linear-gradient-13)"/>
      <path id="Caminho_5270" data-name="Caminho 5270" d="M220.323,199.644a28.5,28.5,0,0,1-4.883,8.109c-2.168,2.539-6.946,3.755-7.633,7.051-.917,4.284-.705,8.673,2.327,7.422,2.2-.9,5.676-.987,7.845-2.873s2.274-6.064,3.42-7.9c2.856-4.531,4.76-10.3.934-14.544C221.293,195.66,220.852,198.321,220.323,199.644Z" transform="translate(380.653 179.24)" fill="url(#linear-gradient-14)"/>
      <path id="Caminho_5271" data-name="Caminho 5271" d="M184.277,253.627c-1.058-1.763-4.037-2.45-6.064-3.191-11.511-4.248-20.431-14.737-26.073-25.4a25.949,25.949,0,0,1-3.1-17.928,23.2,23.2,0,0,0,.829-6.329A15.213,15.213,0,0,0,143.22,190.2c-6.382-4.883-14.279-6.1-18.334-13.838-2.627-4.989-2.239-12.164-6.664-15.866a25.208,25.208,0,0,0-5.165-3.526c-.194,2.7-.317,5.394-.317,8.127a115.7,115.7,0,0,0,53.15,97.4,27.589,27.589,0,0,0,12.2-4.09C179.5,257.505,185.281,255.249,184.277,253.627Z" transform="translate(308.495 146.78)" fill="url(#linear-gradient-15)"/>
      <path id="Caminho_5272" data-name="Caminho 5272" d="M123.268,200.884c1.428,1.128,3.032-1,3.42-2.768a57.98,57.98,0,0,0,1.269-14.191c0-3.42-1.763-6.928-1.022-10.26,1.181-4.795,5.747-7.686,11.846-7.651,7.6,0,14.984,2.891,22.653,1.974,3.9-.458,8.074-1.763,10.4-5.165,3.914-5.747.793-13.68,2.08-20.1.987-5.024,2.309-11.176,6.611-14.1,3.191-2.115,7.051-1.9,12.146-1.763,3.843.159,4.248,5.042,4.707,5.906,2.292,4.248,3.526,6.752,8.814,7.651,4.936.846,10.084-.705,14.685-2.309s9.043-3.261,13.574-4.9c3.526-1.252,8.585-1.974,11.529-4.407,3.931-3.261,1.428-7.88,4.072-12.093s4.742-6.893,2.292-12.111a23.8,23.8,0,0,0-5.518-7.245A115.749,115.749,0,0,0,113.89,190.007a38.342,38.342,0,0,0,9.378,10.877Z" transform="translate(309.373 89.515)" fill="url(#linear-gradient-16)"/>
      <path id="Caminho_5273" data-name="Caminho 5273" d="M128.362,172.456a9.449,9.449,0,0,1-.159-5.289,8.3,8.3,0,0,0,.3-2.785,7.055,7.055,0,0,0-.264-.793,12.234,12.234,0,0,0-1.639-2.874c-1.093-1.357-2.239-3.825-3.4-1.763a3.878,3.878,0,0,0,0,3.649,9.907,9.907,0,0,1,.793,4.566,6.611,6.611,0,0,0,.159,3c.688,1.763,2.4,3.772,4.442,3.72C129.05,173.743,128.486,172.949,128.362,172.456Z" transform="translate(316.125 143.807)" fill="url(#linear-gradient-17)"/>
      <path id="Caminho_5274" data-name="Caminho 5274" d="M128.612,169.147c-.441-.864-.458-1.587-1.2-1.287-1.163.476-2.027,1.111-1.763,2.362.335,1.886,2.821,3.067,4.248,4.055,1.111.758.97,1.763,1.234,1.639,1.41-.881.987-3.72-.212-4.865C130.093,170.31,129.088,170.1,128.612,169.147Z" transform="translate(318.308 152.256)" fill="url(#linear-gradient-18)"/>
      <path id="Caminho_5275" data-name="Caminho 5275" d="M148.187,139.1c-1.974,1.534-4.5.106-6.91,0-1.763,0-4.9.6-5.465,2.768s1.463,2.345,2.856,3.367c3.42,2.539,5.659,6.575,9.079,8.955a3.72,3.72,0,0,0,4.971-.106c.987-1.093.688-2.221.864-3.526a18.016,18.016,0,0,1,1.446-5.042,6.752,6.752,0,0,0-1.639-7.386C152.083,137.2,149.774,137.865,148.187,139.1Z" transform="translate(326.022 125.252)" fill="url(#linear-gradient-19)"/>
      <path id="Caminho_5276" data-name="Caminho 5276" d="M284.457,240.969c-31.837,55.124-92.532,78.905-136.727,53.4a115.361,115.361,0,0,1-19.391-140.728c31.485-55.354,98.72-70.355,148.608-47.385C308.114,136.626,312.31,192.719,284.457,240.969Z" transform="translate(308.481 93.872)" fill="#fff" opacity="0.2"/>
      <path id="Caminho_5277" data-name="Caminho 5277" d="M236.553,203.03c-20.484,35.469-60.131,50.929-88.583,34.517s-34.869-58.491-14.385-93.978,60.148-50.946,88.583-34.517S257.038,167.543,236.553,203.03Z" transform="translate(315.257 97.18)" fill="#fff" opacity="0.2"/>
      <path id="Caminho_5278" data-name="Caminho 5278" d="M197.473,165.535c-11.441,19.814-33.494,28.452-49.466,19.286s-19.391-32.666-8.039-52.48,33.494-28.452,49.466-19.286S208.914,145.72,197.473,165.535Z" transform="translate(324.175 101.361)" fill="#fff" opacity="0.2"/>
      <path id="Caminho_5279" data-name="Caminho 5279" d="M248.76,128.085a2.715,2.715,0,1,1-2.715-2.715,2.715,2.715,0,0,1,2.715,2.715Z" transform="translate(408.116 113.682)" fill="#fff"/>
      <path id="Caminho_5280" data-name="Caminho 5280" d="M189.78,101.895a2.715,2.715,0,1,1-2.715-2.715,2.715,2.715,0,0,1,2.715,2.715Z" transform="translate(363.123 89.933)" fill="#fff"/>
      <path id="Caminho_5281" data-name="Caminho 5281" d="M135.02,27.175A2.715,2.715,0,1,1,132.3,24.46,2.715,2.715,0,0,1,135.02,27.175Z" transform="translate(321.349 18.659)" fill="#fff"/>
      <path id="Caminho_5282" data-name="Caminho 5282" d="M171.59,20.917a2.715,2.715,0,1,1-2.715-2.7,2.715,2.715,0,0,1,2.715,2.7Z" transform="translate(349.247 13.899)" fill="#fff"/>
      <path id="Caminho_5283" data-name="Caminho 5283" d="M89.23,32.68a2.715,2.715,0,1,1-2.7-2.68,2.715,2.715,0,0,1,2.7,2.68Z" transform="translate(286.419 22.886)" fill="#fff"/>
      <path id="Caminho_5284" data-name="Caminho 5284" d="M143.81,67.945a2.715,2.715,0,1,1-2.715-2.715,2.715,2.715,0,0,1,2.715,2.715Z" transform="translate(328.055 49.761)" fill="#fff"/>
      <path id="Caminho_5285" data-name="Caminho 5285" d="M164.48,49.68A2.715,2.715,0,1,1,161.765,47a2.715,2.715,0,0,1,2.715,2.68Z" transform="translate(343.823 35.854)" fill="#fff"/>
      <path id="Caminho_5286" data-name="Caminho 5286" d="M113.77,131.065a2.715,2.715,0,1,1-2.7-2.715A2.715,2.715,0,0,1,113.77,131.065Z" transform="translate(305.139 116.384)" fill="#fff"/>
      <path id="Caminho_5287" data-name="Caminho 5287" d="M111.49,86.015a2.715,2.715,0,1,1-2.715-2.715,2.715,2.715,0,0,1,2.715,2.715Z" transform="translate(303.4 75.534)" fill="#fff"/>
      <path id="Caminho_5288" data-name="Caminho 5288" d="M293.436,60.76a2.715,2.715,0,1,1-2.706-2.5A2.715,2.715,0,0,1,293.436,60.76Z" transform="translate(442.204 44.447)" fill="#fff"/>
      <path id="Caminho_5289" data-name="Caminho 5289" d="M264.47,35.757a2.715,2.715,0,1,1-2.7-2.7A2.715,2.715,0,0,1,264.47,35.757Z" transform="translate(420.101 25.22)" fill="#fff"/>
      <path id="Caminho_5290" data-name="Caminho 5290" d="M256.466,109.6a4.178,4.178,0,1,1-4.178-4.178A4.178,4.178,0,0,1,256.466,109.6Z" transform="translate(411.763 95.665)" fill="#fff"/>
      <path id="Caminho_5291" data-name="Caminho 5291" d="M299.966,31.588a4.178,4.178,0,1,1-4.143-4.178A4.178,4.178,0,0,1,299.966,31.588Z" transform="translate(444.947 20.91)" fill="#fff"/>
      <path id="Caminho_5292" data-name="Caminho 5292" d="M126.146,91.808a4.178,4.178,0,1,1-4.178-4.178A4.178,4.178,0,0,1,126.146,91.808Z" transform="translate(312.348 79.521)" fill="#fff"/>
      <path id="Caminho_5293" data-name="Caminho 5293" d="M178.956,98.618a4.178,4.178,0,1,1-4.125-4.178A4.178,4.178,0,0,1,178.956,98.618Z" transform="translate(352.634 85.701)" fill="#fff"/>
      <path id="Caminho_5294" data-name="Caminho 5294" d="M93.876,115.638A4.178,4.178,0,1,1,89.7,111.46a4.178,4.178,0,0,1,4.178,4.178Z" transform="translate(287.731 101.146)" fill="#fff"/>
      <path id="Caminho_5295" data-name="Caminho 5295" d="M205.616,66.231a4.2,4.2,0,1,1-1.235-3.009A4.178,4.178,0,0,1,205.616,66.231Z" transform="translate(372.972 47.297)" fill="#fff"/>
      <path id="Caminho_5296" data-name="Caminho 5296" d="M60.906,23.238a4.178,4.178,0,1,1-4.16-4.178A4.178,4.178,0,0,1,60.906,23.238Z" transform="translate(262.579 14.54)" fill="#fff"/>
      <path id="Caminho_5297" data-name="Caminho 5297" d="M88.716,67.518a4.178,4.178,0,1,1-4.178-4.178A4.178,4.178,0,0,1,88.716,67.518Z" transform="translate(283.794 48.319)" fill="#fff"/>
      <path id="Caminho_5298" data-name="Caminho 5298" d="M263.836,142.808a4.178,4.178,0,1,1-4.178-4.178A4.178,4.178,0,0,1,263.836,142.808Z" transform="translate(417.385 125.802)" fill="#fff"/>
      <path id="Caminho_5299" data-name="Caminho 5299" d="M209.936,168.429a2.715,2.715,0,1,1-1.286-2.532,2.715,2.715,0,0,1,1.286,2.532Z" transform="translate(378.506 150.067)" fill="#fff"/>
      <path id="Caminho_5300" data-name="Caminho 5300" d="M145.44,237.755a2.7,2.7,0,1,1-.79-1.925A2.715,2.715,0,0,1,145.44,237.755Z" transform="translate(329.298 213.127)" fill="#fff"/>
      <path id="Caminho_5301" data-name="Caminho 5301" d="M130.916,151.68a2.715,2.715,0,1,1-2.706-2.5A2.715,2.715,0,0,1,130.916,151.68Z" transform="translate(318.226 135.276)" fill="#fff"/>
      <path id="Caminho_5302" data-name="Caminho 5302" d="M229.01,195.115a2.7,2.7,0,1,1-.784-1.919,2.715,2.715,0,0,1,.784,1.919Z" transform="translate(393.05 174.463)" fill="#fff"/>
      <path id="Caminho_5303" data-name="Caminho 5303" d="M189.78,271.595a2.715,2.715,0,1,1-2.715-2.715A2.715,2.715,0,0,1,189.78,271.595Z" transform="translate(363.123 243.812)" fill="#fff"/>
      <path id="Caminho_5304" data-name="Caminho 5304" d="M180.13,234.667a2.715,2.715,0,1,1-2.715-2.7,2.715,2.715,0,0,1,2.715,2.7Z" transform="translate(355.762 210.344)" fill="#fff"/>
      <path id="Caminho_5305" data-name="Caminho 5305" d="M181.66,265.825a2.715,2.715,0,1,1-2.7-2.715,2.715,2.715,0,0,1,2.7,2.715Z" transform="translate(356.929 238.58)" fill="#fff"/>
      <path id="Caminho_5306" data-name="Caminho 5306" d="M215.866,152.408a4.178,4.178,0,1,1-4.178-4.178A4.178,4.178,0,0,1,215.866,152.408Z" transform="translate(380.791 134.514)" fill="#fff"/>
      <path id="Caminho_5307" data-name="Caminho 5307" d="M226.826,206.808a4.178,4.178,0,1,1-4.178-4.178A4.178,4.178,0,0,1,226.826,206.808Z" transform="translate(389.152 183.88)" fill="#fff"/>
      <path id="Caminho_5308" data-name="Caminho 5308" d="M130.306,182.538a4.178,4.178,0,1,1-4.178-4.178A4.178,4.178,0,0,1,130.306,182.538Z" transform="translate(315.521 161.856)" fill="#fff"/>
      <path id="Caminho_5309" data-name="Caminho 5309" d="M164.206,250.488a4.178,4.178,0,1,1-4.16-4.178,4.178,4.178,0,0,1,4.16,4.178Z" transform="translate(341.382 223.518)" fill="#fff"/>
      <path id="Caminho_5310" data-name="Caminho 5310" d="M161.276,181.748a4.178,4.178,0,1,1-4.178-4.178,4.178,4.178,0,0,1,4.178,4.178Z" transform="translate(339.147 161.139)" fill="#fff"/>
      <path id="Caminho_5311" data-name="Caminho 5311" d="M218.236,240.808a4.178,4.178,0,1,1-4.178-4.178A4.178,4.178,0,0,1,218.236,240.808Z" transform="translate(382.599 214.734)" fill="#fff"/>
    </g>
  </g>
</svg>
