<svg xmlns="http://www.w3.org/2000/svg" xmlns:xlink="http://www.w3.org/1999/xlink" width="162.39" height="529.852" viewBox="0 0 162.39 529.852">
  <defs>
    <clipPath id="clip-path">
      <path id="Caminho_7249" data-name="Caminho 7249" d="M-2337.008,3756.422v442.539h162.39l-8.037-529.852Z" transform="translate(2337.008)" fill="none" stroke="#707070" stroke-width="1"/>
    </clipPath>
  </defs>
  <g id="Grupo_de_máscara_42" data-name="Grupo de máscara 42" transform="translate(0 -3669.109)" clip-path="url(#clip-path)">
    <g id="leaves" transform="translate(-386.361 4037.931) rotate(-59)" opacity="0.8">
      <path id="Caminho_202" data-name="Caminho 202" d="M1136.448,343.9s-21.746-8.852-90.834,22.9-77.555,27.712-95.453,22.9-27.9-5.966-46.957-32.523c0,0-13.471-73.322-26.557-84.676s-68.9,6.543-68.9,6.543-66.586,15.4-79.48-73.707c0,0,9.046-67.163-3.271-87.755,0,0,24.825,10.777,65.624-6.543s73.513,18.667,73.513,18.667,10.393,26.75,9.237,42.53,5.389,21.939,25.018,14.241c0,0,9.622-13.664-4.041-36.18s-23.286-39.259-19.437-56.771,14.625-41.761,49.651-53.885,82.558-14.433,105.267-23.863S1058.507,0,1058.507,0s-14.048,14.049,19.052,73.707,11.931,85.446,11.931,85.446-17.512,41.953-95.26,38.489c0,0-74.862,2.694-34.064,34.448,0,0,26.173-5.388,65.24-17.7s67.163,38.874,74.285,74.476C1106.619,324.463,1136.448,343.9,1136.448,343.9Z" transform="translate(-725)" fill="#38d39f"/>
      <path id="Caminho_203" data-name="Caminho 203" d="M914.88,23.492l.385-.192c3.079,11.354-30.406,57.156-59.081,93.336l-.384-.192C896.405,65.446,917.382,32.345,914.88,23.492Z" transform="translate(-604.082 21.54)" fill="#444053"/>
      <path id="Caminho_204" data-name="Caminho 204" d="M895.212,71.4l.192.385c-22.9,29.059-51.575,63.7-74.477,89.295-2.116,2.5-4.426,5-6.351,7.7L814,168.2c2.117-2.694,4.234-5.2,6.544-7.7C843.252,134.907,872.5,100.459,895.212,71.4Z" transform="translate(-642.724 66.006)" fill="#444053"/>
      <path id="Caminho_205" data-name="Caminho 205" d="M839.715,121.4l.385.77c-41.761,52.153-44.648,133.172-44.648,133.942L786.6,246.1C786.792,245.142,797.569,173.938,839.715,121.4Z" transform="translate(-668.054 112.229)" fill="#444053"/>
      <path id="Caminho_206" data-name="Caminho 206" d="M1069.833,246.091s-49.266-25.6-87.755-16.358-124.9-32.523-124.9-32.523-36.757-15.011-44.069-31.946c0,0-25.211-26.75-26.557-40.414S760.573,76.355,744.6,75.2" transform="translate(-706.881 69.519)" fill="none" stroke="#444053" stroke-miterlimit="10" stroke-width="1"/>
      <path id="Caminho_207" data-name="Caminho 207" d="M920.551,194.18S895.725,177.437,898.612,158" transform="translate(-564.72 146.064)" fill="none" stroke="#444053" stroke-miterlimit="10" stroke-width="1"/>
      <path id="Caminho_208" data-name="Caminho 208" d="M908.866,218.607s-35.6-12.894-39.066-63.507" transform="translate(-591.14 143.383)" fill="none" stroke="#444053" stroke-miterlimit="10" stroke-width="1"/>
      <path id="Caminho_209" data-name="Caminho 209" d="M872.292,232.063s-33.87-28.1-22.708-77.363" transform="translate(-611.914 143.013)" fill="none" stroke="#444053" stroke-miterlimit="10" stroke-width="1"/>
      <path id="Caminho_210" data-name="Caminho 210" d="M829.684,225.233s-22.516-47.342-2.5-78.133" transform="translate(-638.201 135.987)" fill="none" stroke="#444053" stroke-miterlimit="10" stroke-width="1"/>
      <path id="Caminho_211" data-name="Caminho 211" d="M923.965,147.8s-25.6,8.083-20.207,21.746" transform="translate(-560.436 136.634)" fill="none" stroke="#444053" stroke-miterlimit="10" stroke-width="1"/>
      <path id="Caminho_212" data-name="Caminho 212" d="M914.718,123.6S880.27,134.569,879.5,183.066" transform="translate(-582.172 114.262)" fill="none" stroke="#444053" stroke-miterlimit="10" stroke-width="1"/>
      <path id="Caminho_213" data-name="Caminho 213" d="M886.918,117.7s-31.369,38.681-29.06,73.707" transform="translate(-602.291 108.808)" fill="none" stroke="#444053" stroke-miterlimit="10" stroke-width="1"/>
      <path id="Caminho_214" data-name="Caminho 214" d="M857.609,125.6s-31.176,29.637-27.135,46.187" transform="translate(-627.829 116.111)" fill="none" stroke="#444053" stroke-miterlimit="10" stroke-width="1"/>
      <path id="Caminho_215" data-name="Caminho 215" d="M850.693,122.326s-29.06,5.2-33.293-4.426" transform="translate(-639.58 108.993)" fill="none" stroke="#444053" stroke-miterlimit="10" stroke-width="1"/>
      <path id="Caminho_216" data-name="Caminho 216" d="M815,101.9s14.819,19.437,18.474,15.2" transform="translate(-641.799 94.202)" fill="none" stroke="#444053" stroke-miterlimit="10" stroke-width="1"/>
      <path id="Caminho_217" data-name="Caminho 217" d="M934.064,103.543S860.55,108.931,844,86.8" transform="translate(-614.99 80.243)" fill="none" stroke="#444053" stroke-miterlimit="10" stroke-width="1"/>
      <path id="Caminho_218" data-name="Caminho 218" d="M807,50.8s34.448,73.9,59.466,83.329" transform="translate(-649.195 46.962)" fill="none" stroke="#444053" stroke-miterlimit="10" stroke-width="1"/>
      <path id="Caminho_219" data-name="Caminho 219" d="M825.8,32.5s21.169,67.933,47.342,89.295" transform="translate(-631.815 30.045)" fill="none" stroke="#444053" stroke-miterlimit="10" stroke-width="1"/>
      <path id="Caminho_220" data-name="Caminho 220" d="M949.795,66.392S893.985,90.256,860.5,66.2" transform="translate(-599.737 61.199)" fill="none" stroke="#444053" stroke-miterlimit="10" stroke-width="0.75"/>
      <path id="Caminho_221" data-name="Caminho 221" d="M851.6,25s12.7,50.036,30.021,62.16" transform="translate(-607.964 23.111)" fill="none" stroke="#444053" stroke-miterlimit="10" stroke-width="0.75"/>
      <path id="Caminho_222" data-name="Caminho 222" d="M923.208,37.2S891.839,49.132,880.1,39.894" transform="translate(-581.618 34.39)" fill="none" stroke="#444053" stroke-miterlimit="10" stroke-width="0.75"/>
      <path id="Caminho_223" data-name="Caminho 223" d="M806.732,110.4s0,43.685-11.932,46.764" transform="translate(-660.474 102.06)" fill="none" stroke="#444053" stroke-miterlimit="10" stroke-width="1"/>
      <path id="Caminho_224" data-name="Caminho 224" d="M750.6,149.407s47.149,4.041,68.9-20.207" transform="translate(-701.334 119.439)" fill="none" stroke="#444053" stroke-miterlimit="10" stroke-width="1"/>
      <path id="Caminho_225" data-name="Caminho 225" d="M815.315,83.6S803.96,127.862,772.4,139.794" transform="translate(-681.181 77.284)" fill="none" stroke="#444053" stroke-miterlimit="10" stroke-width="1"/>
      <path id="Caminho_226" data-name="Caminho 226" d="M735.9,124.1s33.293,11.547,62.16-17.9" transform="translate(-714.923 98.177)" fill="none" stroke="#444053" stroke-miterlimit="10" stroke-width="1"/>
      <path id="Caminho_227" data-name="Caminho 227" d="M786.771,63.8s-3.079,37.527-23.671,55.039" transform="translate(-689.779 58.98)" fill="none" stroke="#444053" stroke-miterlimit="10" stroke-width="1"/>
      <path id="Caminho_228" data-name="Caminho 228" d="M736.6,90.052s27.712.192,34.256-8.852" transform="translate(-714.276 75.066)" fill="none" stroke="#444053" stroke-miterlimit="10" stroke-width="1"/>
    </g>
  </g>
</svg>
