<svg xmlns="http://www.w3.org/2000/svg" xmlns:xlink="http://www.w3.org/1999/xlink" width="270" height="464" viewBox="0 0 270 464"><defs><clipPath id="a"><rect width="270" height="464" transform="translate(0 852)" fill="none" stroke="#707070" stroke-width="1"/></clipPath></defs><g transform="translate(0 -852)" clip-path="url(#a)"><g transform="translate(-55.389 279.739)"><g transform="matrix(0.966, -0.259, 0.259, 0.966, -122.455, 802.585)" opacity="0.8"><path d="M253.633,211.994s-13.405-5.457-55.994,14.117-47.808,17.083-58.841,14.117-17.2-3.678-28.946-20.049c0,0-8.3-45.2-16.371-52.2s-42.47,4.033-42.47,4.033S9.965,181.506,2.016,126.579c0,0,5.576-41.4-2.016-54.1,0,0,15.3,6.643,40.453-4.033S85.77,79.957,85.77,79.957s6.406,16.49,5.694,26.217,3.322,13.524,15.422,8.779c0,0,5.931-8.423-2.491-22.3s-14.354-24.2-11.981-35,9.016-25.743,30.607-33.217,50.892-8.9,64.891-14.71S205.587,0,205.587,0s-8.66,8.66,11.745,45.436,7.355,52.672,7.355,52.672-10.8,25.862-58.722,23.726c0,0-46.148,1.661-21,21.235,0,0,16.134-3.322,40.216-10.914s41.4,23.964,45.792,45.91C235.245,200.012,253.633,211.994,253.633,211.994Z" transform="translate(0 0)" fill="#38d39f"/><path d="M36.42.119,36.657,0c1.9,7-18.744,35.233-36.42,57.536L0,57.417C25.031,25.98,37.962,5.576,36.42.119Z" transform="translate(155.169 27.641)" fill="#444053"/><path d="M50.063,0l.118.237C36.064,18.151,18.388,39.5,4.271,55.282c-1.3,1.542-2.729,3.084-3.915,4.745L0,59.671c1.3-1.661,2.61-3.2,4.034-4.745C18.032,39.148,36.064,17.913,50.063,0Z" transform="translate(105.582 84.703)" fill="#444053"/><path d="M32.742,0l.237.475C7.237,32.624,5.457,82.567,5.457,83.042L0,76.873C.118,76.28,6.762,32.386,32.742,0Z" transform="translate(73.077 144.018)" fill="#444053"/><path d="M200.487,105.344s-30.369-15.778-54.1-10.084S69.4,75.212,69.4,75.212,46.741,65.959,42.233,55.519c0,0-15.541-16.49-16.371-24.913S9.846.712,0,0" transform="translate(23.252 89.211)" fill="none" stroke="#444053" stroke-miterlimit="10" stroke-width="1"/><path d="M13.668,22.3S-1.636,11.982.144,0" transform="translate(205.681 187.437)" fill="none" stroke="#444053" stroke-miterlimit="10" stroke-width="1"/><path d="M24.082,39.148S2.136,31.2,0,0" transform="translate(171.778 183.997)" fill="none" stroke="#444053" stroke-miterlimit="10" stroke-width="1"/><path d="M15.389,47.69S-5.489,30.369,1.391,0" transform="translate(145.118 183.522)" fill="none" stroke="#444053" stroke-miterlimit="10" stroke-width="1"/><path d="M6.652,48.164S-7.227,18.981,5.11,0" transform="translate(111.386 174.506)" fill="none" stroke="#444053" stroke-miterlimit="10" stroke-width="1"/><path d="M12.916,0S-2.862,4.982.459,13.405" transform="translate(211.179 175.337)" fill="none" stroke="#444053" stroke-miterlimit="10" stroke-width="1"/><path d="M21.71,0S.475,6.762,0,36.657" transform="translate(183.285 146.628)" fill="none" stroke="#444053" stroke-miterlimit="10" stroke-width="1"/><path d="M17.989,0S-1.349,23.845.075,45.436" transform="translate(157.467 139.629)" fill="none" stroke="#444053" stroke-miterlimit="10" stroke-width="1"/><path d="M16.95,0S-2.268,18.269.223,28.471" transform="translate(124.696 149.001)" fill="none" stroke="#444053" stroke-miterlimit="10" stroke-width="1"/><path d="M20.523,2.729S2.61,5.932,0,0" transform="translate(109.615 139.866)" fill="none" stroke="#444053" stroke-miterlimit="10" stroke-width="1"/><path d="M0,0S9.135,11.982,11.388,9.372" transform="translate(106.768 120.885)" fill="none" stroke="#444053" stroke-miterlimit="10" stroke-width="1"/><path d="M55.519,10.321S10.2,13.643,0,0" transform="translate(141.171 102.972)" fill="none" stroke="#444053" stroke-miterlimit="10" stroke-width="1"/><path d="M0,0S21.235,45.554,36.657,51.367" transform="translate(97.277 60.265)" fill="none" stroke="#444053" stroke-miterlimit="10" stroke-width="1"/><path d="M0,0S13.05,41.877,29.183,55.045" transform="translate(119.58 38.555)" fill="none" stroke="#444053" stroke-miterlimit="10" stroke-width="1"/><path d="M55.045.119S20.641,14.829,0,0" transform="translate(160.745 78.534)" fill="none" stroke="#444053" stroke-miterlimit="10" stroke-width="0.75"/><path d="M0,0S7.83,30.844,18.506,38.318" transform="translate(150.187 29.658)" fill="none" stroke="#444053" stroke-miterlimit="10" stroke-width="0.75"/><path d="M26.573,0S7.237,7.355,0,1.661" transform="translate(183.997 44.131)" fill="none" stroke="#444053" stroke-miterlimit="10" stroke-width="0.75"/><path d="M7.355,0S7.355,26.929,0,28.827" transform="translate(82.804 130.969)" fill="none" stroke="#444053" stroke-miterlimit="10" stroke-width="1"/><path d="M0,12.456S29.065,14.947,42.47,0" transform="translate(30.37 153.271)" fill="none" stroke="#444053" stroke-miterlimit="10" stroke-width="1"/><path d="M26.455,0S19.455,27.285,0,34.64" transform="translate(56.231 99.176)" fill="none" stroke="#444053" stroke-miterlimit="10" stroke-width="1"/><path d="M0,11.033S20.523,18.151,38.318,0" transform="translate(12.931 125.986)" fill="none" stroke="#444053" stroke-miterlimit="10" stroke-width="1"/><path d="M14.592,0S12.693,23.133,0,33.928" transform="translate(45.198 75.687)" fill="none" stroke="#444053" stroke-miterlimit="10" stroke-width="1"/><path d="M0,5.457S17.083,5.576,21.117,0" transform="translate(13.761 96.328)" fill="none" stroke="#444053" stroke-miterlimit="10" stroke-width="1"/></g><g transform="translate(54.554 622.126) rotate(57)" opacity="0.6"><path d="M83.238,78.625S64.852,46.065,37.173,36.7A56.7,56.7,0,0,1,8.491,15.243,99.737,99.737,0,0,1,0,0" transform="translate(19.807 51.107)" fill="none" stroke="#535461" stroke-miterlimit="10" stroke-width="2"/><path d="M2.49,13.789c3.142,3.075,17.851,6.218,17.851,6.218s-3.61-14.575-6.753-17.65a7.87,7.87,0,0,0-11.232,0,7.87,7.87,0,0,0,0,11.232c0,.067.067.134.134.2Z" transform="translate(0 31.3)" fill="#38d39f"/><path d="M6.4,15.8c4.279.869,18.386-4.479,18.386-4.479S13.819,1.027,9.54.158A7.969,7.969,0,0,0,.18,6.442,7.842,7.842,0,0,0,6.4,15.8Z" transform="translate(4.383 55.696)" fill="#38d39f"/><path d="M10.585,15.387c4.145-1.4,13.572-13.1,13.572-13.1S9.515-1.06,5.37.344a7.961,7.961,0,1,0,5.215,15.043Z" transform="translate(30.415 84.659)" fill="#38d39f"/><path d="M9.205,15.766C13.551,15.03,24.85,5.135,24.85,5.135S11.011-.614,6.665.054A7.958,7.958,0,0,0,9.205,15.766Z" transform="translate(59.541 100.728)" fill="#38d39f"/><path d="M15.912,7.956c0,4.413-7.956,17.116-7.956,17.116S0,12.369,0,7.956a7.956,7.956,0,0,1,15.912,0Z" transform="translate(25.489 47.697)" fill="#38d39f"/><path d="M15.461,10.338c-1.337,4.212-12.7,13.973-12.7,13.973S-1.053,9.736.284,5.591a7.951,7.951,0,0,1,15.177,4.747Z" transform="translate(58.166 64.971)" fill="#38d39f"/><path d="M15.819,9.034c-.6,4.346-10.162,15.912-10.162,15.912S-.561,11.241.041,6.895a7.961,7.961,0,1,1,15.778,2.14Z" transform="translate(86.489 89.675)" fill="#38d39f"/><path d="M2.49,13.789c3.142,3.075,17.851,6.218,17.851,6.218s-3.61-14.575-6.753-17.65a7.87,7.87,0,0,0-11.232,0,7.87,7.87,0,0,0,0,11.232c0,.067.067.134.134.2Z" transform="translate(0 31.3)" opacity="0.25"/><path d="M6.4,15.8c4.279.869,18.386-4.479,18.386-4.479S13.819,1.027,9.54.158A7.969,7.969,0,0,0,.18,6.442,7.842,7.842,0,0,0,6.4,15.8Z" transform="translate(4.383 55.696)" opacity="0.25"/><path d="M10.585,15.387c4.145-1.4,13.572-13.1,13.572-13.1S9.515-1.06,5.37.344a7.961,7.961,0,1,0,5.215,15.043Z" transform="translate(30.415 84.659)" opacity="0.25"/><path d="M9.205,15.766C13.551,15.03,24.85,5.135,24.85,5.135S11.011-.614,6.665.054A7.958,7.958,0,0,0,9.205,15.766Z" transform="translate(59.541 100.728)" opacity="0.25"/><path d="M15.912,7.956c0,4.413-7.956,17.116-7.956,17.116S0,12.369,0,7.956a7.956,7.956,0,0,1,15.912,0Z" transform="translate(25.489 47.697)" opacity="0.25"/><path d="M15.461,10.338c-1.337,4.212-12.7,13.973-12.7,13.973S-1.053,9.736.284,5.591a7.951,7.951,0,0,1,15.177,4.747Z" transform="translate(58.166 64.971)" opacity="0.25"/><path d="M15.819,9.034c-.6,4.346-10.162,15.912-10.162,15.912S-.561,11.241.041,6.895a7.961,7.961,0,1,1,15.778,2.14Z" transform="translate(86.489 89.675)" opacity="0.25"/><path d="M44.26,105.568s-3.61-37.24-25.139-57.03A56.153,56.153,0,0,1,1.6,17.316,94.3,94.3,0,0,1,0,0" transform="translate(57.782 23.561)" fill="none" stroke="#535461" stroke-miterlimit="10" stroke-width="2"/><path d="M.59,10.925c1.671,4.078,13.773,12.9,13.773,12.9s2.607-14.776,1-18.854A7.964,7.964,0,1,0,.59,10.925Z" transform="translate(43.753 0)" fill="#38d39f"/><path d="M3.4,14.494c3.61,2.541,18.586,3.343,18.586,3.343S16.165,4,12.555,1.456A7.967,7.967,0,0,0,3.4,14.494Z" transform="translate(37.873 23.977)" fill="#38d39f"/><path d="M7.311,15.878c4.346.334,17.717-6.485,17.717-6.485S12.994.434,8.649.033A7.951,7.951,0,1,0,7.311,15.878Z" transform="translate(50.002 60.902)" fill="#38d39f"/><path d="M6.327,15.82c4.279,1.07,18.586-3.41,18.586-3.41S14.55,1.513,10.338.376A7.888,7.888,0,0,0,.376,5.591a7.888,7.888,0,0,0,5.215,9.962,5.081,5.081,0,0,1,.736.267Z" transform="translate(69.707 87.302)" fill="#38d39f"/><path d="M15.3,11.224C13.494,15.236,1.058,23.66,1.058,23.66S-1.081,8.817.724,4.739A7.976,7.976,0,1,1,15.3,11.224Z" transform="translate(60.334 25.107)" fill="#38d39f"/><path d="M17.316,13.188C14.441,16.464,0,20.81,0,20.81S2.407,5.968,5.349,2.692a7.959,7.959,0,1,1,11.968,10.5Z" transform="translate(79.845 54.165)" fill="#38d39f"/><path d="M15.713,12.163C13.44,15.907,0,22.592,0,22.592S-.132,7.549,2.208,3.805a7.941,7.941,0,1,1,13.505,8.357Z" transform="translate(98.162 88.218)" fill="#38d39f"/></g></g></g></svg>