<svg xmlns="http://www.w3.org/2000/svg" xmlns:xlink="http://www.w3.org/1999/xlink" width="238" height="564" viewBox="0 0 238 564">
  <defs>
    <clipPath id="clip-path">
      <rect id="Ret칙ngulo_4389" data-name="Ret칙ngulo 4389" width="238" height="564" transform="translate(1682 3117)" fill="none" stroke="#707070" stroke-width="1"/>
    </clipPath>
  </defs>
  <g id="Grupo_de_m치scara_45" data-name="Grupo de m치scara 45" transform="translate(-1682 -3117)" clip-path="url(#clip-path)">
    <g id="Grupo_274" data-name="Grupo 274" transform="translate(495.817 1542.335)">
      <g id="Leaves" transform="translate(1185.726 1994.71) rotate(-59)" opacity="0.8">
        <path id="Caminho_202" data-name="Caminho 202" d="M408.361,341.32s-21.583-8.786-90.152,22.729-76.974,27.5-94.737,22.729-27.7-5.921-46.6-32.279c0,0-13.37-72.772-26.358-84.041s-68.379,6.494-68.379,6.494S16.044,292.233,3.246,203.8c0,0,8.978-66.66-3.246-87.1,0,0,24.639,10.7,65.132-6.494s72.962,18.527,72.962,18.527,10.314,26.549,9.168,42.211,5.349,21.774,24.83,14.134c0,0,9.55-13.561-4.011-35.908s-23.111-38.964-19.291-56.346,14.516-41.447,49.278-53.481,81.939-14.325,104.477-23.684S331.005,0,331.005,0s-13.943,13.943,18.909,73.154,11.842,84.8,11.842,84.8-17.381,41.638-94.545,38.2c0,0-74.3,2.674-33.809,34.189,0,0,25.977-5.348,64.75-17.572s66.66,38.582,73.727,73.918C378.756,322.029,408.361,341.32,408.361,341.32Z" transform="translate(0 0)" fill="#38d39f"/>
        <path id="Caminho_203" data-name="Caminho 203" d="M58.637.191,59.019,0C62.075,11.269,28.841,56.728.381,92.636L0,92.445C40.3,41.829,61.12,8.977,58.637.191Z" transform="translate(249.83 44.503)" fill="#444053"/>
        <path id="Caminho_204" data-name="Caminho 204" d="M80.6,0l.191.382C58.065,29.223,29.605,63.6,6.876,89.007c-2.1,2.483-4.393,4.966-6.3,7.64L0,96.074c2.1-2.674,4.2-5.157,6.495-7.64C29.032,63.031,58.065,28.841,80.6,0Z" transform="translate(169.992 136.375)" fill="#444053"/>
        <path id="Caminho_205" data-name="Caminho 205" d="M52.717,0,53.1.764C11.651,52.526,8.786,132.937,8.786,133.7L0,123.769C.191,122.814,10.887,52.143,52.717,0Z" transform="translate(117.657 231.876)" fill="#444053"/>
        <path id="Caminho_206" data-name="Caminho 206" d="M322.793,169.61s-48.9-25.4-87.1-16.235S111.736,121.1,111.736,121.1,75.255,106.2,68,89.389c0,0-25.021-26.549-26.358-40.11S15.853,1.146,0,0" transform="translate(37.436 143.633)" fill="none" stroke="#444053" stroke-miterlimit="10" stroke-width="1"/>
        <path id="Caminho_207" data-name="Caminho 207" d="M22.006,35.908S-2.633,19.291.232,0" transform="translate(331.156 301.783)" fill="none" stroke="#444053" stroke-miterlimit="10" stroke-width="1"/>
        <path id="Caminho_208" data-name="Caminho 208" d="M38.773,63.031S3.439,50.234,0,0" transform="translate(276.57 296.244)" fill="none" stroke="#444053" stroke-miterlimit="10" stroke-width="1"/>
        <path id="Caminho_209" data-name="Caminho 209" d="M24.777,76.783S-8.838,48.9,2.24,0" transform="translate(233.647 295.48)" fill="none" stroke="#444053" stroke-miterlimit="10" stroke-width="1"/>
        <path id="Caminho_210" data-name="Caminho 210" d="M10.711,77.547S-11.636,30.56,8.228,0" transform="translate(179.336 280.964)" fill="none" stroke="#444053" stroke-miterlimit="10" stroke-width="1"/>
        <path id="Caminho_211" data-name="Caminho 211" d="M20.8,0S-4.608,8.022.74,21.583" transform="translate(340.007 282.301)" fill="none" stroke="#444053" stroke-miterlimit="10" stroke-width="1"/>
        <path id="Caminho_212" data-name="Caminho 212" d="M34.953,0S.764,10.887,0,59.02" transform="translate(295.098 236.078)" fill="none" stroke="#444053" stroke-miterlimit="10" stroke-width="1"/>
        <path id="Caminho_213" data-name="Caminho 213" d="M28.962,0S-2.171,38.391.121,73.154" transform="translate(253.53 224.809)" fill="none" stroke="#444053" stroke-miterlimit="10" stroke-width="1"/>
        <path id="Caminho_214" data-name="Caminho 214" d="M27.29,0S-3.652,29.414.359,45.84" transform="translate(200.766 239.898)" fill="none" stroke="#444053" stroke-miterlimit="10" stroke-width="1"/>
        <path id="Caminho_215" data-name="Caminho 215" d="M33.044,4.393S4.2,9.55,0,0" transform="translate(176.486 225.191)" fill="none" stroke="#444053" stroke-miterlimit="10" stroke-width="1"/>
        <path id="Caminho_216" data-name="Caminho 216" d="M0,0S14.707,19.291,18.336,15.089" transform="translate(171.902 194.631)" fill="none" stroke="#444053" stroke-miterlimit="10" stroke-width="1"/>
        <path id="Caminho_217" data-name="Caminho 217" d="M89.388,16.617S16.426,21.965,0,0" transform="translate(227.292 165.79)" fill="none" stroke="#444053" stroke-miterlimit="10" stroke-width="1"/>
        <path id="Caminho_218" data-name="Caminho 218" d="M0,0S34.19,73.345,59.02,82.7" transform="translate(156.621 97.029)" fill="none" stroke="#444053" stroke-miterlimit="10" stroke-width="1"/>
        <path id="Caminho_219" data-name="Caminho 219" d="M0,0S21.011,67.424,46.987,88.625" transform="translate(192.53 62.076)" fill="none" stroke="#444053" stroke-miterlimit="10" stroke-width="1"/>
        <path id="Caminho_220" data-name="Caminho 220" d="M88.625.191S33.234,23.875,0,0" transform="translate(258.808 126.443)" fill="none" stroke="#444053" stroke-miterlimit="10" stroke-width="0.75"/>
        <path id="Caminho_221" data-name="Caminho 221" d="M0,0S12.606,49.66,29.8,61.694" transform="translate(241.808 47.75)" fill="none" stroke="#444053" stroke-miterlimit="10" stroke-width="0.75"/>
        <path id="Caminho_222" data-name="Caminho 222" d="M42.784,0S11.651,11.842,0,2.674" transform="translate(296.244 71.053)" fill="none" stroke="#444053" stroke-miterlimit="10" stroke-width="0.75"/>
        <path id="Caminho_223" data-name="Caminho 223" d="M11.842,0S11.842,43.357,0,46.413" transform="translate(133.319 210.866)" fill="none" stroke="#444053" stroke-miterlimit="10" stroke-width="1"/>
        <path id="Caminho_224" data-name="Caminho 224" d="M0,20.055S46.8,24.066,68.378,0" transform="translate(48.897 246.774)" fill="none" stroke="#444053" stroke-miterlimit="10" stroke-width="1"/>
        <path id="Caminho_225" data-name="Caminho 225" d="M42.593,0S31.324,43.93,0,55.772" transform="translate(90.534 159.678)" fill="none" stroke="#444053" stroke-miterlimit="10" stroke-width="1"/>
        <path id="Caminho_226" data-name="Caminho 226" d="M0,17.763S33.043,29.223,61.694,0" transform="translate(20.819 202.844)" fill="none" stroke="#444053" stroke-miterlimit="10" stroke-width="1"/>
        <path id="Caminho_227" data-name="Caminho 227" d="M23.493,0S20.437,37.245,0,54.626" transform="translate(72.772 121.859)" fill="none" stroke="#444053" stroke-miterlimit="10" stroke-width="1"/>
        <path id="Caminho_228" data-name="Caminho 228" d="M0,8.786S27.5,8.977,34,0" transform="translate(22.156 155.093)" fill="none" stroke="#444053" stroke-miterlimit="10" stroke-width="1"/>
      </g>
      <g id="leaves-2" data-name="leaves" transform="matrix(0.978, 0.208, -0.208, 0.978, 1381.819, 1574.629)" opacity="0.6">
        <path id="Caminho_114" data-name="Caminho 114" d="M95.328,90.044S74.271,52.756,42.572,42.036A64.936,64.936,0,0,1,9.724,17.458,114.223,114.223,0,0,1,0,0" transform="translate(22.683 58.53)" fill="none" stroke="#535461" stroke-miterlimit="10" stroke-width="2"/>
        <path id="Caminho_115" data-name="Caminho 115" d="M2.852,15.792c3.6,3.522,20.444,7.121,20.444,7.121S19.161,6.221,15.563,2.7A9.013,9.013,0,0,0,2.7,2.7a9.013,9.013,0,0,0,0,12.863c0,.077.077.153.153.23Z" transform="translate(0 35.846)" fill="#38d39f"/>
        <path id="Caminho_116" data-name="Caminho 116" d="M7.327,18.1c4.9,1,21.056-5.13,21.056-5.13S15.826,1.176,10.926.181a9.126,9.126,0,0,0-10.72,7.2A8.981,8.981,0,0,0,7.327,18.1Z" transform="translate(5.02 63.786)" fill="#38d39f"/>
        <path id="Caminho_117" data-name="Caminho 117" d="M12.122,17.622C16.87,16.014,27.666,2.615,27.666,2.615S10.9-1.214,6.15.394a9.117,9.117,0,1,0,5.972,17.228Z" transform="translate(34.833 96.956)" fill="#38d39f"/>
        <path id="Caminho_118" data-name="Caminho 118" d="M10.542,18.056c4.977-.842,17.917-12.174,17.917-12.174S12.61-.7,7.633.062a9.114,9.114,0,0,0,2.91,17.994Z" transform="translate(68.189 115.358)" fill="#38d39f"/>
        <path id="Caminho_119" data-name="Caminho 119" d="M18.223,9.112c0,5.054-9.112,19.6-9.112,19.6S0,14.165,0,9.112a9.112,9.112,0,0,1,18.223,0Z" transform="translate(29.192 54.625)" fill="#38d39f"/>
        <path id="Caminho_120" data-name="Caminho 120" d="M17.707,11.84c-1.531,4.824-14.548,16-14.548,16S-1.206,11.151.326,6.4A9.106,9.106,0,0,1,17.707,11.84Z" transform="translate(66.614 74.408)" fill="#38d39f"/>
        <path id="Caminho_121" data-name="Caminho 121" d="M18.117,10.346C17.428,15.323,6.479,28.57,6.479,28.57S-.642,12.873.047,7.9a9.118,9.118,0,1,1,18.07,2.45Z" transform="translate(99.052 102.7)" fill="#38d39f"/>
        <path id="Caminho_122" data-name="Caminho 122" d="M2.852,15.792c3.6,3.522,20.444,7.121,20.444,7.121S19.161,6.221,15.563,2.7A9.013,9.013,0,0,0,2.7,2.7a9.013,9.013,0,0,0,0,12.863c0,.077.077.153.153.23Z" transform="translate(0 35.846)" opacity="0.25"/>
        <path id="Caminho_123" data-name="Caminho 123" d="M7.327,18.1c4.9,1,21.056-5.13,21.056-5.13S15.826,1.176,10.926.181a9.126,9.126,0,0,0-10.72,7.2A8.981,8.981,0,0,0,7.327,18.1Z" transform="translate(5.02 63.786)" opacity="0.25"/>
        <path id="Caminho_124" data-name="Caminho 124" d="M12.122,17.622C16.87,16.014,27.666,2.615,27.666,2.615S10.9-1.214,6.15.394a9.117,9.117,0,1,0,5.972,17.228Z" transform="translate(34.833 96.956)" opacity="0.25"/>
        <path id="Caminho_125" data-name="Caminho 125" d="M10.542,18.056c4.977-.842,17.917-12.174,17.917-12.174S12.61-.7,7.633.062a9.114,9.114,0,0,0,2.91,17.994Z" transform="translate(68.189 115.358)" opacity="0.25"/>
        <path id="Caminho_126" data-name="Caminho 126" d="M18.223,9.112c0,5.054-9.112,19.6-9.112,19.6S0,14.165,0,9.112a9.112,9.112,0,0,1,18.223,0Z" transform="translate(29.192 54.625)" opacity="0.25"/>
        <path id="Caminho_127" data-name="Caminho 127" d="M17.707,11.84c-1.531,4.824-14.548,16-14.548,16S-1.206,11.151.326,6.4A9.106,9.106,0,0,1,17.707,11.84Z" transform="translate(66.614 74.408)" opacity="0.25"/>
        <path id="Caminho_128" data-name="Caminho 128" d="M18.117,10.346C17.428,15.323,6.479,28.57,6.479,28.57S-.642,12.873.047,7.9a9.118,9.118,0,1,1,18.07,2.45Z" transform="translate(99.052 102.7)" opacity="0.25"/>
        <path id="Caminho_129" data-name="Caminho 129" d="M50.688,120.9S46.554,78.253,21.9,55.589A64.309,64.309,0,0,1,1.838,19.831,107.994,107.994,0,0,1,0,0" transform="translate(66.174 26.984)" fill="none" stroke="#535461" stroke-miterlimit="10" stroke-width="2"/>
        <path id="Caminho_130" data-name="Caminho 130" d="M.676,12.512C2.59,17.183,16.449,27.29,16.449,27.29S19.435,10.368,17.6,5.7A9.121,9.121,0,1,0,.676,12.512Z" transform="translate(50.108 0)" fill="#38d39f"/>
        <path id="Caminho_131" data-name="Caminho 131" d="M3.888,16.6c4.135,2.91,21.286,3.828,21.286,3.828s-6.661-15.85-10.8-18.759A9.124,9.124,0,0,0,3.888,16.6Z" transform="translate(43.373 27.46)" fill="#38d39f"/>
        <path id="Caminho_132" data-name="Caminho 132" d="M8.373,18.185c4.977.383,20.291-7.427,20.291-7.427S14.882.5,9.9.038A9.106,9.106,0,1,0,8.373,18.185Z" transform="translate(57.265 69.747)" fill="#38d39f"/>
        <path id="Caminho_133" data-name="Caminho 133" d="M7.246,18.118c4.9,1.225,21.286-3.905,21.286-3.905S16.664,1.733,11.84.431A9.034,9.034,0,0,0,.431,6.4,9.033,9.033,0,0,0,6.4,17.812a5.819,5.819,0,0,1,.842.306Z" transform="translate(79.832 99.982)" fill="#38d39f"/>
        <path id="Caminho_134" data-name="Caminho 134" d="M17.521,12.855C15.454,17.449,1.212,27.1,1.212,27.1s-2.45-17-.383-21.669a9.135,9.135,0,1,1,16.692,7.427Z" transform="translate(69.097 28.754)" fill="#38d39f"/>
        <path id="Caminho_135" data-name="Caminho 135" d="M19.831,15.1C16.539,18.856,0,23.833,0,23.833s2.757-17,6.125-20.75A9.115,9.115,0,1,1,19.831,15.1Z" transform="translate(91.442 62.032)" fill="#38d39f"/>
        <path id="Caminho_136" data-name="Caminho 136" d="M18,13.929C15.392,18.217,0,25.874,0,25.874S-.152,8.646,2.528,4.358A9.094,9.094,0,1,1,18,13.929Z" transform="translate(112.42 101.032)" fill="#38d39f"/>
      </g>
    </g>
  </g>
</svg>
