<svg xmlns="http://www.w3.org/2000/svg" xmlns:xlink="http://www.w3.org/1999/xlink" width="286" height="520" viewBox="0 0 286 520"><defs><clipPath id="a"><rect width="286" height="520" transform="translate(1634 1439)" fill="none" stroke="#707070" stroke-width="1"/></clipPath></defs><g transform="translate(-1634 -1439)" clip-path="url(#a)"><g transform="translate(1890.379 1475.706) rotate(30)"><g transform="matrix(0.966, 0.259, -0.259, 0.966, 62.697, 0)" opacity="0.8"><path d="M253.633,30.248s-13.405,5.457-55.994-14.117S149.831-.952,138.8,2.014s-17.2,3.678-28.946,20.049c0,0-8.3,45.2-16.371,52.2s-42.47-4.033-42.47-4.033S9.965,60.736,2.016,115.663c0,0,5.576,41.4-2.016,54.1,0,0,15.3-6.643,40.453,4.033S85.77,162.285,85.77,162.285s6.406-16.49,5.694-26.217,3.322-13.524,15.422-8.779c0,0,5.931,8.423-2.491,22.3s-14.354,24.2-11.981,35,9.016,25.743,30.607,33.217,50.892,8.9,64.891,14.71,17.676,9.728,17.676,9.728-8.66-8.66,11.745-45.436,7.355-52.672,7.355-52.672-10.8-25.862-58.722-23.726c0,0-46.148-1.661-21-21.235,0,0,16.134,3.322,40.216,10.914s41.4-23.964,45.792-45.91C235.245,42.23,253.633,30.248,253.633,30.248Z" transform="translate(0)" fill="#38d39f"/><path d="M36.42,57.417l.237.119C38.555,50.537,17.913,22.3.237,0L0,.119C25.031,31.556,37.962,51.96,36.42,57.417Z" transform="translate(155.169 157.065)" fill="#444053"/><path d="M50.063,60.027l.118-.237C36.064,41.877,18.388,20.523,4.271,4.745,2.966,3.2,1.542,1.661.356,0L0,.356C1.3,2.017,2.61,3.559,4.034,5.1,18.032,20.879,36.064,42.114,50.063,60.027Z" transform="translate(105.582 97.512)" fill="#444053"/><path d="M32.742,83.042l.237-.475C7.237,50.418,5.457.474,5.457,0L0,6.169C.118,6.762,6.762,50.656,32.742,83.042Z" transform="translate(73.077 15.182)" fill="#444053"/><path d="M200.487,0s-30.369,15.778-54.1,10.084S69.4,30.132,69.4,30.132,46.741,39.386,42.233,49.825c0,0-15.541,16.49-16.371,24.913S9.846,104.633,0,105.344" transform="translate(23.252 47.687)" fill="none" stroke="#444053" stroke-miterlimit="10" stroke-width="1"/><path d="M13.668,0S-1.636,10.321.144,22.3" transform="translate(205.681 32.502)" fill="none" stroke="#444053" stroke-miterlimit="10" stroke-width="1"/><path d="M24.082,0S2.136,7.948,0,39.148" transform="translate(171.778 19.097)" fill="none" stroke="#444053" stroke-miterlimit="10" stroke-width="1"/><path d="M15.389,0s-20.879,17.32-14,47.69" transform="translate(145.118 11.03)" fill="none" stroke="#444053" stroke-miterlimit="10" stroke-width="1"/><path d="M6.652,0S-7.227,29.183,5.11,48.164" transform="translate(111.386 19.571)" fill="none" stroke="#444053" stroke-miterlimit="10" stroke-width="1"/><path d="M12.916,13.405S-2.862,8.423.459,0" transform="translate(211.179 53.5)" fill="none" stroke="#444053" stroke-miterlimit="10" stroke-width="1"/><path d="M21.71,36.657S.475,29.9,0,0" transform="translate(183.285 58.957)" fill="none" stroke="#444053" stroke-miterlimit="10" stroke-width="1"/><path d="M17.989,45.436S-1.349,21.591.075,0" transform="translate(157.467 57.177)" fill="none" stroke="#444053" stroke-miterlimit="10" stroke-width="1"/><path d="M16.95,28.471S-2.268,10.2.223,0" transform="translate(124.696 64.77)" fill="none" stroke="#444053" stroke-miterlimit="10" stroke-width="1"/><path d="M20.523.864S2.61-2.34,0,3.592" transform="translate(109.615 98.784)" fill="none" stroke="#444053" stroke-miterlimit="10" stroke-width="1"/><path d="M0,9.744S9.135-2.238,11.388.372" transform="translate(106.768 111.613)" fill="none" stroke="#444053" stroke-miterlimit="10" stroke-width="1"/><path d="M55.519.356S10.2-2.965,0,10.677" transform="translate(141.171 128.593)" fill="none" stroke="#444053" stroke-miterlimit="10" stroke-width="1"/><path d="M0,51.367S21.235,5.813,36.657,0" transform="translate(97.277 130.61)" fill="none" stroke="#444053" stroke-miterlimit="10" stroke-width="1"/><path d="M0,55.045S13.05,13.168,29.183,0" transform="translate(119.58 148.642)" fill="none" stroke="#444053" stroke-miterlimit="10" stroke-width="1"/><path d="M55.045,6.5S20.641-8.207,0,6.622" transform="translate(160.745 157.087)" fill="none" stroke="#444053" stroke-miterlimit="10" stroke-width="0.75"/><path d="M0,38.318S7.83,7.474,18.506,0" transform="translate(150.187 174.266)" fill="none" stroke="#444053" stroke-miterlimit="10" stroke-width="0.75"/><path d="M26.573,3.823S7.237-3.532,0,2.162" transform="translate(183.997 194.288)" fill="none" stroke="#444053" stroke-miterlimit="10" stroke-width="0.75"/><path d="M7.355,28.827S7.355,1.9,0,0" transform="translate(82.804 82.446)" fill="none" stroke="#444053" stroke-miterlimit="10" stroke-width="1"/><path d="M0,.156S29.065-2.336,42.47,12.612" transform="translate(30.37 76.359)" fill="none" stroke="#444053" stroke-miterlimit="10" stroke-width="1"/><path d="M26.455,34.64S19.455,7.355,0,0" transform="translate(56.231 108.426)" fill="none" stroke="#444053" stroke-miterlimit="10" stroke-width="1"/><path d="M0,1.375S20.523-5.743,38.318,12.408" transform="translate(12.931 103.848)" fill="none" stroke="#444053" stroke-miterlimit="10" stroke-width="1"/><path d="M14.592,33.928S12.693,10.8,0,0" transform="translate(45.198 132.627)" fill="none" stroke="#444053" stroke-miterlimit="10" stroke-width="1"/><path d="M0,0S17.083-.118,21.117,5.457" transform="translate(13.761 140.456)" fill="none" stroke="#444053" stroke-miterlimit="10" stroke-width="1"/></g><g transform="matrix(0.545, -0.839, 0.839, 0.545, 68.207, 343.789)" opacity="0.6"><path d="M83.238,0S64.852,32.56,37.173,41.92A56.7,56.7,0,0,0,8.491,63.381,99.737,99.737,0,0,0,0,78.625" transform="translate(19.807 0)" fill="none" stroke="#535461" stroke-miterlimit="10" stroke-width="2"/><path d="M2.49,6.218C5.633,3.142,20.341,0,20.341,0s-3.61,14.575-6.753,17.65a7.87,7.87,0,0,1-11.232,0,7.87,7.87,0,0,1,0-11.232c0-.067.067-.134.134-.2Z" transform="translate(0 78.424)" fill="#38d39f"/><path d="M6.4.1c4.279-.869,18.386,4.479,18.386,4.479S13.819,14.871,9.54,15.74A7.969,7.969,0,0,1,.18,9.456,7.842,7.842,0,0,1,6.4.1Z" transform="translate(4.383 58.137)" fill="#38d39f"/><path d="M10.585.456c4.145,1.4,13.572,13.1,13.572,13.1S9.515,16.9,5.37,15.5A7.961,7.961,0,1,1,10.585.456Z" transform="translate(30.415 29.229)" fill="#38d39f"/><path d="M9.205.113c4.346.735,15.645,10.63,15.645,10.63s-13.839,5.75-18.185,5.081A7.958,7.958,0,0,1,9.205.113Z" transform="translate(59.541 13.125)" fill="#38d39f"/><path d="M15.912,17.116C15.912,12.7,7.956,0,7.956,0S0,12.7,0,17.116a7.956,7.956,0,0,0,15.912,0Z" transform="translate(25.489 56.963)" fill="#38d39f"/><path d="M15.461,13.973C14.124,9.761,2.758,0,2.758,0S-1.053,14.575.284,18.72a7.951,7.951,0,0,0,15.177-4.747Z" transform="translate(58.166 40.449)" fill="#38d39f"/><path d="M15.819,15.912C15.218,11.566,5.657,0,5.657,0S-.561,13.706.041,18.052a7.961,7.961,0,1,0,15.778-2.14Z" transform="translate(86.489 15.11)" fill="#38d39f"/><path d="M2.49,6.218C5.633,3.142,20.341,0,20.341,0s-3.61,14.575-6.753,17.65a7.87,7.87,0,0,1-11.232,0,7.87,7.87,0,0,1,0-11.232c0-.067.067-.134.134-.2Z" transform="translate(0 78.424)" opacity="0.25"/><path d="M6.4.1c4.279-.869,18.386,4.479,18.386,4.479S13.819,14.871,9.54,15.74A7.969,7.969,0,0,1,.18,9.456,7.842,7.842,0,0,1,6.4.1Z" transform="translate(4.383 58.137)" opacity="0.25"/><path d="M10.585.456c4.145,1.4,13.572,13.1,13.572,13.1S9.515,16.9,5.37,15.5A7.961,7.961,0,1,1,10.585.456Z" transform="translate(30.415 29.229)" opacity="0.25"/><path d="M9.205.113c4.346.735,15.645,10.63,15.645,10.63s-13.839,5.75-18.185,5.081A7.958,7.958,0,0,1,9.205.113Z" transform="translate(59.541 13.125)" opacity="0.25"/><path d="M15.912,17.116C15.912,12.7,7.956,0,7.956,0S0,12.7,0,17.116a7.956,7.956,0,0,0,15.912,0Z" transform="translate(25.489 56.963)" opacity="0.25"/><path d="M15.461,13.973C14.124,9.761,2.758,0,2.758,0S-1.053,14.575.284,18.72a7.951,7.951,0,0,0,15.177-4.747Z" transform="translate(58.166 40.449)" opacity="0.25"/><path d="M15.819,15.912C15.218,11.566,5.657,0,5.657,0S-.561,13.706.041,18.052a7.961,7.961,0,1,0,15.778-2.14Z" transform="translate(86.489 15.11)" opacity="0.25"/><path d="M44.26,0s-3.61,37.24-25.139,57.03A56.153,56.153,0,0,0,1.6,88.252,94.3,94.3,0,0,0,0,105.568" transform="translate(57.782 0.602)" fill="none" stroke="#535461" stroke-miterlimit="10" stroke-width="2"/><path d="M.59,12.9C2.262,8.825,14.363,0,14.363,0s2.607,14.776,1,18.854A7.964,7.964,0,1,1,.59,12.9Z" transform="translate(43.753 105.902)" fill="#38d39f"/><path d="M3.4,3.343C7.006.8,21.982,0,21.982,0s-5.817,13.84-9.427,16.38A7.967,7.967,0,0,1,3.4,3.343Z" transform="translate(37.873 87.918)" fill="#38d39f"/><path d="M7.311.012C11.657-.322,25.029,6.5,25.029,6.5s-12.034,8.959-16.38,9.36A7.951,7.951,0,1,1,7.311.012Z" transform="translate(50.002 52.939)" fill="#38d39f"/><path d="M6.327.165c4.279-1.07,18.586,3.41,18.586,3.41S14.55,14.473,10.338,15.609A7.888,7.888,0,0,1,.376,10.394,7.888,7.888,0,0,1,5.591.433,5.081,5.081,0,0,0,6.327.165Z" transform="translate(69.707 26.444)" fill="#38d39f"/><path d="M15.3,12.436C13.494,8.424,1.058,0,1.058,0S-1.081,14.842.724,18.921A7.976,7.976,0,1,0,15.3,12.436Z" transform="translate(60.334 80.965)" fill="#38d39f"/><path d="M17.316,7.622C14.441,4.346,0,0,0,0S2.407,14.842,5.349,18.118a7.959,7.959,0,1,0,11.968-10.5Z" transform="translate(79.845 54.756)" fill="#38d39f"/><path d="M15.713,10.43C13.44,6.686,0,0,0,0S-.132,15.043,2.208,18.787A7.941,7.941,0,1,0,15.713,10.43Z" transform="translate(98.162 18.921)" fill="#38d39f"/></g></g></g></svg>