<svg xmlns="http://www.w3.org/2000/svg" xmlns:xlink="http://www.w3.org/1999/xlink" width="171" height="450" viewBox="0 0 171 450">
  <defs>
    <clipPath id="clip-path">
      <rect id="Ret칙ngulo_4390" data-name="Ret칙ngulo 4390" width="171" height="450" transform="translate(1749 4595)" fill="none" stroke="#707070" stroke-width="1"/>
    </clipPath>
  </defs>
  <g id="Grupo_de_m치scara_46" data-name="Grupo de m치scara 46" transform="translate(-1749 -4595)" clip-path="url(#clip-path)">
    <g id="leaves" transform="translate(1728.913 4928.436) rotate(-59)" opacity="0.8">
      <path id="Caminho_202" data-name="Caminho 202" d="M1062.557,282.14s-17.841-7.263-74.521,18.788-63.627,22.735-78.311,18.788-22.893-4.894-38.524-26.682c0,0-11.052-60.154-21.788-69.469s-56.523,5.368-56.523,5.368-54.628,12.631-65.206-60.47c0,0,7.421-55.1-2.684-72,0,0,20.367,8.842,53.839-5.368s60.311,15.315,60.311,15.315,8.526,21.946,7.578,34.892,4.421,18,20.525,11.683c0,0,7.894-11.21-3.315-29.682s-19.1-32.208-15.946-46.576,12-34.261,40.734-44.208,67.732-11.841,86.362-19.578S998.613,0,998.613,0s-11.525,11.526,15.631,60.47,9.789,70.1,9.789,70.1-14.367,34.419-78.152,31.577c0,0-61.418,2.21-27.947,28.261,0,0,21.473-4.421,53.523-14.525s55.1,31.893,60.944,61.1C1038.085,266.193,1062.557,282.14,1062.557,282.14Z" transform="translate(-725)" fill="#38d39f"/>
      <path id="Caminho_203" data-name="Caminho 203" d="M904.27,23.458l.316-.158c2.526,9.315-24.945,46.892-48.47,76.574l-.315-.158C889.113,57.877,906.323,30.721,904.27,23.458Z" transform="translate(-649.287 13.487)" fill="#444053"/>
      <path id="Caminho_204" data-name="Caminho 204" d="M880.627,71.4l.158.316c-18.788,23.841-42.313,52.26-61.1,73.258-1.736,2.052-3.631,4.1-5.21,6.315l-.473-.474c1.737-2.21,3.473-4.263,5.369-6.315C838,123.5,862,95.241,880.627,71.4Z" transform="translate(-673.483 41.33)" fill="#444053"/>
      <path id="Caminho_205" data-name="Caminho 205" d="M830.176,121.4l.316.632c-34.261,42.787-36.629,109.256-36.629,109.888l-7.262-8.21C786.758,222.92,795.6,164.5,830.176,121.4Z" transform="translate(-689.343 70.272)" fill="#444053"/>
      <path id="Caminho_206" data-name="Caminho 206" d="M1011.425,215.4s-40.418-21-72-13.42S836.962,175.3,836.962,175.3s-30.156-12.315-36.155-26.209c0,0-20.683-21.946-21.788-33.156S757.7,76.147,744.6,75.2" transform="translate(-713.655 43.529)" fill="none" stroke="#444053" stroke-miterlimit="10" stroke-width="1"/>
      <path id="Caminho_207" data-name="Caminho 207" d="M916.569,187.682S896.2,173.946,898.57,158" transform="translate(-624.641 91.458)" fill="none" stroke="#444053" stroke-miterlimit="10" stroke-width="1"/>
      <path id="Caminho_208" data-name="Caminho 208" d="M901.85,207.2s-29.208-10.578-32.05-52.1" transform="translate(-641.183 89.779)" fill="none" stroke="#444053" stroke-miterlimit="10" stroke-width="1"/>
      <path id="Caminho_209" data-name="Caminho 209" d="M867.809,218.17s-27.787-23.051-18.63-63.47" transform="translate(-654.192 89.547)" fill="none" stroke="#444053" stroke-miterlimit="10" stroke-width="1"/>
      <path id="Caminho_210" data-name="Caminho 210" d="M827.746,211.2s-18.472-38.84-2.053-64.1" transform="translate(-670.651 85.148)" fill="none" stroke="#444053" stroke-miterlimit="10" stroke-width="1"/>
      <path id="Caminho_211" data-name="Caminho 211" d="M920.2,147.8s-21,6.631-16.578,17.841" transform="translate(-621.958 85.553)" fill="none" stroke="#444053" stroke-miterlimit="10" stroke-width="1"/>
      <path id="Caminho_212" data-name="Caminho 212" d="M908.393,123.6s-28.261,9-28.893,48.786" transform="translate(-635.568 71.545)" fill="none" stroke="#444053" stroke-miterlimit="10" stroke-width="1"/>
      <path id="Caminho_213" data-name="Caminho 213" d="M881.677,117.7s-25.735,31.735-23.841,60.47" transform="translate(-648.166 68.13)" fill="none" stroke="#444053" stroke-miterlimit="10" stroke-width="1"/>
      <path id="Caminho_214" data-name="Caminho 214" d="M852.67,125.6s-25.577,24.314-22.262,37.892" transform="translate(-664.156 72.703)" fill="none" stroke="#444053" stroke-miterlimit="10" stroke-width="1"/>
      <path id="Caminho_215" data-name="Caminho 215" d="M844.714,121.531s-23.841,4.263-27.314-3.631" transform="translate(-671.514 68.246)" fill="none" stroke="#444053" stroke-miterlimit="10" stroke-width="1"/>
      <path id="Caminho_216" data-name="Caminho 216" d="M815,101.9s12.157,15.946,15.157,12.473" transform="translate(-672.904 58.984)" fill="none" stroke="#444053" stroke-miterlimit="10" stroke-width="1"/>
      <path id="Caminho_217" data-name="Caminho 217" d="M917.89,100.536S857.578,104.957,844,86.8" transform="translate(-656.117 50.244)" fill="none" stroke="#444053" stroke-miterlimit="10" stroke-width="1"/>
      <path id="Caminho_218" data-name="Caminho 218" d="M807,50.8s28.262,60.628,48.787,68.364" transform="translate(-677.535 29.405)" fill="none" stroke="#444053" stroke-miterlimit="10" stroke-width="1"/>
      <path id="Caminho_219" data-name="Caminho 219" d="M825.8,32.5s17.368,55.733,38.84,73.258" transform="translate(-666.653 18.812)" fill="none" stroke="#444053" stroke-miterlimit="10" stroke-width="1"/>
      <path id="Caminho_220" data-name="Caminho 220" d="M933.759,66.358S887.972,85.936,860.5,66.2" transform="translate(-646.567 38.32)" fill="none" stroke="#444053" stroke-miterlimit="10" stroke-width="0.75"/>
      <path id="Caminho_221" data-name="Caminho 221" d="M851.6,25s10.42,41.05,24.63,51" transform="translate(-651.718 14.471)" fill="none" stroke="#444053" stroke-miterlimit="10" stroke-width="0.75"/>
      <path id="Caminho_222" data-name="Caminho 222" d="M915.466,37.2s-25.735,9.789-35.366,2.21" transform="translate(-635.221 21.533)" fill="none" stroke="#444053" stroke-miterlimit="10" stroke-width="0.75"/>
      <path id="Caminho_223" data-name="Caminho 223" d="M804.589,110.4s0,35.84-9.789,38.366" transform="translate(-684.597 63.905)" fill="none" stroke="#444053" stroke-miterlimit="10" stroke-width="1"/>
      <path id="Caminho_224" data-name="Caminho 224" d="M750.6,145.778s38.682,3.316,56.522-16.578" transform="translate(-710.181 74.787)" fill="none" stroke="#444053" stroke-miterlimit="10" stroke-width="1"/>
      <path id="Caminho_225" data-name="Caminho 225" d="M807.608,83.6s-9.315,36.313-35.208,46.1" transform="translate(-697.563 48.391)" fill="none" stroke="#444053" stroke-miterlimit="10" stroke-width="1"/>
      <path id="Caminho_226" data-name="Caminho 226" d="M735.9,120.883s27.314,9.473,51-14.683" transform="translate(-718.69 61.473)" fill="none" stroke="#444053" stroke-miterlimit="10" stroke-width="1"/>
      <path id="Caminho_227" data-name="Caminho 227" d="M782.52,63.8s-2.526,30.787-19.42,45.155" transform="translate(-702.946 36.93)" fill="none" stroke="#444053" stroke-miterlimit="10" stroke-width="1"/>
      <path id="Caminho_228" data-name="Caminho 228" d="M736.6,88.463s22.735.158,28.1-7.263" transform="translate(-718.285 47.002)" fill="none" stroke="#444053" stroke-miterlimit="10" stroke-width="1"/>
    </g>
  </g>
</svg>
