<svg xmlns="http://www.w3.org/2000/svg" width="846.478" height="699.929" viewBox="0 0 846.478 699.929"><g transform="translate(-480.357 -3715.005)"><g transform="translate(782.866 3715.005)"><g transform="translate(0 0)"><g transform="translate(248.812 365.125)"><path d="M357.169,264a33.41,33.41,0,0,1-9.97,32.672c-5.89,5.215-13.577,8.236-18.951,13.985-6.915,7.4-8.907,18.72-5.882,28.383s10.641,17.562,19.776,21.93a43.878,43.878,0,0,0,39.825-1.359c14.955-8.45,23.661-25.4,25.866-42.432s-1.261-34.287-5.757-50.867" transform="translate(-320.995 -264.003)" fill="#263238"/></g><g transform="translate(473.503 632.413)"><g transform="translate(0)"><path d="M437.191,435.331c15.478-2.533,29.979,2.193,45.292,5.585,4.127.913,8.445,1.709,12.54.667,6.638-1.69,11.357-8.151,12.384-14.923a24.452,24.452,0,0,0-3.912-16.951,16.134,16.134,0,0,0-5.3-5.264,18.458,18.458,0,0,0-7.4-2.009,52.9,52.9,0,0,0-27.279,5.144,80.978,80.978,0,0,0-22.627,16.408c-3.239,3.241-2.266,6.99-3.7,11.343" transform="translate(-437.191 -402.227)" fill="#263238"/></g></g><g transform="translate(158.141 345.359)"><path d="M275.755,324.269a119.85,119.85,0,0,1,.9-44.395c1.489-7.093,3.674-14.153,7.644-20.215,1.443-2.2,3.225-4.347,5.676-5.325,3.382-1.35,7.406-.1,10.077,2.377,3.486,3.235,4.927,8.232,4.778,12.985s-1.709,9.344-3.444,13.772c-5.987,15.28-15.412,27.96-25.63,40.8" transform="translate(-274.106 -253.781)" fill="#263238"/></g><g transform="translate(410.013 471.739)"><path d="M453.91,319.137c3.525,2.5,81.323,169.948,81.323,169.948h0a32.911,32.911,0,0,0-19.815-1.955l-4.216,1.125a70.047,70.047,0,0,0-21.184,9.661l-22.17,15h0a6.3,6.3,0,0,1-3.16-4.885l-.06-.642-60.27-103.449Z" transform="translate(-404.358 -319.137)" fill="#e8505b"/></g><g transform="translate(130.678 205.238)"><path d="M297,181.32l20.722,117.824C324.4,315,402.207,411.072,402.207,411.072l-25.732,82.651L274.3,354.01a53.431,53.431,0,0,1-14.391-37.483L263.9,190.643Z" transform="translate(-259.904 -181.32)" fill="#ffbe9d"/></g><g transform="translate(247.394 416.523)"><path d="M350.956,290.583l53.355,4.034,46.527,7.217s81.594,21.447,81.594,30.381c0,2.974-22.29,73.925-34.71,116.432a295.217,295.217,0,0,0-7.509,31.394L532.433,573.8H331.684V487.827S318.21,375.043,320.531,359.64,350.956,290.583,350.956,290.583Z" transform="translate(-320.262 -290.583)" fill="#e8505b"/></g><g transform="translate(142.532 117.896)"><path d="M266.034,175.89A235.88,235.88,0,0,1,269.7,140.1c.3-1.675.984-3.713,2.672-3.933,2.087-.273,3.15,2.409,3.421,4.5a126.433,126.433,0,0,1-1.752,42.751" transform="translate(-266.034 -136.152)" fill="#eb996e"/></g><g transform="translate(159.785 315.113)"><path d="M281.428,330.147c22.891-20.463,23.671-55.91,21.712-84.11-.143-2.081-.3-4.351.9-6.06,2.179-3.119,7.5-1.963,9.63,1.191s2.011,7.257,1.814,11.059c1.172-3.224,6.205-3.2,8.565-.715s2.757,6.194,3.034,9.613q.38,4.725.762,9.448l66.872,63.736s1.839-5.722,6.751-2.452,8.085,10.39,8.085,10.39L362.421,445.113,274.956,338.7A35.432,35.432,0,0,1,281.428,330.147Z" transform="translate(-274.956 -238.14)" fill="#e8505b"/></g><g transform="translate(239.547 478.296)"><path d="M333.67,322.528c-6.772,9.03-12.418,19.053-15.348,29.952s-3.019,22.746,1,33.295a46.139,46.139,0,0,0,35.428,28.611" transform="translate(-316.204 -322.528)" fill="#e8505b"/></g><g transform="translate(470.964 639.202)"><g transform="translate(0)"><path d="M438.417,432.053l-2.539,34.219h49.569l11.624-60.437h0a62.421,62.421,0,0,0-41.906,13.134Z" transform="translate(-435.878 -405.738)" fill="#ffbe9d"/></g></g><g transform="translate(189.544 327.322)"><path d="M290.352,316.681a16.3,16.3,0,0,1,1.087-2.713c.775-1.707,1.814-4.217,3-7.35,1.2-3.127,2.435-6.923,3.61-11.187a120.136,120.136,0,0,0,4.144-28.414c.089-4.424-.012-8.414-.267-11.753-.24-3.34-.516-6.041-.774-7.9a16.437,16.437,0,0,1-.267-2.91,16.272,16.272,0,0,1,.654,2.852c.377,1.845.766,4.546,1.1,7.9a107.332,107.332,0,0,1,.483,11.829,110.849,110.849,0,0,1-4.175,28.644,107.543,107.543,0,0,1-3.842,11.2c-1.274,3.119-2.417,5.6-3.3,7.257A16.362,16.362,0,0,1,290.352,316.681Z" transform="translate(-290.346 -244.454)" fill="#263238"/></g><g transform="translate(204.107 346.615)"><path d="M297.891,289.42c-.139-.079.791-1.891,2.067-4.908a72.67,72.67,0,0,0,5.72-24.765c.176-3.27.135-5.306.3-5.316a20.4,20.4,0,0,1,.416,5.337,58.43,58.43,0,0,1-5.784,25.038C299.148,287.782,297.993,289.478,297.891,289.42Z" transform="translate(-297.877 -254.431)" fill="#263238"/></g><g transform="translate(278.571 410.316)"><path d="M340.483,312.129c-.155-.087.652-1.346,1.12-3.62a19.29,19.29,0,0,0-.5-8.955A65.613,65.613,0,0,0,337.739,291c-.963-2.174-1.462-3.57-1.334-3.626a16.413,16.413,0,0,1,1.976,3.314,44.216,44.216,0,0,1,3.69,8.593,17.588,17.588,0,0,1,.224,9.394C341.612,311.042,340.556,312.2,340.483,312.129Z" transform="translate(-336.385 -287.373)" fill="#263238"/></g><g transform="translate(239.014 490.896)"><path d="M347.948,409.435a3.392,3.392,0,0,1-.839-.468c-.623-.41-1.379-.909-2.291-1.512-1.97-1.342-4.813-3.3-8.17-5.944a70.08,70.08,0,0,1-10.856-10.38,41.64,41.64,0,0,1-8.4-16.344,51.514,51.514,0,0,1-1.108-18.365,72.114,72.114,0,0,1,3.307-14.65,100.252,100.252,0,0,1,3.688-9.413c.493-1.085.891-1.922,1.178-2.481a3.408,3.408,0,0,1,.482-.833,30.428,30.428,0,0,1-1.3,3.467c-.864,2.216-2.114,5.424-3.37,9.477a75.734,75.734,0,0,0-3.063,14.534,51.84,51.84,0,0,0,1.162,18.015,41.451,41.451,0,0,0,8.143,16.007,73.376,73.376,0,0,0,10.581,10.413c3.28,2.7,6.053,4.741,7.952,6.178.868.665,1.59,1.214,2.179,1.665A3.585,3.585,0,0,1,347.948,409.435Z" transform="translate(-315.928 -329.044)" fill="#263238"/></g><g transform="translate(313.711 548.129)"><path d="M421.429,400.932a3.1,3.1,0,0,1-.853.306c-.572.153-1.4.439-2.51.654a49.144,49.144,0,0,1-9.479,1.137,53.188,53.188,0,0,1-50.408-31.885,48.907,48.907,0,0,1-3.034-9.052c-.28-1.093-.379-1.967-.485-2.549a2.992,2.992,0,0,1-.089-.9,30.765,30.765,0,0,1,.953,3.353,56.962,56.962,0,0,0,3.3,8.853,53.951,53.951,0,0,0,49.749,31.469,56.956,56.956,0,0,0,9.415-.81A30.634,30.634,0,0,1,421.429,400.932Z" transform="translate(-354.557 -358.641)" fill="#263238"/></g><g transform="translate(411.334 580.509)"><path d="M405.06,422.877c-.269-.07,2.289-10.759,5.712-23.87s6.42-23.69,6.689-23.621-2.288,10.757-5.714,23.874S405.329,422.948,405.06,422.877Z" transform="translate(-405.041 -375.386)" fill="#263238"/></g><g transform="translate(404.552 548.022)"><path d="M435.394,415.866c-.24.141-8.013-12.567-17.359-28.381s-16.734-28.757-16.495-28.9,8.011,12.563,17.361,28.385S435.633,415.724,435.394,415.866Z" transform="translate(-401.534 -358.585)" fill="#263238"/></g><g transform="translate(471.338 636.572)"><g transform="translate(0)"><path d="M477.292,404.421c.019.188-2.814.427-7.226,1.541a57.054,57.054,0,0,0-7.567,2.508,56.25,56.25,0,0,0-16.417,10.378,57.474,57.474,0,0,0-5.513,5.761c-2.9,3.508-4.328,5.964-4.49,5.865a7.631,7.631,0,0,1,.891-1.789,37.743,37.743,0,0,1,3.044-4.521,49.784,49.784,0,0,1,5.44-6,52.452,52.452,0,0,1,16.7-10.556,49.88,49.88,0,0,1,7.75-2.342,37.667,37.667,0,0,1,5.389-.808A7.593,7.593,0,0,1,477.292,404.421Z" transform="translate(-436.071 -404.378)" fill="#263238"/></g></g><g transform="translate(475.038 624.448)"><path d="M484.977,398.632c-.015.2-3.113-.166-8.071.257a51.388,51.388,0,0,0-8.582,1.506,51.876,51.876,0,0,0-18.953,9.5,51.444,51.444,0,0,0-6.343,5.973c-3.307,3.719-4.863,6.422-5.037,6.312a9.108,9.108,0,0,1,1.021-1.934,18.918,18.918,0,0,1,1.4-2.146,31.873,31.873,0,0,1,2.073-2.7,46.863,46.863,0,0,1,6.3-6.232,49.426,49.426,0,0,1,19.3-9.671,46.515,46.515,0,0,1,8.762-1.317,31.049,31.049,0,0,1,3.4-.046,18.929,18.929,0,0,1,2.56.159A9.1,9.1,0,0,1,484.977,398.632Z" transform="translate(-437.985 -398.108)" fill="#263238"/></g><g transform="translate(313.725 552.248)" opacity="0.3"><path d="M356.635,360.771c-4.56,8.626-.758,19.15,3.4,27.975,3.225,6.842,6.82,13.8,12.691,18.57a27.119,27.119,0,0,0,39.357-5.554c-24.57.1-48.31-16.694-56.391-39.9" transform="translate(-354.564 -360.771)"/></g><g transform="translate(402.932 548.023)" opacity="0.3"><path d="M402.322,358.586c-3.465,8.3-.853,19.658,2.792,27.882s7.493,17.413,4.571,25.922c-.547,1.591-1.334,3.2-1.131,4.869s2.007,3.262,3.5,2.491a3.852,3.852,0,0,0,1.555-2.39q4.13-12.406,8.259-24.816" transform="translate(-400.696 -358.586)"/></g><g transform="translate(221.591 408.171)"><path d="M306.968,316.883c-.275-.044.611-6.934,1.978-15.389s2.7-15.275,2.974-15.23-.613,6.934-1.98,15.391S307.243,316.927,306.968,316.883Z" transform="translate(-306.918 -286.264)" fill="#fafafa"/></g><g transform="translate(184.622 415.13)"><path d="M304.439,309.246c-.244.164-3.575-4.484-8.168-9.814-4.573-5.349-8.665-9.344-8.464-9.562.17-.2,4.606,3.5,9.23,8.9C301.674,304.16,304.66,309.106,304.439,309.246Z" transform="translate(-287.8 -289.862)" fill="#fafafa"/></g><g transform="translate(200.683 384.705)"><path d="M314.167,274.133c.108.081-.712,1.417-2.181,3.479s-3.6,4.832-6.1,7.777-4.894,5.5-6.689,7.282-2.982,2.81-3.078,2.715c-.207-.2,4.028-4.786,9-10.649S313.933,273.963,314.167,274.133Z" transform="translate(-296.106 -274.129)" fill="#fafafa"/></g><g transform="translate(204.149 351.368)"><path d="M305.665,265.893c-.277.11-1.373-2.351-3.517-4.8-2.114-2.475-4.391-3.914-4.243-4.173.1-.238,2.746.882,5,3.514C305.19,263.048,305.917,265.829,305.665,265.893Z" transform="translate(-297.898 -256.889)" fill="#fafafa"/></g><g transform="translate(184.078 375.223)"><path d="M297.731,269.366c.043.275-2.208.861-5.028,1.307s-5.14.586-5.184.311,2.206-.861,5.028-1.307S297.687,269.091,297.731,269.366Z" transform="translate(-287.519 -269.225)" fill="#fafafa"/></g><g transform="translate(234.975 379.392)"><path d="M317.644,288.842c-.309-.043.449-4.129-.64-9-1.025-4.887-3.409-8.288-3.144-8.456.164-.186,3.042,3.109,4.128,8.243C319.125,284.753,317.87,288.945,317.644,288.842Z" transform="translate(-313.839 -271.381)" fill="#fafafa"/></g><g transform="translate(248.518 408.255)"><path d="M334.876,300.466c-.277.147-2.3-3.949-6.221-7.855-3.877-3.951-7.957-6.006-7.808-6.283.068-.236,4.494,1.477,8.524,5.573C333.432,295.96,335.114,300.4,334.876,300.466Z" transform="translate(-320.843 -286.307)" fill="#fafafa"/></g><g transform="translate(206.666 466.125)"><path d="M316.932,316.888c.095.232-3.842,1.661-8.926,1.468-5.086-.155-8.914-1.851-8.8-2.077.093-.292,3.939.926,8.839,1.071C312.939,317.541,316.861,316.59,316.932,316.888Z" transform="translate(-299.2 -316.234)" fill="#fafafa"/></g><g transform="translate(242.275 455.459)"><path d="M317.648,331.214c-.276-.1,1.232-4.564,2.489-10.206,1.278-5.641,1.822-10.315,2.115-10.289.261.012.164,4.786-1.133,10.51C319.843,326.956,317.888,331.314,317.648,331.214Z" transform="translate(-317.615 -310.718)" fill="#fafafa"/></g><g transform="translate(265.265 459.726)"><path d="M345.655,330.654c-.207.188-3.987-3.63-8.443-8.522s-7.9-9.013-7.7-9.2,3.985,3.628,8.445,8.522S345.86,330.466,345.655,330.654Z" transform="translate(-329.504 -312.925)" fill="#fafafa"/></g><g transform="translate(287.754 510.326)"><path d="M353.029,351.406c-.2.193-3.022-2.4-6.3-5.8s-5.78-6.31-5.581-6.5,3.022,2.4,6.3,5.8S353.228,351.213,353.029,351.406Z" transform="translate(-341.133 -339.092)" fill="#fafafa"/></g><g transform="translate(249.113 526.935)"><path d="M337.816,347.695c.172.2-3.055,3.181-7.725,5.88-4.66,2.719-8.853,4.041-8.938,3.794-.106-.275,3.854-1.992,8.433-4.664C334.175,350.054,337.63,347.465,337.816,347.695Z" transform="translate(-321.151 -347.681)" fill="#fafafa"/></g><g transform="translate(281.319 546.837)"><path d="M337.852,381.085c-.292-.073.866-5.153,1.443-11.521.609-6.368.408-11.573.708-11.591.253-.031.911,5.217.3,11.684C339.711,376.123,338.1,381.16,337.852,381.085Z" transform="translate(-337.806 -357.973)" fill="#fafafa"/></g><g transform="translate(325.413 518.353)"><path d="M375.167,359.877c-.147.209-4.295-2.682-8.363-7.36-4.094-4.656-6.406-9.152-6.18-9.27.257-.157,2.916,4.036,6.938,8.609C371.555,356.449,375.356,359.643,375.167,359.877Z" transform="translate(-360.608 -343.243)" fill="#fafafa"/></g><g transform="translate(361.375 534.501)"><path d="M379.218,370.329c-.228-.18,2.7-4.2,5.983-9.359s5.7-9.5,5.966-9.373c.238.116-1.787,4.709-5.117,9.914S379.423,370.5,379.218,370.329Z" transform="translate(-379.206 -351.594)" fill="#fafafa"/></g><g transform="translate(338.853 503.345)"><path d="M386.955,340.733c-.073.269-4.473-.679-9.829-2.117s-9.64-2.821-9.566-3.088,4.471.679,9.827,2.115S387.026,340.464,386.955,340.733Z" transform="translate(-367.559 -335.481)" fill="#fafafa"/></g><g transform="translate(342.441 568.874)"><path d="M369.613,387.643c-.279-.016-.263-4.121.035-9.166s.762-9.125,1.04-9.108.261,4.119-.035,9.168S369.89,387.66,369.613,387.643Z" transform="translate(-369.414 -369.369)" fill="#fafafa"/></g><g transform="translate(356.11 594.676)"><path d="M376.51,402.09c-.284-.131,1.746-4.142,2.44-9.533.756-5.385-.145-9.791.164-9.843.226-.095,1.613,4.374.833,9.976C379.221,398.3,376.7,402.241,376.51,402.09Z" transform="translate(-376.483 -382.712)" fill="#fafafa"/></g><g transform="translate(320.761 588.746)"><path d="M358.6,399.009c-.248.039-.853-4.506.218-10,1.038-5.5,3.283-9.493,3.5-9.365.278.124-1.5,4.208-2.51,9.556C358.76,394.542,358.9,399,358.6,399.009Z" transform="translate(-358.203 -379.646)" fill="#fafafa"/></g><g transform="translate(271.219 607.458)"><path d="M350.617,403.6c-.2.213-4.111-3.127-9.081-7.052s-9.112-6.977-8.949-7.217c.147-.224,4.575,2.464,9.574,6.428S350.8,403.409,350.617,403.6Z" transform="translate(-332.583 -389.322)" fill="#fafafa"/></g><g transform="translate(287.71 583.788)"><path d="M364.266,377.1c.13.246-4.948,3.2-11.339,6.588s-11.684,5.944-11.813,5.7,4.947-3.195,11.341-6.588S364.134,376.852,364.266,377.1Z" transform="translate(-341.111 -377.082)" fill="#fafafa"/></g><g transform="translate(280.231 607.904)"><path d="M434.987,450.587a6.355,6.355,0,0,1-1.253.319c-.83.155-2.044.468-3.639.673a77.81,77.81,0,0,1-13.594.87,83.619,83.619,0,0,1-72.813-45.472,77.786,77.786,0,0,1-5.182-12.594c-.516-1.524-.768-2.752-.992-3.566a6.132,6.132,0,0,1-.263-1.265,6.38,6.38,0,0,1,.458,1.209c.288.795.6,2,1.168,3.5a87.58,87.58,0,0,0,5.441,12.387,84.859,84.859,0,0,0,72.2,45.091,87.355,87.355,0,0,0,13.519-.547c1.6-.143,2.817-.395,3.659-.485A6.207,6.207,0,0,1,434.987,450.587Z" transform="translate(-337.243 -389.553)" fill="#263238"/></g><g transform="translate(319.867 642.294)"><path d="M358.076,423.977c-.238.077-.957-4.245.907-9.141,1.814-4.917,5.2-7.7,5.325-7.487.234.207-2.67,3.169-4.384,7.841C358.148,419.835,358.39,423.977,358.076,423.977Z" transform="translate(-357.74 -407.337)" fill="#fafafa"/></g><g transform="translate(295.991 652.246)"><path d="M353.681,412.519c.145.271-2.758,1.688-5.03,4.782-2.326,3.055-2.864,6.24-3.164,6.178-.257.031-.147-3.473,2.357-6.782C350.309,413.362,353.639,412.264,353.681,412.519Z" transform="translate(-345.393 -412.484)" fill="#fafafa"/></g><g transform="translate(350.001 679.06)"><path d="M388.8,436c.01.248-4.4-.1-8.9-2.937-4.531-2.794-6.785-6.6-6.557-6.7.244-.2,2.759,3.187,7.089,5.848C384.722,434.921,388.869,435.692,388.8,436Z" transform="translate(-373.324 -426.35)" fill="#fafafa"/></g><g transform="translate(364.485 635.138)"><path d="M391.33,403.638c.253-.006-.306,4.03-3.465,7.71-3.119,3.713-7.012,4.917-7.046,4.666-.141-.276,3.353-1.82,6.279-5.318C390.077,407.242,391.032,403.543,391.33,403.638Z" transform="translate(-380.814 -403.636)" fill="#fafafa"/></g><g transform="translate(402.035 658.923)"><path d="M400.247,432.1c-.232-.193,2.322-3.423,4.672-7.878,2.378-4.44,3.626-8.363,3.914-8.28.249.052-.586,4.194-3.024,8.754C403.4,429.261,400.429,432.274,400.247,432.1Z" transform="translate(-400.232 -415.936)" fill="#fafafa"/></g><g transform="translate(424.929 680.323)"><path d="M424.945,427.038c.114.284-3.409,1.679-6.948,4.6-3.574,2.879-5.648,6.047-5.906,5.879-.23-.1,1.539-3.645,5.269-6.66C421.064,427.81,424.895,426.792,424.945,427.038Z" transform="translate(-412.072 -427.003)" fill="#fafafa"/></g><g transform="translate(397.741 611.85)"><path d="M410.806,414.295c-.3.095-1.982-5.56-5.542-11.825-3.516-6.294-7.478-10.663-7.242-10.871.093-.085,1.2.9,2.771,2.709a48.687,48.687,0,0,1,9.133,16.214C410.663,412.8,410.928,414.26,410.806,414.295Z" transform="translate(-398.012 -391.593)" fill="#fafafa"/></g><g transform="translate(397.317 576.913)"><path d="M416.361,373.582c.062.271-4.043,1.45-9.172,2.634s-9.334,1.922-9.4,1.651,4.042-1.448,9.17-2.634S416.3,373.311,416.361,373.582Z" transform="translate(-397.793 -373.526)" fill="#fafafa"/></g><g transform="translate(388.368 545.545)"><path d="M404.224,371.52c-.22.172-2.87-2.872-5.919-6.8s-5.345-7.244-5.126-7.414,2.87,2.872,5.921,6.8S404.443,371.35,404.224,371.52Z" transform="translate(-393.165 -357.305)" fill="#fafafa"/></g><g transform="translate(422.09 545.108)"><path d="M428.7,361.4c-.027.265-4.231,0-9.268-1.2-5.043-1.185-8.916-2.839-8.824-3.088.1-.273,4.076.938,9.056,2.11S428.734,361.115,428.7,361.4Z" transform="translate(-410.603 -357.079)" fill="#fafafa"/></g><g transform="translate(469.142 532.804)"><path d="M434.963,366.842c-.259-.135,1.342-3.628,2.959-8.062,1.634-4.428,2.67-8.127,2.955-8.064.259.052-.35,3.908-2.009,8.41C437.224,363.632,435.2,366.969,434.963,366.842Z" transform="translate(-434.936 -350.716)" fill="#fafafa"/></g><g transform="translate(447.229 579.033)"><path d="M439.024,383.8c-.064.248-4.084-.764-8.431-3.367-4.362-2.578-7.168-5.627-6.981-5.8.2-.22,3.247,2.429,7.5,4.939C435.34,382.111,439.121,383.521,439.024,383.8Z" transform="translate(-423.603 -374.622)" fill="#fafafa"/></g><g transform="translate(481.451 564.275)"><path d="M441.348,389.736c-.273-.064.679-5.206,2.123-11.484s2.835-11.324,3.106-11.26-.679,5.2-2.123,11.484S441.618,389.8,441.348,389.736Z" transform="translate(-441.301 -366.991)" fill="#fafafa"/></g><g transform="translate(452.882 613.328)"><g transform="translate(0)"><path d="M439.4,409.973c-.224.164-3.285-3.645-6.838-8.507s-6.248-8.94-6.024-9.1,3.285,3.645,6.838,8.508S439.626,409.809,439.4,409.973Z" transform="translate(-426.527 -392.357)" fill="#fafafa"/></g></g><g transform="translate(482.523 599.912)"><path d="M451.947,399.66c-.269.124-2.036-3.369-4.819-7.273-2.759-3.92-5.469-6.745-5.262-6.958.168-.2,3.255,2.361,6.084,6.376C450.8,395.8,452.189,399.566,451.947,399.66Z" transform="translate(-441.855 -385.42)" fill="#fafafa"/></g><g transform="translate(505.397 594.177)"><g transform="translate(0)"><path d="M466.073,398.649c-.248.153-2.777-3.643-6.19-8.091s-6.4-7.9-6.188-8.1c.188-.186,3.548,2.972,6.988,7.483S466.3,398.518,466.073,398.649Z" transform="translate(-453.685 -382.454)" fill="#fafafa"/></g></g><g transform="translate(504.404 615.705)"><path d="M460.637,404.936c-.3.014-.1-3.347-2.3-6.6-2.121-3.3-5.289-4.442-5.159-4.712.035-.114.88-.012,2.1.6a10.737,10.737,0,0,1,5.635,8.541C460.995,404.132,460.755,404.95,460.637,404.936Z" transform="translate(-453.171 -393.587)" fill="#fafafa"/></g><g transform="translate(486.95 644.944)"><path d="M449.43,413.694c-.145-.039-.1-.516-.251-1.2a3.591,3.591,0,0,0-3.8-2.964c-.7.019-1.152.18-1.226.048-.07-.1.288-.52,1.116-.75a3.682,3.682,0,0,1,4.618,3.6C449.865,413.288,449.546,413.736,449.43,413.694Z" transform="translate(-444.145 -408.707)" fill="#fafafa"/></g><g transform="translate(275.101 670.56)"><path d="M350.547,437.9c-.058.234-5.084-1.665-9.659-6.279-4.614-4.575-6.513-9.6-6.279-9.659.28-.153,2.525,4.529,6.992,8.947C346.018,435.37,350.7,437.615,350.547,437.9Z" transform="translate(-334.59 -421.954)" fill="#fafafa"/></g><g transform="translate(131.769 116.101)"><path d="M296.665,225.674c-3.1-29.406-8.729-57.072-10.255-85.921-.077-1.445-.242-3.073-1.373-3.978-1.539-1.234-4-.244-5.008,1.452s-.986,3.784-.979,5.755A133.285,133.285,0,0,1,271.387,188c-3.326,9.361-7.706,18.368-10.216,27.983s2.179,12.873,6.505,21.816" transform="translate(-260.468 -135.224)" fill="#ffbe9d"/></g><g transform="translate(21.287 49.776)"><path d="M251.269,141.222c-.18.213-11.055-8.636-24.29-19.761s-23.822-20.32-23.644-20.532,11.053,8.632,24.292,19.763S251.447,141.009,251.269,141.222Z" transform="translate(-203.334 -100.925)" fill="#263238"/></g><g transform="translate(120.423)"><path d="M258.542,152.011c-.277.014-1.371-17.173-2.44-38.386s-1.713-38.425-1.437-38.441,1.371,17.172,2.442,38.39S258.821,152,258.542,152.011Z" transform="translate(-254.601 -75.184)" fill="#263238"/></g><g transform="translate(75.04 20.424)"><path d="M245.336,129.864c-.265.085-3.655-9.723-7.572-21.9s-6.88-22.13-6.615-22.215,3.655,9.721,7.574,21.905S245.6,129.779,245.336,129.864Z" transform="translate(-231.132 -85.746)" fill="#263238"/></g><g transform="translate(28.522 94.695)"><path d="M236.5,137.661c-.116.251-6.8-2.562-14.921-6.288s-14.617-6.95-14.5-7.2,6.8,2.562,14.921,6.288S236.614,137.408,236.5,137.661Z" transform="translate(-207.075 -124.154)" fill="#263238"/></g><g transform="translate(0 84.881)"><path d="M199.388,120.187c-.035.277-1.644.3-3.593.058s-3.5-.665-3.469-.942,1.642-.3,3.593-.058S199.423,119.911,199.388,120.187Z" transform="translate(-192.326 -119.079)" fill="#263238"/></g><g transform="translate(75.805 0.886)"><path d="M232.03,82.7c-.277,0-.5-1.58-.5-3.531s.226-3.531.5-3.531.5,1.58.5,3.531S232.308,82.7,232.03,82.7Z" transform="translate(-231.527 -75.642)" fill="#263238"/></g><g transform="translate(152.172 35.247)"><path d="M311.61,93.414c.2.188-8.713,10.421-19.919,22.855s-20.463,22.369-20.668,22.184,8.71-10.419,19.919-22.857S311.4,93.229,311.61,93.414Z" transform="translate(-271.019 -93.412)" fill="#263238"/></g><g transform="translate(201.635 21.166)"><path d="M301.919,86.154c.2.2-.832,1.541-2.293,3s-2.808,2.489-3,2.293.828-1.543,2.291-3.005S301.722,85.956,301.919,86.154Z" transform="translate(-296.598 -86.129)" fill="#263238"/></g><g transform="translate(169.805 70.688)"><path d="M351.752,111.745a17.755,17.755,0,0,1-2.626,1.564c-1.721.951-4.241,2.272-7.379,3.852-6.277,3.166-15.071,7.3-24.98,11.417s-19.055,7.412-25.728,9.618c-3.338,1.1-6.051,1.957-7.94,2.5a17.88,17.88,0,0,1-2.961.756,17.861,17.861,0,0,1,2.839-1.129c2.017-.721,4.653-1.663,7.828-2.8,6.6-2.375,15.685-5.776,25.577-9.876s18.707-8.129,25.053-11.127l7.513-3.562A18.187,18.187,0,0,1,351.752,111.745Z" transform="translate(-280.138 -111.739)" fill="#263238"/></g><g transform="translate(176.943 118.266)"><path d="M320.021,136.37c.035.126-1.912.814-5.128,1.7s-7.71,1.932-12.728,2.79-9.609,1.358-12.935,1.59-5.393.232-5.4.1,2.034-.394,5.329-.808,7.843-1.023,12.836-1.874,9.481-1.787,12.728-2.491S319.982,136.228,320.021,136.37Z" transform="translate(-283.829 -136.344)" fill="#263238"/></g><g transform="translate(227.697 113.032)"><path d="M321.214,134.142c0,.279-2.495.5-5.569.5s-5.569-.224-5.569-.5,2.493-.5,5.569-.5S321.214,133.863,321.214,134.142Z" transform="translate(-310.076 -133.637)" fill="#263238"/></g><g transform="translate(128.424 148.18)"><path d="M269.292,222.3a26.886,26.886,0,0,1-10.212-25.456c.977-5.8,3.846-11.071,6.138-16.487s4.049-11.417,2.649-17.129c-.534-2.185-1.526-4.3-1.535-6.55s1.435-4.765,3.684-4.867c1.7-.077,3.135,1.214,4.2,2.537,3.755,4.662,6.789,18.289,4.888,28.441" transform="translate(-258.738 -151.813)" fill="#ffbe9d"/></g><g transform="translate(128.015 147.717)"><path d="M279.3,183.019c-.1-.016.2-1.561.311-4.382a52.788,52.788,0,0,0-.994-11.873,42.119,42.119,0,0,0-2.311-7.868,16.684,16.684,0,0,0-2.164-3.931c-.928-1.178-2.166-2.363-3.628-2.458-1.47-.112-2.746,1.178-3.225,2.705a8.14,8.14,0,0,0,.317,4.977,26.763,26.763,0,0,1,1.344,5.48,21.87,21.87,0,0,1-.213,5.842c-1.346,7.841-5.536,14.194-7.648,20.465a27.557,27.557,0,0,0-1.729,9.166,26.978,26.978,0,0,0,1.193,8.052,27.465,27.465,0,0,0,5.809,10.257c1.9,2.083,3.191,3,3.123,3.078a4.658,4.658,0,0,1-.951-.634,19.243,19.243,0,0,1-2.458-2.175,26.656,26.656,0,0,1-6.2-10.309,27.187,27.187,0,0,1-1.348-8.271,28.059,28.059,0,0,1,1.684-9.468c2.129-6.424,6.252-12.768,7.532-20.323a21.05,21.05,0,0,0,.211-5.573,26.134,26.134,0,0,0-1.294-5.306,9.05,9.05,0,0,1-.284-5.563,5.461,5.461,0,0,1,1.524-2.373,3.677,3.677,0,0,1,2.669-.953,6.375,6.375,0,0,1,4.27,2.837,17.314,17.314,0,0,1,2.239,4.161,41.608,41.608,0,0,1,2.239,8.052,48.542,48.542,0,0,1,.686,12.03,27.727,27.727,0,0,1-.429,3.249A4.75,4.75,0,0,1,279.3,183.019Z" transform="translate(-258.527 -151.574)" fill="#eb996e"/></g><g transform="translate(279.605 236.275)"><g transform="translate(0 0)"><g transform="translate(108.905 67.869)"><path d="M406.329,264.541c1.019,5.563,6.308,9.852,11.945,10.32s11.268-2.556,14.561-7.155a22.667,22.667,0,0,0,3.612-16.166c-1.112-8.141-6.522-15.967-14.372-18.4s-17.618,1.9-19.788,9.819l-9.05,12.639Z" transform="translate(-393.238 -232.468)" fill="#263238"/></g><g transform="translate(0 15.925)"><path d="M448.214,264.808a52.657,52.657,0,0,0-47.324-58.971c-28.07-2.676-53.017,18.225-57.223,46.108-3.69,24.44-6.859,49.113-6.745,58.076.344,27.022,16.154,37.541,22.563,40.7a35.011,35.011,0,0,0,7.11,1.769h0a.179.179,0,0,1,.151.211l-6,31.019c-2.721,20.324,8.624,38.45,28.915,41.409,20.358,2.966,36.273-12.645,39.38-32.982Z" transform="translate(-336.919 -205.606)" fill="#ffbe9d"/><g transform="translate(11.361 58.76)"><path d="M342.838,239.374c.447.632,4.014-1.282,8.588-.6,4.575.613,7.59,3.456,8.168,2.966.28-.211-.11-1.29-1.417-2.568a11.793,11.793,0,0,0-6.439-3.061,11.329,11.329,0,0,0-6.934,1.172C343.238,238.155,342.616,239.087,342.838,239.374Z" transform="translate(-342.794 -235.993)" fill="#263238"/></g><g transform="translate(52.058 67.577)"><path d="M363.884,243.934c.447.63,4.018-1.282,8.588-.6,4.575.611,7.59,3.454,8.168,2.966.278-.213-.106-1.29-1.417-2.568a11.786,11.786,0,0,0-6.439-3.061,11.324,11.324,0,0,0-6.936,1.172C364.286,242.716,363.662,243.648,363.884,243.934Z" transform="translate(-363.84 -240.552)" fill="#263238"/></g><g transform="translate(25.059 54.768)"><path d="M361.093,271.738c.06-.257-2.713-1.162-7.234-2.423-1.151-.29-2.222-.685-2.3-1.51-.151-.884.52-2.071,1.286-3.347q2.262-4,4.749-8.39c6.642-11.964,11.633-21.87,11.148-22.133s-6.259,9.22-12.9,21.184q-2.413,4.432-4.612,8.466c-.636,1.261-1.617,2.657-1.274,4.494a2.959,2.959,0,0,0,1.671,1.988,7.936,7.936,0,0,0,1.943.565C358.164,271.556,361.037,272,361.093,271.738Z" transform="translate(-349.879 -233.928)" fill="#263238"/></g><g transform="translate(28.245 140.877)"><path d="M353.143,284.491s17.45,4.024,41.477-6.033c0,0-10.373,22.331-43.093,14.391Z" transform="translate(-351.526 -278.458)" fill="#eb996e"/></g><g transform="translate(35.991 101.633)"><path d="M356.141,260.416a8.329,8.329,0,0,1,7.835-1.984,7.6,7.6,0,0,1,4.79,3.545,4.815,4.815,0,0,1-.433,5.505c-1.487,1.557-4.125,1.58-6.217.642a17.492,17.492,0,0,1-5.337-4.341,5.139,5.139,0,0,1-1.11-1.543,1.547,1.547,0,0,1,.255-1.7" transform="translate(-355.532 -258.163)" fill="#eb996e"/></g><g transform="translate(32.923 97.701)"><path d="M370.3,256.134c-.739-.151-1.472,4.813-6.234,7.717s-9.97,1.588-10.11,2.276c-.114.3,1.038,1.137,3.262,1.524a12.494,12.494,0,0,0,8.4-1.621,10.876,10.876,0,0,0,4.91-6.517C371.014,257.466,370.641,256.155,370.3,256.134Z" transform="translate(-353.945 -256.13)" fill="#263238"/></g><g transform="translate(55.245 53.73)"><path d="M365.5,235.736c.271,1.309,4.923,1.385,10.195,2.814,5.3,1.325,9.4,3.525,10.274,2.514.4-.487-.188-1.767-1.762-3.227a18.386,18.386,0,0,0-15.594-4.059C366.522,234.284,365.387,235.118,365.5,235.736Z" transform="translate(-365.488 -233.391)" fill="#263238"/></g><g transform="translate(15.958 44.339)"><path d="M345.24,232.236c.654,1.156,3.96.538,7.758,1.038,3.813.367,6.9,1.719,7.793.739.4-.48.046-1.593-1.212-2.783A11.328,11.328,0,0,0,347.05,229.8C345.555,230.672,344.957,231.677,345.24,232.236Z" transform="translate(-345.172 -228.535)" fill="#263238"/></g></g><g transform="translate(0.056)"><path d="M338.334,253.577c5.592,8.536,23.34,3.264,34.061-2.6,11.289,7.482,26.976,4.233,34.8-7.205,6.13,7.81,18.587,5.229,23.129-3.574s1.986-20.915-4.252-28.617S410.7,200,401.691,198.331c-21.364-3.947-44.634,4.335-57.418,23.655-5.9,8.913-9.435,20.915-5.938,31.591" transform="translate(-336.948 -197.37)" fill="#263238"/></g><g transform="translate(6.182 3.126)"><path d="M394.434,199.871c-.021.375-5.049-.592-12.962.729-7.77,1.3-18.709,5.354-26.854,14.445A58.641,58.641,0,0,0,341.721,243c-1.334,7.921-.317,12.923-.663,12.954a11.668,11.668,0,0,1-.729-3.467,41.193,41.193,0,0,1,.157-9.669A56.322,56.322,0,0,1,353.3,213.875a46.245,46.245,0,0,1,27.987-14.511,40.319,40.319,0,0,1,9.671-.161A11.319,11.319,0,0,1,394.434,199.871Z" transform="translate(-340.116 -198.987)" fill="#455a64"/></g><g transform="translate(31.156 5.674)"><path d="M353.487,238.357a8.732,8.732,0,0,1-.427-3.04,30.6,30.6,0,0,1,.87-8.342,34.312,34.312,0,0,1,43.089-25.38,30.672,30.672,0,0,1,7.718,3.283,8.744,8.744,0,0,1,2.452,1.849c-.174.321-3.748-2.34-10.477-3.922a34.257,34.257,0,0,0-41.575,24.487C353.257,233.946,353.852,238.363,353.487,238.357Z" transform="translate(-353.031 -200.305)" fill="#455a64"/></g><g transform="translate(79.276 15.756)"><path d="M381.52,224.232c-1.795,7.615-3.6,15.311-3.6,23.135s1.959,15.9,6.952,21.925c7.464,9.005,19.914,11.736,31.406,13.923a90.738,90.738,0,0,0,5.353-48.411c-1.305-7.921-3.856-15.982-9.442-21.747-8.062-8.321-22.1-10-31.895-3.808" transform="translate(-377.916 -205.519)" fill="#263238"/></g><g transform="translate(75.971 71.911)"><path d="M389.5,234.558c-3.03,6.536-2.8,14.1-1.756,21.229s2.854,14.2,2.785,21.4-2.361,14.826-8.008,19.3c-1.607,1.272-3.456,2.27-4.8,3.815s-2.075,3.906-1,5.648,4.335,1.706,4.809-.288l-.3.5a3.193,3.193,0,0,0,2.715,4.825,14.531,14.531,0,0,0,10.318-5.068c3.693-4.275,5.159-10.009,6.13-15.576,2.978-17.077,2.4-34.77,7.112-51.451" transform="translate(-376.207 -234.558)" fill="#263238"/></g><g transform="translate(6.461 183.218)"><path d="M357.495,292.945a41.594,41.594,0,0,0,55.558,29.522c10.009-3.873,18.084-11.413,25.891-18.778A60.677,60.677,0,0,1,382.714,374.2c-12.809.768-26.585-3.146-34.641-13.136-5.621-6.969-7.9-16.195-7.81-25.148s2.375-17.74,5.057-26.285c2.3-7.31,5.9-15.508,13.3-17.508" transform="translate(-340.261 -292.119)" fill="#e8505b"/></g><g transform="translate(82.774 83.502)"><path d="M412.382,251.124c7.658,4.163,11.865,12.855,13.352,21.443s.741,17.388,1.1,26.1,2.034,17.8,7.536,24.562c5.844,7.18,14.986,10.581,23.137,14.975,18.028,9.721,32.848,26.175,38.28,45.924s.507,42.588-14.288,56.753c-13.463,12.888-33.061,17.425-51.7,17.373-13.3-.039-27.894-2.862-36.186-13.256-8.189-10.266-7.822-24.943-4.829-37.731s8.216-25.243,8.419-38.373A68.076,68.076,0,0,1,387,391.584c-1.361,1.959-3.7,4.072-5.805,2.949-2.336-1.245-1.448-4.742-.363-7.155,16.023-35.643,10.444-107.475,19.937-146.826" transform="translate(-379.725 -240.552)" fill="#263238"/><g transform="translate(15.81 6.132)"><path d="M391.556,244.092c.482-.155,19.173-3.7,16.773,14.791s-20.465,12.262-20.428,11.728S391.556,244.092,391.556,244.092Z" transform="translate(-387.901 -243.723)" fill="#ffbe9d"/><g transform="translate(6.532 6.421)"><path d="M391.3,261.24c.089-.048.292.269.8.588a3.246,3.246,0,0,0,2.4.362c2.046-.462,4.094-3.349,4.616-6.669a10.738,10.738,0,0,0-.3-4.728,3.757,3.757,0,0,0-2.1-2.787,1.657,1.657,0,0,0-2.017.636c-.313.485-.244.868-.346.888-.058.041-.358-.36-.108-1.1a2.064,2.064,0,0,1,.876-1.064,2.455,2.455,0,0,1,1.843-.24c1.414.284,2.525,1.762,2.991,3.3a11,11,0,0,1,.447,5.3c-.6,3.709-2.961,6.948-5.733,7.373a3.481,3.481,0,0,1-2.881-.872C391.279,261.692,391.235,261.265,391.3,261.24Z" transform="translate(-391.279 -247.044)" fill="#eb996e"/></g></g></g><g transform="translate(4.568 182.49)"><path d="M339.29,333.147c-.126-.079,1.133-2.235,3.142-5.714a77.774,77.774,0,0,0,6.673-14.1,34.806,34.806,0,0,0,1.667-15.3c-.532-3.949-1.661-6.217-1.479-6.287a5.167,5.167,0,0,1,.837,1.553,21.254,21.254,0,0,1,1.346,4.625,32.64,32.64,0,0,1-1.416,15.725,64.873,64.873,0,0,1-7.018,14.153c-1.085,1.7-2,3.053-2.653,3.974A5.93,5.93,0,0,1,339.29,333.147Z" transform="translate(-339.282 -291.743)" fill="#263238"/></g><g transform="translate(8.174 198.132)"><path d="M346.979,304.251c-.278.066-.8-1.574-2.458-2.688-1.619-1.168-3.34-1.093-3.374-1.377-.019-.124.41-.342,1.17-.354a5.043,5.043,0,0,1,4.591,3.2C347.157,303.75,347.1,304.228,346.979,304.251Z" transform="translate(-341.147 -299.831)" fill="#fafafa"/></g><g transform="translate(15.204 195.309)"><path d="M355.522,305.589c-.261.155-1.729-2.508-4.757-4.465-3-2.013-6.02-2.309-5.983-2.611-.05-.255,3.272-.408,6.536,1.769C354.606,302.422,355.777,305.535,355.522,305.589Z" transform="translate(-344.782 -298.372)" fill="#fafafa"/></g><g transform="translate(33.386 226.172)"><path d="M354.259,329.92c-.273-.056.228-3.593,1.118-7.9s1.831-7.75,2.1-7.692-.226,3.591-1.116,7.9S354.532,329.976,354.259,329.92Z" transform="translate(-354.185 -314.332)" fill="#fafafa"/></g><g transform="translate(63.322 231.014)"><path d="M369.972,333.5c-.278-.01-.387-3.748-.244-8.348s.483-8.325.762-8.315.387,3.744.244,8.346S370.251,333.507,369.972,333.5Z" transform="translate(-369.665 -316.836)" fill="#fafafa"/></g></g></g></g></g><g transform="translate(480.357 3803.573)"><g transform="translate(0 481.307)"><path d="M65.7,369.887,35.888,499.747l63.06.193,29.133-114.194Z" transform="translate(-35.888 -369.887)" fill="#b78876"/></g><g transform="translate(17.662 0)"><g transform="translate(260.388 271.08)"><g transform="translate(0)"><path d="M241.124,311.879c-5.993-8.04-12.881-15.754-16.04-25.27-1.528-4.6-2.123-9.47-3.749-14.031s-4.579-9.011-9.106-10.732-7.963.025-10.91,3.243l-21.64,63.291L192.156,377c12.444-2.808,28.045-6.128,39.674-11.37s19.42-13.633,20.146-26.37C252.547,329.25,247.117,319.918,241.124,311.879Z" transform="translate(-179.678 -261.171)" fill="#263238"/></g></g><g transform="translate(0 305.888)"><path d="M169.935,283.879S94.707,316.629,85.307,331.4,45.022,451.5,45.022,451.5l79.194,23.3-1.305,109.646H317.256l-1.6-193.319L291.271,284.27s-42.909-2.763-46.881-4.72S169.935,283.879,169.935,283.879Z" transform="translate(-45.022 -279.171)" fill="#16a08b"/></g><g transform="translate(246.249)"><g transform="translate(144.909 24.401)"><path d="M248.374,151.755c.621-4.434-2.481-9.305-.253-13.192,1.23-2.146,3.715-3.183,6.026-4.072a9.572,9.572,0,0,1,3.7-.884,3.271,3.271,0,0,1,3.044,1.932c.491,1.416-.42,2.932-1.481,3.991s-2.351,1.98-2.92,3.367c-.758,1.854-.064,7.671.708,9.522,1.323,3.173,5.987,17.278,6.395,20.693" transform="translate(-247.303 -133.605)" fill="#b78876"/></g><g transform="translate(130.105 4.216)"><path d="M239.648,163.034c.277-6.712,5.72-33.156,5.995-39.868,4.538,1.4,7.172,6.234,8.027,10.906s.414,9.5,1.222,14.182c1.085,6.285,4.351,11.95,7.644,17.411s6.724,10.989,8.2,17.193,7.1,22.271,2.727,26.914" transform="translate(-239.648 -123.166)" fill="#b78876"/></g><g transform="translate(0 89.333)"><path d="M301.21,167.183,274.324,294.968c-.949,5.77-101.958,93.869-101.958,93.869l19.95,79.693L323.91,339.873A53.432,53.432,0,0,0,338.3,302.389l-2.232-119.9Z" transform="translate(-172.366 -167.183)" fill="#b78876"/></g><g transform="translate(123.045)"><path d="M237.206,165.878l4.591,44.441,34.859,15.309s.425-3.158,1.924-18.554c1.653-16.994-16.611-24.284-24.744-36.82-3.483-5.368-2.57-15.232-5.26-27.453-.311-1.406-2.253-9.945-3.3-14.536a10.236,10.236,0,0,0-4.175-6.279c-1.57-1.056-3.357-1.582-4.662-.008C235.108,123.581,237.206,165.878,237.206,165.878Z" transform="translate(-235.997 -120.986)" fill="#b78876"/></g><g transform="translate(120.03 40.166)"><path d="M260.389,198.38c3.96-3.347,4.807-9.342,3.341-14.315s-4.815-9.148-8.214-13.066-6.979-7.814-9.071-12.56c-1.472-3.341-2.156-7-3.779-10.272s-4.579-6.267-8.228-6.41c2.916,18.386,2.845,28.969,8.814,49.167" transform="translate(-234.438 -141.757)" fill="#b78876"/></g><g transform="translate(119.108 40.341)"><path d="M238.434,162.607c.01.068-.139-.507-.358-1.475-.261-1.176-.57-2.572-.934-4.212-.814-3.844-1.866-8.81-3.065-14.468l-.116-.54.563-.044a9.108,9.108,0,0,1,6.5,2.431c3.044,2.591,4.432,6.23,5.445,9.311a48.726,48.726,0,0,0,3.059,8.069,24.934,24.934,0,0,0,3.4,4.691,6.974,6.974,0,0,1,1.16,1.833,12.675,12.675,0,0,1-1.46-1.582,21.224,21.224,0,0,1-3.724-4.6,44.382,44.382,0,0,1-3.312-8.114c-1.058-3.057-2.409-6.457-5.225-8.847a8.2,8.2,0,0,0-5.78-2.22l.447-.584C237.339,153.905,238.855,162.623,238.434,162.607Z" transform="translate(-233.961 -141.847)" fill="#7c5142"/></g><g transform="translate(133.743 13.353)"><path d="M247,164.33c-.277.041-1.713-8.083-3.21-18.144s-2.489-18.252-2.214-18.3,1.713,8.083,3.21,18.146S247.274,164.29,247,164.33Z" transform="translate(-241.529 -127.891)" fill="#7c5142"/></g><g transform="translate(144.54 25.721)"><path d="M252.874,159.849c.052-.008.135.211.253.683l-.3.062a101.832,101.832,0,0,1-3.51-12.641c-.831-3.73-1.443-7.139-1.8-9.616s-.485-4.026-.352-4.049c.284-.046,1.474,6.016,3.137,13.447,1.33,6,2.562,11.071,2.821,12.778l-.3.064C252.8,160.091,252.819,159.857,252.874,159.849Z" transform="translate(-247.113 -134.287)" fill="#7c5142"/></g><g transform="translate(137.546 65.816)"><path d="M263.106,164.991c-.143.085-.845-1-2.245-2.495a21.717,21.717,0,0,0-14.016-6.762c-2.04-.168-3.328-.039-3.349-.2-.021-.108,1.249-.493,3.378-.507A19.007,19.007,0,0,1,261.4,162.03,7.518,7.518,0,0,1,263.106,164.991Z" transform="translate(-243.496 -155.022)" fill="#7c5142"/></g><g transform="translate(122.884 54.978)"><path d="M245.028,187.278c-.12.048-1.054-1.938-2.29-5.258a118.773,118.773,0,0,1-6.43-26.877c-.4-3.521-.464-5.714-.336-5.726.149-.015.464,2.148,1.042,5.625s1.456,8.265,2.7,13.494,2.634,9.891,3.693,13.254S245.167,187.223,245.028,187.278Z" transform="translate(-235.914 -149.417)" fill="#7c5142"/></g></g><g transform="translate(222.652 274.998)"><path d="M160.163,301.45a12.264,12.264,0,0,1,16.472-3.85c14.2-11.542,28.708-22.861,42.906-34.4-4.633,23.137-7.687,55.57,2.645,76.785,0,0,13.088,24.338,33.933,20.614l-18.585,18.283-29.393,27.169" transform="translate(-160.163 -263.197)" fill="#16a08b"/></g><g transform="translate(217.966 308.929)"><path d="M157.813,295.934c-.249.014.015-4.3,2.734-8.727,2.68-4.453,6.389-6.673,6.49-6.447.2.242-3.082,2.723-5.629,6.971C158.809,291.944,158.119,296,157.813,295.934Z" transform="translate(-157.74 -280.744)" fill="#263238"/></g><g transform="translate(231.043 309.595)"><path d="M166.83,309.829a12.147,12.147,0,0,1-1.617-4.227,27.188,27.188,0,0,1,3.74-21.1,12.166,12.166,0,0,1,2.97-3.415c.132.114-.986,1.425-2.367,3.792a30.374,30.374,0,0,0-3.645,20.573C166.393,308.152,166.992,309.767,166.83,309.829Z" transform="translate(-164.503 -281.088)" fill="#263238"/></g><g transform="translate(257.406 292.162)"><path d="M225.159,368.007a15.614,15.614,0,0,1-4.629,1.86,25.551,25.551,0,0,1-13.546-.408c-5.594-1.568-11.622-5.594-16.288-11.678-4.74-6.051-7.953-14.052-9.713-22.644a170.468,170.468,0,0,1-2.317-44.7c.449-5.722,1.093-10.322,1.617-13.486.251-1.584.493-2.8.661-3.632a6.148,6.148,0,0,1,.309-1.251,6.13,6.13,0,0,1-.108,1.284c-.122.94-.28,2.152-.476,3.657-.4,3.173-.936,7.774-1.294,13.478a179.829,179.829,0,0,0,2.593,44.439c1.742,8.5,4.869,16.338,9.462,22.286,4.527,5.977,10.336,9.947,15.76,11.562a25.987,25.987,0,0,0,13.248.708A41.359,41.359,0,0,0,225.159,368.007Z" transform="translate(-178.136 -272.073)" fill="#fafafa"/></g><g transform="translate(79.109 411.279)"><path d="M86.435,456.455c-.277,0-.5-27.488-.5-61.388s.226-61.394.5-61.394.5,27.48.5,61.394S86.713,456.455,86.435,456.455Z" transform="translate(-85.932 -333.673)" fill="#263238"/></g><g transform="translate(50.392 353.825)"><path d="M98.741,340.2c-.207.008-.149-2.75-1.094-7.023a39.367,39.367,0,0,0-2.413-7.269,44.215,44.215,0,0,0-4.778-8.05,44.19,44.19,0,0,0-6.509-6.733,39.178,39.178,0,0,0-6.376-4.243c-3.873-2.04-6.548-2.711-6.488-2.908a7.02,7.02,0,0,1,1.889.394,14.461,14.461,0,0,1,2.154.7,24.256,24.256,0,0,1,2.767,1.178,35.972,35.972,0,0,1,6.635,4.156,38.593,38.593,0,0,1,11.556,15.135,35.854,35.854,0,0,1,2.259,7.5,23.72,23.72,0,0,1,.408,2.98,14.5,14.5,0,0,1,.108,2.262A7.039,7.039,0,0,1,98.741,340.2Z" transform="translate(-71.081 -303.962)" fill="#263238"/></g><g transform="translate(113.053 309.762)"><path d="M200.943,281.175a10.34,10.34,0,0,1,.319,1.628,37.8,37.8,0,0,1,.5,4.738,49.373,49.373,0,0,1-2.413,17.309,50.692,50.692,0,0,1-14.014,21.7c-7.257,6.679-17.7,11.248-29.037,12.132-11.349.818-22.354-2.145-30.528-7.669a50.669,50.669,0,0,1-17.092-19.368,49.351,49.351,0,0,1-4.966-16.756,37.955,37.955,0,0,1-.211-4.757,10.012,10.012,0,0,1,.073-1.657,10.394,10.394,0,0,1,.13,1.653c.012,1.085.155,2.674.4,4.714a50.669,50.669,0,0,0,22.178,35.395c8.033,5.37,18.811,8.24,29.944,7.441,11.123-.87,21.352-5.316,28.493-11.821a50.676,50.676,0,0,0,16.653-38.3c-.066-2.054-.159-3.649-.309-4.722A10.238,10.238,0,0,1,200.943,281.175Z" transform="translate(-103.485 -281.175)" fill="#263238"/></g><g transform="translate(6.919 454.046)"><path d="M119.624,379.267c-.087.263-16.06-4.776-35.668-11.254S48.513,356.064,48.6,355.8s16.054,4.774,35.672,11.256S119.711,379,119.624,379.267Z" transform="translate(-48.6 -355.789)" fill="#fafafa"/></g><g transform="translate(78.248 450.446)"><path d="M275.988,354.17c0,.278-42.646.683-95.244.9-52.615.222-95.256.176-95.257-.1s42.639-.683,95.254-.9C233.338,353.846,275.988,353.892,275.988,354.17Z" transform="translate(-85.487 -353.927)" fill="#fafafa"/></g><g transform="translate(78.252 467.017)"><path d="M276.951,363c0,.277-42.865.5-95.727.5-52.882,0-95.735-.226-95.735-.5s42.853-.5,95.735-.5C234.086,362.5,276.951,362.723,276.951,363Z" transform="translate(-85.489 -362.497)" fill="#fafafa"/></g><g transform="translate(130.838 487.988)"><path d="M225.3,373.342a10.149,10.149,0,0,1-.539,1.561l-1.735,4.411q-.58,1.447-1.276,3.181c-.5,1.149-1.1,2.369-1.719,3.7-1.272,2.632-2.593,5.7-4.428,8.9l-2.769,5.076c-.975,1.76-2.135,3.5-3.258,5.356-2.195,3.74-4.914,7.491-7.7,11.49a207.654,207.654,0,0,1-20.693,23.978A207.851,207.851,0,0,1,156.8,461.211c-4.055,2.705-7.859,5.351-11.641,7.472-1.874,1.087-3.639,2.214-5.418,3.152s-3.494,1.818-5.13,2.671c-3.231,1.773-6.323,3.032-8.98,4.252-1.338.592-2.568,1.172-3.728,1.646l-3.2,1.214-4.444,1.648a9.975,9.975,0,0,1-1.572.509,10.439,10.439,0,0,1,1.5-.7q1.621-.679,4.366-1.822,1.439-.589,3.164-1.292c1.145-.5,2.363-1.1,3.686-1.717,2.626-1.267,5.685-2.566,8.884-4.374l5.08-2.715c1.76-.953,3.51-2.092,5.366-3.189,3.748-2.145,7.516-4.8,11.537-7.514a214.166,214.166,0,0,0,24.212-20.186,213.872,213.872,0,0,0,20.65-23.808c2.79-3.964,5.523-7.681,7.739-11.386,1.133-1.835,2.307-3.56,3.293-5.3s1.918-3.421,2.816-5.024c1.87-3.164,3.229-6.2,4.546-8.8.638-1.311,1.269-2.516,1.789-3.649q.737-1.711,1.354-3.138,1.2-2.724,1.907-4.332A10.04,10.04,0,0,1,225.3,373.342Z" transform="translate(-112.683 -373.342)" fill="#263238"/></g><g transform="translate(139.655 504.808)" opacity="0.3"><path d="M213.187,382.04c-13,15.812-26.608,27.293-45.7,34.67-9.139,3.531-18.717,5.94-27.573,10.129s-17.2,10.523-21.17,19.478c-3.071,6.921-1.578,17.342,5.83,18.906,2.814.594,5.706-.313,8.41-1.292,37.8-13.7,62.641-48.272,80.2-81.891" transform="translate(-117.242 -382.04)"/></g></g><g transform="translate(83.761 123.89)"><g transform="translate(0 1.029)"><g transform="translate(0 35.761)"><path d="M113.487,204.079c-8.16,6.406-8.71,18.372-8.3,28.739s.526,22.157-6.985,29.311c-6.192,5.9-17.019,8.091-18.8,16.454a9.725,9.725,0,0,0,15.632,9.582c-2.624,6.544-1.433,14.95,4.148,19.258s15.365,2.3,17.485-4.428a8.556,8.556,0,1,0,16.642,3.862" transform="translate(-79.204 -204.079)" fill="#263238"/></g><g transform="translate(92.279 15.832)"><path d="M187.352,288.758a10.3,10.3,0,1,0,19.355-7.014c-1.607-4.011-5.716-7.048-5.913-11.365-.24-5.227,5.24-8.677,10.059-10.717s10.465-4.722,11.227-9.9c.735-5-3.568-9.119-7.168-12.66s-7.054-8.913-4.519-13.281c1.3-2.233,3.833-3.434,5.527-5.385,3.749-4.318,2.245-11.558-2.083-15.3s-10.541-4.531-16.212-3.79-11.073,2.814-16.628,4.179a68.385,68.385,0,0,1-54.071-9.756" transform="translate(-126.925 -193.773)" fill="#263238"/></g><g transform="translate(30.105)"><g transform="translate(8.789 11.282)"><path d="M100.241,255.772,120.15,371.1a37.114,37.114,0,0,0,43.1,30.222h0a37.126,37.126,0,0,0,30.439-39.839C192.781,351.26,192,342.792,192,342.792s28.89-7.422,26.393-36.785c-1.207-14.192-6.072-43.217-10.777-69.425a54.893,54.893,0,0,0-59.367-44.9l-2.831.275A54.538,54.538,0,0,0,100.241,255.772Z" transform="translate(-99.318 -191.42)" fill="#b78876"/></g><g transform="translate(47.032 54.611)"><g transform="translate(4.356 13.182)"><g transform="translate(44.222)"><g transform="translate(6.964 4.268)"><path d="M156.165,226.258a4.209,4.209,0,0,1-3.628,4.62,4.026,4.026,0,0,1-4.685-3.355,4.209,4.209,0,0,1,3.622-4.622A4.027,4.027,0,0,1,156.165,226.258Z" transform="translate(-147.817 -222.851)" fill="#263238"/></g><path d="M160.8,224.3c-.466.6-3.867-1.441-8.375-.99-4.508.387-7.588,3.026-8.131,2.524-.265-.22.168-1.259,1.506-2.448a11.564,11.564,0,0,1,6.445-2.7,11.09,11.09,0,0,1,6.731,1.472C160.462,223.092,161.028,224.034,160.8,224.3Z" transform="translate(-144.216 -220.644)" fill="#263238"/></g><g transform="translate(0 5.159)"><g transform="translate(7.09 4.256)"><path d="M133.361,228.92a4.21,4.21,0,0,1-3.628,4.62,4.025,4.025,0,0,1-4.685-3.355,4.209,4.209,0,0,1,3.624-4.622A4.027,4.027,0,0,1,133.361,228.92Z" transform="translate(-125.013 -225.513)" fill="#263238"/></g><path d="M137.929,226.971c-.468.6-3.873-1.441-8.377-.99-4.506.387-7.588,3.028-8.131,2.524-.263-.22.164-1.257,1.508-2.448a11.552,11.552,0,0,1,6.443-2.7,11.09,11.09,0,0,1,6.731,1.472C137.59,225.76,138.159,226.7,137.929,226.971Z" transform="translate(-121.347 -223.312)" fill="#263238"/></g><g transform="translate(30.437 3.293)"><path d="M142.846,259.7c-.046-.253,2.709-1.011,7.192-2.034,1.141-.23,2.206-.565,2.324-1.369.19-.859-.412-2.052-1.1-3.338q-2.03-4.017-4.258-8.431c-5.944-12.018-10.365-21.944-9.879-22.18s5.7,9.315,11.641,21.333c1.437,2.966,2.812,5.792,4.119,8.5.563,1.265,1.458,2.674,1.038,4.459a2.9,2.9,0,0,1-1.729,1.866,7.79,7.79,0,0,1-1.928.462C145.721,259.66,142.888,259.958,142.846,259.7Z" transform="translate(-137.087 -222.347)" fill="#263238"/></g></g><g transform="translate(0 1.603)"><path d="M139.473,217.278c-.325,1.269-4.883,1.125-10.108,2.278-5.248,1.048-9.363,3.013-10.171,1.982-.364-.5.267-1.721,1.876-3.077a18.009,18.009,0,0,1,15.449-3.245C138.537,215.808,139.607,216.676,139.473,217.278Z" transform="translate(-119.094 -214.656)" fill="#263238"/></g><g transform="translate(46.797)"><path d="M158.726,217.785c-.692,1.1-3.9.342-7.64.656-3.748.182-6.826,1.359-7.659.36-.369-.487.029-1.562,1.315-2.667a11.107,11.107,0,0,1,12.329-.818C158.492,216.24,159.028,217.253,158.726,217.785Z" transform="translate(-143.295 -213.827)" fill="#263238"/></g></g><g transform="translate(0 24.485)"><path d="M133.195,214.132l-.149.143a23.177,23.177,0,0,0-7.122,15.754c-.008.211-.015.412-.023.6-.333,8.477.706,16.968.29,25.442s-2.479,17.255-8.095,23.613c-2.311,2.614-6.644,4.684-9.005,2.112a7.186,7.186,0,0,1-1.417-3.732c-3.533-20.045-10.8-37.429-12.817-58.553a17.89,17.89,0,0,1,5.975-15.215c4.115-3.6,9.195-7.412,14.335-5.565,5.155,1.853,12.4,10.427,16.6,13.956" transform="translate(-94.773 -198.248)" fill="#263238"/></g><g transform="translate(2.526 87.541)"><path d="M114.447,231.256c-.522-.168-20.733-4-18.138,15.992s22.128,13.262,22.089,12.683S114.447,231.256,114.447,231.256Z" transform="translate(-96.079 -230.856)" fill="#b78876"/><g transform="translate(5.236 6.943)"><path d="M108.779,249.8c-.095-.054-.315.288-.87.634a3.518,3.518,0,0,1-2.6.393c-2.212-.5-4.426-3.624-4.991-7.213a11.611,11.611,0,0,1,.329-5.113,4.055,4.055,0,0,1,2.272-3.013,1.789,1.789,0,0,1,2.179.686c.34.524.265.94.375.961.062.042.385-.391.116-1.2a2.237,2.237,0,0,0-.948-1.151,2.65,2.65,0,0,0-1.992-.259c-1.528.307-2.732,1.9-3.235,3.572a11.913,11.913,0,0,0-.483,5.728c.65,4.012,3.2,7.513,6.2,7.973a3.763,3.763,0,0,0,3.115-.942C108.806,250.287,108.854,249.826,108.779,249.8Z" transform="translate(-98.787 -234.446)" fill="#7c5142"/></g></g><g transform="translate(18.569)"><path d="M105.825,213.722c-5.718-7.542,6.685-20.378,16.276-24.462s23.1-.532,33.266,1.775c6.414,1.454,12.888,3.726,19.4,2.817,4.368-.607,8.4-2.611,12.4-4.477s8.172-3.655,12.581-3.784,9.147,1.764,11.2,5.664.22,9.7-4.069,10.73c5.252-3.591,13.67-.365,15.182,5.815s-4.459,12.925-10.779,12.177c2.641-2.438,7.36.706,7.356,4.3s-2.982,6.5-6.116,8.257c-8,4.488-17.868,4.266-26.807,2.2s-17.407-5.824-26.293-8.118-23.8-6.5-32.119-2.626c-6.124,2.854-9.792,10.922-13.536,9.585-3.62-1.292-6.167-4.7-7.226-8.4s-.891-7.615-.717-11.453" transform="translate(-104.376 -185.586)" fill="#263238"/></g></g></g><g transform="translate(51.246 81.087)"><path d="M105.705,238.3c.576,10.595,1.164,21.259,3.635,31.578s6.961,20.385,14.4,27.952c9.75,9.914,22.358,19.42,36.08,21.677,14.986,2.466,33.318-.652,45.516-9.7,5.786-4.291,10-13.559,8.2-20.536a15.277,15.277,0,0,0,8.708-12.776c.3-5.409-3-12.173-7.282-12.9,3.224-.53,4.132-5.631,2.928-8.522-1.255-3.015-5.457-3.749-8.665-3.133s-6,2.512-8.64,4.444-5.273,3.982-8.379,4.991c-10.363,3.37-20.869-5.77-31.758-5.347-9.845.381-18.606,8.555-28.362,7.182-5.453-.766-10.144-4.537-13.151-9.15s-1.7-21.691-2.883-27.068" transform="translate(-105.705 -226.987)" fill="#263238"/></g><g transform="translate(114.667 136.296)"><g opacity="0.6"><path d="M154.08,257.66a15.339,15.339,0,0,1-2.4-.719,12.794,12.794,0,0,0-11.171,2.023c-1.232.89-1.882,1.609-2,1.516-.091-.066.385-.953,1.576-2.034a11.514,11.514,0,0,1,11.8-2.137C153.387,256.9,154.142,257.567,154.08,257.66Z" transform="translate(-138.502 -255.537)" fill="#455a64"/></g></g><g transform="translate(108.545 116.2)"><path d="M135.869,245.147c.729-.114,1.214,4.778,5.739,7.841s9.682,2.019,9.787,2.7c.1.3-1.069,1.064-3.264,1.338a12.242,12.242,0,0,1-8.141-1.976,10.668,10.668,0,0,1-4.5-6.606C135.1,246.417,135.531,245.153,135.869,245.147Z" transform="translate(-135.336 -245.145)" fill="#fff"/></g><g transform="translate(94.532 105.778)"><path d="M128.09,304.3a6.785,6.785,0,0,1,1.263.466c.824.306,2.042.742,3.651,1.183a64.978,64.978,0,0,0,13.915,2.185,61.543,61.543,0,0,0,9.719-.2,52.839,52.839,0,0,0,10.92-2.131,43.75,43.75,0,0,0,11.14-5.08,33.632,33.632,0,0,0,9.645-8.777c3.08-4.32,4.653-9.719,3.823-14.491l-.073-.416.36-.153a15.487,15.487,0,0,0,6.043-4.979,17.108,17.108,0,0,0,1.945-3.247,11.5,11.5,0,0,0,.87-3.5,13.85,13.85,0,0,0-4.654-11.7l-.277-.234.226-.28A8.156,8.156,0,0,0,197.793,245a7.692,7.692,0,0,0-4.449-4.359,8.544,8.544,0,0,0-4.03-.561c-.94.108-1.419.28-1.435.23a4.854,4.854,0,0,1,1.406-.439,8.267,8.267,0,0,1,4.2.389,8.075,8.075,0,0,1,4.848,4.523,8.753,8.753,0,0,1-1.158,8.634l-.05-.512a14.572,14.572,0,0,1,5.064,12.349,12.331,12.331,0,0,1-.913,3.78,17.8,17.8,0,0,1-2.032,3.444,16.349,16.349,0,0,1-6.418,5.32l.288-.567c.926,5.223-.752,10.771-3.949,15.3a34.352,34.352,0,0,1-9.943,9.032,44.217,44.217,0,0,1-11.4,5.134,52.947,52.947,0,0,1-11.111,2.075,64.84,64.84,0,0,1-23.822-2.446,30.9,30.9,0,0,1-3.618-1.371A6.867,6.867,0,0,1,128.09,304.3Z" transform="translate(-128.09 -239.756)" fill="#455a64"/></g><g transform="translate(3.202 34.457)"><path d="M84.528,287.72a3,3,0,0,1-1.019-.5,5.81,5.81,0,0,1-2.028-2.554,8.594,8.594,0,0,1-.4-5.153,10.393,10.393,0,0,1,3.844-5.652,25.718,25.718,0,0,1,7.342-3.815,47.488,47.488,0,0,0,8.549-3.634,16.749,16.749,0,0,0,6.445-7.578,27.572,27.572,0,0,0,2.274-10.636c.162-7.569-1.588-14.733-1.781-21.414-.3-6.644.977-12.888,4.011-17.073a16.047,16.047,0,0,1,9.75-6.625,11.369,11.369,0,0,1,3.251-.164,4.686,4.686,0,0,1,1.11.224,16.708,16.708,0,0,0-4.279.325,15.962,15.962,0,0,0-9.247,6.648c-2.831,4.055-4.014,10.1-3.666,16.628.23,6.561,2.017,13.716,1.86,21.478a28.347,28.347,0,0,1-2.384,11.018A17.6,17.6,0,0,1,101.3,267.2a46.947,46.947,0,0,1-8.75,3.628,25.436,25.436,0,0,0-7.186,3.589,9.882,9.882,0,0,0-3.738,5.227,8.34,8.34,0,0,0,.219,4.875A6.513,6.513,0,0,0,84.528,287.72Z" transform="translate(-80.86 -202.873)" fill="#455a64"/></g><g transform="translate(51.021 15.815)"><path d="M206.406,194.454a4.575,4.575,0,0,1,.884-.414,5.978,5.978,0,0,1,1.131-.383,8.532,8.532,0,0,1,1.613-.329,11.958,11.958,0,0,1,9.85,3.541l0,0,.01.014a15.989,15.989,0,0,1,2.99,11.983,19.717,19.717,0,0,1-7.93,13.1,30.418,30.418,0,0,1-16.81,5.838,67.363,67.363,0,0,1-19.527-2.146,88.616,88.616,0,0,1-28.331-12.546,89.906,89.906,0,0,0-11.616-6.762,32,32,0,0,0-11.216-2.862,33.725,33.725,0,0,0-16.448,3.057,58.127,58.127,0,0,0-5.42,3.069,23.3,23.3,0,0,1,5.248-3.423,33.281,33.281,0,0,1,16.665-3.415,32.457,32.457,0,0,1,11.511,2.81,88.612,88.612,0,0,1,11.774,6.745,88.973,88.973,0,0,0,28.07,12.349,67.138,67.138,0,0,0,19.227,2.15,29.689,29.689,0,0,0,16.334-5.571,18.994,18.994,0,0,0,7.721-12.49,15.469,15.469,0,0,0-2.7-11.531l.014.017a11.776,11.776,0,0,0-9.39-3.622A22.864,22.864,0,0,0,206.406,194.454Z" transform="translate(-105.589 -193.232)" fill="#455a64"/></g><g transform="translate(48.65)"><path d="M197.306,185.054a11.308,11.308,0,0,1-.913,4.426,18.753,18.753,0,0,1-8.263,9.023,23.549,23.549,0,0,1-8.068,2.895,33.64,33.64,0,0,1-9.823.039c-6.9-.855-14.041-3.575-21.549-5.913-7.482-2.338-15.056-3.726-21.7-2.291a28.55,28.55,0,0,0-15.253,8.887,29.662,29.662,0,0,0-6.18,10.371c-.893,2.74-1.06,4.349-1.18,4.328a5.046,5.046,0,0,1,.108-1.162,22.832,22.832,0,0,1,.7-3.283A29.646,29.646,0,0,1,126.8,192.323c6.882-1.535,14.656-.116,22.188,2.237,7.571,2.359,14.623,5.072,21.379,5.958a33.249,33.249,0,0,0,9.57.054,23.067,23.067,0,0,0,7.845-2.69,18.806,18.806,0,0,0,8.253-8.555A26.087,26.087,0,0,0,197.306,185.054Z" transform="translate(-104.363 -185.054)" fill="#455a64"/></g></g><text transform="translate(188.478 441.678)" fill="#363636" font-size="19" font-family="ArialRoundedMT, Arial Rounded MT" letter-spacing="-0.02em"><tspan x="-71.269" y="0">MercadoExpress</tspan></text></g><g transform="translate(853.159 4308.36)"><g transform="translate(0 0)"><g transform="translate(15.871)"><path d="M244.234,382.029c5.471.717,10.336,4.19,13.561,8.667a36.258,36.258,0,0,1,5.859,15.323c1.766,10.527-1.083,22.482-4.987,32.415-10.732-5.035-16.452-17.543-18.954-24.069-3.956-10.316-4.84-31.363,4.521-32.336" transform="translate(-236.884 -382.029)" fill="#e8505b"/></g><g transform="translate(50.899 42.057)"><path d="M257.575,432.941c-3.405-5.138-3.324-12.169-.414-17.6a23.285,23.285,0,0,1,14.283-10.945c2.742-.774,5.911-1.052,8.243.586a7.5,7.5,0,0,1,2.723,7.095,15.217,15.217,0,0,1-3.376,7.141c-5.6,7.221-12.339,13.182-21.459,13.726" transform="translate(-254.998 -403.778)" fill="#16a08b"/></g><g transform="translate(49.76 53.317)"><path d="M255.414,460.848a8.157,8.157,0,0,1-.358-2.216c-.153-1.431-.331-3.506-.474-6.078a75.274,75.274,0,0,1,1.226-20.119c1.706-7.783,5.478-14.219,9.145-17.918a24.738,24.738,0,0,1,4.749-3.9,6.945,6.945,0,0,1,2.013-1.009c.137.2-2.759,1.68-6.142,5.484a39.594,39.594,0,0,0-8.6,17.6,87.142,87.142,0,0,0-1.549,19.83C255.511,457.654,255.592,460.839,255.414,460.848Z" transform="translate(-254.409 -409.601)" fill="#263238"/></g><g transform="translate(25.706 15.966)"><path d="M241.982,390.286a21.8,21.8,0,0,1,1.354,3.444c.8,2.239,1.9,5.5,3.222,9.543,2.641,8.085,6.107,19.314,9.626,31.8s6.424,23.885,8.39,32.158c.986,4.138,1.746,7.493,2.233,9.821a22.07,22.07,0,0,1,.642,3.643,21.737,21.737,0,0,1-1.094-3.533c-.669-2.5-1.543-5.774-2.6-9.725-2.175-8.214-5.208-19.556-8.721-32.04s-6.849-23.735-9.282-31.878c-1.162-3.922-2.123-7.172-2.858-9.653A21.677,21.677,0,0,1,241.982,390.286Z" transform="translate(-241.97 -390.286)" fill="#263238"/></g><g transform="translate(0 57.561)"><path d="M267.859,435.463a41.027,41.027,0,0,0-29.315-23.354c-3.249-.621-7.255-.532-9.063,2.239s-.261,6.5,1.688,9.177a35.046,35.046,0,0,0,36.708,12.834" transform="translate(-228.677 -411.796)" fill="#16a08b"/></g><g transform="translate(13.434 67.197)"><path d="M235.624,416.81a7.368,7.368,0,0,1,2.139.217,17.515,17.515,0,0,1,2.466.524,29.255,29.255,0,0,1,3.2.961,43.215,43.215,0,0,1,7.892,3.68,46.113,46.113,0,0,1,15.236,14.75,43.255,43.255,0,0,1,3.933,7.77,29.2,29.2,0,0,1,1.064,3.169,17.575,17.575,0,0,1,.6,2.446,7.426,7.426,0,0,1,.286,2.129c-.228.052-.814-2.949-2.736-7.424a48.385,48.385,0,0,0-4.072-7.489,48.791,48.791,0,0,0-14.886-14.412,48.208,48.208,0,0,0-7.615-3.827C238.6,417.527,235.58,417.038,235.624,416.81Z" transform="translate(-235.624 -416.779)" fill="#263238"/></g></g></g></g></svg>