<svg xmlns="http://www.w3.org/2000/svg" xmlns:xlink="http://www.w3.org/1999/xlink" width="1100.131" height="1012.649" viewBox="0 0 1100.131 1012.649"><defs><linearGradient id="a" x1="0.5" x2="0.5" y2="1" gradientUnits="objectBoundingBox"><stop offset="0" stop-color="#74ddc3"/><stop offset="0.828" stop-color="#76dbc2"/><stop offset="1" stop-color="#878cf0"/></linearGradient></defs><g transform="translate(-425.682 -5406.789)"><g transform="translate(647.016 252.047)"><path d="M0,477.987,832.848,876.211l-23.82-594.635L215.575,0,49.354,84.287Z" transform="translate(603.409 6138.335) rotate(-172)" fill="#54b192"/><ellipse cx="265" cy="261" rx="265" ry="261" transform="matrix(-0.996, -0.087, 0.087, -0.996, 766.77, 6167.391)" fill="#54b192"/></g><g transform="translate(942.601 5619.419)"><g transform="translate(0 0)"><g transform="translate(0 23.851)"><g transform="translate(0.444 0.356)"><path d="M173.5,110.238c-31.063,48.864-29.03,116.606,4.911,163.517,22.625,31.272,56.566,52.232,83.517,79.864s47.418,68.351,33.2,104.233c-14.479,36.529-56.889,51.39-88.647,74.528a167.549,167.549,0,0,0-40.416,228.854H495.958s57.95-110.443-16.558-194.609S364.88,481.079,367.641,425.89s41.392-73.128,63.469-93.825,129.7-68.987,66.227-221.827Z" transform="translate(-137.666 -110.238)" fill="#fafafa"/></g><path d="M173.719,110.41s1.916-.029,5.679-.045l16.723-.046c14.723-.019,36.423-.052,64.375-.091l237.055-.174h.244l.087.221c4.508,11.448,9.063,23.231,12.292,35.722a208.177,208.177,0,0,1,7.009,38.817,154.09,154.09,0,0,1-2.093,40.976,131.677,131.677,0,0,1-14.911,39.833,145.21,145.21,0,0,1-12.425,18.029,168.111,168.111,0,0,1-15.2,16.258,224.2,224.2,0,0,1-17.249,14.6c-6,4.644-12.269,9.034-18.388,13.668-3.064,2.309-5.861,4.9-8.782,7.5-2.935,2.546-5.956,5.006-9.005,7.441-6.1,4.876-12.253,9.75-18.066,15.087-11.732,10.5-21.643,23.6-27.094,38.86a94.4,94.4,0,0,0-5.159,23.755c-.164,2.038-.437,4.075-.513,6.125-.041,2.05-.157,4.1-.06,6.158a70.162,70.162,0,0,0,1.239,12.275,56.034,56.034,0,0,0,9.9,22.6c4.876,6.793,10.888,12.774,17.11,18.525,12.526,11.452,25.809,22.383,38.535,34.185q19.181,17.6,37.166,37.151c5.933,6.533,11.969,13.107,17.156,20.4a143.2,143.2,0,0,1,13.829,23.06,151.352,151.352,0,0,1,14.206,52.313,191.655,191.655,0,0,1-3.211,54.994,225.884,225.884,0,0,1-7.079,26.978,196.677,196.677,0,0,1-10.474,26.059l-.134.269h-8.806l-321.4-.021h-.257l-.141-.215A170.09,170.09,0,0,1,138.257,683.8a164.186,164.186,0,0,1,11.413-78.6,171.113,171.113,0,0,1,43.608-62.286c9.21-8.432,19.481-15.333,29.772-21.717s20.685-12.307,30.507-18.777c9.777-6.487,19.2-13.391,26.85-21.845a73.366,73.366,0,0,0,16.616-28.8c3.086-10.588,3.115-21.694,1.31-32.151a104.706,104.706,0,0,0-10.2-29.557,144.528,144.528,0,0,0-16.6-25.223,200.933,200.933,0,0,0-20.093-20.964c-13.966-12.857-28.256-24.1-41.121-35.654-6.442-5.765-12.549-11.583-18.167-17.563A163.745,163.745,0,0,1,177.095,272.1a141.441,141.441,0,0,1-18.875-39.123,146.065,146.065,0,0,1-6.425-37.054c-.271-2.88-.163-5.707-.159-8.465.037-2.757-.046-5.455.238-8.07q.3-3.929.59-7.66c.3-2.474.707-4.868,1.039-7.2a137.62,137.62,0,0,1,12.938-41.082,55.331,55.331,0,0,1,2.985-5.753q1.411-2.41,2.367-4.038c1.27-2.16,1.924-3.24,1.924-3.24-.134.238-.672,1.189-1.87,3.3q-.935,1.629-2.319,4.046a56.393,56.393,0,0,0-2.938,5.755,138.5,138.5,0,0,0-12.766,41.059c-.327,2.333-.728,4.721-1.02,7.191q-.276,3.722-.569,7.644c-.279,2.609-.19,5.3-.221,8.051,0,2.751-.1,5.571.178,8.444a145.786,145.786,0,0,0,6.477,36.936,141.11,141.11,0,0,0,18.866,38.951,163.279,163.279,0,0,0,15.035,18.482c5.61,5.954,11.711,11.754,18.151,17.5,12.861,11.523,27.164,22.749,41.169,35.615a201.733,201.733,0,0,1,20.182,21.014,145.287,145.287,0,0,1,16.707,25.331,105.47,105.47,0,0,1,10.292,29.758c1.827,10.546,1.81,21.775-1.3,32.5A74.169,74.169,0,0,1,281,481.118c-7.714,8.535-17.185,15.48-26.988,21.992-9.847,6.5-20.238,12.42-30.515,18.81s-20.48,13.248-29.638,21.64a170.293,170.293,0,0,0-43.349,61.986,163.271,163.271,0,0,0-11.318,78.169,169.166,169.166,0,0,0,27.491,77.423l-.4-.213,321.4-.023h8.494l-.447.271a196.134,196.134,0,0,0,10.41-25.9,225.119,225.119,0,0,0,7.048-26.86,190.691,190.691,0,0,0,3.2-54.708,150.417,150.417,0,0,0-14.106-51.974,142.393,142.393,0,0,0-13.734-22.906c-5.149-7.24-11.148-13.779-17.083-20.315q-17.909-19.506-37.1-37.1c-12.706-11.792-25.966-22.708-38.527-34.2-6.239-5.772-12.292-11.792-17.234-18.676a57.032,57.032,0,0,1-10.054-22.971,71.271,71.271,0,0,1-1.25-12.435c-.1-2.079.019-4.15.062-6.219.077-2.067.352-4.119.519-6.175a95.391,95.391,0,0,1,5.219-23.98c5.513-15.416,15.554-28.666,27.354-39.212,5.846-5.364,12.027-10.252,18.118-15.12,3.049-2.431,6.063-4.882,8.98-7.412,2.871-2.551,5.745-5.209,8.831-7.532,6.15-4.654,12.4-9.028,18.393-13.659a223.209,223.209,0,0,0,17.191-14.535,167.519,167.519,0,0,0,15.128-16.165A144.273,144.273,0,0,0,499.456,265.2a130.822,130.822,0,0,0,14.843-39.57,153.338,153.338,0,0,0,2.108-40.761,207.369,207.369,0,0,0-6.955-38.682c-3.206-12.456-7.741-24.216-12.23-35.645l.329.221-236.914-.174-64.423-.093-16.765-.045C175.668,110.441,173.719,110.41,173.719,110.41Z" transform="translate(-137.436 -110.054)" fill="#263238"/></g><g transform="translate(31.058 85.127)"><path d="M469.373,170.406c48.589,7.985-28.02,94.04-71.384,128-25.108,19.663-52.073,40.985-64,70.563-13.529,33.556-3.5,71.276-10.058,105.033-1.09,5.6-9.373,4.723-9.29-.985.321-22.158-.269-44.305-3.941-66.119-5.207-30.939-17.1-61.547-38.786-84.222-17.7-18.508-40.91-30.807-59.791-48.109-27.567-25.261-55.883-57.845-58.645-95.133,0,0,52.927-42.633,82.307-37.251,34.332,6.289,68.134,59.268,121.334,53.2C394.268,191.143,413.014,161.141,469.373,170.406Z" transform="translate(-153.481 -141.709)" fill="url(#a)"/></g><g transform="translate(17.862 517.292)"><path d="M480.067,422.095c-1.227-12.153-4.468-25.9-15.252-31.634-6.533-3.473-14.487-3.087-21.641-1.206S429.3,394.391,422.2,396.5a68.715,68.715,0,0,1-42.905-1.359c-13.182-4.843-24.5-13.6-36.738-20.48s-26.57-12.009-40.2-8.618c-23.5,5.848-35.728,34.139-58.962,40.97-10.325,3.035-21.415,1.332-31.912-1.047s-21.036-5.43-31.79-5.029c-8.428.315-17.2,3.229-23.1,9.005l.062-.081c-.06.06-.112.126-.17.186a24.031,24.031,0,0,0-2.664,3.122c-7.207,9.607-8.358,22.524-6.142,34.255,2.482,13.136,8.618,25.275,15.2,36.909,7.757,13.7,16.566,27.344,29.39,36.479,15.819,11.27,35.714,3.492,55.077,5.019,45.166,3.564,93.761,6,138.931,2.5,23.86-1.851,46.225.736,65.159-13.9,13.322-10.3,21.984-25.821,26.161-42.133S481.759,438.847,480.067,422.095Z" transform="translate(-146.664 -364.966)" fill="#878cf0"/></g><g transform="translate(258.839 551.147)" opacity="0.24"><path d="M278.337,382.456c-2.551,3.9-3.637,9.137-1.179,13.1s5.782,7.567,6.849,12.108c1.674,7.131-2.619,14.106-5.823,20.695-5.726,11.787-8.331,25.232-6.4,38.194s8.581,25.343,18.955,33.351c4.588,3.54,10.548,6.285,16.076,4.551,5.205-1.632,8.571-6.913,9.605-12.271s.18-10.871-.5-16.283a253.318,253.318,0,0,1,1.911-75.645c.739-4.166,1.446-8.926-1.2-12.232-1.686-2.112-4.377-3.107-6.942-3.961-10.068-3.351-20.933.374-31.357-1.607" transform="translate(-271.153 -382.456)"/></g><g transform="translate(4.625 666.612)"><path d="M139.832,465.672s-.908-15.139,18.84-23.568H505.656s18.093,9.156,20.319,23.256Z" transform="translate(-139.826 -442.105)" fill="#263238"/></g><g transform="translate(28.623)"><path d="M486.7,123.784c-.18.087-.364.172-.55.256l-326.269-2.1s-1.158-.741-2.892-2.1c-9.3-7.269-4.079-22.2,7.722-22.108L481.38,100.29C494.452,100.395,498.521,118.2,486.7,123.784Z" transform="translate(-152.223 -97.733)" fill="#263238"/></g><g transform="translate(94.708 146.425)" opacity="0.24"><path d="M402.538,177.462c.656,1.258-1.793,3.98-6.469,8.13-4.694,4.156-11.543,9.857-20.252,16.876-8.753,6.963-19.361,15.356-32.871,23.188A133.1,133.1,0,0,1,320.407,236a105.493,105.493,0,0,1-12.952,3.581,85.748,85.748,0,0,1-14,1.822,74.789,74.789,0,0,1-28.128-3.844,101.528,101.528,0,0,1-22.6-11.537c-6.5-4.313-12.11-8.569-17.395-12.642-5.263-4.086-10.06-8.022-14.348-11.725-17.139-14.851-26.152-25.768-24.413-27.876,1.8-2.191,13.928,4.754,32.834,16.372l15.443,9.483c5.542,3.376,11.5,7.1,17.582,10.546a97.872,97.872,0,0,0,19.059,8.614,60.85,60.85,0,0,0,20.979,2.472c14.861-.757,29.282-5.993,41.777-12.025,12.557-6.146,23.788-13.1,33.585-18.583,9.783-5.546,18.151-9.644,24.241-11.822S401.907,176.252,402.538,177.462Z" transform="translate(-186.362 -173.376)"/></g><g transform="translate(189.034 457.601)"><path d="M238.521,334.386c3.581-1.26,7.861,2.342,7.23,6.086s-5.858,5.743-8.827,3.378-2.187-7.9,1.32-9.357" transform="translate(-235.091 -334.13)" fill="#878cf0"/></g><g transform="translate(29.86 57.035)"><path d="M198.766,274.669a9.961,9.961,0,0,1-1.152-1.161q-1.176-1.289-3.159-3.465c-1.336-1.537-3.093-3.314-4.89-5.585-1.825-2.269-3.889-4.837-6.163-7.667-2.1-2.975-4.491-6.181-6.893-9.733q-1.713-2.724-3.537-5.629c-.6-.974-1.247-1.936-1.825-2.958l-1.7-3.142a130.571,130.571,0,0,1-12.021-28.939,121.593,121.593,0,0,1-4.563-31.01c-.008-2.412.126-4.768.18-7.054.052-1.142.033-2.273.145-3.376s.234-2.187.348-3.256c.244-2.131.414-4.2.7-6.169q.531-2.938,1.02-5.637c.554-3.61,1.508-6.777,2.191-9.592.372-1.4.662-2.716,1.032-3.9s.736-2.247,1.055-3.225q.938-2.793,1.492-4.448a9.86,9.86,0,0,1,.585-1.527,10.183,10.183,0,0,1-.393,1.593q-.485,1.672-1.309,4.5-.438,1.475-.968,3.24c-.341,1.189-.6,2.509-.949,3.908-.629,2.817-1.531,5.981-2.036,9.582-.3,1.791-.621,3.666-.952,5.616-.263,1.963-.412,4.021-.637,6.14q-.157,1.591-.319,3.237c-.1,1.1-.075,2.22-.122,3.355-.037,2.271-.157,4.607-.136,7a123.128,123.128,0,0,0,4.6,30.751,132.394,132.394,0,0,0,11.866,28.767q.848,1.585,1.674,3.132c.569,1.02,1.21,1.982,1.8,2.954l3.477,5.629c2.36,3.556,4.706,6.771,6.765,9.764,2.224,2.857,4.243,5.447,6.028,7.737,1.75,2.3,3.461,4.11,4.748,5.685q1.9,2.253,3.016,3.587A10.113,10.113,0,0,1,198.766,274.669Z" transform="translate(-152.862 -127.197)" fill="#263238"/></g><g transform="translate(57.393 268.325)"><path d="M167.087,460.107a3.785,3.785,0,0,1,.362-.637c.286-.451.666-1.053,1.152-1.82l1.9-2.944,1.221-1.876c.476-.641,1.034-1.283,1.6-1.986q1.716-2.1,3.8-4.64c1.491-1.6,3.2-3.268,4.988-5.1A134.212,134.212,0,0,1,195.4,429.925c10.275-7.789,23.531-15.527,37.9-24.559a218.393,218.393,0,0,0,21.732-15.31,102.161,102.161,0,0,0,19.5-20.61c10.937-16.26,15.379-35.1,15.767-51.936a123.017,123.017,0,0,0-7.42-44.123,164.524,164.524,0,0,0-12.822-27.5c-1.792-3.109-3.266-5.48-4.28-7.075-.478-.767-.856-1.37-1.138-1.825a3.758,3.758,0,0,1-.36-.641,4.024,4.024,0,0,1,.445.585l1.223,1.771c1.07,1.56,2.6,3.9,4.446,6.986a157.427,157.427,0,0,1,13.157,27.456,122.508,122.508,0,0,1,7.677,44.384,101.069,101.069,0,0,1-1.069,13.055,95.436,95.436,0,0,1-2.834,13.37,91.2,91.2,0,0,1-11.959,26.055,102.562,102.562,0,0,1-19.714,20.809,216.256,216.256,0,0,1-21.86,15.331c-14.421,9.005-27.683,16.661-37.971,24.344A137.786,137.786,0,0,0,182.5,441.514c-1.8,1.8-3.517,3.436-5.021,5.013q-2.105,2.494-3.846,4.561c-.573.689-1.14,1.32-1.628,1.949q-.668.981-1.252,1.841-1.161,1.69-1.978,2.882l-1.235,1.763A4.181,4.181,0,0,1,167.087,460.107Z" transform="translate(-167.085 -236.35)" fill="#263238"/></g><g transform="translate(22.984 526.286)"><path d="M165.718,369.613a3.755,3.755,0,0,1-.424.9l-1.378,2.462c-.623,1.055-1.363,2.356-2.11,3.928-.763,1.562-1.729,3.291-2.544,5.321q-.653,1.51-1.363,3.147c-.467,1.1-.848,2.28-1.3,3.482-.947,2.391-1.68,5.037-2.516,7.8a104.613,104.613,0,0,0-3.415,37.209c.321,2.869.559,5.606,1.055,8.128.228,1.264.387,2.5.648,3.66s.521,2.274.767,3.343c.432,2.145,1.067,4.021,1.531,5.695.449,1.682.939,3.1,1.361,4.245.362,1.07.662,1.953.906,2.673a3.669,3.669,0,0,1,.254.958,3.55,3.55,0,0,1-.441-.883c-.294-.7-.652-1.568-1.088-2.613a40.918,40.918,0,0,1-1.527-4.21c-.521-1.669-1.206-3.542-1.686-5.693q-.4-1.609-.836-3.353c-.283-1.169-.463-2.408-.71-3.68-.534-2.538-.809-5.294-1.158-8.188a100.992,100.992,0,0,1,3.446-37.544c.869-2.78,1.64-5.441,2.627-7.84.474-1.2.877-2.391,1.367-3.486s.976-2.141,1.432-3.146c.863-2.027,1.88-3.746,2.695-5.292a41.122,41.122,0,0,1,2.269-3.862l1.545-2.371A3.548,3.548,0,0,1,165.718,369.613Z" transform="translate(-149.31 -369.612)" fill="#263238"/></g><g transform="translate(99.351 572.806)"><path d="M368.128,393.647a1.822,1.822,0,0,1-.393.286l-1.206.755-4.7,2.82q-1.548.918-3.409,2.021c-1.268.7-2.7,1.363-4.2,2.125-3.045,1.469-6.427,3.339-10.414,4.847l-6.185,2.536c-2.158.865-4.487,1.535-6.854,2.354-4.712,1.721-9.926,2.946-15.379,4.369a197,197,0,0,1-36.3,4.655,197.071,197.071,0,0,1-36.5-2.755c-5.519-1.136-10.792-2.089-15.588-3.562-2.406-.693-4.766-1.239-6.967-1.99q-3.287-1.153-6.309-2.213c-4.063-1.295-7.536-2.987-10.652-4.3-1.547-.683-3.006-1.272-4.309-1.9l-3.509-1.839q-3.066-1.632-4.837-2.573l-1.245-.691a.245.245,0,1,1,.05-.091l1.291.6,4.915,2.4q1.606.8,3.538,1.756c1.31.6,2.78,1.165,4.33,1.822,3.128,1.254,6.607,2.894,10.668,4.142l6.3,2.139c2.2.728,4.551,1.254,6.951,1.928,4.781,1.431,10.035,2.346,15.53,3.451a200.734,200.734,0,0,0,36.316,2.663,200.958,200.958,0,0,0,36.119-4.555c5.428-1.39,10.627-2.578,15.327-4.259,2.362-.8,4.686-1.444,6.841-2.286l6.183-2.466c3.99-1.458,7.379-3.275,10.437-4.692,1.514-.738,2.952-1.374,4.23-2.046l3.442-1.938,4.783-2.654c.509-.271.923-.49,1.258-.67A1.735,1.735,0,0,1,368.128,393.647Z" transform="translate(-188.761 -393.645)" fill="#263238"/></g><g transform="translate(111.026 163.129)"><path d="M382.673,182.007a2.332,2.332,0,0,1-.412.383c-.329.273-.747.618-1.268,1.045l-4.942,3.945c-4.307,3.4-10.532,8.343-18.4,14.226a267.162,267.162,0,0,1-28.792,19.034,131.077,131.077,0,0,1-18.548,8.533,84.5,84.5,0,0,1-21.4,4.762,81.507,81.507,0,0,1-41.125-8.554,140.065,140.065,0,0,1-15.883-9.446c-4.727-3.335-9.042-6.562-12.859-9.655-7.665-6.15-13.67-11.355-17.842-14.923l-4.781-4.135-1.229-1.094a2.223,2.223,0,0,1-.395-.4,2.369,2.369,0,0,1,.461.319l1.293,1.018,4.905,3.99c4.249,3.475,10.323,8.6,18.029,14.663,3.839,3.053,8.165,6.235,12.89,9.526a142.193,142.193,0,0,0,15.819,9.3c11.572,5.645,25.736,9.39,40.643,8.382a84.059,84.059,0,0,0,21.142-4.684,131.776,131.776,0,0,0,18.434-8.417,277.084,277.084,0,0,0,28.817-18.8c7.911-5.8,14.2-10.652,18.585-13.961l5.056-3.8,1.332-.966A2.423,2.423,0,0,1,382.673,182.007Z" transform="translate(-194.793 -182.005)" fill="#263238"/></g><g transform="translate(124.328 582.684)" opacity="0.24"><path d="M201.664,405.132c9.171-7.083,22.06-5.366,33.4-2.983s22.764,6.262,34.241,4.655c8.649-1.21,16.583-5.467,25.118-7.315s18.893-.482,23.624,6.858a183.882,183.882,0,0,1-116.384-1.216" transform="translate(-201.664 -398.748)"/></g></g></g><g transform="translate(1204.28 5895.701)"><g transform="translate(0 0)"><g transform="translate(0 119.356)"><g transform="translate(14.087)"><path d="M448.571,443.022l-41.69-46.678-.422,56.74,12.547,36.392-124.7,21.63-5.288-98.393-8.976-75.565A20.519,20.519,0,0,1,292.9,315.635l34.317-13.515,48.335,8.868,19.444,7.391a53.315,53.315,0,0,1,21.189,14.737l58.531,66.934" transform="translate(-279.897 -302.12)" fill="#e8505b"/><g transform="translate(124.062 53.972)"><path d="M343.987,359.092c.01-.2,2.743.205,7.042-.5a28.577,28.577,0,0,0,23.44-21.616c1.045-4.228.863-6.984,1.063-6.978a6.136,6.136,0,0,1,.176,1.916,24.658,24.658,0,0,1-.544,5.223,27.937,27.937,0,0,1-24.032,22.16,24.666,24.666,0,0,1-5.25.122A6.1,6.1,0,0,1,343.987,359.092Z" transform="translate(-343.987 -330.002)" fill="#fff"/></g><g transform="translate(126.711 60.757)"><path d="M346.353,421.3c.29,0,.366-19.659.168-43.9s-.6-43.895-.887-43.893-.368,19.654-.168,43.9S346.061,421.3,346.353,421.3Z" transform="translate(-345.355 -333.507)" fill="#263238"/></g></g><g transform="translate(0 13.515)"><path d="M409.846,458.558,334.5,428.225a17.221,17.221,0,0,1-10.737-14.661l-5.513-72.241s.652-30.726-18.538-32.22l-10.918,4.3c-14.111,7.493-17.605,28.037-15.685,43.9,2.729,22.536,3.866,54.431,6.92,73.991,2.5,16,11.663,30.074,27.323,34.2l92.807,20.091Z" transform="translate(-272.619 -309.102)" fill="#e8505b"/></g><g transform="translate(46.687 56.756)"><path d="M296.757,331.44a10.417,10.417,0,0,1,.236,1.653q.18,1.765.484,4.76c.385,4.235.927,10.2,1.6,17.52.637,7.429,1.394,16.229,2.232,25.991q.311,3.67.633,7.515a56.366,56.366,0,0,0,.962,7.729,12.833,12.833,0,0,0,3.746,6.771A25.462,25.462,0,0,0,313.6,407.7c20.778,8.991,39.926,16.415,53.827,21.62l16.5,6.08q2.822,1.04,4.487,1.655a10.267,10.267,0,0,1,1.543.639,10.428,10.428,0,0,1-1.609-.447l-4.551-1.477c-3.943-1.307-9.628-3.264-16.618-5.78-13.982-5.043-33.161-12.354-54-21.372a26.3,26.3,0,0,1-7.224-4.514,13.834,13.834,0,0,1-4.017-7.275,56.7,56.7,0,0,1-.96-7.869q-.3-3.844-.6-7.518c-.757-9.772-1.44-18.579-2.019-26.016-.532-7.336-.966-13.306-1.274-17.545q-.186-3.005-.294-4.776A10.086,10.086,0,0,1,296.757,331.44Z" transform="translate(-296.738 -331.44)" fill="#263238"/></g><g transform="translate(3.481 96.028)"><path d="M274.472,351.728a3.688,3.688,0,0,1,.149.97l.25,2.787c.225,2.575.527,6.04.892,10.252.414,4.324.939,9.47,1.688,15.157a144.97,144.97,0,0,0,3.4,18.3,27.339,27.339,0,0,0,3.678,8.724,49.907,49.907,0,0,0,5.629,6.916,48.167,48.167,0,0,0,12.058,9.046c7.708,4.007,13.312,4.065,13.233,4.332a3.593,3.593,0,0,1-.98-.023,20.941,20.941,0,0,1-2.787-.358,36.87,36.87,0,0,1-9.791-3.316,47.241,47.241,0,0,1-12.394-9.03,49.837,49.837,0,0,1-5.786-7.015,28.008,28.008,0,0,1-3.831-9.009,136.15,136.15,0,0,1-3.351-18.45c-.7-5.714-1.156-10.877-1.479-15.215s-.484-7.857-.575-10.288c-.023-1.119-.043-2.044-.06-2.8A3.518,3.518,0,0,1,274.472,351.728Z" transform="translate(-274.418 -351.728)" fill="#263238"/></g><g transform="translate(35.738 128.741)"><path d="M291.1,386.466c-.1-.029.217-1.64,1.372-4.017a25.914,25.914,0,0,1,15.286-13.055,11.11,11.11,0,0,1,4.181-.728c.031.168-1.551.484-3.947,1.4a29.316,29.316,0,0,0-14.893,12.72C291.82,385.008,291.262,386.522,291.1,386.466Z" transform="translate(-291.082 -368.628)" fill="#263238"/></g><g transform="translate(50.576 16.998)"><path d="M298.747,385.543a1.919,1.919,0,0,1,.478.211l1.349.708a46.737,46.737,0,0,0,5.377,2.278,42.544,42.544,0,0,0,21.117,1.8,41.707,41.707,0,0,0,26.252-16.31,34.63,34.63,0,0,0,6.874-17.069,23.266,23.266,0,0,0-1-9.659,19.6,19.6,0,0,0-5.434-8.3,16.414,16.414,0,0,0-8.842-4.3,10.534,10.534,0,0,0-8.866,2.491,5.7,5.7,0,0,0-1.731,4.011,7.011,7.011,0,0,0,1.456,4.14c1.785,2.437,4.793,3.573,7.665,4a31.029,31.029,0,0,0,16.471-2.356,30.569,30.569,0,0,0,17.35-19.4,32.766,32.766,0,0,0,1.432-9.065,34.246,34.246,0,0,0-.422-5.811c-.112-.61-.2-1.1-.275-1.5a2.126,2.126,0,0,1-.066-.519,24.32,24.32,0,0,1,1.156,7.828,32.262,32.262,0,0,1-1.285,9.226,31.584,31.584,0,0,1-5.664,10.956A32.214,32.214,0,0,1,343.3,350.465c-2.993-.432-6.276-1.611-8.3-4.342a7.959,7.959,0,0,1-1.659-4.717,6.684,6.684,0,0,1,2.005-4.706,11.5,11.5,0,0,1,9.7-2.787,17.413,17.413,0,0,1,9.388,4.545,20.588,20.588,0,0,1,5.707,8.73,24.2,24.2,0,0,1,1.036,10.07,35.456,35.456,0,0,1-7.11,17.53,41.625,41.625,0,0,1-48.25,14.322A30.646,30.646,0,0,1,298.747,385.543Z" transform="translate(-298.747 -310.901)" fill="#fff"/></g><g transform="translate(1.215 61.185)"><path d="M273.251,344.914a6.763,6.763,0,0,1,1.239-1.543,27.84,27.84,0,0,1,4.071-3.54c3.657-2.751,9.715-5.254,16.669-5.908a32.2,32.2,0,0,1,9.824.412,30.212,30.212,0,0,1,7.571,2.66,34.039,34.039,0,0,1,4.6,2.8,6.969,6.969,0,0,1,1.512,1.274c-.1.159-2.358-1.545-6.423-3.434a31.648,31.648,0,0,0-16.98-2.712,35.835,35.835,0,0,0-16.372,5.492C275.235,342.9,273.39,345.056,273.251,344.914Z" transform="translate(-273.247 -333.728)" fill="#fff"/></g><g transform="translate(13.267 5.619)"><path d="M279.476,320.118c.157-.17,1.936,2.3,6.1,4.433a21.81,21.81,0,0,0,7.762,2.276,19.44,19.44,0,0,0,17.547-7.261,21.885,21.885,0,0,0,3.885-7.1c1.434-4.456.95-7.456,1.181-7.447a6.532,6.532,0,0,1,.252,2.054,18.659,18.659,0,0,1-.751,5.6,21.509,21.509,0,0,1-3.842,7.472,19.836,19.836,0,0,1-18.372,7.6,21.42,21.42,0,0,1-8-2.571,18.551,18.551,0,0,1-4.491-3.432A6.534,6.534,0,0,1,279.476,320.118Z" transform="translate(-279.473 -305.023)" fill="#fff"/></g><g transform="translate(78.922 110.817)"><path d="M313.4,388.055a7.492,7.492,0,0,1,.157-1.428,15.725,15.725,0,0,1,1.336-3.9c1.52-3.246,5.306-7.311,11.28-9.791,5.89-2.646,13.99-3.157,22.152-.794,3.982,1.185,8.556,2.646,11.545,6.537a7,7,0,0,1,.848,7.087,11.251,11.251,0,0,1-5.37,5.068,17.05,17.05,0,0,1-7.133,1.765,10.386,10.386,0,0,1-6.851-2.124,8.758,8.758,0,0,1-3.066-6.208,15.59,15.59,0,0,1,1.026-6.529,29.293,29.293,0,0,1,15.53-15.72,30.465,30.465,0,0,1,14.822-2.546,20.956,20.956,0,0,1,5.416,1.14c-.031.13-1.918-.507-5.445-.749a31.029,31.029,0,0,0-14.5,2.8,30.306,30.306,0,0,0-8.457,5.737,27.138,27.138,0,0,0-6.494,9.65,14.707,14.707,0,0,0-.939,6.132,7.789,7.789,0,0,0,2.733,5.525A9.43,9.43,0,0,0,348.2,391.6a16.122,16.122,0,0,0,6.7-1.665,10.3,10.3,0,0,0,4.905-4.578,6,6,0,0,0-.736-6.1,13.976,13.976,0,0,0-5.041-4,36.134,36.134,0,0,0-5.954-2.22c-7.995-2.358-15.848-1.934-21.628.559-5.867,2.342-9.613,6.2-11.2,9.313A21.978,21.978,0,0,0,313.4,388.055Z" transform="translate(-313.391 -359.368)" fill="#fff"/></g><g transform="translate(28.764 131.763)"><path d="M287.479,405.135c-.031-.192,2.873-.436,7.226-1.988a36.034,36.034,0,0,0,23.115-25.571c1.105-4.487,1.057-7.4,1.25-7.387a7.048,7.048,0,0,1,.106,2.033,30.333,30.333,0,0,1-.662,5.515,34.76,34.76,0,0,1-23.581,26.086,30.608,30.608,0,0,1-5.42,1.214A7.05,7.05,0,0,1,287.479,405.135Z" transform="translate(-287.479 -370.189)" fill="#fff"/></g><g transform="translate(4.345 105.629)"><path d="M274.864,361.61a3.536,3.536,0,0,1,.91-.364c.608-.2,1.51-.478,2.691-.776a32.448,32.448,0,0,1,10.263-1.043,21.435,21.435,0,0,1,6.978,1.727,16.081,16.081,0,0,1,6.51,5.108,13.388,13.388,0,0,1,2.53,8.784,10.7,10.7,0,0,1-1.494,4.713,7.487,7.487,0,0,1-3.949,3.3,5.211,5.211,0,0,1-5.091-1.007,6.8,6.8,0,0,1-1.756-4.7,20.092,20.092,0,0,1,1.775-8.962,19.588,19.588,0,0,1,10.991-10.428,19.94,19.94,0,0,1,10.246-1.016,16.925,16.925,0,0,1,2.725.691,3.564,3.564,0,0,1,.9.395c-.029.1-1.291-.4-3.678-.7a20.412,20.412,0,0,0-9.936,1.291,19.03,19.03,0,0,0-10.4,10.141,19.3,19.3,0,0,0-1.638,8.535,5.87,5.87,0,0,0,1.458,4.017,4.218,4.218,0,0,0,4.1.774,6.5,6.5,0,0,0,3.4-2.867,9.792,9.792,0,0,0,1.365-4.268,12.516,12.516,0,0,0-2.3-8.161,15.368,15.368,0,0,0-6.1-4.89,21.091,21.091,0,0,0-6.7-1.777,34.772,34.772,0,0,0-10.116.716C276.182,361.337,274.885,361.688,274.864,361.61Z" transform="translate(-274.864 -356.688)" fill="#fff"/></g><g transform="translate(49.161 78.233)" opacity="0.3"><path d="M364.429,418.661c-8.059-4.551-15.941-8.047-24.365-11.876s-16.676-8.744-22.189-16.175c-10.4-14.015-9.216-34.245-19.859-48.076l2.085,27.9c.637,8.525-.67,16.953,4.822,22.745,4.624,4.88,13.643,8.622,20.027,10.728,12.832,4.233,26.647,10.521,39.479,14.752" transform="translate(-298.016 -342.535)"/></g></g><g transform="translate(231.975 376.524)"><g transform="translate(0 3.368)"><path d="M406.986,436.713s63.045,17.451,65.575,18.341c3.8,1.336,3.159,15.252-2.751,15.035-2.8-.1-48.426,1.7-54.191,1.338s-23.161-7.214-23.161-7.214Z" transform="translate(-392.458 -436.713)" fill="#e8505b"/></g><g transform="translate(40.664 14.831)"><path d="M413.591,455.229c.317.043.743-3.291,2.78-6.769,1.984-3.508,4.654-5.552,4.458-5.8-.11-.244-3.242,1.533-5.374,5.277C413.289,451.654,413.326,455.256,413.591,455.229Z" transform="translate(-413.465 -442.635)" fill="#263238"/></g><g transform="translate(34.118 12.396)"><path d="M410.183,453.425c.308.054.947-2.927,2.625-6.22,1.647-3.312,3.66-5.6,3.434-5.815-.174-.207-2.636,1.854-4.377,5.341C410.1,450.2,409.912,453.41,410.183,453.425Z" transform="translate(-410.083 -441.377)" fill="#263238"/></g><g transform="translate(27.634 10.216)"><path d="M407.15,452.828c.319-.019.075-3.169,1.475-6.661,1.34-3.517,3.655-5.666,3.434-5.9-.126-.24-2.954,1.709-4.417,5.513C406.14,449.568,406.895,452.919,407.15,452.828Z" transform="translate(-406.734 -440.251)" fill="#263238"/></g><g transform="translate(24.17)"><path d="M409.944,449.622c.114.029.672-1.732.678-4.69a22.092,22.092,0,0,0-.639-5.141,21.481,21.481,0,0,0-.939-2.927,3.512,3.512,0,0,0-1.01-1.545,1.678,1.678,0,0,0-2.164.106,2.779,2.779,0,0,0-.84,1.783,12.224,12.224,0,0,0-.081,1.665,13.925,13.925,0,0,0,.389,3.088,18.719,18.719,0,0,0,1.94,4.82c1.469,2.557,2.743,3.866,2.832,3.794.145-.1-.912-1.568-2.17-4.141a20.7,20.7,0,0,1-1.653-4.686,13.741,13.741,0,0,1-.3-2.88c.027-.97.014-2.18.581-2.646a.611.611,0,0,1,.832-.07,2.642,2.642,0,0,1,.691,1.1,23.356,23.356,0,0,1,.956,2.782,25.416,25.416,0,0,1,.834,4.923C410.06,447.813,409.773,449.6,409.944,449.622Z" transform="translate(-404.944 -434.973)" fill="#263238"/></g><g transform="translate(16.476 13.353)"><path d="M413.585,442.527c.029-.116-1.492-.639-4.067-.656a18.2,18.2,0,0,0-4.473.548,9.876,9.876,0,0,0-2.576.949,2.662,2.662,0,0,0-1.425,2.882,3.153,3.153,0,0,0,2.273,2.249,5.766,5.766,0,0,0,2.828-.008,10.879,10.879,0,0,0,4.1-2.013c2.019-1.585,3.006-2.8,2.931-2.886-.11-.134-1.3.9-3.359,2.275a11.2,11.2,0,0,1-3.868,1.674,5,5,0,0,1-2.338-.033,2.139,2.139,0,0,1-1.535-1.5,1.628,1.628,0,0,1,.937-1.76,9.544,9.544,0,0,1,2.288-.892,21.152,21.152,0,0,1,4.247-.741C412.012,442.444,413.558,442.7,413.585,442.527Z" transform="translate(-400.969 -441.871)" fill="#263238"/></g><g transform="translate(49.988 17.45)"><path d="M418.772,454.639c.312-.037,0-2.731,1.243-5.687,1.181-2.981,3.285-4.692,3.088-4.936-.1-.256-2.741,1.237-4.065,4.537C417.678,451.838,418.516,454.749,418.772,454.639Z" transform="translate(-418.282 -443.988)" fill="#263238"/></g><g transform="translate(6.486 30.994)"><path d="M395.809,451a13.025,13.025,0,0,0,2.439,1.148,54.239,54.239,0,0,0,7.015,2.174c6.03,1.52,14.626,2.381,24.071,2.28s17.962-.532,24.135-.78l7.307-.387a12.983,12.983,0,0,0,2.673-.286,13.345,13.345,0,0,0-2.687-.124l-7.315.052-24.119.47a112.773,112.773,0,0,1-23.9-1.953C399.4,452.356,395.883,450.806,395.809,451Z" transform="translate(-395.809 -450.984)" fill="#263238"/></g><g transform="translate(4.621 27.086)"><path d="M394.847,454.326c.085.145,1.81-.861,4.723-2.139,2.878-1.235,7.193-2.716,11.93-1.984,4.752.728,8.118,3.92,10.312,6.134,2.211,2.3,3.506,3.819,3.633,3.713.1-.079-.979-1.754-3.086-4.218a24.887,24.887,0,0,0-4.179-3.908,14.954,14.954,0,0,0-6.514-2.762,20.856,20.856,0,0,0-12.412,2.348C396.363,452.99,394.783,454.224,394.847,454.326Z" transform="translate(-394.845 -448.966)" fill="#263238"/></g></g><g transform="translate(116.588 362.486)"><path d="M395.842,427.721s-59.659,39.061-61.8,40.677c-3.211,2.427.472,13.988,6.038,11.986,2.633-.947,52.694-14.872,58.078-16.967s19.876-13.908,19.876-13.908Z" transform="translate(-332.849 -427.721)" fill="#e8505b"/><g transform="translate(34.562 21.065)"><path d="M361.419,448.434c.261-.054-.8-3.5-3.992-6.384-3.167-2.919-6.69-3.662-6.721-3.4-.112.3,3.053,1.436,6.009,4.175C359.711,445.525,361.13,448.572,361.419,448.434Z" transform="translate(-350.703 -438.603)" fill="#263238"/></g><g transform="translate(41.2 16.402)"><path d="M363.566,445.853c.254-.1-.9-3.1-3.637-5.867-2.714-2.793-5.687-4.009-5.79-3.759-.151.275,2.462,1.843,5.037,4.5C361.775,443.352,363.289,446,363.566,445.853Z" transform="translate(-354.133 -436.194)" fill="#263238"/></g><g transform="translate(47.512 12.1)"><path d="M365.888,444.487c.271.008-.027-3.413-2.607-6.564-2.549-3.178-5.834-4.177-5.883-3.91-.139.286,2.718,1.632,5.062,4.574C364.855,441.491,365.581,444.565,365.888,444.487Z" transform="translate(-357.393 -433.972)" fill="#263238"/></g><g transform="translate(49.394 0.27)"><path d="M361.44,442.786c.157-.076-.66-1.69-1.351-4.466a25.3,25.3,0,0,1-.7-4.944,22.9,22.9,0,0,1,.066-2.94,2.63,2.63,0,0,1,.323-1.258.613.613,0,0,1,.817-.188c.68.273,1.036,1.431,1.355,2.344a13.845,13.845,0,0,1,.586,2.838,20.642,20.642,0,0,1-.153,4.967c-.418,2.832-.978,4.553-.809,4.605.106.039.921-1.593,1.545-4.477a18.736,18.736,0,0,0,.385-5.18,13.9,13.9,0,0,0-.567-3.058,12.2,12.2,0,0,0-.583-1.562,2.786,2.786,0,0,0-1.343-1.444,1.681,1.681,0,0,0-2.094.556,3.518,3.518,0,0,0-.494,1.779,21.735,21.735,0,0,0,0,3.074,22.142,22.142,0,0,0,.952,5.091C360.275,441.34,361.341,442.846,361.44,442.786Z" transform="translate(-358.366 -427.86)" fill="#263238"/></g><g transform="translate(52.346 11.825)"><path d="M359.893,436.565c.076.153,1.473-.558,3.877-1.142a21.111,21.111,0,0,1,4.272-.583,9.551,9.551,0,0,1,2.451.155,1.624,1.624,0,0,1,1.427,1.392,2.139,2.139,0,0,1-1.008,1.893,4.963,4.963,0,0,1-2.216.741,11.179,11.179,0,0,1-4.193-.42c-2.373-.683-3.827-1.309-3.891-1.148-.046.106,1.262.964,3.668,1.86a10.905,10.905,0,0,0,4.514.676,5.807,5.807,0,0,0,2.7-.852,3.15,3.15,0,0,0,1.479-2.834,2.657,2.657,0,0,0-2.232-2.313,9.832,9.832,0,0,0-2.743-.122,18.308,18.308,0,0,0-4.429.836C361.12,435.5,359.831,436.465,359.893,436.565Z" transform="translate(-359.891 -433.83)" fill="#263238"/></g><g transform="translate(8.5 35.747)"><path d="M343.574,460.925c.068.093,1-.6,1.46-2.311a8.813,8.813,0,0,0-1.117-6.475,23.472,23.472,0,0,0-2-2.977,10.9,10.9,0,0,0-2.025-2.174,3.522,3.522,0,0,0-1.907-.8c-.5-.021-.753.1-.745.163a5.587,5.587,0,0,1,2.17,1.2,13.442,13.442,0,0,1,1.721,2.176,33.981,33.981,0,0,1,1.86,2.913,9.239,9.239,0,0,1,1.312,5.817C344.087,460.007,343.434,460.822,343.574,460.925Z" transform="translate(-337.24 -446.188)" fill="#263238"/></g><g transform="translate(28.897 25.617)"><path d="M355.131,449.819c.277.029.194-3-2.1-5.716-2.263-2.741-5.228-3.364-5.25-3.088-.114.292,2.41,1.282,4.441,3.765C354.3,447.219,354.823,449.881,355.131,449.819Z" transform="translate(-347.777 -440.955)" fill="#263238"/></g><g transform="translate(3.694 23.891)"><path d="M410.113,440.067a20.917,20.917,0,0,0-2.623,1.8,74.937,74.937,0,0,1-7.356,4.506,96.629,96.629,0,0,1-11.684,5.2c-4.516,1.684-9.584,3.273-14.942,4.826-10.734,3.091-20.449,5.916-27.46,8.026l-8.291,2.544a18.713,18.713,0,0,0-3,1.072,18.338,18.338,0,0,0,3.115-.678l8.382-2.222c7.065-1.926,16.806-4.636,27.551-7.729,5.368-1.556,10.457-3.182,14.992-4.93a87.812,87.812,0,0,0,11.7-5.457,58.727,58.727,0,0,0,7.242-4.83A16.614,16.614,0,0,0,410.113,440.067Z" transform="translate(-334.757 -440.063)" fill="#263238"/></g><g transform="translate(53.831 23.017)"><path d="M388.089,441.292c.029-.118-1.851-.813-5.056-1.345a20.855,20.855,0,0,0-12.538,1.531,14.977,14.977,0,0,0-5.368,4.609,24.992,24.992,0,0,0-2.8,4.994c-1.258,2.987-1.775,4.909-1.659,4.955.153.064.925-1.781,2.335-4.64,1.417-2.778,3.657-6.841,7.962-8.976s8.852-2.036,11.969-1.734C386.1,441.02,388.053,441.457,388.089,441.292Z" transform="translate(-360.658 -439.612)" fill="#263238"/></g></g><g transform="translate(133.822 264.022)"><path d="M511.492,380.053s17.9,6.392,17.971,26.46c.143,38.442-77.671,80.815-77.671,80.815l-103.55-68.614-6.491-2.625S481.537,363.58,511.492,380.053Z" transform="translate(-341.752 -376.854)" fill="#263238"/><g transform="translate(58.943 22.616)"><path d="M372.2,442.437a19.127,19.127,0,0,0,2.7-1.829c1.7-1.229,4.119-3.055,7.083-5.348,5.929-4.582,14-11.076,22.673-18.525s16.318-14.446,21.744-19.613c2.714-2.584,4.886-4.7,6.357-6.192a19.3,19.3,0,0,0,2.216-2.389,19.406,19.406,0,0,0-2.5,2.091l-6.581,5.943c-5.552,5.023-13.26,11.916-21.924,19.361s-16.645,14.013-22.451,18.742c-2.791,2.276-5.1,4.166-6.87,5.608A19.249,19.249,0,0,0,372.2,442.437Z" transform="translate(-372.202 -388.538)" fill="#455a64"/></g><g transform="translate(121.651 17.307)"><path d="M423.453,386.056c.039-.257-4.582-.71-9.979.906-5.412,1.576-9.046,4.462-8.871,4.657.17.275,3.947-2.131,9.17-3.645C418.979,386.41,423.457,386.379,423.453,386.056Z" transform="translate(-404.597 -385.795)" fill="#455a64"/></g><g transform="translate(122.176 11.482)"><path d="M414.279,382.813c-.093-.25-3.413,1.21-6.14,4.617-2.756,3.386-3.484,6.938-3.221,6.974.3.1,1.432-3.12,4.042-6.31C411.529,384.873,414.444,383.086,414.279,382.813Z" transform="translate(-404.868 -382.786)" fill="#455a64"/></g><g transform="translate(169.648 133.118)"><path d="M435.178,445.731c.054-.12-1.235-.37-2.669.809a9.689,9.689,0,0,0-2.993,6.01,11.8,11.8,0,0,0,.945,6.628c.732,1.574,1.539,2.311,1.628,2.238.143-.1-.424-.972-.937-2.515a13.444,13.444,0,0,1-.59-6.2,10.386,10.386,0,0,1,2.449-5.606C434.107,445.944,435.2,445.9,435.178,445.731Z" transform="translate(-429.392 -445.623)" fill="#263238"/></g></g><g transform="translate(81.12 204.422)"><path d="M513.15,346.065l-36.88,93.491-158.8,2.587-2.939-8.591,55.654-2.019L396.929,348.6Z" transform="translate(-314.526 -346.065)" fill="#455a64"/><g transform="translate(121.536 39.69)"><path d="M380.237,367.353c2.038-1.382,5.805-.829,7.637.815a6.174,6.174,0,0,1,1.5,6.765,6.691,6.691,0,0,1-5.737,4.007,6.03,6.03,0,0,1-6.065-4.005c-.73-2.511.081-6.258,2.669-7.582" transform="translate(-377.312 -366.569)" fill="#ebebeb"/></g></g><g transform="translate(26.078 272.74)"><path d="M513.682,487.782s-146.306-95.968-152.3-97.963-20.468-11.483-34.946-7.489S298.98,399.3,292.49,418.274c-3.707,10.838-5.459,29.332-6.28,43.2a64.083,64.083,0,0,0,15,45.695c4.936,5.724,11.022,10.7,18.242,12.952,1.523.474,3.1.883,4.729,1.235,27.662,6,56.09-6.421,71.63-30.076l3.415-5.2s95.708,35.161,97.2,34.661Z" transform="translate(-286.092 -381.358)" fill="#263238"/><g transform="translate(46.586 6.391)"><path d="M310.158,458.278s.265.135.8.354c.579.23,1.372.546,2.395.95l9.276,3.571c8.138,3.064,19.876,7.487,34.471,12.985,14.642,5.463,32.181,11.959,51.858,19.119s41.49,15.008,64.781,22.894l.424.143.207-.4,11.43-21.827c2-3.813,3.976-7.6,5.827-11.132l.225-.43-.406-.257-111.6-70.844L346.323,392.26l-9.106-5.681c-1.016-.621-1.8-1.105-2.377-1.454-.538-.323-.827-.465-.827-.465s.252.2.772.552l2.323,1.539c2.094,1.361,5.12,3.324,9,5.844l33.347,21.421,111.417,71.119-.18-.685c-1.851,3.533-3.833,7.317-5.828,11.13-3.912,7.478-7.768,14.849-11.423,21.833l.629-.254c-23.279-7.865-45.1-15.681-64.8-22.776-19.665-7.158-37.234-13.552-51.934-18.9L322.763,462.8c-4.03-1.465-7.166-2.605-9.34-3.4-1.036-.368-1.843-.652-2.429-.859C310.446,458.349,310.158,458.278,310.158,458.278Z" transform="translate(-310.158 -384.66)" fill="#455a64"/></g></g><g transform="translate(54.933)"><g transform="translate(6.282)"><path d="M330.876,252.417c2.493-6.744,8.008-9.673,15-11.365a22.426,22.426,0,0,1,20.066,5.17c3.546,3.248,6.146,7.737,10.525,9.723,7.213,3.269,16.454-1.508,23.291,2.487a10.215,10.215,0,0,1-6.587,18.933c4.7,2.22,5.577,9.293,2.34,13.36s-9.218,5.166-14.22,3.753-9.152-4.907-12.687-8.719-6.624-8.041-10.449-11.558-8.6-6.353-13.79-6.547c-7.031-.261-13.517,4.464-17.209,10.453s-5.068,13.091-6.1,20.05-1.8,14.061-4.487,20.565c-.316.765-.767,1.611-1.574,1.779-1.169.246-2.025-1.049-2.493-2.147a103.292,103.292,0,0,1-8.252-39.3c-.083-7.824.794-15.149,5.652-21.281s16.067-9.955,20.976-5.354" transform="translate(-304.243 -240.46)" fill="#263238"/></g><g transform="translate(5.44 9.217)"><path d="M314.785,279.19l-10.755,78.159a23.47,23.47,0,0,0,21.2,26.579h0a23.481,23.481,0,0,0,25.3-20.219c.8-5.883,1.487-10.788,1.609-11.388,0,0,20.155.865,24.3-18.629,2-9.421,4.551-29.162,6.647-47.048a37.121,37.121,0,0,0-29.613-40.708l-1.885-.378C331.022,242.684,317.089,258.548,314.785,279.19Z" transform="translate(-303.808 -245.222)" fill="#ffbe9d"/><g transform="translate(24.392 94.493)"><path d="M340.441,306.369s-12.551-1.463-24.032-12.333c0,0,3.211,15.269,23.066,17.4Z" transform="translate(-316.409 -294.037)" fill="#eb996e"/></g><g transform="translate(32.531 29.569)"><g transform="translate(0 11.093)"><g transform="translate(29.634 5.338)"><g transform="translate(3.148 4.252)"><path d="M343.211,274.306a2.846,2.846,0,0,1-3.254,2.278,2.72,2.72,0,0,1-2.373-3.091,2.845,2.845,0,0,1,3.25-2.28A2.725,2.725,0,0,1,343.211,274.306Z" transform="translate(-337.549 -271.182)" fill="#263238"/></g><path d="M346.926,273.162c-.418.294-2.22-1.692-5.225-2.284-2.993-.635-5.507.47-5.759.037-.128-.2.356-.782,1.456-1.289a7.813,7.813,0,0,1,4.7-.478,7.5,7.5,0,0,1,4.069,2.273C346.949,272.312,347.129,273.032,346.926,273.162Z" transform="translate(-335.923 -268.986)" fill="#263238"/></g><g transform="translate(3.122 4.724)"><path d="M327.89,271.794a2.846,2.846,0,0,1-3.254,2.276,2.722,2.722,0,0,1-2.375-3.091,2.851,2.851,0,0,1,3.252-2.28A2.726,2.726,0,0,1,327.89,271.794Z" transform="translate(-322.226 -268.668)" fill="#263238"/></g><path d="M331.619,270.4c-.42.294-2.224-1.692-5.226-2.284-2.993-.635-5.507.47-5.759.037-.128-.2.352-.782,1.456-1.287a7.825,7.825,0,0,1,4.7-.482,7.511,7.511,0,0,1,4.069,2.274C331.636,269.554,331.82,270.276,331.619,270.4Z" transform="translate(-320.614 -266.228)" fill="#263238"/><g transform="translate(17.453 3.33)"><path d="M329.63,293.244c.021-.172,1.953-.122,5.054.095.784.076,1.539.068,1.773-.43a3.979,3.979,0,0,0-.058-2.377q-.526-3-1.1-6.291c-1.489-8.945-2.4-16.237-2.04-16.293s1.86,7.147,3.347,16.09q.523,3.3,1,6.309a4.526,4.526,0,0,1-.2,3.089,1.956,1.956,0,0,1-1.485.869,5.24,5.24,0,0,1-1.34-.079C331.5,293.782,329.609,293.418,329.63,293.244Z" transform="translate(-329.63 -267.948)" fill="#263238"/></g><g transform="translate(7.274 28.934)"><path d="M325.3,281.179c.494.07-.151,3.331,2.178,6.2s5.869,3.207,5.8,3.666c0,.215-.9.48-2.375.227a8.284,8.284,0,0,1-4.882-2.877,7.206,7.206,0,0,1-1.616-5.159C324.553,281.85,325.079,281.117,325.3,281.179Z" transform="translate(-324.371 -281.175)" fill="#263238"/></g></g><g transform="translate(0.153)"><path d="M334.671,264.151c-.459.757-3.38-.228-6.988-.509-3.6-.35-6.651.112-6.973-.712-.137-.393.511-1.063,1.818-1.622a12.171,12.171,0,0,1,10.635.931C334.354,263.017,334.876,263.789,334.671,264.151Z" transform="translate(-320.693 -260.497)" fill="#263238"/></g><g transform="translate(31.145 7.387)"><path d="M346.829,268.622c-.664.577-2.592-.546-5.074-1.076-2.462-.617-4.686-.459-5.027-1.27-.143-.389.323-1.007,1.374-1.467a7.506,7.506,0,0,1,8.138,1.889C346.98,267.574,347.129,268.335,346.829,268.622Z" transform="translate(-336.703 -264.313)" fill="#263238"/></g></g></g><g transform="translate(0 56.249)"><path d="M316.118,271.244c-.3-.209-12.634-6.653-14.876,6.793s11.719,12.925,11.806,12.544S316.118,271.244,316.118,271.244Z" transform="translate(-300.998 -269.519)" fill="#ffbe9d"/><g transform="translate(3.516 4.188)"><path d="M308.09,282.775c-.05-.052-.261.126-.687.24a2.375,2.375,0,0,1-1.758-.255c-1.332-.759-2.153-3.213-1.814-5.647a7.853,7.853,0,0,1,1.216-3.246,2.746,2.746,0,0,1,2.062-1.5,1.211,1.211,0,0,1,1.276.873c.116.407-.013.66.054.695.033.041.327-.176.31-.749a1.5,1.5,0,0,0-.387-.931,1.789,1.789,0,0,0-1.239-.559,3.34,3.34,0,0,0-2.8,1.676,8.06,8.06,0,0,0-1.436,3.614c-.366,2.724.6,5.49,2.449,6.376a2.541,2.541,0,0,0,2.2,0C308.013,283.1,308.133,282.808,308.09,282.775Z" transform="translate(-302.814 -271.683)" fill="#eb996e"/></g></g><g transform="translate(13.566 6.476)"><path d="M384.113,284.739a28.788,28.788,0,0,1-23.947-10.658c-3.949-4.983-6.46-11.51-12.05-14.534a16.188,16.188,0,0,0-12.472-.765,31.276,31.276,0,0,0-10.892,6.62c1.792,10.685-2.96,21.266-7.592,31.063a5.417,5.417,0,0,1-2.17,2.772c-1.824.9-4-.525-5.091-2.242-1.744-2.749-1.947-6.181-1.884-9.435a56.033,56.033,0,0,1,4.46-21.647,38.16,38.16,0,0,1,14.055-16.833,36.159,36.159,0,0,1,26.744-4.429,44.4,44.4,0,0,1,23.444,14.073c2.857,3.213,5.345,6.9,6.316,11.092" transform="translate(-308.006 -243.806)" fill="#263238"/></g></g></g></g></g></svg>