<svg xmlns="http://www.w3.org/2000/svg" xmlns:xlink="http://www.w3.org/1999/xlink" width="517.297" height="68.973" viewBox="0 0 517.297 68.973">
  <defs>
    <linearGradient id="linear-gradient" x1="1.625" y1="-4.143" x2="0.33" y2="-3.468" gradientUnits="objectBoundingBox">
      <stop offset="0" stop-color="#00a0ff"/>
      <stop offset="0.007" stop-color="#00a1ff"/>
      <stop offset="0.26" stop-color="#00beff"/>
      <stop offset="0.512" stop-color="#00d2ff"/>
      <stop offset="0.76" stop-color="#00dfff"/>
      <stop offset="1" stop-color="#00e3ff"/>
    </linearGradient>
    <linearGradient id="linear-gradient-2" x1="1.977" y1="-11.775" x2="-0.399" y2="-11.775" gradientUnits="objectBoundingBox">
      <stop offset="0" stop-color="#ffe000"/>
      <stop offset="0.409" stop-color="#ffbd00"/>
      <stop offset="0.775" stop-color="orange"/>
      <stop offset="1" stop-color="#ff9c00"/>
    </linearGradient>
    <linearGradient id="linear-gradient-3" x1="0.913" y1="-8.638" x2="-0.447" y2="-6.852" gradientUnits="objectBoundingBox">
      <stop offset="0" stop-color="#ff3a44"/>
      <stop offset="1" stop-color="#c31162"/>
    </linearGradient>
    <linearGradient id="linear-gradient-4" x1="-0.134" y1="-8.068" x2="0.473" y2="-7.27" gradientUnits="objectBoundingBox">
      <stop offset="0" stop-color="#32a071"/>
      <stop offset="0.068" stop-color="#2da771"/>
      <stop offset="0.476" stop-color="#15cf74"/>
      <stop offset="0.801" stop-color="#06e775"/>
      <stop offset="1" stop-color="#00f076"/>
    </linearGradient>
  </defs>
  <g id="Grupo_10676" data-name="Grupo 10676" transform="translate(-1111 -5494)">
    <g id="Grupo_1108" data-name="Grupo 1108" transform="translate(1111 5494)">
      <path id="path14" d="M109.543,44.405H-106.513a8.621,8.621,0,0,1-8.642-8.542v-51.25a8.62,8.62,0,0,1,8.642-8.541H109.543a8.619,8.619,0,0,1,8.642,8.541v51.25A8.619,8.619,0,0,1,109.543,44.405Z" transform="translate(115.155 23.928)"/>
      <path id="path16" d="M109.543-22.559a7.223,7.223,0,0,1,7.258,7.171v51.25a7.224,7.224,0,0,1-7.258,7.173H-106.513a7.223,7.223,0,0,1-7.256-7.173v-51.25a7.223,7.223,0,0,1,7.256-7.171H109.543m0-1.369H-106.513a8.62,8.62,0,0,0-8.642,8.541v51.25a8.621,8.621,0,0,0,8.642,8.542H109.543a8.619,8.619,0,0,0,8.642-8.542v-51.25A8.619,8.619,0,0,0,109.543-23.928Z" transform="translate(115.155 23.928)" fill="#a6a6a6"/>
      <g id="g18" transform="translate(71.477 11.727)">
        <path id="path20" d="M-63.221-11.354A4.634,4.634,0,0,1-64.5-7.933,5.086,5.086,0,0,1-68.32-6.416,5.278,5.278,0,0,1-72.132-7.95,5.147,5.147,0,0,1-73.7-11.771a5.11,5.11,0,0,1,1.571-3.811,5.245,5.245,0,0,1,3.812-1.545,5.481,5.481,0,0,1,2.13.435,4.2,4.2,0,0,1,1.619,1.142l-.9.9a3.541,3.541,0,0,0-2.847-1.209,3.991,3.991,0,0,0-2.835,1.133,3.915,3.915,0,0,0-1.19,2.954,3.934,3.934,0,0,0,1.19,2.962A4.028,4.028,0,0,0-68.32-7.676a3.965,3.965,0,0,0,2.9-1.142,3.191,3.191,0,0,0,.869-2.078H-68.32V-12.13H-63.3A3.485,3.485,0,0,1-63.221-11.354Z" transform="translate(73.703 17.127)" fill="#fff" stroke="#fff" stroke-miterlimit="10" stroke-width="0.16"/>
      </g>
      <g id="g22" transform="translate(83.875 11.962)">
        <path id="path24" d="M-60.462-15.732h-4.716v3.245h4.252v1.235h-4.252v3.245h4.716v1.259h-6.051V-16.991h6.051Z" transform="translate(66.513 16.991)" fill="#fff" stroke="#fff" stroke-miterlimit="10" stroke-width="0.16"/>
      </g>
      <g id="g26" transform="translate(91.318 11.962)">
        <path id="path28" d="M-57.968-6.749H-59.3v-8.984H-62.2v-1.259h7.123v1.259h-2.9Z" transform="translate(62.196 16.991)" fill="#fff" stroke="#fff" stroke-miterlimit="10" stroke-width="0.16"/>
      </g>
      <g id="g30" transform="translate(103.597 11.962)">
        <path id="path32" d="M-55.075-6.749V-16.991h1.333V-6.749Z" transform="translate(55.075 16.991)" fill="#fff" stroke="#fff" stroke-miterlimit="10" stroke-width="0.16"/>
      </g>
      <g id="g34" transform="translate(106.611 11.962)">
        <path id="path36" d="M-49.1-6.749h-1.324v-8.984h-2.9v-1.259H-46.2v1.259h-2.9Z" transform="translate(53.327 16.991)" fill="#fff" stroke="#fff" stroke-miterlimit="10" stroke-width="0.16"/>
      </g>
      <g id="g38" transform="translate(118.097 11.727)">
        <path id="path40" d="M-37.534-7.967a5.123,5.123,0,0,1-3.8,1.552,5.13,5.13,0,0,1-3.807-1.552,5.2,5.2,0,0,1-1.528-3.8,5.2,5.2,0,0,1,1.528-3.8,5.125,5.125,0,0,1,3.807-1.554,5.093,5.093,0,0,1,3.788,1.561,5.186,5.186,0,0,1,1.536,3.8A5.2,5.2,0,0,1-37.534-7.967Zm-6.618-.859a3.841,3.841,0,0,0,2.821,1.15,3.82,3.82,0,0,0,2.811-1.15,4,4,0,0,0,1.155-2.945,4,4,0,0,0-1.155-2.945,3.82,3.82,0,0,0-2.811-1.15,3.841,3.841,0,0,0-2.821,1.15,4,4,0,0,0-1.155,2.945A4,4,0,0,0-44.152-8.826Z" transform="translate(46.666 17.127)" fill="#fff" stroke="#fff" stroke-miterlimit="10" stroke-width="0.16"/>
      </g>
      <g id="g42" transform="translate(130.631 11.962)">
        <path id="path44" d="M-39.4-6.749V-16.991h1.619l5.038,7.966h.059l-.059-1.969v-6h1.333V-6.749H-32.8l-5.275-8.358h-.059l.059,1.976v6.382Z" transform="translate(39.397 16.991)" fill="#fff" stroke="#fff" stroke-miterlimit="10" stroke-width="0.16"/>
      </g>
      <path id="path46" d="M-27.185,1A7.2,7.2,0,0,0-34.56,8.267a7.224,7.224,0,0,0,7.375,7.265A7.226,7.226,0,0,0-19.8,8.267,7.207,7.207,0,0,0-27.185,1Zm0,11.67a4.223,4.223,0,0,1-4.144-4.4,4.2,4.2,0,0,1,4.144-4.406,4.21,4.21,0,0,1,4.154,4.406A4.23,4.23,0,0,1-27.185,12.671ZM-43.278,1a7.2,7.2,0,0,0-7.377,7.266,7.22,7.22,0,0,0,7.377,7.265A7.221,7.221,0,0,0-35.9,8.267,7.2,7.2,0,0,0-43.278,1Zm0,11.67a4.227,4.227,0,0,1-4.152-4.4,4.208,4.208,0,0,1,4.152-4.406,4.2,4.2,0,0,1,4.144,4.406A4.222,4.222,0,0,1-43.278,12.671ZM-62.43,3.227V6.315h7.461a6.377,6.377,0,0,1-1.7,3.878,7.711,7.711,0,0,1-5.764,2.254,8.143,8.143,0,0,1-8.185-8.2,8.142,8.142,0,0,1,8.185-8.2,7.968,7.968,0,0,1,5.623,2.2l2.2-2.176A10.958,10.958,0,0,0-62.43-7.04,11.511,11.511,0,0,0-74.016,4.246,11.511,11.511,0,0,0-62.43,15.531a10.5,10.5,0,0,0,7.968-3.169,10.1,10.1,0,0,0,2.7-7.206,10.181,10.181,0,0,0-.169-1.93Zm78.312,2.4A6.809,6.809,0,0,0,9.586,1,6.941,6.941,0,0,0,2.658,8.267,7.15,7.15,0,0,0,9.95,15.531a7.309,7.309,0,0,0,6.127-3.219L13.571,10.66A4.215,4.215,0,0,1,9.95,12.671a3.742,3.742,0,0,1-3.561-2.2l9.832-4.021ZM5.856,8.041A4.009,4.009,0,0,1,9.7,3.8a2.861,2.861,0,0,1,2.735,1.542ZM-2.134,15.09H1.1V-6.264H-2.134ZM-7.428,2.618h-.109A5.125,5.125,0,0,0-11.4,1a7.264,7.264,0,0,0-7.049,7.29,7.237,7.237,0,0,0,7.049,7.24,5.043,5.043,0,0,0,3.864-1.65h.109v1.041c0,2.778-1.5,4.271-3.925,4.271a4.074,4.074,0,0,1-3.7-2.6l-2.812,1.16a7.013,7.013,0,0,0,6.516,4.3c3.79,0,6.989-2.2,6.989-7.565V1.442H-7.428Zm-3.7,10.053a4.19,4.19,0,0,1-4.092-4.38,4.22,4.22,0,0,1,4.092-4.43c2.2,0,3.926,1.869,3.926,4.43A4.083,4.083,0,0,1-11.125,12.671ZM31.014-6.264h-7.73V15.09h3.224V7h4.506c3.58,0,7.092-2.559,7.092-6.632S34.585-6.264,31.014-6.264ZM31.1,4.028h-4.59V-3.295H31.1A3.727,3.727,0,0,1,34.88.366,3.749,3.749,0,0,1,31.1,4.028ZM51.025.959A6.058,6.058,0,0,0,45.28,4.228l2.859,1.185a3.063,3.063,0,0,1,2.945-1.569c1.673,0,3.369.993,3.4,2.747v.224a7.162,7.162,0,0,0-3.369-.826c-3.08,0-6.22,1.676-6.22,4.8,0,2.862,2.523,4.7,5.361,4.7a4.576,4.576,0,0,0,4.118-2.092h.11v1.65h3.112V6.863C57.591,3.078,54.731.959,51.025.959Zm-.388,11.7c-1.055,0-2.524-.517-2.524-1.809,0-1.654,1.833-2.288,3.419-2.288a5.848,5.848,0,0,1,2.947.717A3.9,3.9,0,0,1,50.637,12.662Zm18.3-11.236L65.23,10.684h-.11L61.288,1.426H57.812l5.756,12.938-3.283,7.2h3.368L72.52,1.426ZM39.877,15.09H43.11V-6.264H39.877Z" transform="translate(144.953 36.16)" fill="#fff"/>
      <g id="g48" transform="translate(17.236 12.755)">
        <path id="path64" d="M-104.359-16.407a3.377,3.377,0,0,0-.8,2.4v37.78a3.38,3.38,0,0,0,.8,2.4l.126.116L-82.814,5.13v-.5l-21.42-21.163Z" transform="translate(105.159 16.531)" fill="url(#linear-gradient)"/>
      </g>
      <g id="g66" transform="translate(39.582 26.86)">
        <path id="path78" d="M-85.068,6.263-92.2-.8v-.5l7.14-7.058.16.091L-76.443-3.5c2.414,1.348,2.414,3.569,0,4.928L-84.9,6.171Z" transform="translate(92.2 8.351)" fill="url(#linear-gradient-2)"/>
      </g>
      <g id="g80" transform="translate(18.036 34.166)">
        <path id="path88" d="M-75.849,3.1l-7.3-7.216-21.545,21.3c.8.833,2.109.933,3.6.1L-75.849,3.1" transform="translate(104.695 4.114)" fill="url(#linear-gradient-3)"/>
      </g>
      <g id="g90" transform="translate(18.036 12.201)">
        <path id="path104" d="M-75.849-2.1-101.1-16.283c-1.486-.824-2.793-.724-3.6.109L-83.15,5.113Z" transform="translate(104.695 16.852)" fill="url(#linear-gradient-4)"/>
      </g>
    </g>
    <g id="Grupo_1114" data-name="Grupo 1114" transform="translate(1395.513 5494)">
      <path id="Caminho_3475" data-name="Caminho 3475" d="M72.623,56.518H-143.725a8.173,8.173,0,0,1-8.154-8.161V-4.306a8.162,8.162,0,0,1,8.154-8.149H72.623A8.273,8.273,0,0,1,80.9-4.306V48.357a8.284,8.284,0,0,1-8.282,8.161Z" transform="translate(151.879 12.455)" fill="#a6a6a6"/>
      <path id="Caminho_3476" data-name="Caminho 3476" d="M78.591,47.714a6.6,6.6,0,0,1-6.611,6.6H-144.369a6.612,6.612,0,0,1-6.62-6.6V-4.952a6.621,6.621,0,0,1,6.62-6.613H71.978a6.611,6.611,0,0,1,6.611,6.613l0,52.666Z" transform="translate(152.524 13.1)"/>
      <g id="Grupo_1110" data-name="Grupo 1110" transform="translate(22.057 10.72)">
        <g id="Grupo_1109" data-name="Grupo 1109">
          <path id="Caminho_3477" data-name="Caminho 3477" d="M-109.194,12.7a10,10,0,0,1,4.761-8.387A10.238,10.238,0,0,0-112.5-.048c-3.392-.357-6.682,2.03-8.41,2.03-1.762,0-4.423-2-7.29-1.936a10.735,10.735,0,0,0-9.035,5.511c-3.907,6.765-.993,16.705,2.75,22.173,1.873,2.678,4.061,5.668,6.925,5.563,2.8-.116,3.849-1.786,7.23-1.786,3.35,0,4.333,1.786,7.254,1.719,3.007-.048,4.9-2.69,6.708-5.392a22.127,22.127,0,0,0,3.068-6.247A9.662,9.662,0,0,1-109.194,12.7Z" transform="translate(139.087 10.695)" fill="#fff"/>
          <path id="Caminho_3478" data-name="Caminho 3478" d="M-122.183.813a9.839,9.839,0,0,0,2.252-7.051,10.022,10.022,0,0,0-6.48,3.352,9.363,9.363,0,0,0-2.311,6.79A8.278,8.278,0,0,0-122.183.813Z" transform="translate(146.558 6.238)" fill="#fff"/>
        </g>
      </g>
      <g id="Grupo_1111" data-name="Grupo 1111" transform="translate(73.129 31.04)">
        <path id="Caminho_3479" data-name="Caminho 3479" d="M-90.1,28.688h-3.916l-2.145-6.74h-7.456l-2.043,6.74h-3.812l7.387-22.947h4.563ZM-96.8,19.12l-1.94-5.992q-.308-.918-1.157-4.323h-.069q-.339,1.464-1.09,4.323l-1.905,5.992Z" transform="translate(109.469 -5.405)" fill="#fff"/>
        <path id="Caminho_3480" data-name="Caminho 3480" d="M-80.524,17.666A9.4,9.4,0,0,1-82.8,24.337a6.67,6.67,0,0,1-5.073,2.18,5.073,5.073,0,0,1-4.7-2.349h-.069v8.716h-3.676V15.043q0-2.654-.136-5.447h3.233l.205,2.623h.069a6.124,6.124,0,0,1,5.583-2.962,6.137,6.137,0,0,1,4.885,2.314A9.116,9.116,0,0,1-80.524,17.666Zm-3.745.134a6.812,6.812,0,0,0-1.09-3.983,3.764,3.764,0,0,0-3.2-1.635,3.823,3.823,0,0,0-2.468.9,4.183,4.183,0,0,0-1.447,2.367,4.814,4.814,0,0,0-.171,1.121v2.759a4.421,4.421,0,0,0,1.107,3.049,3.669,3.669,0,0,0,2.876,1.243,3.764,3.764,0,0,0,3.233-1.6A7.043,7.043,0,0,0-84.269,17.8Z" transform="translate(118.893 -2.859)" fill="#fff"/>
        <path id="Caminho_3481" data-name="Caminho 3481" d="M-69.487,17.666a9.4,9.4,0,0,1-2.283,6.671,6.664,6.664,0,0,1-5.071,2.18,5.068,5.068,0,0,1-4.7-2.349h-.069v8.716h-3.676V15.043q0-2.654-.136-5.447h3.233l.205,2.623h.069a6.121,6.121,0,0,1,5.583-2.962,6.148,6.148,0,0,1,4.887,2.314A9.142,9.142,0,0,1-69.487,17.666Zm-3.745.134a6.813,6.813,0,0,0-1.092-3.983,3.759,3.759,0,0,0-3.2-1.635,3.828,3.828,0,0,0-2.469.9,4.18,4.18,0,0,0-1.445,2.367,4.907,4.907,0,0,0-.171,1.121v2.759a4.434,4.434,0,0,0,1.1,3.049,3.677,3.677,0,0,0,2.88,1.243,3.764,3.764,0,0,0,3.233-1.6A7.043,7.043,0,0,0-73.232,17.8Z" transform="translate(126.888 -2.859)" fill="#fff"/>
        <path id="Caminho_3482" data-name="Caminho 3482" d="M-57.86,22.394A6.116,6.116,0,0,1-59.9,27.16a9.033,9.033,0,0,1-6.251,2.009A10.942,10.942,0,0,1-72.1,27.74l.852-3.064a10.077,10.077,0,0,0,5.314,1.466,5.024,5.024,0,0,0,3.237-.938A3.063,3.063,0,0,0-61.538,22.7a3.2,3.2,0,0,0-.954-2.352,8.864,8.864,0,0,0-3.166-1.774q-6.027-2.248-6.025-6.58A5.822,5.822,0,0,1-69.57,7.353a8.327,8.327,0,0,1,5.618-1.807,11.138,11.138,0,0,1,5.207,1.09l-.919,3a9.035,9.035,0,0,0-4.392-1.055,4.445,4.445,0,0,0-3.028.954A2.725,2.725,0,0,0-68,11.609a2.8,2.8,0,0,0,1.054,2.247,11.907,11.907,0,0,0,3.338,1.771,11.326,11.326,0,0,1,4.357,2.79A5.829,5.829,0,0,1-57.86,22.394Z" transform="translate(136.539 -5.546)" fill="#fff"/>
        <path id="Caminho_3483" data-name="Caminho 3483" d="M-52.558,13.944H-56.61v8.034q0,3.065,2.145,3.064a6.538,6.538,0,0,0,1.633-.171l.1,2.792a8.329,8.329,0,0,1-2.859.407,4.411,4.411,0,0,1-3.406-1.328q-1.223-1.329-1.226-4.461V13.94h-2.414V11.181h2.414V8.152l3.611-1.09v4.119h4.052Z" transform="translate(143.392 -4.448)" fill="#fff"/>
        <path id="Caminho_3484" data-name="Caminho 3484" d="M-39.38,17.732A9.077,9.077,0,0,1-41.56,24a7.781,7.781,0,0,1-6.063,2.519,7.4,7.4,0,0,1-5.8-2.416,8.8,8.8,0,0,1-2.162-6.094,8.988,8.988,0,0,1,2.23-6.3A7.716,7.716,0,0,1-47.35,9.257a7.557,7.557,0,0,1,5.856,2.418A8.7,8.7,0,0,1-39.38,17.732Zm-3.814.119a7.443,7.443,0,0,0-.986-3.926,3.631,3.631,0,0,0-3.3-1.98,3.686,3.686,0,0,0-3.371,1.98,7.586,7.586,0,0,0-.986,4,7.432,7.432,0,0,0,.986,3.925,3.708,3.708,0,0,0,3.338,1.98,3.678,3.678,0,0,0,3.3-2.014A7.469,7.469,0,0,0-43.194,17.851Z" transform="translate(148.497 -2.858)" fill="#fff"/>
        <path id="Caminho_3485" data-name="Caminho 3485" d="M-35.539,12.829a6.383,6.383,0,0,0-1.159-.1,3.474,3.474,0,0,0-3,1.466,5.509,5.509,0,0,0-.919,3.268v8.682h-3.675l.034-11.336q0-2.861-.138-5.209h3.2l.134,3.166h.1a5.659,5.659,0,0,1,1.838-2.621,4.445,4.445,0,0,1,2.657-.886,5.9,5.9,0,0,1,.919.067Z" transform="translate(156.606 -2.859)" fill="#fff"/>
        <path id="Caminho_3486" data-name="Caminho 3486" d="M-23.546,17.1a8.623,8.623,0,0,1-.134,1.667H-34.709a4.8,4.8,0,0,0,1.6,3.747A5.463,5.463,0,0,0-29.5,23.671a12.2,12.2,0,0,0,4.463-.783l.576,2.552a13.8,13.8,0,0,1-5.547,1.023A8.036,8.036,0,0,1-36.056,24.2a8.362,8.362,0,0,1-2.2-6.077,9.479,9.479,0,0,1,2.045-6.23,7.045,7.045,0,0,1,5.785-2.654A6.166,6.166,0,0,1-25,11.892,8.949,8.949,0,0,1-23.546,17.1Zm-3.506-.954a4.994,4.994,0,0,0-.714-2.826,3.211,3.211,0,0,0-2.93-1.533,3.487,3.487,0,0,0-2.926,1.5,5.486,5.486,0,0,0-1.088,2.859h7.658Z" transform="translate(161.054 -2.872)" fill="#fff"/>
      </g>
      <g id="Grupo_1113" data-name="Grupo 1113" transform="translate(75.312 11.305)">
        <g id="Grupo_1112" data-name="Grupo 1112">
          <path id="Caminho_3487" data-name="Caminho 3487" d="M-98.936-.155a5.661,5.661,0,0,1-1.824,4.583,7.256,7.256,0,0,1-4.8,1.421,22.25,22.25,0,0,1-2.643-.134V-5.374a19.507,19.507,0,0,1,3.112-.235,6.71,6.71,0,0,1,4.466,1.288A5.205,5.205,0,0,1-98.936-.155Zm-1.905.05a4.121,4.121,0,0,0-1.045-3.028,4.119,4.119,0,0,0-3.054-1.054,7.648,7.648,0,0,0-1.455.117v8.43a9.541,9.541,0,0,0,1.221.05,4.274,4.274,0,0,0,3.2-1.154A4.62,4.62,0,0,0-100.842-.1Z" transform="translate(108.203 6.109)" fill="#fff"/>
          <path id="Caminho_3488" data-name="Caminho 3488" d="M-93.626.331A4.459,4.459,0,0,1-94.7,3.408a3.822,3.822,0,0,1-2.978,1.238,3.633,3.633,0,0,1-2.852-1.188,4.327,4.327,0,0,1-1.06-2.993,4.415,4.415,0,0,1,1.095-3.093,3.8,3.8,0,0,1,2.952-1.2,3.717,3.717,0,0,1,2.878,1.186A4.292,4.292,0,0,1-93.626.331ZM-95.5.389a3.676,3.676,0,0,0-.485-1.93,1.785,1.785,0,0,0-1.621-.973,1.813,1.813,0,0,0-1.657.973A3.726,3.726,0,0,0-99.747.422a3.676,3.676,0,0,0,.485,1.93,1.824,1.824,0,0,0,1.64.973A1.8,1.8,0,0,0-96,2.334,3.653,3.653,0,0,0-95.5.389Z" transform="translate(112.995 7.396)" fill="#fff"/>
          <path id="Caminho_3489" data-name="Caminho 3489" d="M-84.167-3.736-86.71,4.392h-1.655L-89.419.863a26.418,26.418,0,0,1-.654-2.626h-.033A19.227,19.227,0,0,1-90.759.863l-1.119,3.53h-1.674l-2.392-8.128h1.857l.919,3.864q.334,1.371.552,2.609h.033q.2-1.019.671-2.592l1.154-3.88h1.473l1.105,3.8q.4,1.389.652,2.676h.05A25.571,25.571,0,0,1-86.928.063l.986-3.8h1.774Z" transform="translate(117.082 7.466)" fill="#fff"/>
          <path id="Caminho_3490" data-name="Caminho 3490" d="M-80.688,4.464H-82.5V-.192q0-2.152-1.638-2.152a1.631,1.631,0,0,0-1.305.591,2.1,2.1,0,0,0-.5,1.393V4.462h-1.807v-5.8q0-1.071-.066-2.326h1.588L-86.14-2.4h.05a2.611,2.611,0,0,1,.936-.981,3.054,3.054,0,0,1,1.638-.457,2.594,2.594,0,0,1,1.892.736,3.577,3.577,0,0,1,.936,2.693Z" transform="translate(122.972 7.394)" fill="#fff"/>
          <path id="Caminho_3491" data-name="Caminho 3491" d="M-80.033,5.959h-1.805V-5.9h1.805Z" transform="translate(127.3 5.899)" fill="#fff"/>
          <path id="Caminho_3492" data-name="Caminho 3492" d="M-71.277.331a4.459,4.459,0,0,1-1.071,3.078,3.824,3.824,0,0,1-2.978,1.238,3.628,3.628,0,0,1-2.852-1.188A4.327,4.327,0,0,1-79.238.465a4.415,4.415,0,0,1,1.095-3.093,3.8,3.8,0,0,1,2.95-1.2,3.721,3.721,0,0,1,2.88,1.186A4.292,4.292,0,0,1-71.277.331Zm-1.876.059a3.676,3.676,0,0,0-.485-1.93,1.782,1.782,0,0,0-1.619-.973,1.809,1.809,0,0,0-1.657.973A3.726,3.726,0,0,0-77.4.422a3.676,3.676,0,0,0,.485,1.93,1.824,1.824,0,0,0,1.64.973,1.8,1.8,0,0,0,1.619-.99A3.638,3.638,0,0,0-73.153.389Z" transform="translate(129.183 7.396)" fill="#fff"/>
          <path id="Caminho_3493" data-name="Caminho 3493" d="M-66.746,4.462h-1.623l-.135-.936h-.05a2.783,2.783,0,0,1-2.374,1.121,2.45,2.45,0,0,1-1.855-.736,2.309,2.309,0,0,1-.636-1.655A2.525,2.525,0,0,1-72.172-.02a6.47,6.47,0,0,1,3.506-.769V-.94q0-1.606-1.688-1.605a3.781,3.781,0,0,0-2.119.6l-.367-1.186a5.213,5.213,0,0,1,2.788-.7q3.187,0,3.19,3.362V2.524A12.7,12.7,0,0,0-66.746,4.462Zm-1.876-2.793V.415q-2.99-.052-2.99,1.638a1.224,1.224,0,0,0,.347.954,1.264,1.264,0,0,0,.883.317,1.825,1.825,0,0,0,1.105-.376,1.54,1.54,0,0,0,.626-.962A1.529,1.529,0,0,0-68.622,1.669Z" transform="translate(133.398 7.396)" fill="#fff"/>
          <path id="Caminho_3494" data-name="Caminho 3494" d="M-60.335,5.959h-1.6l-.084-1.305h-.05a2.7,2.7,0,0,1-2.611,1.49A3.059,3.059,0,0,1-67.125,4.99,4.494,4.494,0,0,1-68.094,2,4.713,4.713,0,0,1-67.04-1.2a3.239,3.239,0,0,1,2.509-1.138,2.436,2.436,0,0,1,2.29,1.1h.034V-5.9H-60.4V3.769Q-60.4,4.956-60.335,5.959Zm-1.873-3.428V1.176a2.66,2.66,0,0,0-.05-.569,2.058,2.058,0,0,0-.654-1.095,1.776,1.776,0,0,0-1.209-.443,1.854,1.854,0,0,0-1.59.8,3.444,3.444,0,0,0-.579,2.057,3.21,3.21,0,0,0,.555,1.957,1.86,1.86,0,0,0,1.579.8,1.741,1.741,0,0,0,1.428-.669A2.227,2.227,0,0,0-62.207,2.531Z" transform="translate(137.255 5.899)" fill="#fff"/>
          <path id="Caminho_3495" data-name="Caminho 3495" d="M-51.287.331a4.459,4.459,0,0,1-1.071,3.078,3.819,3.819,0,0,1-2.978,1.238,3.638,3.638,0,0,1-2.852-1.188A4.327,4.327,0,0,1-59.248.465a4.415,4.415,0,0,1,1.095-3.093,3.8,3.8,0,0,1,2.954-1.2,3.714,3.714,0,0,1,2.876,1.186A4.292,4.292,0,0,1-51.287.331Zm-1.873.059a3.676,3.676,0,0,0-.485-1.93,1.787,1.787,0,0,0-1.623-.973,1.816,1.816,0,0,0-1.657.973A3.726,3.726,0,0,0-57.408.422a3.676,3.676,0,0,0,.485,1.93,1.824,1.824,0,0,0,1.64.973,1.806,1.806,0,0,0,1.623-.99A3.669,3.669,0,0,0-53.159.389Z" transform="translate(143.662 7.396)" fill="#fff"/>
          <path id="Caminho_3496" data-name="Caminho 3496" d="M-46,4.464h-1.805V-.192q0-2.152-1.64-2.152a1.625,1.625,0,0,0-1.3.591,2.09,2.09,0,0,0-.5,1.393V4.462h-1.809v-5.8q0-1.071-.064-2.326h1.586l.084,1.271h.05a2.638,2.638,0,0,1,.936-.981,3.06,3.06,0,0,1,1.64-.457,2.593,2.593,0,0,1,1.89.736A3.571,3.571,0,0,1-46-.405Z" transform="translate(148.096 7.394)" fill="#fff"/>
          <path id="Caminho_3497" data-name="Caminho 3497" d="M-39.863-1.532h-1.99V2.417c0,1,.353,1.505,1.054,1.505a3.183,3.183,0,0,0,.805-.084l.047,1.371a4.06,4.06,0,0,1-1.4.2,2.16,2.16,0,0,1-1.671-.652,3.188,3.188,0,0,1-.6-2.192v-4.1h-1.188V-2.886h1.188v-1.49l1.771-.535v2.023h1.99v1.355Z" transform="translate(154.117 6.615)" fill="#fff"/>
          <path id="Caminho_3498" data-name="Caminho 3498" d="M-33.43,5.959h-1.809V1.338q0-2.186-1.636-2.186A1.725,1.725,0,0,0-38.6.419a2.271,2.271,0,0,0-.084.65V5.957h-1.805V-5.9h1.805V-1h.034a2.732,2.732,0,0,1,2.442-1.336,2.518,2.518,0,0,1,1.859.736,3.7,3.7,0,0,1,.919,2.726Z" transform="translate(157.25 5.899)" fill="#fff"/>
          <path id="Caminho_3499" data-name="Caminho 3499" d="M-27.636.02A4.364,4.364,0,0,1-27.7.839h-5.42a2.37,2.37,0,0,0,.785,1.84,2.692,2.692,0,0,0,1.774.569,5.987,5.987,0,0,0,2.192-.385l.283,1.255a6.806,6.806,0,0,1-2.728.5,3.94,3.94,0,0,1-2.968-1.112A4.1,4.1,0,0,1-34.863.523a4.652,4.652,0,0,1,1-3.061,3.456,3.456,0,0,1,2.842-1.3,3.023,3.023,0,0,1,2.657,1.3A4.34,4.34,0,0,1-27.636.02Zm-1.724-.467a2.433,2.433,0,0,0-.35-1.388,1.578,1.578,0,0,0-1.438-.754,1.716,1.716,0,0,0-1.438.736,2.736,2.736,0,0,0-.536,1.405Z" transform="translate(161.325 7.39)" fill="#fff"/>
        </g>
      </g>
    </g>
  </g>
</svg>
