<svg xmlns="http://www.w3.org/2000/svg" width="28.99" height="28.02" viewBox="0 0 28.99 28.02"><path d="M30.854,11.067a2.911,2.911,0,0,0-2.289-1.16H9.978L9.4,7.588A2.95,2.95,0,0,0,6.559,5.3H3.446a.972.972,0,0,0,0,1.943H6.559a1.014,1.014,0,0,1,.977.784L11.26,23.259A2.95,2.95,0,0,0,14.1,25.547H26.276a2.924,2.924,0,0,0,2.838-2.288L31.4,13.606A2.932,2.932,0,0,0,30.854,11.067Zm-1.312,2.1L27.253,22.82a1.014,1.014,0,0,1-.977.784H14.1a1.014,1.014,0,0,1-.977-.784L10.466,11.882h18.1a1.038,1.038,0,0,1,.977,1.285Z" transform="translate(-2.5 -5.3)" fill="#63799b"/><path d="M35.374,73.9a3.261,3.261,0,1,0,3.174,3.26A3.235,3.235,0,0,0,35.374,73.9Zm0,4.545a1.285,1.285,0,1,1,1.251-1.285A1.3,1.3,0,0,1,35.374,78.445Z" transform="translate(-23.135 -52.399)" fill="#63799b"/><path d="M69.774,73.9a3.261,3.261,0,1,0,3.174,3.26A3.235,3.235,0,0,0,69.774,73.9Zm0,4.545a1.285,1.285,0,1,1,1.251-1.285A1.3,1.3,0,0,1,69.774,78.445Z" transform="translate(-47.036 -52.399)" fill="#63799b"/></svg>