<svg id="seo-and-web_2_" data-name="seo-and-web (2)" xmlns="http://www.w3.org/2000/svg" width="85.133" height="75.911" viewBox="0 0 85.133 75.911">
  <path id="Caminho_4748" data-name="Caminho 4748" d="M57.4,65.556a23.1,23.1,0,0,1,.13-2.42H27.882a6.3,6.3,0,0,1-6.157-6.412V13.688a6.325,6.325,0,0,0-5.6,6.385V62.554a6.3,6.3,0,0,0,6.156,6.413H57.656A22.7,22.7,0,0,1,57.4,65.556Zm0,0" transform="translate(-13.736 -11.144)" fill="#d4e1f4"/>
  <path id="Caminho_4749" data-name="Caminho 4749" d="M65.627,6.311V29.922q-.623-.041-1.257-.04c-.45,0-.895.016-1.338.046V15.645H2.6V48.526A6.256,6.256,0,0,0,8.713,54.9H43.862q.161,1.075.426,2.128c.049.193.1.386.154.575H8.713A8.91,8.91,0,0,1,0,48.526V6.311A8.91,8.91,0,0,1,8.713-2.766h48.2A8.911,8.911,0,0,1,65.627,6.311Zm-2.6,6.631V6.311A6.257,6.257,0,0,0,56.914-.062H8.713A6.255,6.255,0,0,0,2.6,6.311v6.631Zm0,0" transform="translate(0 2.766)" fill="#0635c9"/>
  <g id="Grupo_10367" data-name="Grupo 10367" transform="translate(4.512 5.457)">
    <path id="Caminho_4750" data-name="Caminho 4750" d="M315.93,208.5q-.622-.041-1.257-.04c-.45,0-.895.016-1.338.046a20.608,20.608,0,0,0-15.5,8.953,22.4,22.4,0,0,0-3.246,18.147c.049.193.1.386.154.575,2.968,10.539,13.048,17.088,23.439,15.229s17.8-11.534,17.22-22.5S326.454,209.164,315.93,208.5Zm-1.257,40.513a18.313,18.313,0,0,1-17.57-14.095c-.03-.12-.06-.239-.088-.362a19.553,19.553,0,0,1,3.366-16.143,17.933,17.933,0,0,1,14.251-7.25h.041c10.034,0,18.168,8.473,18.168,18.925S324.707,249.01,314.673,249.01Zm0,0" transform="translate(-254.815 -181.267)" fill="#ac51d6"/>
    <path id="Caminho_4751" data-name="Caminho 4751" d="M389.874,287.137a1.259,1.259,0,0,0-1.768,0l-6.489,6.291a1.386,1.386,0,0,0-.407,1.305,1.329,1.329,0,0,0,.9,1,1.258,1.258,0,0,0,1.278-.33l4.306-4.175V304.47a1.3,1.3,0,1,0,2.6,0V291.231l4.306,4.175a1.259,1.259,0,0,0,1.278.33,1.332,1.332,0,0,0,.9-1,1.387,1.387,0,0,0-.408-1.305Zm0,0" transform="translate(-329.131 -247.48)" fill="#ad55d6"/>
    <path id="Caminho_4752" data-name="Caminho 4752" d="M175.074,40.536h.011a3.707,3.707,0,0,0,3.625-3.766v-.013A3.707,3.707,0,0,0,175.1,32.98h-.01a3.781,3.781,0,0,0-.011,7.556ZM174.357,36a1,1,0,0,1,.729-.313h0a1.076,1.076,0,0,1,0,2.149h0a1.031,1.031,0,0,1-.951-.665A1.107,1.107,0,0,1,174.357,36Zm0,0" transform="translate(-150.525 -32.913)" fill="#1ae5be"/>
    <path id="Caminho_4753" data-name="Caminho 4753" d="M104.6,32.754h-.013a3.63,3.63,0,0,0-3.348,2.328,3.9,3.9,0,0,0,.777,4.114,3.519,3.519,0,0,0,2.56,1.114h.013a3.781,3.781,0,0,0,.012-7.556Zm-.013,4.853h0a1.076,1.076,0,0,1,0-2.149h0a1.076,1.076,0,0,1,0,2.149Zm0,0" transform="translate(-90.495 -32.721)" fill="#1ae5be"/>
    <path id="Caminho_4754" data-name="Caminho 4754" d="M37.666,36.332a3.709,3.709,0,0,0-3.617-3.789h-.011a3.781,3.781,0,0,0-.011,7.557h.011A3.711,3.711,0,0,0,37.666,36.332ZM34.039,37.4h0a1.076,1.076,0,0,1,0-2.149h0a1.076,1.076,0,0,1,0,2.149Zm0,0" transform="translate(-30.406 -32.543)" fill="#1ae5be"/>
  </g>
</svg>
