<svg id="ui_1_" data-name="ui (1)" xmlns="http://www.w3.org/2000/svg" width="78.989" height="74.641" viewBox="0 0 78.989 74.641">
  <path id="Caminho_4741" data-name="Caminho 4741" d="M28.2,63.426a6.071,6.071,0,0,1-5.935-6.182V16.291c0-.182.009-.36.024-.537a6.1,6.1,0,0,0-5.419,6.157V62.863A6.07,6.07,0,0,0,22.8,69.046H61.041v-5.62Zm0,0" transform="translate(-14.439 -13.164)" fill="#d4e1f4"/>
  <path id="Caminho_4742" data-name="Caminho 4742" d="M63.663,7.285v22.48l-.841-.466a1.214,1.214,0,0,0-1.2.007l-.48.274V16.341H2.518v31.9A6.069,6.069,0,0,0,8.452,54.42H46.245a24.318,24.318,0,0,0,.594,2.623H8.452A8.644,8.644,0,0,1,0,48.238V7.285a8.643,8.643,0,0,1,8.452-8.8H55.211A8.644,8.644,0,0,1,63.663,7.285Zm-2.517,6.433V7.285A6.071,6.071,0,0,0,55.211,1.1H8.452A6.068,6.068,0,0,0,2.518,7.285v6.433Zm0,0" transform="translate(0 1.52)" fill="#0635c9"/>
  <g id="Grupo_10366" data-name="Grupo 10366" transform="translate(4.377 5.295)">
    <path id="Caminho_4743" data-name="Caminho 4743" d="M384.356,325.046a1.225,1.225,0,0,0,1.751.165l9.494-8.046a1.35,1.35,0,0,0,.181-1.846,1.225,1.225,0,0,0-1.771-.189l-8.539,7.239-3.279-4a1.225,1.225,0,0,0-1.775-.146,1.351,1.351,0,0,0-.141,1.85Zm0,0" transform="translate(-329.659 -272.696)" fill="#ac51d6"/>
    <path id="Caminho_4744" data-name="Caminho 4744" d="M319.8,230.89a23.52,23.52,0,0,0,12.742,15.02l2.093.95a1.209,1.209,0,0,0,.5.109,1.231,1.231,0,0,0,.5-.107L338,245.8a23.768,23.768,0,0,0,13.957-21.878V212.908a1.319,1.319,0,0,0-.666-1.157l-14.66-8.138-.841-.466a1.214,1.214,0,0,0-1.2.007l-.48.274-14.592,8.331a1.323,1.323,0,0,0-.655,1.15v11.24a24.64,24.64,0,0,0,.347,4.119A24.307,24.307,0,0,0,319.8,230.89Zm1.577-17.2L335.2,205.8l14.232,7.9v10.229a21.148,21.148,0,0,1-12.425,19.466.016.016,0,0,0-.009,0l-1.859.836-1.588-.722a21.182,21.182,0,0,1-12.173-19.359Zm0,0" transform="translate(-277.342 -177.623)" fill="#ac51d6"/>
    <path id="Caminho_4745" data-name="Caminho 4745" d="M174.95,41.557h.012a3.668,3.668,0,0,0,.011-7.331h-.011a3.668,3.668,0,0,0-.012,7.331Zm-.694-4.4a.983.983,0,0,1,.707-.3h0a1.044,1.044,0,0,1,0,2.086h0a1,1,0,0,1-.923-.646A1.076,1.076,0,0,1,174.256,37.153Zm0,0" transform="translate(-151.137 -34.162)" fill="#1ae5be"/>
    <path id="Caminho_4746" data-name="Caminho 4746" d="M104.424,41.332h.012A3.669,3.669,0,0,0,104.448,34h-.012a3.669,3.669,0,0,0-.011,7.332Zm-.694-4.406a.977.977,0,0,1,.706-.3h0a1.014,1.014,0,0,1,.979.842,1.052,1.052,0,0,1-.6,1.164.98.98,0,0,1-1.215-.387A1.074,1.074,0,0,1,103.73,36.927Zm0,0" transform="translate(-90.762 -33.969)" fill="#1ae5be"/>
    <path id="Caminho_4747" data-name="Caminho 4747" d="M33.919,41.123h.01a3.668,3.668,0,0,0,.011-7.33h-.011a3.668,3.668,0,0,0-.01,7.33Zm-.694-4.4a.97.97,0,0,1,.7-.3h0a1.043,1.043,0,0,1,0,2.085h0a1.024,1.024,0,0,1-1-1.045A1.043,1.043,0,0,1,33.225,36.719Zm0,0" transform="translate(-30.406 -33.793)" fill="#1ae5be"/>
  </g>
</svg>
