<?xml version="1.0"?>
<svg xmlns="http://www.w3.org/2000/svg" id="Layer_1" data-name="Layer 1" viewBox="0 0 512 512" width="512" height="512"><title>Shop</title><path d="M119,81a34.038,34.038,0,0,1,34-34H123A34.038,34.038,0,0,0,89,81V95h30Z" style="fill:#d4e1f4"/><rect x="89" y="107" width="30" height="286" style="fill:#d4e1f4"/><path d="M119,431V405H89v26a34.038,34.038,0,0,0,34,34h30A34.038,34.038,0,0,1,119,431Z" style="fill:#d4e1f4"/><path d="M327,136.6a6,6,0,0,0,6-6V81c0-25.364-20.917-46-46.281-46h-160A45.813,45.813,0,0,0,81,81V431a45.813,45.813,0,0,0,45.719,46h160C312.083,477,333,456.364,333,431V365.605a6,6,0,0,0-12,0V393H93V107H255.719a6,6,0,0,0,0-12H93V81a33.8,33.8,0,0,1,33.719-34h160A34.279,34.279,0,0,1,321,81V95H306.719a6,6,0,0,0,0,12H321v23.6A6,6,0,0,0,327,136.6ZM321,405v26a34.279,34.279,0,0,1-34.281,34h-160A33.8,33.8,0,0,1,93,431V405Z" style="fill:#0635c9"/><path d="M275.414,95a6,6,0,0,0,0,12h11.115a6,6,0,0,0,0-12Z" style="fill:#0635c9"/><path d="M206.719,456a21,21,0,1,0-21-21A21.024,21.024,0,0,0,206.719,456Zm0-30a9,9,0,1,1-9,9A9.01,9.01,0,0,1,206.719,426Z" style="fill:#0635c9"/><path d="M325.281,234.211a53.368,53.368,0,1,0,53.368,53.368A53.428,53.428,0,0,0,325.281,234.211Zm0,94.736a41.368,41.368,0,1,1,41.368-41.368A41.414,41.414,0,0,1,325.281,328.947Z" style="fill:#1ae5be"/><path d="M346.356,269.648l-27.235,26.014-13.708-13.707a6,6,0,1,0-8.485,8.484l17.854,17.855a6,6,0,0,0,8.387.1l31.475-30.065a6,6,0,1,0-8.288-8.678Z" style="fill:#1ae5be"/><path d="M431.281,340a7.2,7.2,0,0,0-.092-1.145L407.1,202.892A18.8,18.8,0,0,0,388.439,187H374V173.251a48.5,48.5,0,1,0-97,0V187H262.124a18.754,18.754,0,0,0-18.665,15.842L219.373,338.785a8.271,8.271,0,0,0-.092,1.228A32,32,0,0,0,251.088,372H399.475A32.012,32.012,0,0,0,431.281,340ZM289,173.251a36.5,36.5,0,1,1,73,0V187H289ZM231.287,340.489l24-135.572c.007-.039.014-.062.02-.1a6.855,6.855,0,0,1,6.82-5.817H277v22.015a6,6,0,0,0,12,0V199h73v22.015a6,6,0,0,0,12,0V199h14.439a6.811,6.811,0,0,1,6.819,5.768c.006.038.013.044.02.083l24,135.655A19.986,19.986,0,0,1,399.475,360H251.088A20,20,0,0,1,231.287,340.489Z" style="fill:#1ae5be"/></svg>
