<svg xmlns="http://www.w3.org/2000/svg" xmlns:xlink="http://www.w3.org/1999/xlink" width="721.118" height="457.179" viewBox="0 0 721.118 457.179">
  <defs>
    <linearGradient id="linear-gradient" x1="0.874" y1="0.345" x2="0.038" y2="1" gradientUnits="objectBoundingBox">
      <stop offset="0" stop-color="#981aac"/>
      <stop offset="1" stop-color="#3d106f"/>
    </linearGradient>
    <linearGradient id="linear-gradient-2" x1="1" y1="0.176" x2="0" y2="1" gradientUnits="objectBoundingBox">
      <stop offset="0" stop-color="#991aad"/>
      <stop offset="1" stop-color="#3f0f70"/>
    </linearGradient>
    <linearGradient id="linear-gradient-3" x1="0.97" y1="0.953" x2="0.168" y2="0.666" gradientUnits="objectBoundingBox">
      <stop offset="0" stop-color="#991aad"/>
      <stop offset="1" stop-color="#2f0e65"/>
    </linearGradient>
    <linearGradient id="linear-gradient-4" x1="-0.609" y1="0.122" x2="1.59" y2="0.637" xlink:href="#linear-gradient-3"/>
    <linearGradient id="linear-gradient-5" x1="0.98" y1="1" x2="0.024" y2="0" xlink:href="#linear-gradient-3"/>
    <linearGradient id="linear-gradient-6" x1="1" x2="0" y2="1" gradientUnits="objectBoundingBox">
      <stop offset="0" stop-color="#971aac"/>
      <stop offset="1" stop-color="#411071"/>
    </linearGradient>
    <linearGradient id="linear-gradient-7" x1="0.833" y1="0.055" x2="0.163" y2="0.953" xlink:href="#linear-gradient-3"/>
    <linearGradient id="linear-gradient-8" x1="0.5" x2="0.5" y2="1" gradientUnits="objectBoundingBox">
      <stop offset="0" stop-color="#e66bcc"/>
      <stop offset="1" stop-color="#733666"/>
    </linearGradient>
    <linearGradient id="linear-gradient-9" x1="-2.145" y1="-0.255" x2="1" y2="1.208" gradientUnits="objectBoundingBox">
      <stop offset="0" stop-color="#e369c9"/>
      <stop offset="1" stop-color="#723565"/>
    </linearGradient>
    <linearGradient id="linear-gradient-10" x1="-0.14" y1="0.383" x2="2.421" y2="1.693" gradientUnits="objectBoundingBox">
      <stop offset="0" stop-color="#e369c9"/>
      <stop offset="1" stop-color="#733666"/>
    </linearGradient>
    <linearGradient id="linear-gradient-11" x1="0.655" y1="0.861" x2="-1.404" y2="0.437" xlink:href="#linear-gradient-3"/>
  </defs>
  <g id="Camada_2" data-name="Camada 2" transform="translate(-126.41 0.001)">
    <g id="Слой_2" data-name="Слой 2" transform="translate(0 -0.001)">
      <path id="Caminho_5897" data-name="Caminho 5897" d="M729.107,635.079s91.308,8.879,118.653-45.667c39.751-79.292-39.2-141.6-97.764-130.222-127.625,24.792-65.9-248.7-270.714-192.876-57.591,15.7-213.2-77.539-256.6,71.955-10.321,35.54,7.188,38.012,8.338,60.514-103.879,44.148-56.38,235.545,17.845,236.3S729.107,635.079,729.107,635.079Z" transform="translate(-44.588 -179.081)" fill="#ebf2f9"/>
      <path id="Caminho_5900" data-name="Caminho 5900" d="M1501.46,748.495l-18.925,225.013s-1.982,13.642,8.163,13.665c16.684.041,83.035,0,83.035,0s-12.556-2.839-12.42-9.229c.179-7.53,22.12-231.585,22.12-231.585Z" transform="translate(-1054.195 -530.775)" fill="url(#linear-gradient)"/>
      <path id="Caminho_5901" data-name="Caminho 5901" d="M1592.547,973.106c-3.281,0-66.655.208-82.9,0-7.08-.09-8.322-6.3-8.377-10.315a20.263,20.263,0,0,1,.214-3.348l.494-5.849,1.254-14.907,1.106-13.169,1.424-16.924,1.2-14.284,13.446-159.892,81.987-2.129s-9.243,93.766-15.777,162.021c-.728,7.605-1.424,14.9-2.065,21.7q-.312,3.258-.6,6.355c-.6,6.456-1.155,12.386-1.641,17.62-.254,2.759-.488,5.324-.7,7.675-.832,9.2-1.323,15.081-1.329,16.2a9.526,9.526,0,0,0,.159,1.823C1581.779,972.855,1591.311,973.106,1592.547,973.106Z" transform="translate(-1067.628 -520.769)" fill="url(#linear-gradient-2)"/>
      <path id="Caminho_5902" data-name="Caminho 5902" d="M859.12,329.83l46.1,185.164,6.311,25.361L933,626.6h398.877L1252.74,329.83Z" transform="translate(-610.964 -234.559)" fill="url(#linear-gradient-3)"/>
      <path id="Caminho_5903" data-name="Caminho 5903" d="M843.386,329.83,837,331.959l71.773,301.082,8.495-6.441Z" transform="translate(-595.233 -234.559)" fill="url(#linear-gradient-4)"/>
      <path id="Caminho_5904" data-name="Caminho 5904" d="M1085.48,1363.691H1481.9l10.945-6.441H1093.975Z" transform="translate(-771.94 -965.21)" fill="url(#linear-gradient-5)"/>
      <rect id="Retângulo_4382" data-name="Retângulo 4382" width="85.831" height="4.079" transform="translate(452.753 452.413)" fill="url(#linear-gradient-6)"/>
      <path id="Caminho_5905" data-name="Caminho 5905" d="M1589.224,1379.54l-.445,3.12-80.719,16.306,1.106-13.169.529-6.256Z" transform="translate(-1072.458 -981.061)" fill="#8c18a4" opacity="0.68"/>
      <path id="Caminho_5906" data-name="Caminho 5906" d="M1592.556,1503.4c-3.281,0-66.655.208-82.9,0-7.08-.09-8.322-6.3-8.377-10.315l80.338-15.113c-.832,9.2-1.323,15.081-1.329,16.2a9.546,9.546,0,0,0,.159,1.823C1581.788,1503.146,1591.32,1503.4,1592.556,1503.4Z" transform="translate(-1067.637 -1051.06)" fill="#8d18a5" opacity="0.4"/>
      <path id="Caminho_5907" data-name="Caminho 5907" d="M1237.252,1084.837l-175.222,60.078-21.47-86.245Z" transform="translate(-739.995 -752.874)" fill="#991aad" opacity="0.26"/>
      <path id="Caminho_5908" data-name="Caminho 5908" d="M859.11,329.83h393.623L1316.6,568.338H918.486Z" transform="translate(-610.957 -234.559)" fill="url(#linear-gradient-7)"/>
      <path id="Caminho_5909" data-name="Caminho 5909" d="M1789.352,1233.852a13.493,13.493,0,0,0-12.651-10.592c-5.849,0-9.668,4.743-8.533,10.592a13.49,13.49,0,0,0,12.652,10.592C1786.669,1244.444,1790.476,1239.7,1789.352,1233.852Z" transform="translate(-1257.293 -869.922)" fill="#f2f1f0"/>
      <path id="Caminho_5910" data-name="Caminho 5910" d="M1338.181,589.458H969.63l-41.739-166.27-3.2-12.75-2.732-10.875-6.4-25.5H1278.8l7.028,25.5,3,10.875,3.512,12.75Z" transform="translate(-651.101 -266.013)" fill="#e9f3fe"/>
      <path id="Caminho_5911" data-name="Caminho 5911" d="M1285.827,399.562H921.961l-6.4-25.5H1278.8Z" transform="translate(-651.101 -266.013)" fill="#afcdfb"/>
      <path id="Caminho_5912" data-name="Caminho 5912" d="M969.739,402.92a2.4,2.4,0,0,0-2.392,3.177,4.356,4.356,0,0,0,3.98,3.177,2.406,2.406,0,0,0,2.395-3.177A4.352,4.352,0,0,0,969.739,402.92Z" transform="translate(-687.86 -286.537)" fill="#e9f3fe"/>
      <path id="Caminho_5913" data-name="Caminho 5913" d="M1006.409,402.92a2.4,2.4,0,0,0-2.392,3.177,4.356,4.356,0,0,0,3.98,3.177,2.406,2.406,0,0,0,2.395-3.177A4.36,4.36,0,0,0,1006.409,402.92Z" transform="translate(-713.938 -286.537)" fill="#e9f3fe"/>
      <path id="Caminho_5914" data-name="Caminho 5914" d="M1049.876,406.177a4.345,4.345,0,0,0-3.983-3.177,2.4,2.4,0,0,0-2.395,3.177,4.359,4.359,0,0,0,3.983,3.177A2.406,2.406,0,0,0,1049.876,406.177Z" transform="translate(-742.015 -286.594)" fill="#e9f3fe"/>
      <g id="Grupo_10683" data-name="Grupo 10683" transform="translate(39 1)">
        <path id="Caminho_5915" data-name="Caminho 5915" d="M412.43,513.6a9.406,9.406,0,0,0-.641-6.742c-1.768-3.195,1.089-5.41.367-6.375s-5.43-.867-7.036,3.772,1.109,9.867,1.109,9.867Z" transform="translate(-196.74 -355.57)" fill="#fca56b"/>
        <path id="Caminho_5916" data-name="Caminho 5916" d="M354.012,570.318a5.676,5.676,0,0,0,7.247-4.6l4.688-20.39s.976-1.58,4.356-1.444c3.68.15,4.676,1.973,4.676,1.973s2.273,35.9-8.342,40.967S343.966,567.323,354.012,570.318Z" transform="translate(-158.076 -386.774)" fill="#944583"/>
        <path id="Caminho_5917" data-name="Caminho 5917" d="M358.9,1536.077H328.971c-2.129-1.927-2.831-13.261-2.831-13.261s9.281-8.377,12.314-1.733c2.889,6.288,10.849,9.633,15.6,10.462C358.162,1532.235,358.806,1535.254,358.9,1536.077Z" transform="translate(-140.935 -1079.898)" fill="#163560"/>
        <path id="Caminho_5918" data-name="Caminho 5918" d="M233.355,1536.077H203.434c-2.129-1.927-2.834-13.261-2.834-13.261s9.281-8.377,12.314-1.733c2.888,6.288,10.849,9.633,15.6,10.462C232.619,1532.235,233.269,1535.254,233.355,1536.077Z" transform="translate(-51.657 -1079.898)" fill="#163560"/>
        <path id="Caminho_5919" data-name="Caminho 5919" d="M252.57,986.547s-4.258,27.233-20.141,75.574-18.047,69.275-18.047,69.275l-17.042-.477s-.147-52.833,7.175-77.143,1.58-87.637,1.58-87.637Z" transform="translate(-49.338 -687.071)" fill="#163560"/>
        <path id="Caminho_5920" data-name="Caminho 5920" d="M295.731,971.31a660.893,660.893,0,0,1-6.5,91.423c-7.1,50.387-4.694,71.773-4.694,71.773l-17,.578s-10.165-50.4-7.25-75.623-13.917-86.542-13.917-86.542Z" transform="translate(-84.206 -690.748)" fill="#1c468a"/>
        <path id="Caminho_5921" data-name="Caminho 5921" d="M303.29,588.9l8.021,5.942,11.592-2.429c-.162-1.057-.927-5.439-1.623-9.408-.04-.234-.084-.468-.124-.7-.6-3.377-1.112-6.277-1.112-6.277l-10.826-5.4-4.044-2.022c0,.072.312,3.755.355,4.284A34.586,34.586,0,0,1,303.29,588.9Z" transform="translate(-124.685 -404.367)" fill="#ffb27d"/>
        <path id="Caminho_5922" data-name="Caminho 5922" d="M318.806,618.182c-.254-.107-15.768-4.685-17.452-4.128s-2.683,3.819-2.683,3.819l25.375,5.737S322.047,619.548,318.806,618.182Z" transform="translate(-121.399 -436.652)" fill="#a14a8e"/>
        <path id="Caminho_5923" data-name="Caminho 5923" d="M222.155,731.466c2.629,12,46.395,13.417,57.677,2.527,1.283-1.239,1.346-7.016.867-14.8-.945-15.214-3.986-38.1-4.1-49.789a92.49,92.49,0,0,0-1.866-16.664,135.345,135.345,0,0,0-5.552-19.948s-21.375-6.909-25.375-5.734C224.538,632.723,219.526,719.467,222.155,731.466Z" transform="translate(-66.525 -445.837)" fill="url(#linear-gradient-8)"/>
        <path id="Caminho_5924" data-name="Caminho 5924" d="M373.929,777.163c-.945-15.214-3.986-38.1-4.1-49.789a92.487,92.487,0,0,0-1.866-16.664l-12.86-2.27S342.525,759.794,373.929,777.163Z" transform="translate(-159.761 -503.808)" fill="url(#linear-gradient-9)"/>
        <path id="Caminho_5925" data-name="Caminho 5925" d="M313.117,577.988c2.377,4.549,11.236,8.483,14.931,9.928-.04-.234-.084-.468-.124-.7-.6-3.377-1.112-6.277-1.112-6.277l-10.826-5.4C313.593,575.515,312.135,576.119,313.117,577.988Z" transform="translate(-131.453 -409.3)" fill="#fca56b"/>
        <path id="Caminho_5926" data-name="Caminho 5926" d="M312.442,512.9S292.91,519,289.3,506.777s-8.559-19.668,3.755-24.076,16.129-.462,18.325,3.325S317.431,511.006,312.442,512.9Z" transform="translate(-111.821 -341.891)" fill="#ffb27d"/>
        <path id="Caminho_5927" data-name="Caminho 5927" d="M286.522,472.8s-1.245,14.223-4.188,13.6-5.607-1.074-5.176,3.212,4.509,9.243-4.555,10-22.1-22.62-19.607-27.045C260.182,459.795,296.906,457.215,286.522,472.8Z" transform="translate(-88.697 -328.574)" fill="#163560"/>
        <path id="Caminho_5928" data-name="Caminho 5928" d="M418.342,488.721l-18.923,5.055.578,7.8,19.292-.133c1.528-.115,2.553-3.056,2.288-6.571S419.87,488.606,418.342,488.721Z" transform="translate(-193.048 -347.552)" fill="#adcbf9"/>
        <path id="Caminho_5929" data-name="Caminho 5929" d="M397.889,510c-.162-2.155-1.051-3.845-1.987-3.775s-1.566,1.875-1.4,4.029,1.051,3.845,1.99,3.772S398.05,512.155,397.889,510Z" transform="translate(-189.529 -360.001)" fill="#699dee"/>
        <path id="Caminho_5930" data-name="Caminho 5930" d="M416.04,518.41l-5.852.11a2.838,2.838,0,0,0,.133,1.759l5.835.39Z" transform="translate(-200.664 -368.668)" fill="#699dee"/>
        <path id="Caminho_5931" data-name="Caminho 5931" d="M449.6,487.77l-21.727,5.8.673,8.954,22.152-.153c1.765-.13,2.92-3.507,2.631-7.539S451.351,487.637,449.6,487.77Z" transform="translate(-213.28 -346.875)" fill="#adcbf9"/>
        <path id="Caminho_5932" data-name="Caminho 5932" d="M426.115,512.2c-.188-2.473-1.21-4.414-2.285-4.333s-1.8,2.152-1.612,4.622,1.21,4.414,2.285,4.333S426.3,514.669,426.115,512.2Z" transform="translate(-209.241 -361.166)" fill="#699dee"/>
        <path id="Caminho_5933" data-name="Caminho 5933" d="M439.236,513.087a9.4,9.4,0,0,1-1.216-6.664c.835-3.556-2.519-4.91-2.086-6.034s4.988-2.311,7.8,1.733,1.615,9.795,1.615,9.795Z" transform="translate(-218.988 -355.086)" fill="#ffb27d"/>
        <path id="Caminho_5934" data-name="Caminho 5934" d="M345.328,571.38a130.943,130.943,0,0,1,21.828-1.915,5.673,5.673,0,0,0,5.722-6.4l-1.828-20.508a7.511,7.511,0,0,1,4.6-2.964c3.582-.867,4.731,1.077,4.731,1.077s12.247,33.481,3.4,41.245-42.38,12.637-42.38,12.637Z" transform="translate(-151.787 -383.573)" fill="url(#linear-gradient-10)"/>
      </g>
      <path id="Caminho_5935" data-name="Caminho 5935" d="M2511.766,48.692c-1.156,26.964-7.438,59.968-27.38,86.522q-1.1,1.464-2.21,2.888-3.357,4.333-6.825,8.426a7.536,7.536,0,0,1-10.269,1.132l-88.515-66.467a6.88,6.88,0,0,1-1.623-9.3q3.114-4.731,6.525-9.414c.711-.979,1.444-1.956,2.166-2.929,19.931-26.554,49.89-41.779,75.459-50.421A241.846,241.846,0,0,1,2493.817.258a15.813,15.813,0,0,1,4.309-.182,13.838,13.838,0,0,1,5.719,1.852,14.169,14.169,0,0,1,6.756,10.944A241.76,241.76,0,0,1,2511.766,48.692Z" transform="translate(-1688.136 -0.003)" fill="url(#linear-gradient-11)"/>
      <path id="Caminho_5936" data-name="Caminho 5936" d="M2379.884,216.59q-3.876,5.321-7.369,10.687a5.3,5.3,0,0,0,1.268,7.114l90.759,68.168a6.155,6.155,0,0,0,8.377-.924q3.906-4.552,7.672-9.416Z" transform="translate(-1686.611 -154.028)" fill="#9c24af"/>
      <path id="Caminho_5937" data-name="Caminho 5937" d="M2606.527,177.478a26.863,26.863,0,0,1-21.409-42.972h0a26.846,26.846,0,1,1,25.246,42.7A27.26,27.26,0,0,1,2606.527,177.478Zm.1-47.464a20.691,20.691,0,0,0-16.52,8.236l0,0a20.6,20.6,0,1,0,16.522-8.238Z" transform="translate(-1834.593 -88.025)" fill="#b74b42"/>
      <path id="Caminho_5938" data-name="Caminho 5938" d="M2738.393,8.32a15.205,15.205,0,0,0-2.022-6.219A13.838,13.838,0,0,0,2730.632.25l.043.352a242.118,242.118,0,0,1,1.155,35.817c-1.155,26.961-7.443,59.968-27.385,86.522q-1.095,1.464-2.21,2.888c-.491.635-.988,1.268-1.485,1.9l8.666,6.516.546-.7q1.11-1.444,2.21-2.888c19.931-26.554,26.213-59.558,27.383-86.522a242.486,242.486,0,0,0-1.161-35.817Z" transform="translate(-1920.641 -0.178)" fill="#bf35d5"/>
      <path id="Caminho_5939" data-name="Caminho 5939" d="M2720.589,12.868a13.932,13.932,0,0,0-16.8-12.614A242.226,242.226,0,0,0,2669.07,9.13L2721.742,48.7a241.786,241.786,0,0,0-1.152-35.835Z" transform="translate(-1898.112 0.001)" fill="#9c24af"/>
      <path id="Caminho_5940" data-name="Caminho 5940" d="M2342.575,336.746c-8.631-5.734-22.216-.459-30.344,11.776s.91,32.536.91,32.536,22.215.459,30.344-11.776S2351.206,342.476,2342.575,336.746Z" transform="translate(-1641.934 -237.829)" fill="#b74b42"/>
      <path id="Caminho_5941" data-name="Caminho 5941" d="M2510.6,460.125c-8.631-5.734-22.215-.459-30.329,11.776s.91,32.536.91,32.536,22.216.459,30.344-11.776S2519.227,465.856,2510.6,460.125Z" transform="translate(-1761.438 -325.571)" fill="#b74b42"/>
      <path id="Caminho_5942" data-name="Caminho 5942" d="M2336.544,386.063c-5.959-3.957-15.335-.318-20.944,8.128s.63,22.455.63,22.455,15.332.318,20.944-8.128S2342.5,390,2336.544,386.063Z" transform="translate(-1645.078 -273.411)" fill="#ee9849"/>
      <path id="Caminho_5943" data-name="Caminho 5943" d="M2504.864,509.253c-5.956-3.957-15.335-.318-20.945,8.128s.63,22.455.63,22.455,15.335.318,20.944-8.128S2510.82,513.207,2504.864,509.253Z" transform="translate(-1764.778 -361.018)" fill="#ee9849"/>
      <path id="Caminho_5944" data-name="Caminho 5944" d="M2631,250.91l27.833-4.91A18.151,18.151,0,0,1,2631,250.91Z" transform="translate(-1871.038 -174.943)" fill="#ffe6d2"/>
      <path id="Caminho_5945" data-name="Caminho 5945" d="M2645.708,170.208l-35.24,6.675a18.154,18.154,0,1,1,35.24-6.675Z" transform="translate(-1855.683 -108.533)" fill="#ffe6d2"/>
      <g id="Grupo_10682" data-name="Grupo 10682" transform="translate(707.871 192.632)">
        <path id="Caminho_5946" data-name="Caminho 5946" d="M804.56,1092.37s-6.5,1.672-10.641.427-11.255.8-12.417,2.308-.723,2.1,1.321,2.627,9.294,3.61,14.054,1.821a37.911,37.911,0,0,1,10.975-1.853Z" transform="translate(-759.909 -983.62)" fill="#ffb27d"/>
        <path id="Caminho_5947" data-name="Caminho 5947" d="M675.719,899.341s-7.307,51.946-19.422,56.6c-5.973,2.3-32.362,7.5-40.168,8.02,0,0-1.91-1.551-1.446-7.864,0,0,27.649-10.15,31.575-15.671,5.846-8.218-3.63-33.565,3.706-41.283S669.669,888.108,675.719,899.341Z" transform="translate(-574.839 -847.105)" fill="#4a75cb"/>
        <path id="Caminho_5948" data-name="Caminho 5948" d="M561.587,1365.862v-11.325h-17.83a.876.876,0,0,1-.876-.876v-1.815a.875.875,0,0,1,.876-.875h17.83V1286.5a3.3,3.3,0,0,1,3.273-3.289H568.4a3.3,3.3,0,0,1,3.289,3.289v64.462h17.83a.876.876,0,0,1,.876.876v1.815a.876.876,0,0,1-.876.875h-17.83v11.325c12.9.974,23.243,5.62,26.137,11.621H535.45C538.347,1371.481,548.685,1366.836,561.587,1365.862Z" transform="translate(-471.746 -1113.697)" fill="#2b478b"/>
        <path id="Caminho_5949" data-name="Caminho 5949" d="M666.555,1193.26a90.917,90.917,0,0,1-7.142,10.214c-7.855,9.918-16.4,18.091-17.894,25.822a35.009,35.009,0,0,1-1.382,4.948c-.637,1.771-1.391,3.63-2.277,5.556a171.234,171.234,0,0,1-13.3,22.727c-8.6,12.736-16.693,23.389-16.693,23.389l-14.837-.637c.592-1.487,7.065-19.1,15.722-40.6l10.857-26.981,1.436-3.569c1.1-2.741,2.191-5.438,3.248-8.068,8.128-20.2,14.6-36.3,14.6-36.3s32.476-12.306,35.861-4.33C677.546,1172.024,675.279,1178.465,666.555,1193.26Z" transform="translate(-568.137 -1031.587)" fill="#163560"/>
        <path id="Caminho_5950" data-name="Caminho 5950" d="M838.185,1531.779s-.761,12.242-3.13,12.417c-.318.025-12.013.025-12.013.025H808.11s.1-3.687,4.458-4.458,11.672-3.821,14.328-9.6C829.672,1524.106,838.185,1531.779,838.185,1531.779Z" transform="translate(-798.915 -1280.436)" fill="#163560"/>
        <path id="Caminho_5951" data-name="Caminho 5951" d="M678.491,1431.27s10.322,6.632,9.319,8.784c-.134.286-5.836,10.507-5.836,10.507l-7.355,13s-3.095-1.837-1.63-6.021,2.347-12.058-1.4-17.193C667.643,1434.963,678.491,1431.27,678.491,1431.27Z" transform="translate(-604.866 -1214.616)" fill="#163560"/>
        <path id="Caminho_5952" data-name="Caminho 5952" d="M638.468,1166.41s-40.828,25.43-45.377,42.5,54.245,53.49,54.245,53.49,6.448-5.69,7.587-9.87c0,0-26.579-31.839-32.342-38.978-3.541-4.384,52.35-15.175,59.18-25.79s4.381-19.572,4.381-19.572Z" transform="translate(-578.756 -1034.086)" fill="#1c468a"/>
        <rect id="Retângulo_4383" data-name="Retângulo 4383" width="89.529" height="22.762" rx="9.53" transform="translate(50.128 164.969)" fill="#50127b"/>
        <path id="Caminho_5953" data-name="Caminho 5953" d="M622.8,856.336c9.768,2.528,25.965-6.524,25.965-6.524a23.967,23.967,0,0,1-8.619-13.509c-.118-.468-.226-.955-.318-1.439L634.81,833.8l-7.463,6.686a63.709,63.709,0,0,0,1.1,7.546c.162.834.347,1.726.56,2.678A23.007,23.007,0,0,0,622.8,856.336Z" transform="translate(-550.493 -807.377)" fill="#ffb27d"/>
        <path id="Caminho_5954" data-name="Caminho 5954" d="M589.536,964.376a2.47,2.47,0,0,0,.086.318c.955,2.64,9.711,6.2,17.757,8.689,2.885.895,5.68,1.649,7.985,2.178,6.231,1.426,21.842,3.97,23.211-.318,1.592-4.954-.255-33.581,1.146-52.4,1.652-23.007-4.719-43.938-13.576-50.784-.669-.49-1.993.815-5.83,2.636a17.157,17.157,0,0,1-10.774,1.433l-2.971,2.547c-4.1,3.693-8.616,8.734-10.663,16.461-1.251,4.741-2.2,12.236-2.9,20.667-.271,3.267-.506,6.686-.707,10.118-.318,5.48-.6,11.007-.729,16.263v.51c-.057.528-.067,1.108-.073,1.64-.14,4.712-.115,9.1-.274,12.819a2.167,2.167,0,0,1-.016.318c-.2,3.12-1.344,4.527-1.649,5.83A2.455,2.455,0,0,0,589.536,964.376Z" transform="translate(-531.104 -833.382)" fill="#739af0"/>
        <path id="Caminho_5955" data-name="Caminho 5955" d="M645.935,1085.229a2.441,2.441,0,0,0,.086.318c.955,2.639,9.711,6.2,17.757,8.689,16.343-20.476,14.592-44.976,14.592-44.976l-30.4,13.786v.51c-.057.528-.067,1.108-.073,1.64-.14,4.712-.115,9.1-.274,12.818a2.169,2.169,0,0,1-.016.318c-.2,3.12-1.344,4.527-1.649,5.83A2.455,2.455,0,0,0,645.935,1085.229Z" transform="translate(-587.504 -954.236)" fill="#4a75cb"/>
        <path id="Caminho_5956" data-name="Caminho 5956" d="M649.87,840.483a63.68,63.68,0,0,0,1.1,7.546c7.285-2.353,10.59-8.934,11.694-11.726-.118-.468-.226-.955-.318-1.439l-5.018-1.063Z" transform="translate(-573.016 -807.377)" fill="#e2915a"/>
        <path id="Caminho_5957" data-name="Caminho 5957" d="M646.45,797.58s16.009,1.805,16.98-8.179,3.69-16.48-6.489-18.056-12.542,2.041-13.691,5.3S642.311,796.854,646.45,797.58Z" transform="translate(-572.545 -764.547)" fill="#ffb27d"/>
        <path id="Caminho_5958" data-name="Caminho 5958" d="M650.9,776.342s-1.013-13.255-15.585-14.63c-9.982-.955-4.419-9.53-3.353-10.9,0,0,7.641,1.051,15.487,2.343C663.9,755.882,652.514,774.288,650.9,776.342Z" transform="translate(-560.081 -750.81)" fill="#2b478b"/>
        <path id="Caminho_5959" data-name="Caminho 5959" d="M768.271,1018.01l11.277,34.711,39.672-.847.051,2.42-40.477.866-11.924-36.695Z" transform="translate(-766.87 -932.935)" fill="#4a75cb"/>
        <path id="Caminho_5960" data-name="Caminho 5960" d="M791.631,1117.45s-6.282,2.378-10.529,1.592-11.1,2.038-12.07,3.662-.49,2.175,1.592,2.468,9.635,2.566,14.168.261a37.871,37.871,0,0,1,10.7-3.053Z" transform="translate(-743.63 -1000.714)" fill="#ffb27d"/>
        <path id="Caminho_5961" data-name="Caminho 5961" d="M679.138,908.626s-1.538,52.436-13.054,58.393c-5.683,2.939-31.34,11.023-39.041,12.417,0,0-2.07-1.331-2.3-7.657,0,0,26.36-13.137,29.655-19.059,4.906-8.81-7.307-32.957-.866-41.436S671.885,898.131,679.138,908.626Z" transform="translate(-581.483 -854.26)" fill="#739af0"/>
      </g>
      <path id="Caminho_5982" data-name="Caminho 5982" d="M1748.474,652.954c4.162,23.616-9.622,42.75-30.791,42.75-1.378,0-2.79-.953-4.159-1.115,18.85-2.267,30.684-19.567,26.791-41.643S1718.22,612.7,1698.57,610.43a33.574,33.574,0,0,1,4.044-.24C1723.775,610.2,1744.309,629.341,1748.474,652.954Z" transform="translate(-1207.94 -433.937)" fill="#699dee"/>
      <path id="Caminho_5983" data-name="Caminho 5983" d="M1616.374,590.449c6.028,0,9.933-5.569,8.72-12.441s-7.08-12.444-13.108-12.444c-.289,0-.578.026-.884.052a79.143,79.143,0,0,0-3.105-7.426c3.042-2.1,4.622-6.219,3.8-10.95-1.176-6.669-6.733-12.111-12.565-12.421l-7.1.09a9.577,9.577,0,0,0-1.047.058q-1.076-1.014-2.182-1.978a12.243,12.243,0,0,0,.843-7.386c-1.21-6.872-7.08-12.441-13.1-12.441h-.141l-5.916.113h-.505a6.213,6.213,0,0,0-.867.04h0a8.377,8.377,0,0,0-4.362,1.693,9.058,9.058,0,0,0-2.813,3.735l-.427-.1c-.035-.419-.092-.841-.167-1.268-1.21-6.872-7.077-12.444-13.1-12.444l-6.473.107h-.5a8.439,8.439,0,0,0-1.372.168h0c-.289.1-9.8,3.553-6.548,15.543l-.667.289a16.207,16.207,0,0,0-5.272-5.892c-4.188-2.565-6.932-1.958-7.285-1.912l-5.644.026h0c-5.884.15-9.665,5.656-8.469,12.421a16.1,16.1,0,0,0,4.281,8.322c-.2.263-.39.531-.578.8l-1.964.02c-.289-.026-.578-.04-.867-.04a9.4,9.4,0,0,0-1.077.061l-4.991.055h-.491a6.155,6.155,0,0,0-.7.026h-.015a4.3,4.3,0,0,0-.578.058c-5.283.734-8.556,5.985-7.432,12.357a15.646,15.646,0,0,0,9.136,11.641,61.915,61.915,0,0,0-.4,6.658l-2.184.035h-.289c-.228,0-.451.014-.67.029h-.416v.029c-5.407.621-8.781,5.927-7.643,12.38,1.213,6.872,7.08,12.444,13.108,12.444l2.449-.038q.866,2.4,1.877,4.74c-4.217,1.539-6.644,6.285-5.664,11.915,1.155,6.606,6.643,12.007,12.42,12.42h0c.225,0,.451.026.679.026.289,0,.578-.017.866-.043l5.54-.058h.147a9.05,9.05,0,0,0,2.178-.263q1.343,1.36,2.744,2.652a12.056,12.056,0,0,0-1.129,7.964c1.213,6.875,7.083,12.444,13.108,12.444l6.421-.1h.147a8.525,8.525,0,0,0,7.966-5.254c.728.2,1.444.381,2.192.549.038.413.092.838.168,1.265,1.21,6.872,7.08,12.444,13.108,12.444l6.554-.1h.445c5.777-.263,9.463-5.728,8.278-12.42q-.113-.638-.289-1.265c.211-.052.416-.11.627-.168a12.935,12.935,0,0,0,9.671,5.078l6.317-.113h.246c6.025,0,9.931-5.572,8.717-12.444a16.07,16.07,0,0,0-3.119-6.99q1.225-1.568,2.311-3.261h7.548c6.025,0,9.931-5.572,8.717-12.444a15.763,15.763,0,0,0-8.362-11.3q.248-2.64.26-5.367C1615.773,590.415,1616.073,590.449,1616.374,590.449Zm-47.981,29.5c-21.227,0-41.773-18.943-45.9-42.314s9.746-42.319,30.973-42.319,41.776,18.948,45.9,42.319S1589.623,619.953,1568.393,619.953Z" transform="translate(-1058.915 -359.081)" fill="#699dee"/>
      <path id="Caminho_5984" data-name="Caminho 5984" d="M1631.943,590.4c6.025,0,9.928-5.572,8.718-12.444s-7.08-12.444-13.105-12.444c-.289,0-.6.026-.887.052a78.724,78.724,0,0,0-3.1-7.426c3.042-2.1,4.621-6.219,3.8-10.95-1.21-6.872-7.08-12.444-13.105-12.444a8.455,8.455,0,0,0-5.656,2.071q-2.007-2.022-4.133-3.888a12.244,12.244,0,0,0,.843-7.386c-1.21-6.872-7.08-12.444-13.105-12.444-4.431,0-7.7,3.016-8.666,7.34a55.528,55.528,0,0,0-6.4-1.872c-.035-.416-.089-.838-.167-1.265-1.21-6.872-7.077-12.441-13.105-12.441s-9.928,5.569-8.718,12.441a12.532,12.532,0,0,0,.289,1.265,41.178,41.178,0,0,0-7,2.412c-2.409-4.622-6.932-7.88-11.534-7.88-6.025,0-9.928,5.572-8.718,12.444a16.124,16.124,0,0,0,4.284,8.322,44.769,44.769,0,0,0-2.525,3.738,11.993,11.993,0,0,0-7.458-2.857c-6.026,0-9.928,5.572-8.718,12.444a15.63,15.63,0,0,0,9.136,11.638,61.728,61.728,0,0,0-.4,7,10.323,10.323,0,0,0-2.461-.315c-6.025,0-9.931,5.572-8.718,12.444s7.085,12.444,13.111,12.444a8.988,8.988,0,0,0,2.351-.315c.6,1.7,1.265,3.371,1.979,5.017-4.22,1.54-6.644,6.288-5.667,11.912,1.213,6.872,7.08,12.444,13.1,12.444a8.421,8.421,0,0,0,6.418-2.822q2.429,2.692,5.069,5.107a12.032,12.032,0,0,0-1.129,7.966c1.213,6.872,7.08,12.444,13.1,12.444,4.419,0,7.689-3,8.643-7.311a55.629,55.629,0,0,0,8.088,2.5c.035.419.092.841.167,1.268,1.21,6.872,7.077,12.441,13.105,12.441s9.928-5.569,8.718-12.441a12.839,12.839,0,0,0-.289-1.268,40.8,40.8,0,0,0,5.962-1.961c2.519,4.018,6.667,6.771,10.9,6.771,6.026,0,9.928-5.572,8.718-12.444a16.008,16.008,0,0,0-3.12-6.99,45.617,45.617,0,0,0,3.556-5.283,11.555,11.555,0,0,0,6.306,2.022c6.025,0,9.931-5.572,8.717-12.444a15.777,15.777,0,0,0-8.359-11.3c.159-1.756.248-3.544.257-5.364C1631.34,590.365,1631.64,590.4,1631.943,590.4ZM1584.1,619.906c-21.227,0-41.776-18.948-45.9-42.319s9.746-42.316,30.973-42.316,41.776,18.945,45.9,42.316S1605.329,619.906,1584.1,619.906Z" transform="translate(-1074.624 -359.031)" fill="#afcdfb"/>
      <path id="Caminho_5985" data-name="Caminho 5985" d="M2024.448,683.67c3.177,18.056-7.354,32.689-23.538,32.689-1.054,0-2.132-.728-3.177-.852,14.411-1.733,23.46-14.959,20.482-31.837s-16.892-30.765-31.915-32.5a25.106,25.106,0,0,1,3.091-.17C2005.566,651,2021.268,665.62,2024.448,683.67Z" transform="translate(-1412.559 -462.958)" fill="#721181"/>
      <path id="Caminho_5986" data-name="Caminho 5986" d="M1923.417,635.79c4.607,0,7.594-4.26,6.667-9.515s-5.413-9.512-10.02-9.512c-.231,0-.457.02-.679.04a59.437,59.437,0,0,0-2.371-5.676c2.325-1.609,3.538-4.757,2.9-8.377-.9-5.1-5.15-9.243-9.61-9.5l-5.424.066a7.208,7.208,0,0,0-.8.043c-.549-.514-1.1-1.02-1.667-1.511a9.365,9.365,0,0,0,.644-5.647c-.924-5.251-5.413-9.512-10.02-9.512h-.107l-4.523.087h-.384a4.749,4.749,0,0,0-.673.032h0a6.4,6.4,0,0,0-3.336,1.294,6.932,6.932,0,0,0-2.152,2.857l-.327-.081c-.026-.318-.069-.641-.127-.968-.927-5.254-5.41-9.512-10.017-9.512l-4.951.078h-.393a6.5,6.5,0,0,0-1.049.127h0c-.219.075-7.51,2.718-5.009,11.883l-.508.222a12.325,12.325,0,0,0-4.044-4.5c-3.2-1.961-5.289-1.5-5.566-1.464l-4.315.02h0c-4.5.113-7.389,4.333-6.476,9.506a12.309,12.309,0,0,0,3.273,6.355c-.15.2-.289.407-.445.612l-1.5.017c-.219-.02-.445-.032-.667-.032a7,7,0,0,0-.823.046l-3.819.04h-.372a4.691,4.691,0,0,0-.534.02h0a3.308,3.308,0,0,0-.442.043c-4.044.563-6.54,4.578-5.682,9.448a11.96,11.96,0,0,0,6.984,8.9,47.3,47.3,0,0,0-.289,5.09l-1.67.029h-.217a4.269,4.269,0,0,0-.511.02h-.318v.023c-4.134.474-6.713,4.529-5.844,9.463.927,5.254,5.413,9.515,10.02,9.515l1.875-.029c.439,1.225.919,2.435,1.444,3.622-3.226,1.179-5.089,4.806-4.333,9.11.893,5.049,5.072,9.18,9.492,9.489h0c.171,0,.344.02.517.02.228,0,.453-.015.673-.035l4.235-.043h.113a6.907,6.907,0,0,0,1.664-.2q1.031,1.04,2.1,2.022a9.236,9.236,0,0,0-.866,6.089c.927,5.254,5.413,9.512,10.02,9.512l4.91-.075h.113a6.513,6.513,0,0,0,6.089-4.018c.558.15,1.115.289,1.678.419.029.318.069.641.127.968.927,5.254,5.413,9.512,10.02,9.512l5.011-.078h.341c4.417-.2,7.221-4.379,6.329-9.5-.055-.326-.127-.65-.211-.968l.479-.127a9.883,9.883,0,0,0,7.392,3.879l4.83-.084h.188c4.607,0,7.591-4.26,6.667-9.515a12.3,12.3,0,0,0-2.386-5.344c.624-.8,1.211-1.632,1.768-2.493h5.777c4.622,0,7.594-4.261,6.667-9.515a12.065,12.065,0,0,0-6.392-8.639q.185-2.022.2-4.1A4.043,4.043,0,0,0,1923.417,635.79Zm-36.684,22.562c-16.228,0-31.938-14.483-35.087-32.351s7.449-32.351,23.686-32.351,31.938,14.486,35.089,32.351-7.455,32.351-23.686,32.351Z" transform="translate(-1298.588 -405.64)" fill="#721181"/>
      <path id="Caminho_5987" data-name="Caminho 5987" d="M1935.348,635.726c4.607,0,7.591-4.261,6.664-9.512s-5.41-9.515-10.017-9.515c-.231,0-.457.02-.679.04a59.923,59.923,0,0,0-2.374-5.679c2.325-1.606,3.544-4.752,2.906-8.377-.927-5.254-5.413-9.512-10.02-9.512a6.462,6.462,0,0,0-4.333,1.583q-1.534-1.554-3.157-2.972a9.386,9.386,0,0,0,.644-5.647c-.927-5.254-5.413-9.512-10.02-9.512a6.711,6.711,0,0,0-6.615,5.609,42.2,42.2,0,0,0-4.89-1.444c-.029-.318-.069-.641-.127-.968-.927-5.254-5.413-9.512-10.02-9.512s-7.591,4.258-6.664,9.512c.058.326.13.65.214.968a31.353,31.353,0,0,0-5.352,1.843c-1.843-3.524-5.292-6.022-8.818-6.022-4.622,0-7.591,4.258-6.664,9.512a12.311,12.311,0,0,0,3.276,6.355,33.983,33.983,0,0,0-1.932,2.86,9.164,9.164,0,0,0-5.7-2.184c-4.622,0-7.591,4.258-6.667,9.512a11.955,11.955,0,0,0,6.984,8.9,47.591,47.591,0,0,0-.309,5.349,7.965,7.965,0,0,0-1.88-.24c-4.621,0-7.591,4.26-6.664,9.515s5.41,9.512,10.017,9.512a6.835,6.835,0,0,0,1.8-.24q.693,1.95,1.513,3.836c-3.227,1.176-5.089,4.806-4.333,9.1.927,5.254,5.413,9.515,10.02,9.515a6.442,6.442,0,0,0,4.91-2.158q1.854,2.06,3.873,3.905a9.235,9.235,0,0,0-.866,6.089c.927,5.254,5.413,9.512,10.02,9.512a6.7,6.7,0,0,0,6.609-5.589,42.571,42.571,0,0,0,6.176,1.915c.029.318.069.641.127.968.927,5.254,5.413,9.512,10.02,9.512s7.591-4.258,6.664-9.512c-.058-.326-.13-.65-.214-.968a31.654,31.654,0,0,0,4.558-1.5c1.927,3.07,5.1,5.173,8.333,5.173,4.607,0,7.591-4.258,6.664-9.512a12.267,12.267,0,0,0-2.386-5.344,34.407,34.407,0,0,0,2.718-4.044,8.837,8.837,0,0,0,4.821,1.545c4.607,0,7.591-4.26,6.667-9.515a12.08,12.08,0,0,0-6.392-8.639c.121-1.343.19-2.709.2-4.1A3.272,3.272,0,0,0,1935.348,635.726Zm-36.574,22.562c-16.228,0-31.938-14.483-35.086-32.351s7.449-32.351,23.685-32.351,31.935,14.486,35.086,32.351S1915,658.288,1898.774,658.288Z" transform="translate(-1310.626 -405.576)" fill="#991aad"/>
      <path id="Caminho_5988" data-name="Caminho 5988" d="M1081.38,812.1l20,74.627h17.761l-20-74.627Z" transform="translate(-769.025 -577.526)" fill="#afcdfb"/>
      <path id="Caminho_5989" data-name="Caminho 5989" d="M1163.72,785.72l22.039,82.247h17.761l-22.039-82.247Z" transform="translate(-827.581 -558.765)" fill="#afcdfb"/>
      <path id="Caminho_5990" data-name="Caminho 5990" d="M1240.02,740.29l25.554,95.369h17.761l-25.554-95.369Z" transform="translate(-881.842 -526.458)" fill="#afcdfb"/>
      <path id="Caminho_5991" data-name="Caminho 5991" d="M1341.942,706.82H1324.18l25.555,95.372H1367.5Z" transform="translate(-941.692 -502.656)" fill="#afcdfb"/>
      <path id="Caminho_5992" data-name="Caminho 5992" d="M1080.148,704.506l19.032-14.63,1.444,5.37a3.319,3.319,0,0,0,1.857,2.088,2.157,2.157,0,0,0,2.386-.231l20.326-19.416,2.845,2.556c.344.309.809.168.763-.231l-.913-8.137a.658.658,0,0,0-.6-.546l-8.44-.269c-.413,0-.517.462-.167.774l2.539,2.282-17.2,16.435-1.317-4.91a3.319,3.319,0,0,0-1.759-2.045,2.279,2.279,0,0,0-2.354.078l-22.007,16.915c-.9.69-.835,2.135.147,3.221a3.154,3.154,0,0,0,2.262,1.08A1.882,1.882,0,0,0,1080.148,704.506Z" transform="translate(-765.165 -477.225)" fill="#afcdfb"/>
      <path id="Caminho_5993" data-name="Caminho 5993" d="M1071.38,999.8l.748,2.906A8.015,8.015,0,0,1,1071.38,999.8Z" transform="translate(-761.913 -711.009)" fill="#cae0ff"/>
      <path id="Caminho_5994" data-name="Caminho 5994" d="M1450.873,664.179H1082.3l-8.3-31.727c7.64,16.4,69.734-1.545,83.653-11.528,25.448-18.371,25.635-36.461,51.973-48.74,35.664-16.638,71.328,9.419,100.008,2.3,87.963-21.791,160.889-93.073,163.133-95.32-24.7,57.175-84.87,87.261-38.616,106.008C1482.143,604.613,1450.873,664.179,1450.873,664.179Z" transform="translate(-763.776 -340.755)" fill="#cae0ff"/>
      <path id="Caminho_5995" data-name="Caminho 5995" d="M1058.022,528.994a39.791,39.791,0,0,0-6.484-2.669,25.116,25.116,0,0,1-3.252-1.3,3.1,3.1,0,0,1-1.583-1.875,2.184,2.184,0,0,1,.329-2.29,2.992,2.992,0,0,1,2.262-.812,8.873,8.873,0,0,1,2.776.633,8.887,8.887,0,0,0,2.415.633,1.655,1.655,0,0,0,1.34-.52,1.451,1.451,0,0,0,.162-1.418,3.554,3.554,0,0,0-1.664-1.9,11.263,11.263,0,0,0-6.066-1.508,7.22,7.22,0,0,0-5.384,1.878q-2.022,2.022-.973,5.442a9.041,9.041,0,0,0,4.841,5.555l6.577,2.38q3.541,1.3,4.243,3.6a2.94,2.94,0,0,1-.341,2.724,2.8,2.8,0,0,1-2.415,1.135,10.77,10.77,0,0,1-2.987-.433c-.055-.023-.728-.254-2.022-.687a7.75,7.75,0,0,0-1.817-.505,1.693,1.693,0,0,0-1.387.543,1.546,1.546,0,0,0-.162,1.479q.578,1.915,4.044,2.964a16.728,16.728,0,0,0,4.974.794q4.009,0,5.947-2.164,2.077-2.311.867-6.239A9.419,9.419,0,0,0,1058.022,528.994Z" transform="translate(-740.693 -366.932)" fill="#afcdfb"/>
      <path id="Caminho_5996" data-name="Caminho 5996" d="M1108.922,520.946h3.712q2.868,0,2.227-2.094t-3.576-2.132h-11.843q-2.923,0-2.273,2.132t3.53,2.094h3.645l5.953,19.466q.893,2.964,3.154,2.964,2.328,0,1.424-2.964Z" transform="translate(-780.169 -367.466)" fill="#afcdfb"/>
      <path id="Caminho_5997" data-name="Caminho 5997" d="M1194.673,539.2l-13.966-20.866q-1.8-2.712-4.223-2.709-2.349,0-2.536,2.926l-1.366,20.693a3.649,3.649,0,0,0,.182,1.3,2.747,2.747,0,0,0,1.092,1.5,2.993,2.993,0,0,0,1.733.56q1.519,0,1.626-1.912l.17-4.333h10.641l2.744,4.214a3.626,3.626,0,0,0,2.955,2.022,1.8,1.8,0,0,0,1.427-.56,1.437,1.437,0,0,0,.217-1.462A5.382,5.382,0,0,0,1194.673,539.2Zm-17.126-6.9.428-11.121a1.816,1.816,0,0,1,.058-.361l7.415,11.482Z" transform="translate(-833.881 -366.684)" fill="#afcdfb"/>
      <path id="Caminho_5998" data-name="Caminho 5998" d="M1259.206,539l-8.79-7.259q6.959-.505,4.911-7.187a10.317,10.317,0,0,0-4.448-5.924,12.626,12.626,0,0,0-6.932-1.915h-5.165q-2.851,0-1.932,3.007l6.355,20.751q.907,2.969,3.177,2.969,2.328,0,1.444-2.943l-2.646-8.651.237.182,11.424,10a4.661,4.661,0,0,0,2.785,1.41,1.618,1.618,0,0,0,1.349-.56,1.546,1.546,0,0,0,.17-1.462A5.826,5.826,0,0,0,1259.206,539Zm-11.973-10.15a15.624,15.624,0,0,1-3.076-.217l-2.374-7.764h3.374q4.281,0,5.471,3.882,1.254,4.1-3.394,4.1Z" transform="translate(-879.427 -367.46)" fill="#afcdfb"/>
      <path id="Caminho_5999" data-name="Caminho 5999" d="M1310.458,520.946h3.706q2.868,0,2.227-2.094t-3.576-2.132h-11.843q-2.923,0-2.273,2.132t3.53,2.094h3.645l5.953,19.466q.9,2.964,3.177,2.964,2.325,0,1.424-2.964Z" transform="translate(-923.487 -367.466)" fill="#afcdfb"/>
      <path id="Caminho_6000" data-name="Caminho 6000" d="M1423.781,591.922a3.493,3.493,0,0,0-1.282-1.759,3.239,3.239,0,0,0-1.993-.742,1.733,1.733,0,0,0-1.539.742,1.949,1.949,0,0,0-.2,1.765,3.484,3.484,0,0,0,1.282,1.768,3.243,3.243,0,0,0,1.993.742,1.753,1.753,0,0,0,1.539-.742A1.956,1.956,0,0,0,1423.781,591.922Z" transform="translate(-1008.867 -419.164)" fill="#afcdfb"/>
      <path id="Caminho_6001" data-name="Caminho 6001" d="M1405.215,530.35l-4.044-13.177q-.866-2.862-3.1-2.862t-1.317,2.862l4.044,13.177q.9,2.966,3.134,2.967T1405.215,530.35Z" transform="translate(-993.114 -365.752)" fill="#afcdfb"/>
      <path id="Caminho_6002" data-name="Caminho 6002" d="M1756.838,851.745H1577.91c7.637-6.28,18.088-17.152,23.619-32.758,9.373-26.337,41.38-15.465,69.639-20.011,28.307-4.547,85.4-62.172,87.357-55.534,1.046,3.556-11.719,50.378,7.028,55.676C1784.064,804.319,1791.141,833.562,1756.838,851.745Z" transform="translate(-1122.132 -528.32)" fill="#afcdfb"/>
    </g>
  </g>
</svg>
