<svg xmlns="http://www.w3.org/2000/svg" xmlns:xlink="http://www.w3.org/1999/xlink" width="834.267" height="390.925" viewBox="0 0 834.267 390.925">
  <defs>
    <linearGradient id="linear-gradient" x1="0.5" x2="0.5" y2="1" gradientUnits="objectBoundingBox">
      <stop offset="0" stop-color="#47225e"/>
      <stop offset="1" stop-color="#47225e" stop-opacity="0.749"/>
    </linearGradient>
    <linearGradient id="linear-gradient-2" x1="0.5" x2="0.5" y2="1" gradientUnits="objectBoundingBox">
      <stop offset="0" stop-color="#e66bcc"/>
      <stop offset="1" stop-color="#733666"/>
    </linearGradient>
    <linearGradient id="linear-gradient-3" x1="0.5" x2="0.5" y2="1" gradientUnits="objectBoundingBox">
      <stop offset="0" stop-color="#47225e"/>
      <stop offset="1" stop-color="#47225e" stop-opacity="0.141"/>
    </linearGradient>
    <linearGradient id="linear-gradient-5" x1="0.229" y1="0.466" x2="0.97" y2="1" gradientUnits="objectBoundingBox">
      <stop offset="0" stop-color="#991aad"/>
      <stop offset="1" stop-color="#2f0e65"/>
    </linearGradient>
    <linearGradient id="linear-gradient-6" x1="0.105" y1="0.116" x2="1" y2="1.017" xlink:href="#linear-gradient-5"/>
    <linearGradient id="linear-gradient-7" x1="0" y1="0.642" x2="0.86" y2="1" xlink:href="#linear-gradient-5"/>
    <linearGradient id="linear-gradient-8" x1="0" y1="0.039" x2="0.925" y2="1.034" xlink:href="#linear-gradient-5"/>
    <linearGradient id="linear-gradient-9" x1="0" y1="0" x2="0.994" y2="1" xlink:href="#linear-gradient-5"/>
    <linearGradient id="linear-gradient-10" x1="0" y1="0" x2="1" y2="1" xlink:href="#linear-gradient-5"/>
    <linearGradient id="linear-gradient-11" x1="0.152" y1="0.042" x2="0.895" y2="1" xlink:href="#linear-gradient-5"/>
  </defs>
  <g id="Camada_2" data-name="Camada 2" transform="translate(0 -33.069)">
    <g id="Слой_2" data-name="Слой 2" transform="translate(0 0)">
      <path id="Caminho_5796" data-name="Caminho 5796" d="M208.747,513.277S117.289,520.449,89.121,466.9c-41.879-79.623,39.517-143.806,98.566-132.252C316.357,359.825,285.374,82.064,491.87,138.741c58.066,15.95,214.948-78.741,258.7,73.085,10.4,36.105,47.268,40.079,100.781,62.989C956.08,319.66,908.194,514.034,833.36,514.8S208.747,513.277,208.747,513.277Z" transform="translate(-77.602 -90.958)" fill="#ebf2f9"/>
      <path id="Caminho_5799" data-name="Caminho 5799" d="M2246.912,550.75s-25.66,25.255-26.835,34.778,11.643,24.418,11.643,24.418Z" transform="translate(-1983.677 -403.943)" fill="url(#linear-gradient)"/>
      <path id="Caminho_5800" data-name="Caminho 5800" d="M2061.55,1522.935s.832,13.426,3.428,13.618c.346.027,13.175.027,13.175.027l16.376-.1s-.109-3.945-4.893-4.779-12.794-4.2-15.7-10.526C2070.885,1514.523,2061.55,1522.935,2061.55,1522.935Z" transform="translate(-1789.062 -1113.834)" fill="#163560"/>
      <path id="Caminho_5801" data-name="Caminho 5801" d="M2198.4,1522.935s.834,13.426,3.43,13.618c.347.027,13.173.027,13.173.027l16.376-.1s-.107-3.945-4.894-4.779-12.794-4.2-15.7-10.526C2207.737,1514.523,2198.4,1522.935,2198.4,1522.935Z" transform="translate(-1962.388 -1113.834)" fill="#163560"/>
      <path id="Caminho_5802" data-name="Caminho 5802" d="M2172.792,937.016s-4.283,27.392-20.257,76.017-18.153,69.681-18.153,69.681l-17.142-.48s-.146-53.142,7.218-77.595,1.6-88.15,1.6-88.15Z" transform="translate(-1882.169 -672.198)" fill="#163560"/>
      <path id="Caminho_5803" data-name="Caminho 5803" d="M2135.59,922.12a664.573,664.573,0,0,1-6.536,91.956c-7.144,50.68-4.707,72.2-4.707,72.2l-17.106.568s-10.222-50.7-7.29-76.067-14-87.049-14-87.049Z" transform="translate(-1836.639 -676.328)" fill="#1c468a"/>
      <path id="Caminho_5804" data-name="Caminho 5804" d="M2136.17,503.549l8.065,5.973,11.662-2.452c-.163-1.066-.93-5.472-1.631-9.462-.043-.237-.085-.472-.125-.7-.6-3.4-1.119-6.314-1.119-6.314l-10.891-5.429-4.06-2.023c0,.072.314,3.769.357,4.31A34.879,34.879,0,0,1,2136.17,503.549Z" transform="translate(-1870.318 -354.353)" fill="#ffb27d"/>
      <path id="Caminho_5805" data-name="Caminho 5805" d="M2139.717,536.836c-.267-.109-15.862-4.715-17.557-4.155s-2.7,3.841-2.7,3.841l25.526,5.771S2142.977,538.208,2139.717,536.836Z" transform="translate(-1854.955 -390.654)" fill="#693173"/>
      <path id="Caminho_5806" data-name="Caminho 5806" d="M2075.574,651.868c2.644,12.069,46.669,13.5,58.015,2.545,1.293-1.247,1.354-7.058.869-14.889-.951-15.3-4.011-38.32-4.129-50.08a93.157,93.157,0,0,0-1.879-16.763,136.238,136.238,0,0,0-5.584-20.062s-21.5-6.951-25.527-5.771C2077.944,552.544,2072.93,639.812,2075.574,651.868Z" transform="translate(-1832.834 -400.982)" fill="url(#linear-gradient-2)"/>
      <path id="Caminho_5807" data-name="Caminho 5807" d="M2097.44,704.7c-.951-15.3-4.011-38.32-4.128-50.08a93.181,93.181,0,0,0-1.879-16.763L2078.5,635.58S2065.861,687.233,2097.44,704.7Z" transform="translate(-1795.824 -466.162)" fill="url(#linear-gradient-3)"/>
      <path id="Caminho_5808" data-name="Caminho 5808" d="M2095.128,809.387a3.04,3.04,0,0,0,.97,3.521c1.852,1.415,3.052,3.708,2.628,5.384s-4.486,4.409-5.893,3.966-4.264-2.647-3.966-3.529-1.927-7.756,1.506-10.4S2095.128,809.387,2095.128,809.387Z" transform="translate(-1800.509 -592.173)" fill="#ffb27d"/>
      <path id="Caminho_5809" data-name="Caminho 5809" d="M2016.261,558.82s12.588,1.943,22.639,16.755,16.653,25.825,14.814,31.164-18.729,23.855-21.64,23.855-7.6-2.116-7.868-6.877c0,0,11.883-17.81,9.542-20.478-1-1.138-15.427-12.85-17.487-7.562C2012.854,604.43,2016.261,558.82,2016.261,558.82Z" transform="translate(-1736.08 -409.862)" fill="url(#linear-gradient-2)"/>
      <path id="Caminho_5810" data-name="Caminho 5810" d="M2142.6,493.181c2.4,4.576,11.3,8.529,15.019,9.99-.042-.237-.085-.472-.125-.7-.6-3.4-1.119-6.314-1.119-6.314l-10.891-5.429C2143.079,490.692,2141.615,491.3,2142.6,493.181Z" transform="translate(-1873.674 -359.916)" fill="#fca56b"/>
      <path id="Caminho_5811" data-name="Caminho 5811" d="M2145.288,419.727s-19.646,6.13-23.277-6.165-8.607-19.782,3.785-24.215,16.221-.466,18.431,3.342S2150.3,417.816,2145.288,419.727Z" transform="translate(-1857.293 -284.125)" fill="#ffb27d"/>
      <path id="Caminho_5812" data-name="Caminho 5812" d="M2169.947,373.609s-1.133,14.758-4.1,14.092-5.664-1.165-5.192,3.292,4.624,9.633-4.507,10.342-22.469-23.677-19.99-28.253C2143.283,359.883,2180.283,357.518,2169.947,373.609Z" transform="translate(-1886.094 -265.759)" fill="#163560"/>
      <path id="Caminho_5813" data-name="Caminho 5813" d="M2563.768,910.68s7.538,1.935,12.327.493,13.034.928,14.361,2.665.842,2.442-1.527,3.044-10.763,4.182-16.28,2.111-12.711-2.148-12.711-2.148Z" transform="translate(-2418.555 -667.937)" fill="#e49963"/>
      <path id="Caminho_5814" data-name="Caminho 5814" d="M2641.621,641.966s8.465,60.166,22.483,65.545c6.93,2.665,37.483,8.687,46.527,9.292,0,0,2.215-1.8,1.674-9.11,0,0-32.025-11.757-36.574-18.151-6.77-9.518,4.2-38.877-4.294-47.814S2648.631,628.959,2641.621,641.966Z" transform="translate(-2561.534 -464.682)" fill="#4a75cb"/>
      <path id="Caminho_5815" data-name="Caminho 5815" d="M2775.843,1271.547v-13.231h-20.654a1.016,1.016,0,0,1-1.013-1.013v-2.1a1.015,1.015,0,0,1,1.013-1.012h20.654v-74.668a3.82,3.82,0,0,1,3.809-3.809h4.089a3.819,3.819,0,0,1,3.809,3.809v74.674H2808.2a1.018,1.018,0,0,1,1.016,1.013v2.1a1.018,1.018,0,0,1-1.016,1.013H2787.55v13.231c14.945,1.13,26.92,6.511,30.273,13.463H2745.57C2748.928,1278.059,2760.9,1272.677,2775.843,1271.547Z" transform="translate(-2694.674 -862.326)" fill="#2b478b"/>
      <path id="Caminho_5816" data-name="Caminho 5816" d="M2587.772,1043.447a105.362,105.362,0,0,0,8.263,11.832c9.1,11.485,19,20.955,20.729,29.908a40.264,40.264,0,0,0,1.6,5.728c.719,2.052,1.6,4.206,2.639,6.437,3.859,8.385,9.635,17.783,15.4,26.326,9.966,14.766,19.337,27.086,19.337,27.086l17.184-.73c-.688-1.722-8.183-22.123-18.21-47.028-4.07-10.115-8.4-20.875-12.578-31.249l-1.663-4.134-3.761-9.345c-9.414-23.4-16.915-42.025-16.915-42.025s-37.63-14.254-41.537-5.019C2575.039,1018.851,2577.665,1026.311,2587.772,1043.447Z" transform="translate(-2504.831 -739.405)" fill="#163560"/>
      <path id="Caminho_5817" data-name="Caminho 5817" d="M2508.2,1519.019s.842,14.249,3.585,14.452c.365.029,31.385,0,31.385,0s-.248-4.307-5.3-5.19-13.519-4.435-16.581-11.117C2518.062,1510.135,2508.2,1519.019,2508.2,1519.019Z" transform="translate(-2356.752 -1110.784)" fill="#163560"/>
      <path id="Caminho_5818" data-name="Caminho 5818" d="M2765.787,1379.58s-11.955,7.682-10.795,10.174c.154.333,6.762,12.165,6.762,12.165l8.53,15.054s3.585-2.132,1.886-6.975-2.716-13.967,1.624-19.9C2778.352,1383.858,2765.787,1379.58,2765.787,1379.58Z" transform="translate(-2654.131 -1011.857)" fill="#163560"/>
      <path id="Caminho_5819" data-name="Caminho 5819" d="M2585.416,1012.63s47.532,29.586,52.8,49.355-62.829,61.952-62.829,61.952-7.463-6.589-8.8-11.424c0,0,30.782-36.878,37.459-45.146,4.1-5.064-60.635-17.576-68.546-29.879s-5.078-22.656-5.078-22.656Z" transform="translate(-2457.888 -742.713)" fill="#1c468a"/>
      <rect id="Retângulo_4380" data-name="Retângulo 4380" width="103.697" height="26.363" rx="13.182" transform="translate(35.172 307.859)" fill="#50127b"/>
      <path id="Caminho_5820" data-name="Caminho 5820" d="M2782.96,571.466s18.756,10.486,30.073,7.559a26.7,26.7,0,0,0-7.2-6.52c.248-1.1.464-2.132.65-3.1a73.91,73.91,0,0,0,1.277-8.74l-8.641-7.743-5.811,1.231c-.112.57-.234,1.125-.373,1.669C2790.242,566.572,2782.96,571.466,2782.96,571.466Z" transform="translate(-2699.85 -405.534)" fill="#e49963"/>
      <path id="Caminho_5821" data-name="Caminho 5821" d="M2722.709,664.639c1.621,21.8-.512,54.952,1.332,60.694,1.6,4.955,19.668,2.01,26.886.357,2.666-.613,5.906-1.487,9.246-2.521,9.329-2.887,19.479-7.007,20.569-10.067a2.7,2.7,0,0,0,.1-.352h0c.019-.077.032-.155.043-.229a2.887,2.887,0,0,0-.061-1.047c-.363-1.559-1.762-3.247-1.927-7.109-.184-4.31-.157-9.388-.32-14.846a17.886,17.886,0,0,0-.083-1.9v-.573c-.157-6.088-.477-12.49-.845-18.836-.234-4-.506-7.937-.818-11.728-.8-9.766-1.908-18.45-3.358-23.938-2.37-8.95-7.594-14.788-12.352-19.066l-3.438-2.951a19.876,19.876,0,0,1-12.482-1.663c-4.441-2.108-5.976-3.62-6.749-3.049C2728.176,613.735,2720.8,637.99,2722.709,664.639Z" transform="translate(-2651.583 -444.242)" fill="#739af0"/>
      <path id="Caminho_5822" data-name="Caminho 5822" d="M2739.391,903.09c9.329-2.887,19.479-7.007,20.569-10.067a2.738,2.738,0,0,0,.1-.352h0a.713.713,0,0,1,.042-.229,2.883,2.883,0,0,0-.061-1.048c-.363-1.559-1.762-3.246-1.927-7.109-.184-4.31-.157-9.388-.32-14.846a17.945,17.945,0,0,0-.083-1.9v-.573L2722.489,851S2720.461,879.371,2739.391,903.09Z" transform="translate(-2630.805 -624.164)" fill="#4a75cb"/>
      <path id="Caminho_5823" data-name="Caminho 5823" d="M2802.73,555.849c1.279,3.233,5.109,10.856,13.548,13.594a73.867,73.867,0,0,0,1.277-8.74l-8.641-7.743-5.81,1.231C2802.991,554.751,2802.869,555.306,2802.73,555.849Z" transform="translate(-2709.642 -405.564)" fill="#d68d5d"/>
      <path id="Caminho_5824" data-name="Caminho 5824" d="M2794.368,496.814s-18.543,2.092-19.667-9.476-4.265-19.087,7.517-20.913,14.523,2.367,15.837,6.13S2799.161,495.972,2794.368,496.814Z" transform="translate(-2683.035 -341.771)" fill="#e49963"/>
      <path id="Caminho_5825" data-name="Caminho 5825" d="M2776.381,467.723s1.176-15.355,18.055-16.947c11.56-1.087,5.115-11.04,3.881-12.626,0,0-8.857,1.213-17.936,2.713C2761.324,444.014,2774.51,465.332,2776.381,467.723Z" transform="translate(-2684.636 -321.355)" fill="#2b478b"/>
      <path id="Caminho_5826" data-name="Caminho 5826" d="M2468.812,847.021l45.946.981,13.063-40.2,1.623.525-13.809,42.5-46.884-1Z" transform="translate(-2332.511 -592.478)" fill="#4a75cb"/>
      <path id="Caminho_5827" data-name="Caminho 5827" d="M2581.539,945.39s7.277,2.753,12.2,1.847,12.854,2.359,13.98,4.24.567,2.519-1.865,2.857-11.158,2.969-16.412.3-12.4-3.537-12.4-3.537Z" transform="translate(-2440.204 -693.396)" fill="#e49963"/>
      <path id="Caminho_5828" data-name="Caminho 5828" d="M2656.74,655.078s1.781,60.734,15.118,67.634c6.581,3.406,36.3,12.767,45.218,14.366,0,0,2.4-1.541,2.666-8.87,0,0-30.532-15.217-34.352-22.072-5.68-10.206,8.466-38.176,1.005-48S2665.142,642.924,2656.74,655.078Z" transform="translate(-2572.916 -475.326)" fill="#739af0"/>
      <path id="Caminho_5829" data-name="Caminho 5829" d="M1015.955,688.132l18.842,224.04s1.975,13.594-8.127,13.594c-16.611.04-82.673,0-82.673,0s12.5-2.828,12.352-9.188C956.17,909.08,934.324,686,934.324,686Z" transform="translate(-429.035 -503.143)" fill="url(#linear-gradient-5)"/>
      <path id="Caminho_5830" data-name="Caminho 5830" d="M964.5,910.517c3.268,0,66.368.208,82.539,0,7.05-.088,8.287-6.269,8.345-10.27a19.882,19.882,0,0,0-.216-3.335l-.488-5.821-1.25-14.844-1.1-13.111-1.418-16.851-1.2-14.228-13.388-159.2-81.63-2.132s9.2,93.358,15.71,161.315c.725,7.572,1.415,14.833,2.055,21.608q.312,3.246.6,6.341c.605,6.429,1.157,12.333,1.637,17.546.267,2.748.485,5.3.7,7.639.829,9.166,1.317,15.017,1.333,16.131a9.287,9.287,0,0,1-.16,1.812C975.217,910.282,965.726,910.517,964.5,910.517Z" transform="translate(-454.896 -491.943)" fill="url(#linear-gradient-6)"/>
      <path id="Caminho_5831" data-name="Caminho 5831" d="M732.528,236.61l-45.9,184.357-6.282,25.249-21.376,85.868H261.83L340.619,236.61Z" transform="translate(52.636 -173.533)" fill="url(#linear-gradient-7)"/>
      <path id="Caminho_5832" data-name="Caminho 5832" d="M311.53,236.61l6.36,2.122L246.427,538.5l-8.457-6.413Z" transform="translate(473.634 -173.533)" fill="url(#linear-gradient-8)"/>
      <path id="Caminho_5833" data-name="Caminho 5833" d="M911.675,1351.583H516.981l-10.9-6.413H903.218Z" transform="translate(-191.614 -986.618)" fill="url(#linear-gradient-9)"/>
      <rect id="Retângulo_4381" data-name="Retângulo 4381" width="85.458" height="4.062" transform="translate(495.997 418.662)" fill="url(#linear-gradient-10)"/>
      <path id="Caminho_5834" data-name="Caminho 5834" d="M264.125,477.639l64.441-237.121H716.218V236.61H323.675l-64.225,240.5Z" transform="translate(69.579 -173.533)" fill="#9019a7"/>
      <path id="Caminho_5835" data-name="Caminho 5835" d="M962.03,1369.23l.44,3.105,80.369,16.235-1.1-13.111-.525-6.229Z" transform="translate(-444.307 -1004.265)" fill="#8c18a4" opacity="0.683"/>
      <path id="Caminho_5836" data-name="Caminho 5836" d="M954.7,1500.688c3.268,0,66.368.208,82.539,0,7.05-.088,8.287-6.269,8.345-10.27L965.6,1475.37c.829,9.166,1.317,15.017,1.333,16.131a9.266,9.266,0,0,1-.16,1.812C965.42,1500.454,955.929,1500.688,954.7,1500.688Z" transform="translate(-445.098 -1082.115)" fill="#8d18a5" opacity="0.4"/>
      <path id="Caminho_5837" data-name="Caminho 5837" d="M457.6,1049.064l174.455,59.814,21.379-85.868Z" transform="translate(79.549 -750.327)" fill="#991aad" opacity="0.258"/>
      <path id="Caminho_5838" data-name="Caminho 5838" d="M717.324,236.61H325.415L261.83,474.078h398.4Z" transform="translate(67.839 -173.533)" fill="url(#linear-gradient-11)"/>
      <ellipse id="Elipse_1161" data-name="Elipse 1161" cx="9.569" cy="11.618" rx="9.569" ry="11.618" transform="matrix(-0.672, -0.74, 0.74, -0.672, 510.877, 345.498)" fill="#f2f1f0"/>
      <path id="Caminho_5839" data-name="Caminho 5839" d="M322.74,498.79H689.685l41.556-165.545,3.185-12.7,2.719-10.83,6.373-25.391H381.864l-7,25.391-2.985,10.83-3.5,12.7Z" transform="translate(25.411 -208.534)" fill="#e9f3fe"/>
      <path id="Caminho_5840" data-name="Caminho 5840" d="M322.74,309.72H685.02l6.373-25.391H329.739Z" transform="translate(77.535 -208.534)" fill="#afcdfb"/>
      <path id="Caminho_5841" data-name="Caminho 5841" d="M382.566,315.48a2.4,2.4,0,0,1,2.383,3.174,4.332,4.332,0,0,1-3.966,3.172,2.4,2.4,0,0,1-2.383-3.172A4.338,4.338,0,0,1,382.566,315.48Z" transform="translate(369.019 -231.381)" fill="#e9f3fe"/>
      <path id="Caminho_5842" data-name="Caminho 5842" d="M422.134,315.48a2.4,2.4,0,0,1,2.383,3.174,4.332,4.332,0,0,1-3.963,3.172,2.4,2.4,0,0,1-2.383-3.172A4.325,4.325,0,0,1,422.134,315.48Z" transform="translate(318.904 -231.381)" fill="#e9f3fe"/>
      <path id="Caminho_5843" data-name="Caminho 5843" d="M460.77,318.654a4.335,4.335,0,0,1,3.966-3.174,2.4,2.4,0,0,1,2.383,3.174,4.332,4.332,0,0,1-3.966,3.172A2.394,2.394,0,0,1,460.77,318.654Z" transform="translate(264.947 -231.381)" fill="#e9f3fe"/>
      <path id="Caminho_5844" data-name="Caminho 5844" d="M1322.5,604.821c2.649-10.624,13.457-19.271,24.092-19.271a15.157,15.157,0,0,1,12.306,5.573c2.932,3.732,3.8,8.74,2.471,14.073-2.649,10.627-13.458,19.271-24.092,19.271a15.151,15.151,0,0,1-12.3-5.573C1322.039,615.152,1321.167,610.154,1322.5,604.821Zm3.7,13.116a13.656,13.656,0,0,0,11.077,4.974c9.966,0,20.094-8.116,22.584-18.09,1.21-4.859.432-9.382-2.188-12.741a13.665,13.665,0,0,0-11.08-4.974c-9.966,0-20.094,8.116-22.581,18.09-1.223,4.859-.445,9.385,2.178,12.741Z" transform="translate(-859.362 -429.467)" fill="#991aad"/>
      <path id="Caminho_5845" data-name="Caminho 5845" d="M1377.99,635.919l1.938-13.545.152-.613h5.456l-.154.613-4.817,13.545Z" transform="translate(-897.873 -456.026)" fill="#991aad"/>
      <path id="Caminho_5846" data-name="Caminho 5846" d="M1400.576,683.85l-1.224,4.9h-4.963l1.221-4.9Z" transform="translate(-917.285 -501.566)" fill="#991aad"/>
      <path id="Caminho_5847" data-name="Caminho 5847" d="M1366.978,777.468c2.649-10.624,13.458-19.268,24.093-19.268a15.158,15.158,0,0,1,12.306,5.571c2.932,3.732,3.8,8.74,2.471,14.073-2.649,10.627-13.458,19.271-24.093,19.271a15.154,15.154,0,0,1-12.306-5.571C1366.525,787.8,1365.648,782.8,1366.978,777.468Zm3.7,13.116a13.657,13.657,0,0,0,11.077,4.974c9.966,0,20.095-8.116,22.581-18.09,1.213-4.859.435-9.382-2.188-12.741a13.655,13.655,0,0,0-11.077-4.971c-9.966,0-20.094,8.113-22.581,18.087C1367.276,782.7,1368.055,787.229,1370.677,790.585Z" transform="translate(-915.695 -556.099)" fill="#991aad"/>
      <path id="Caminho_5848" data-name="Caminho 5848" d="M1422.43,808.559l1.938-13.546.152-.613h5.456l-.155.613L1425,808.559Z" transform="translate(-954.158 -582.65)" fill="#991aad"/>
      <path id="Caminho_5849" data-name="Caminho 5849" d="M1445.016,856.49l-1.224,4.9h-4.963l1.221-4.9Z" transform="translate(-973.57 -628.191)" fill="#991aad"/>
      <path id="Caminho_5850" data-name="Caminho 5850" d="M1511.5,623.585a1.662,1.662,0,0,1-1.647-2.191,3.007,3.007,0,0,1,2.74-2.194h39.05a1.661,1.661,0,0,1,1.647,2.194,3.006,3.006,0,0,1-2.74,2.191Z" transform="translate(-1100.826 -454.148)" fill="#afcdfb"/>
      <path id="Caminho_5851" data-name="Caminho 5851" d="M1485.545,512.751a3,3,0,0,1,2.737-2.191h39.051a1.659,1.659,0,0,1,1.647,2.191,3,3,0,0,1-2.737,2.191h-39.051A1.663,1.663,0,0,1,1485.545,512.751Z" transform="translate(-1070.034 -374.465)" fill="#afcdfb"/>
      <path id="Caminho_5852" data-name="Caminho 5852" d="M1519.292,654.935a1.659,1.659,0,0,1-1.647-2.191,3,3,0,0,1,2.74-2.194h39.059a1.66,1.66,0,0,1,1.645,2.194,3,3,0,0,1-2.738,2.191Z" transform="translate(-1110.698 -477.142)" fill="#afcdfb"/>
      <path id="Caminho_5853" data-name="Caminho 5853" d="M1525.486,684.071a3,3,0,0,1,2.737-2.191h39.053a1.659,1.659,0,0,1,1.645,2.191,3,3,0,0,1-2.74,2.194H1527.13A1.658,1.658,0,0,1,1525.486,684.071Z" transform="translate(-1120.62 -500.121)" fill="#afcdfb"/>
      <path id="Caminho_5854" data-name="Caminho 5854" d="M1555.947,796.224a1.659,1.659,0,0,1-1.647-2.191,3.006,3.006,0,0,1,2.74-2.194h39.051a1.663,1.663,0,0,1,1.647,2.194,3.006,3.006,0,0,1-2.74,2.191Z" transform="translate(-1157.116 -580.773)" fill="#afcdfb"/>
      <path id="Caminho_5855" data-name="Caminho 5855" d="M1563.76,827.565a1.659,1.659,0,0,1-1.644-2.191,3,3,0,0,1,2.74-2.194h39.051a1.66,1.66,0,0,1,1.645,2.194,3,3,0,0,1-2.74,2.191Z" transform="translate(-1167.013 -603.759)" fill="#afcdfb"/>
      <path id="Caminho_5856" data-name="Caminho 5856" d="M1569.925,856.714a3,3,0,0,1,2.738-2.194h39.051a1.661,1.661,0,0,1,1.647,2.193,3,3,0,0,1-2.74,2.191H1571.57A1.657,1.657,0,0,1,1569.925,856.714Z" transform="translate(-1176.905 -626.746)" fill="#afcdfb"/>
      <path id="Caminho_5857" data-name="Caminho 5857" d="M430.341,444.094l2.727-10.928a5,5,0,0,1,4.555-3.646h313a2.759,2.759,0,0,1,2.735,3.646l-2.724,10.928a5,5,0,0,1-4.555,3.644h-313A2.761,2.761,0,0,1,430.341,444.094Z" transform="translate(-13.189 -315.025)" fill="#afcdfb"/>
      <path id="Caminho_5858" data-name="Caminho 5858" d="M434.8,429.51l-4.531,18.221H652.127a5,5,0,0,0,4.555-3.644l2.724-10.928a2.76,2.76,0,0,0-2.735-3.646Z" transform="translate(80.749 -315.018)" fill="#991aad"/>
      <path id="Caminho_5859" data-name="Caminho 5859" d="M1428.5,451.12l-.349,1.4h-3.465l1.807,5.968h-1.831l-1.773-6.146.3-1.221Z" transform="translate(-952.806 -330.868)" fill="#699dee"/>
      <path id="Caminho_5860" data-name="Caminho 5860" d="M1453.4,450.65c1.956,0,2.866,1.674,2.332,3.809a4.7,4.7,0,0,1-4.211,3.811c-1.967,0-2.868-1.674-2.335-3.811A4.71,4.71,0,0,1,1453.4,450.65Zm-1.535,6.157c.978,0,1.866-1,2.2-2.348s-.045-2.346-1.013-2.346-1.866,1.01-2.207,2.346S1450.885,456.807,1451.866,456.807Z" transform="translate(-987.157 -330.523)" fill="#699dee"/>
      <path id="Caminho_5861" data-name="Caminho 5861" d="M1496.761,466.814a2.423,2.423,0,0,1,2.25-1.884,1.368,1.368,0,0,1,1.333,1.884,2.435,2.435,0,0,1-2.25,1.884A1.373,1.373,0,0,1,1496.761,466.814Zm1.549.927c.421,0,.8-.432.925-.927s0-.925-.443-.925-.8.432-.925.925,0,.93.443.93Z" transform="translate(-1044.388 -340.997)" fill="#699dee"/>
      <path id="Caminho_5862" data-name="Caminho 5862" d="M1485.683,451.12l3.542,7.367h-1.253l-3.542-7.367Z" transform="translate(-1029.933 -330.868)" fill="#699dee"/>
      <path id="Caminho_5863" data-name="Caminho 5863" d="M1476.26,452.685a2.424,2.424,0,0,1,2.25-1.884,1.368,1.368,0,0,1,1.333,1.884,2.436,2.436,0,0,1-2.25,1.884A1.375,1.375,0,0,1,1476.26,452.685Zm2.473,0c.128-.5,0-.925-.442-.925s-.8.432-.925.925,0,.928.442.928S1478.611,453.18,1478.733,452.685Z" transform="translate(-1018.423 -330.633)" fill="#699dee"/>
      <path id="Caminho_5864" data-name="Caminho 5864" d="M517.051,771.523a3.111,3.111,0,0,1-3.092-4.118h0a5.624,5.624,0,0,1,5.144-4.115h182.51a3.108,3.108,0,0,1,3.089,4.115h0a5.623,5.623,0,0,1-5.144,4.118Z" transform="translate(13.165 -559.832)" fill="#afcdfb"/>
      <path id="Caminho_5865" data-name="Caminho 5865" d="M529.833,822.8a3.108,3.108,0,0,1-3.089-4.115,5.623,5.623,0,0,1,5.141-4.118H714.4a3.113,3.113,0,0,1,3.092,4.118,5.622,5.622,0,0,1-5.144,4.115Z" transform="translate(-3.026 -597.444)" fill="#afcdfb"/>
      <path id="Caminho_5866" data-name="Caminho 5866" d="M540.059,872.248a5.627,5.627,0,0,1,5.144-4.118H727.724a3.11,3.11,0,0,1,3.089,4.118,5.632,5.632,0,0,1-5.155,4.11H543.151A3.107,3.107,0,0,1,540.059,872.248Z" transform="translate(-19.903 -636.728)" fill="#afcdfb"/>
      <path id="Caminho_5867" data-name="Caminho 5867" d="M836.987,587.987a7.066,7.066,0,0,1-6.464,5.176H810.165c-2.857,0-4.6-2.316-3.884-5.176l9.841-39.464a7.066,7.066,0,0,1,6.464-5.174h20.356c2.86,0,4.6,2.316,3.886,5.174Z" transform="translate(-206.899 -398.515)" fill="#afcdfb"/>
      <path id="Caminho_5868" data-name="Caminho 5868" d="M969.177,587.987a7.066,7.066,0,0,1-6.464,5.176H942.357c-2.86,0-4.6-2.316-3.886-5.176l9.841-39.464a7.066,7.066,0,0,1,6.464-5.174h20.358c2.857,0,4.6,2.316,3.883,5.174Z" transform="translate(-374.323 -398.515)" fill="#afcdfb"/>
      <path id="Caminho_5869" data-name="Caminho 5869" d="M1098.9,587.987a7.071,7.071,0,0,1-6.466,5.176h-20.355c-2.857,0-4.6-2.316-3.886-5.176l9.841-39.464a7.067,7.067,0,0,1,6.466-5.174h20.356c2.857,0,4.6,2.316,3.883,5.174Z" transform="translate(-538.615 -398.515)" fill="#afcdfb"/>
      <path id="Caminho_5870" data-name="Caminho 5870" d="M462.992,584.49l8.095-32.467a11.837,11.837,0,0,1,10.837-8.673h68.916c4.8,0,7.706,3.881,6.511,8.673l-8.095,32.467a11.843,11.843,0,0,1-10.837,8.673H469.5C464.712,593.164,461.8,589.28,462.992,584.49Z" transform="translate(173.996 -398.515)" fill="#afcdfb"/>
      <path id="Caminho_5871" data-name="Caminho 5871" d="M493.929,579.2a1.5,1.5,0,0,1-1.482-1.975h0a2.705,2.705,0,0,1,2.465-1.975h64.4a1.5,1.5,0,0,1,1.482,1.975h0a2.711,2.711,0,0,1-2.468,1.975Z" transform="translate(162.861 -421.912)" fill="#699dee"/>
      <path id="Caminho_5872" data-name="Caminho 5872" d="M501.034,607.69a1.5,1.5,0,0,1-1.482-1.975h0a2.71,2.71,0,0,1,2.468-1.975h64.393a1.5,1.5,0,0,1,1.482,1.975h0a2.7,2.7,0,0,1-2.466,1.975Z" transform="translate(153.861 -442.809)" fill="#699dee"/>
      <path id="Caminho_5873" data-name="Caminho 5873" d="M506.653,634.205a2.708,2.708,0,0,1,2.466-1.975h64.4A1.5,1.5,0,0,1,575,634.205a2.705,2.705,0,0,1-2.466,1.975h-64.4A1.5,1.5,0,0,1,506.653,634.205Z" transform="translate(144.867 -463.705)" fill="#699dee"/>
      <path id="Caminho_5874" data-name="Caminho 5874" d="M517.062,664.14h15.193a1.5,1.5,0,0,1,1.482,1.975,2.706,2.706,0,0,1-2.46,1.986H516.084a1.5,1.5,0,0,1-1.482-1.975,2.711,2.711,0,0,1,2.46-1.986Z" transform="translate(184.008 -487.11)" fill="#699dee"/>
      <path id="Caminho_5875" data-name="Caminho 5875" d="M1639.063,963.52l4.246-17.04a6.214,6.214,0,0,1,5.683-4.55h36.151a3.436,3.436,0,0,1,3.414,4.55l-4.246,17.029a6.214,6.214,0,0,1-5.683,4.55h-36.151A3.426,3.426,0,0,1,1639.063,963.52Z" transform="translate(-1270.583 -690.858)" fill="#afcdfb"/>
      <path id="Caminho_5876" data-name="Caminho 5876" d="M1655.256,960.772a.8.8,0,0,1-.779-1.037,1.421,1.421,0,0,1,1.293-1.037h33.779a.784.784,0,0,1,.776,1.037,1.418,1.418,0,0,1-1.293,1.037Z" transform="translate(-1276.389 -703.156)" fill="#699dee"/>
      <path id="Caminho_5877" data-name="Caminho 5877" d="M1658.979,975.719a.8.8,0,0,1-.778-1.037,1.423,1.423,0,0,1,1.3-1.034h33.776a.784.784,0,0,1,.778,1.034,1.421,1.421,0,0,1-1.3,1.037Z" transform="translate(-1281.106 -714.121)" fill="#699dee"/>
      <path id="Caminho_5878" data-name="Caminho 5878" d="M1661.973,989.625a1.421,1.421,0,0,1,1.293-1.037h33.768a.784.784,0,0,1,.775,1.037,1.418,1.418,0,0,1-1.293,1.034h-33.779a.784.784,0,0,1-.765-1.034Z" transform="translate(-1285.87 -725.079)" fill="#699dee"/>
      <path id="Caminho_5879" data-name="Caminho 5879" d="M1667.407,1005.33h7.967a.8.8,0,0,1,.778,1.037h0a1.42,1.42,0,0,1-1.293,1.034h-7.986a.784.784,0,0,1-.778-1.034A1.421,1.421,0,0,1,1667.407,1005.33Z" transform="translate(-1265.307 -737.359)" fill="#699dee"/>
      <path id="Caminho_5880" data-name="Caminho 5880" d="M620.164,967.628A1.174,1.174,0,0,1,619,966.074h0a2.132,2.132,0,0,1,1.94-1.554h68.842a1.174,1.174,0,0,1,1.165,1.554h0a2.132,2.132,0,0,1-1.94,1.554Z" transform="translate(-1.017 -707.427)" fill="#991aad"/>
      <path id="Caminho_5881" data-name="Caminho 5881" d="M624.985,986.975a1.172,1.172,0,0,1-1.165-1.554h0a2.132,2.132,0,0,1,1.94-1.551H694.6a1.174,1.174,0,0,1,1.167,1.551h0a2.132,2.132,0,0,1-1.94,1.554Z" transform="translate(-7.123 -721.619)" fill="#991aad"/>
      <path id="Caminho_5882" data-name="Caminho 5882" d="M630.8,1004.07h68.842a1.174,1.174,0,0,1,1.165,1.554,2.132,2.132,0,0,1-1.94,1.551H630.024a1.173,1.173,0,0,1-1.165-1.551A2.132,2.132,0,0,1,630.8,1004.07Z" transform="translate(-13.505 -736.435)" fill="#991aad"/>
      <path id="Caminho_5883" data-name="Caminho 5883" d="M953.482,967.628a1.175,1.175,0,0,1-1.167-1.554h0a2.132,2.132,0,0,1,1.94-1.554H1023.1a1.172,1.172,0,0,1,1.165,1.554h0a2.132,2.132,0,0,1-1.941,1.554Z" transform="translate(-423.176 -707.427)" fill="#991aad"/>
      <path id="Caminho_5884" data-name="Caminho 5884" d="M958.3,986.975a1.174,1.174,0,0,1-1.165-1.554h0a2.132,2.132,0,0,1,1.94-1.551h68.842a1.173,1.173,0,0,1,1.165,1.551h0a2.132,2.132,0,0,1-1.94,1.554Z" transform="translate(-429.285 -721.619)" fill="#991aad"/>
      <path id="Caminho_5885" data-name="Caminho 5885" d="M964.1,1004.07h68.853a1.172,1.172,0,0,1,1.165,1.554,2.133,2.133,0,0,1-1.94,1.551H963.343a1.174,1.174,0,0,1-1.168-1.551A2.132,2.132,0,0,1,964.1,1004.07Z" transform="translate(-435.664 -736.435)" fill="#991aad"/>
      <path id="Caminho_5886" data-name="Caminho 5886" d="M1276.542,967.628a1.175,1.175,0,0,1-1.167-1.554h0a2.132,2.132,0,0,1,1.94-1.554h68.842a1.172,1.172,0,0,1,1.165,1.554h0a2.132,2.132,0,0,1-1.94,1.554Z" transform="translate(-832.344 -707.427)" fill="#991aad"/>
      <path id="Caminho_5887" data-name="Caminho 5887" d="M1281.364,986.975a1.174,1.174,0,0,1-1.165-1.554h0a2.132,2.132,0,0,1,1.94-1.551h68.842a1.173,1.173,0,0,1,1.165,1.551h0a2.132,2.132,0,0,1-1.94,1.554Z" transform="translate(-838.453 -721.619)" fill="#991aad"/>
      <path id="Caminho_5888" data-name="Caminho 5888" d="M1285.235,1005.624a2.133,2.133,0,0,1,1.941-1.554h68.842a1.173,1.173,0,0,1,1.165,1.554,2.132,2.132,0,0,1-1.94,1.551H1286.4A1.174,1.174,0,0,1,1285.235,1005.624Z" transform="translate(-844.832 -736.435)" fill="#991aad"/>
      <path id="Caminho_5889" data-name="Caminho 5889" d="M572.564,965.966H838.037a5.8,5.8,0,0,0,5.307-4.235l5.3-21.262a3.78,3.78,0,0,0-.6-3.281,3.563,3.563,0,0,0-2.889-1.333H579.683a5.8,5.8,0,0,0-5.307,4.235l-5.3,21.262a3.79,3.79,0,0,0,.6,3.281,3.564,3.564,0,0,0,2.889,1.333Zm272.6-28.552a2.044,2.044,0,0,1,1.663.73,2.234,2.234,0,0,1,.317,1.948l-5.3,21.262a4.227,4.227,0,0,1-3.8,3.054H572.569a2.047,2.047,0,0,1-1.663-.733,2.225,2.225,0,0,1-.317-1.946l5.3-21.262a4.227,4.227,0,0,1,3.8-3.055Z" transform="translate(-145.48 -686.401)" fill="#991aad"/>
      <path id="Caminho_5894" data-name="Caminho 5894" d="M242.914,1121.19l.152.117c2.29,1.751,17.858,12.37,52.831,7.668q.356,2,.669,4c.107.661.211,1.317.307,1.967s.192,1.282.283,1.919v.035c.091.64.181,1.274.267,1.909s.171,1.266.248,1.9.155,1.245.229,1.866v.029c.069.615.141,1.229.205,1.839s.131,1.226.192,1.837.123,1.213.173,1.815.109,1.2.157,1.794c.037.434.072.866.1,1.3.029.357.056.714.08,1.066.021.3.043.6.061.906,0,.16.021.317.029.474.032.506.064,1.007.091,1.511s.059,1.066.085,1.6a2.344,2.344,0,0,0,.013.307c.016.4.037.8.051,1.191,0,.315.027.624.035.936.035,1,.059,1.988.075,2.969,0,.45.016.9.019,1.333v3.2c0,.416,0,.831-.016,1.242,0,.357,0,.709-.021,1.066v.37c0,.365-.021.731-.035,1.093s-.027.776-.04,1.162-.037.832-.059,1.242c-.021.482-.045.959-.075,1.436v.131c-.027.472-.056.935-.088,1.4s-.067.976-.107,1.455-.077.962-.12,1.437-.083.949-.131,1.418-.091.89-.139,1.333l-.016.16c-.048.432-.1.858-.147,1.285s-.109.9-.168,1.333v.037c-.059.44-.115.882-.179,1.333s-.123.877-.192,1.314v.035l-.2,1.269a.07.07,0,0,0,0,.021c-.069.429-.141.853-.216,1.277s-.149.85-.227,1.271q-.139.776-.288,1.538c-.067.317-.128.634-.192.949-.083.394-.165.8-.248,1.173a.778.778,0,0,1-.035.152c-.077.365-.16.733-.242,1.09-.088.4-.179.8-.267,1.183-.192.8-.389,1.6-.594,2.38-.093.357-.189.709-.288,1.066s-.2.73-.306,1.093c-.072.266-.149.533-.229.8s-.152.533-.232.784c-.061.205-.125.408-.189.613-.109.357-.221.712-.33,1.066q-.344,1.05-.7,2.076c-.115.341-.235.677-.354,1.013s-.243.669-.363,1q-.5,1.352-1.029,2.647c-.1.266-.211.514-.317.77q-.229.552-.464,1.1c-.122.283-.245.565-.373.845q-1.013,2.279-2.084,4.366c-.141.266-.28.533-.424.8q-.5.957-1.021,1.865c-.117.216-.243.429-.365.642s-.227.4-.341.592l-.4.674c-.307.512-.613,1.013-.925,1.5-.1.171-.213.341-.32.507q-.5.8-1.016,1.541c-.12.181-.24.36-.362.533q-1.2,1.743-2.4,3.284l-.442.568q-1.154,1.461-2.287,2.748c-.24.266-.48.533-.717.8a.722.722,0,0,0-.061.067c-.144.155-.285.312-.429.464-.85.922-1.687,1.767-2.492,2.543l-.4.381c-.267.266-.533.493-.8.728s-.49.443-.725.653a.388.388,0,0,0-.037.032c-.237.205-.469.408-.7.6q-.586.5-1.141.944l-.307.242c-.669.533-1.293,1-1.866,1.407l-.5.354c-.48.33-.914.616-1.3.855-.115.077-.224.144-.331.208-.235.144-.443.266-.624.379l-.12.066-.117.069c-.421.243-.653.354-.653.354q-3.35-1.093-6.493-2.4a84.567,84.567,0,0,1-31.966-23.682c-.024-.03-.045-.053-.064-.08-17.821-21.006-25.484-48.19-28.754-66.19-.36-1.994-.672-3.873-.933-5.621C231.293,1138.933,241.814,1123.005,242.914,1121.19Z" transform="translate(503.401 -822.338)" fill="#588fe0"/>
      <path id="Caminho_5895" data-name="Caminho 5895" d="M212.018,1170.3c2.983,16.408,9.969,41.191,26.217,60.342a.762.762,0,0,0,.056.072,77.066,77.066,0,0,0,29.143,21.59q2.865,1.2,5.92,2.2s.211-.1.594-.323l.107-.064c.035-.019.072-.037.109-.061.165-.1.354-.213.568-.344.1-.058.2-.12.3-.189.346-.219.744-.48,1.181-.781l.458-.328q.784-.56,1.7-1.282l.28-.224c.336-.266.682-.557,1.042-.858l.632-.549.035-.027c.216-.192.437-.389.661-.594s.477-.434.717-.666c.123-.112.245-.229.365-.346.736-.706,1.5-1.477,2.274-2.319.131-.136.267-.267.392-.421a.588.588,0,0,1,.053-.061q.328-.356.656-.733c.685-.781,1.381-1.618,2.084-2.5l.405-.517c.728-.941,1.453-1.935,2.183-3l.331-.488c.309-.458.618-.925.925-1.4.1-.152.195-.3.291-.461.285-.448.562-.9.845-1.37l.36-.616.312-.533c.112-.195.224-.389.333-.586q.472-.84.93-1.711c.131-.245.267-.49.387-.741.65-1.266,1.285-2.6,1.9-3.979.115-.267.227-.515.339-.773.144-.328.285-.661.424-1,.1-.235.195-.467.288-.7.323-.8.634-1.6.938-2.415.112-.3.221-.6.331-.909s.219-.613.325-.922q.325-.93.634-1.892c.1-.32.2-.642.3-.968.059-.187.117-.373.173-.56.075-.237.147-.475.213-.714s.141-.483.208-.725c.1-.33.189-.661.28-1s.176-.64.267-.968q.284-1.068.533-2.17c.088-.357.173-.717.267-1.066s.149-.661.219-.994l.032-.139c.077-.352.152-.709.227-1.066.059-.288.115-.576.173-.866.091-.464.179-.928.267-1.4q.109-.576.208-1.16c.067-.386.133-.773.195-1.165a.05.05,0,0,1,0-.019c.059-.386.12-.771.181-1.157a.142.142,0,0,1,0-.035c.061-.4.12-.8.173-1.2s.109-.8.165-1.2a.109.109,0,0,1,0-.032c.053-.411.1-.818.152-1.229s.091-.778.136-1.173a.526.526,0,0,1,.013-.144c.045-.405.088-.8.128-1.218s.083-.858.117-1.292.075-.869.109-1.309.067-.88.1-1.333.056-.845.08-1.274v-.12c.027-.434.048-.872.067-1.311.019-.373.037-.752.053-1.133s.027-.7.037-1.066.021-.664.029-1v-.336c0-.32.016-.642.019-.965,0-.376.013-.754.013-1.133v-2.921c0-.405,0-.8-.019-1.224-.016-.893-.037-1.791-.069-2.705,0-.285-.019-.568-.029-.853-.013-.36-.032-.72-.048-1.085v-.267c-.024-.488-.051-.978-.077-1.466s-.053-.917-.083-1.378c0-.144-.019-.288-.029-.432-.016-.267-.035-.552-.056-.826-.019-.323-.043-.648-.069-.973l-.1-1.183q-.069-.815-.144-1.636c-.048-.549-.1-1.1-.157-1.653s-.112-1.114-.176-1.674-.125-1.117-.187-1.679v-.027c-.067-.565-.133-1.13-.208-1.7s-.147-1.151-.227-1.73-.157-1.157-.24-1.741V1156c-.083-.581-.171-1.162-.267-1.749s-.184-1.192-.28-1.791q-.283-1.8-.61-3.641c-31.883,4.288-46.074-5.392-48.164-6.991-.053-.04-.1-.077-.139-.1-1,1.661-10.595,16.176-42.646,23.455C211.4,1166.767,211.69,1168.481,212.018,1170.3Z" transform="translate(493.49 -837.396)" fill="#991aad"/>
      <path id="Caminho_5896" data-name="Caminho 5896" d="M211.16,1141.24l20.276,112.586c.211-.12.474-.267.784-.469.1-.059.2-.12.3-.189.346-.219.744-.48,1.181-.781l.458-.33q.784-.56,1.7-1.282l.28-.224c.336-.267.682-.557,1.042-.858l.632-.549.035-.027c.216-.192.437-.389.661-.594s.477-.434.717-.666c.123-.112.245-.229.365-.347.736-.706,1.5-1.477,2.274-2.319.131-.136.267-.267.392-.421a.579.579,0,0,1,.053-.061c.219-.237.437-.483.656-.733.685-.781,1.381-1.618,2.084-2.5l.405-.517c.728-.941,1.453-1.935,2.183-3l.33-.488c.309-.458.618-.925.925-1.4.1-.152.195-.3.291-.461.285-.448.562-.9.845-1.37l.36-.616.312-.533c.112-.195.224-.389.333-.586q.472-.84.93-1.711c.131-.245.267-.49.386-.741.65-1.266,1.285-2.6,1.9-3.979.115-.266.227-.514.339-.773q.216-.492.424-1c.1-.235.195-.466.288-.7.323-.8.634-1.6.938-2.415.112-.3.221-.6.331-.909s.219-.613.325-.922q.325-.93.634-1.893c.1-.32.2-.642.3-.968.059-.186.117-.373.173-.56.075-.237.147-.474.213-.714s.141-.483.208-.725c.1-.33.189-.661.28-1s.176-.64.267-.967q.284-1.067.533-2.17c.088-.357.173-.717.267-1.066s.149-.661.219-.994l.032-.139c.077-.352.152-.709.227-1.066.059-.288.115-.576.173-.866.091-.464.179-.927.267-1.4q.109-.576.208-1.159c.067-.387.133-.773.195-1.165a.052.052,0,0,1,0-.019c.059-.386.12-.77.181-1.157a.14.14,0,0,1,0-.035c.061-.4.12-.8.173-1.2s.109-.8.165-1.2a.109.109,0,0,1,0-.032c.053-.41.1-.818.152-1.229s.091-.778.136-1.173a.528.528,0,0,1,.013-.144c.045-.405.088-.8.128-1.218s.083-.858.117-1.293.075-.869.109-1.309.067-.88.1-1.333.056-.845.08-1.274v-.12c.027-.435.048-.871.067-1.311.019-.373.037-.752.053-1.133s.027-.7.037-1.066.021-.664.029-1v-.336c0-.32.016-.642.019-.965,0-.376.013-.754.013-1.133v-2.921c0-.405,0-.8-.019-1.223-.016-.893-.037-1.791-.069-2.705,0-.285-.019-.568-.029-.853-.013-.36-.032-.72-.048-1.085v-.267c-.024-.488-.051-.978-.077-1.466s-.053-.917-.083-1.378c0-.144-.019-.288-.029-.432-.016-.267-.035-.552-.056-.826-.019-.322-.043-.648-.069-.973l-.1-1.183q-.069-.816-.144-1.637c-.048-.549-.1-1.1-.157-1.652s-.112-1.114-.176-1.674-.125-1.117-.187-1.679v-.027c-.067-.565-.133-1.13-.208-1.7s-.147-1.151-.227-1.73-.157-1.157-.24-1.74v-.032c-.083-.581-.171-1.162-.267-1.749s-.184-1.191-.28-1.791q-.283-1.8-.61-3.641C224.905,1153.117,211.16,1141.24,211.16,1141.24Z" transform="translate(536.003 -837.044)" fill="#851a96"/>
    </g>
  </g>
</svg>
